<?xml version="1.0" encoding="UTF-8" standalone="no"?>
<!-- Created with Inkscape (http://www.inkscape.org/) -->

<svg
   xmlns:dc="http://purl.org/dc/elements/1.1/"
   xmlns:cc="http://creativecommons.org/ns#"
   xmlns:rdf="http://www.w3.org/1999/02/22-rdf-syntax-ns#"
   xmlns:svg="http://www.w3.org/2000/svg"
   xmlns="http://www.w3.org/2000/svg"
   xmlns:sodipodi="http://sodipodi.sourceforge.net/DTD/sodipodi-0.dtd"
   xmlns:inkscape="http://www.inkscape.org/namespaces/inkscape"
   width="48.420048mm"
   height="62.702221mm"
   viewBox="0 0 171.5671 222.17323"
   id="svg2"
   version="1.1"
   inkscape:version="0.91 r13725"
   sodipodi:docname="graph.svg">
  <defs
     id="defs4">
    <marker
       inkscape:stockid="Arrow1Mstart"
       orient="auto"
       refY="0"
       refX="0"
       id="Arrow1Mstart"
       style="overflow:visible"
       inkscape:isstock="true">
      <path
         id="path4260"
         d="M 0,0 5,-5 -12.5,0 5,5 0,0 Z"
         style="fill-rule:evenodd;stroke:#000000;stroke-width:1pt"
         transform="matrix(0.4,0,0,0.4,4,0)"
         inkscape:connector-curvature="0" />
    </marker>
    <marker
       inkscape:stockid="Arrow1Lend"
       orient="auto"
       refY="0"
       refX="0"
       id="Arrow1Lend"
       style="overflow:visible"
       inkscape:isstock="true">
      <path
         id="path4257"
         d="M 0,0 5,-5 -12.5,0 5,5 0,0 Z"
         style="fill:#000000;fill-opacity:1;fill-rule:evenodd;stroke:#000000;stroke-width:1pt;stroke-opacity:1"
         transform="matrix(-0.8,0,0,-0.8,-10,0)"
         inkscape:connector-curvature="0" />
    </marker>
  </defs>
  <sodipodi:namedview
     id="base"
     pagecolor="#ffffff"
     bordercolor="#666666"
     borderopacity="1.0"
     inkscape:pageopacity="0.0"
     inkscape:pageshadow="2"
     inkscape:zoom="5.6"
     inkscape:cx="34.511196"
     inkscape:cy="130.93932"
     inkscape:document-units="px"
     inkscape:current-layer="layer1"
     showgrid="true"
     inkscape:snap-bbox="true"
     inkscape:snap-bbox-midpoints="true"
     inkscape:window-width="1920"
     inkscape:window-height="1149"
     inkscape:window-x="1920"
     inkscape:window-y="27"
     inkscape:window-maximized="1"
     inkscape:bbox-nodes="true"
     inkscape:object-nodes="true"
     fit-margin-top="2"
     fit-margin-left="5"
     fit-margin-right="5"
     fit-margin-bottom="2"
     inkscape:snap-smooth-nodes="true"
     inkscape:object-paths="true">
    <inkscape:grid
       type="xygrid"
       id="grid4136"
       originx="-9.8723286"
       originy="-785.41346" />
  </sodipodi:namedview>
  <metadata
     id="metadata7">
    <rdf:RDF>
      <cc:Work
         rdf:about="">
        <dc:format>image/svg+xml</dc:format>
        <dc:type
           rdf:resource="http://purl.org/dc/dcmitype/StillImage" />
        <dc:title />
      </cc:Work>
    </rdf:RDF>
  </metadata>
  <g
     inkscape:label="Ebene 1"
     inkscape:groupmode="layer"
     id="layer1"
     transform="translate(-9.8723286,-44.775603)">
    <path
       style="fill:none;fill-rule:evenodd;stroke:#b45865;stroke-width:1px;stroke-linecap:butt;stroke-linejoin:miter;stroke-opacity:1"
       d="M 50,57.362219 C 20.000002,72.362223 20.000002,207.36223 55,222.36222"
       id="path4273"
       inkscape:connector-curvature="0"
       sodipodi:nodetypes="cc" />
    <path
       style="fill:none;fill-rule:evenodd;stroke:#809fb1;stroke-width:1px;stroke-linecap:butt;stroke-linejoin:miter;stroke-opacity:1"
       d="m 55,127.36222 c 13.440696,-4.35455 21.840035,0.11327 30,5 17.4239,2.72783 32.95265,8.53529 45.00001,20"
       id="path4271"
       inkscape:connector-curvature="0"
       sodipodi:nodetypes="ccc" />
    <g
       id="g4222"
       style="fill:#b45865;fill-opacity:1">
      <path
         style="opacity:1;fill:#b45865;fill-opacity:1;stroke:none;stroke-width:3;stroke-linejoin:round;stroke-miterlimit:4;stroke-dasharray:none;stroke-dashoffset:0;stroke-opacity:1"
         id="path4238"
         sodipodi:type="arc"
         sodipodi:cx="55"
         sodipodi:cy="222.3622"
         sodipodi:rx="5.5"
         sodipodi:ry="5.4999995"
         sodipodi:start="3.1469857"
         sodipodi:end="3.1465145"
         sodipodi:open="true"
         d="m 49.50008,222.33254 a 5.5,5.4999995 0 0 1 5.528934,-5.47027 5.5,5.4999995 0 0 1 5.470913,5.52829 5.5,5.4999995 0 0 1 -5.527645,5.47157 5.5,5.4999995 0 0 1 -5.472215,-5.527" />
      <path
         d="m 44.50008,57.332548 a 5.5,5.4999995 0 0 1 5.528934,-5.470262 5.5,5.4999995 0 0 1 5.470913,5.528289 5.5,5.4999995 0 0 1 -5.527645,5.471564 5.5,5.4999995 0 0 1 -5.472215,-5.527"
         sodipodi:open="true"
         sodipodi:end="3.1465145"
         sodipodi:start="3.1469857"
         sodipodi:ry="5.4999995"
         sodipodi:rx="5.5"
         sodipodi:cy="57.362209"
         sodipodi:cx="50"
         sodipodi:type="arc"
         id="path4208"
         style="opacity:1;fill:#b45865;fill-opacity:1;stroke:none;stroke-width:3;stroke-linejoin:round;stroke-miterlimit:4;stroke-dasharray:none;stroke-dashoffset:0;stroke-opacity:1" />
    </g>
    <g
       id="g4214"
       style="fill:#809fb1;fill-opacity:1">
      <path
         style="opacity:1;fill:#809fb1;fill-opacity:1;stroke:none;stroke-width:3;stroke-linejoin:round;stroke-miterlimit:4;stroke-dasharray:none;stroke-dashoffset:0;stroke-opacity:1"
         id="path4210"
         sodipodi:type="arc"
         sodipodi:cx="85"
         sodipodi:cy="132.36221"
         sodipodi:rx="4"
         sodipodi:ry="4"
         sodipodi:start="3.1469857"
         sodipodi:end="3.1465145"
         sodipodi:open="true"
         d="m 81.000058,132.34064 a 4,4 0 0 1 4.021043,-3.97837 4,4 0 0 1 3.978846,4.02057 4,4 0 0 1 -4.020106,3.97932 4,4 0 0 1 -3.979793,-4.01963" />
      <path
         d="m 126.00006,152.34064 a 4,4 0 0 1 4.02104,-3.97837 4,4 0 0 1 3.97885,4.02057 4,4 0 0 1 -4.02011,3.97932 4,4 0 0 1 -3.97979,-4.01963"
         sodipodi:open="true"
         sodipodi:end="3.1465145"
         sodipodi:start="3.1469857"
         sodipodi:ry="4"
         sodipodi:rx="4"
         sodipodi:cy="152.36221"
         sodipodi:cx="130"
         sodipodi:type="arc"
         id="path4212"
         style="opacity:1;fill:#809fb1;fill-opacity:1;stroke:none;stroke-width:3;stroke-linejoin:round;stroke-miterlimit:4;stroke-dasharray:none;stroke-dashoffset:0;stroke-opacity:1" />
      <path
         style="opacity:1;fill:#809fb1;fill-opacity:1;stroke:none;stroke-width:3;stroke-linejoin:round;stroke-miterlimit:4;stroke-dasharray:none;stroke-dashoffset:0;stroke-opacity:1"
         id="path4214"
         sodipodi:type="arc"
         sodipodi:cx="55"
         sodipodi:cy="127.36221"
         sodipodi:rx="4"
         sodipodi:ry="4"
         sodipodi:start="3.1469857"
         sodipodi:end="3.1465145"
         sodipodi:open="true"
         d="m 51.000058,127.34064 a 4,4 0 0 1 4.021043,-3.97837 4,4 0 0 1 3.978846,4.02057 4,4 0 0 1 -4.020106,3.97932 4,4 0 0 1 -3.979793,-4.01963" />
      <path
         d="m 46.000058,57.340637 a 4,4 0 0 1 4.021043,-3.978372 4,4 0 0 1 3.978846,4.020574 4,4 0 0 1 -4.020106,3.97932 4,4 0 0 1 -3.979793,-4.019637"
         sodipodi:open="true"
         sodipodi:end="3.1465145"
         sodipodi:start="3.1469857"
         sodipodi:ry="4"
         sodipodi:rx="4"
         sodipodi:cy="57.362209"
         sodipodi:cx="50"
         sodipodi:type="arc"
         id="path4206"
         style="opacity:1;fill:#809fb1;fill-opacity:1;stroke:none;stroke-width:3;stroke-linejoin:round;stroke-miterlimit:4;stroke-dasharray:none;stroke-dashoffset:0;stroke-opacity:1" />
      <path
         d="m 51.000058,222.34063 a 4,4 0 0 1 4.021043,-3.97838 4,4 0 0 1 3.978846,4.02058 4,4 0 0 1 -4.020106,3.97932 4,4 0 0 1 -3.979793,-4.01964"
         sodipodi:open="true"
         sodipodi:end="3.1465145"
         sodipodi:start="3.1469857"
         sodipodi:ry="4"
         sodipodi:rx="4"
         sodipodi:cy="222.3622"
         sodipodi:cx="55"
         sodipodi:type="arc"
         id="path4236"
         style="opacity:1;fill:#809fb1;fill-opacity:1;stroke:none;stroke-width:3;stroke-linejoin:round;stroke-miterlimit:4;stroke-dasharray:none;stroke-dashoffset:0;stroke-opacity:1" />
      <path
         style="opacity:1;fill:#809fb1;fill-opacity:1;stroke:none;stroke-width:3;stroke-linejoin:round;stroke-miterlimit:4;stroke-dasharray:none;stroke-dashoffset:0;stroke-opacity:1"
         id="path4234"
         sodipodi:type="arc"
         sodipodi:cx="60"
         sodipodi:cy="182.36221"
         sodipodi:rx="4"
         sodipodi:ry="4"
         sodipodi:start="3.1469857"
         sodipodi:end="3.1465145"
         sodipodi:open="true"
         d="m 56.000058,182.34064 a 4,4 0 0 1 4.021043,-3.97837 4,4 0 0 1 3.978846,4.02057 4,4 0 0 1 -4.020106,3.97932 4,4 0 0 1 -3.979793,-4.01963" />
    </g>
    <path
       style="fill:none;fill-opacity:1;fill-rule:evenodd;stroke:#809fb1;stroke-width:1px;stroke-linecap:butt;stroke-linejoin:miter;stroke-opacity:1"
       d="m 50,57.362219 c 5.338321,22.966168 5,45.000001 5,70.000001 7.217057,13.89302 11.16804,30.3989 5,55 2.61413,13.33333 0.460993,26.66667 -5,40"
       id="path4249"
       inkscape:connector-curvature="0"
       sodipodi:nodetypes="cccc"
       transform="translate(5.2450989e-6,8.3691999e-6)" />
    <path
       style="fill:none;fill-rule:evenodd;stroke:#bddd1f;stroke-width:1px;stroke-linecap:butt;stroke-linejoin:miter;stroke-opacity:1"
       d="m 55,127.36221 0,20 -10,20 15,15.00001 -10,19.99999 5,20 10,20.00001 -20,15"
       id="path4188"
       inkscape:connector-curvature="0"
       sodipodi:nodetypes="cccccccc" />
    <path
       style="fill:none;fill-rule:evenodd;stroke:#bddd1f;stroke-width:1px;stroke-linecap:butt;stroke-linejoin:miter;stroke-opacity:1"
       d="m 55,127.36221 30,5 20,15 25,5 25,15"
       id="path4202"
       inkscape:connector-curvature="0"
       sodipodi:nodetypes="ccccc" />
    <path
       style="fill:none;fill-rule:evenodd;stroke:#bddd1f;stroke-width:1px;stroke-linecap:butt;stroke-linejoin:miter;stroke-opacity:1"
       d="m 130,217.36222 5,-25 -15,-20 10,-20.00001 5.00002,40.00002"
       id="path4204"
       inkscape:connector-curvature="0"
       sodipodi:nodetypes="cccc" />
    <g
       style="font-style:normal;font-variant:normal;font-weight:normal;font-stretch:normal;font-size:7.95712519px;line-height:100%;font-family:'Liberation Sans';-inkscape-font-specification:'Liberation Sans, Normal';text-align:start;writing-mode:lr-tb;text-anchor:start"
       id="text4240">
      <path
         d="m 89.066716,219.31952 q 0,0.47789 -0.07771,0.88197 -0.07771,0.40407 -0.260317,0.69547 -0.178724,0.2914 -0.477893,0.45847 -0.295284,0.16318 -0.73044,0.16318 -0.450696,0 -0.788718,-0.17095 -0.338023,-0.17096 -0.516747,-0.55949 l -0.01943,0 q 0.0039,0.008 0.0039,0.0699 0.0039,0.0622 0.0039,0.15541 0.0039,0.0933 0.0039,0.20981 0.0039,0.11267 0.0039,0.22534 l 0,1.64349 -0.699356,0 0,-4.99651 q 0,-0.15153 -0.0039,-0.2914 0,-0.13987 -0.0039,-0.25255 -0.0039,-0.11656 -0.0078,-0.19815 -0.0039,-0.0816 -0.0078,-0.11656 l 0.676045,0 q 0.0039,0.0117 0.0078,0.0816 0.0078,0.0699 0.01166,0.17096 0.0078,0.0971 0.01166,0.2098 0.0078,0.11268 0.0078,0.2137 l 0.01554,0 q 0.09713,-0.20204 0.221463,-0.34191 0.12433,-0.14376 0.283628,-0.23312 0.159298,-0.0932 0.353564,-0.1321 0.198151,-0.0427 0.442925,-0.0427 0.435156,0 0.73044,0.15541 0.299169,0.15542 0.477893,0.43904 0.18261,0.27975 0.260317,0.67993 0.07771,0.39631 0.07771,0.88197 z m -0.734325,0.0155 q 0,-0.38853 -0.04662,-0.69158 -0.04662,-0.30306 -0.163184,-0.51287 -0.112674,-0.2098 -0.303054,-0.31859 -0.190381,-0.10879 -0.477894,-0.10879 -0.233119,0 -0.439041,0.0661 -0.205921,0.066 -0.361334,0.25255 -0.151527,0.18649 -0.240889,0.51674 -0.08936,0.32637 -0.08936,0.85089 0,0.44681 0.07382,0.75763 0.07382,0.30694 0.213693,0.49732 0.143756,0.19038 0.353563,0.27586 0.209807,0.0816 0.481779,0.0816 0.291399,0 0.481779,-0.11267 0.194266,-0.11268 0.30694,-0.32637 0.11656,-0.21369 0.163184,-0.52063 0.04662,-0.31083 0.04662,-0.70713 z"
         style=""
         id="path4323" />
      <path
         d="m 89.956453,221.4409 0,-3.22481 q 0,-0.1321 -0.0039,-0.26809 0,-0.13987 -0.0039,-0.26808 -0.0039,-0.12822 -0.0078,-0.24089 -0.0039,-0.11268 -0.0078,-0.20204 l 0.660504,0 q 0.0039,0.0894 0.0078,0.20592 0.0078,0.11268 0.01166,0.23312 0.0078,0.12045 0.0078,0.23312 0.0039,0.10879 0.0039,0.1865 l 0.01554,0 q 0.07382,-0.24089 0.155412,-0.41573 0.08548,-0.17873 0.198151,-0.2914 0.112674,-0.11656 0.268087,-0.17095 0.155413,-0.0583 0.376876,-0.0583 0.08548,0 0.163183,0.0155 0.07771,0.0117 0.120445,0.0233 l 0,0.64108 q -0.06994,-0.0194 -0.163184,-0.0272 -0.09325,-0.0117 -0.209807,-0.0117 -0.240889,0 -0.411843,0.10879 -0.167069,0.10879 -0.275857,0.30306 -0.104904,0.19038 -0.155413,0.45846 -0.05051,0.2642 -0.05051,0.57892 l 0,2.19131 -0.699357,0 z"
         style=""
         id="path4325" />
      <path
         d="m 93.134641,219.48659 q 0,0.33025 0.06605,0.60999 0.06994,0.27586 0.209807,0.4779 0.143757,0.19815 0.36522,0.31082 0.221463,0.10879 0.532288,0.10879 0.454582,0 0.726554,-0.18261 0.275857,-0.18261 0.37299,-0.46235 l 0.61388,0.17484 q -0.06605,0.17484 -0.186495,0.35356 -0.11656,0.17484 -0.314711,0.3186 -0.198151,0.13987 -0.49732,0.23312 -0.295284,0.0894 -0.714898,0.0894 -0.932476,0 -1.422025,-0.5556 -0.485665,-0.5556 -0.485665,-1.65126 0,-0.59057 0.147642,-0.99853 0.147642,-0.41184 0.404073,-0.66827 0.256431,-0.25643 0.598339,-0.36911 0.341907,-0.11655 0.730439,-0.11655 0.528403,0 0.881966,0.17095 0.357449,0.17095 0.571142,0.47401 0.217577,0.29917 0.30694,0.70713 0.09325,0.40795 0.09325,0.88196 l 0,0.0933 -2.999463,0 z m 2.276795,-0.53617 q -0.05828,-0.66439 -0.338023,-0.96745 -0.279743,-0.30694 -0.80426,-0.30694 -0.174839,0 -0.369105,0.0583 -0.19038,0.0544 -0.353564,0.19815 -0.163183,0.14376 -0.275857,0.39242 -0.112674,0.24477 -0.128215,0.62554 l 2.269024,0 z"
         style=""
         id="path4327" />
      <path
         d="m 98.873251,221.4409 -0.827572,0 -1.526928,-4.20391 0.74598,0 0.924705,2.73526 q 0.0272,0.0855 0.06216,0.20981 0.03885,0.12045 0.07771,0.25255 0.03885,0.1321 0.06994,0.25643 0.03497,0.12044 0.05828,0.20203 0.02331,-0.0816 0.05828,-0.20203 0.03885,-0.12433 0.07771,-0.25255 0.03885,-0.12821 0.07771,-0.24866 0.04274,-0.12433 0.07382,-0.20981 l 0.955788,-2.74303 0.742096,0 -1.569669,4.20391 z"
         style=""
         id="path4329" />
      <path
         d="m 101.0024,216.34337 0,-0.66827 0.69936,0 0,0.66827 -0.69936,0 z m 0,5.09753 0,-4.20391 0.69936,0 0,4.20391 -0.69936,0 z"
         style=""
         id="path4331" />
      <path
         d="m 106.33306,219.33506 q 0,1.10343 -0.48567,1.64349 -0.48566,0.54006 -1.41037,0.54006 -0.43904,0 -0.78483,-0.1321 -0.34579,-0.1321 -0.58668,-0.40407 -0.23701,-0.27198 -0.36522,-0.67993 -0.12433,-0.41185 -0.12433,-0.96745 0,-2.17577 1.88437,-2.17577 0.48955,0 0.84312,0.13598 0.35745,0.13599 0.58279,0.40796 0.22924,0.27197 0.33803,0.67993 0.10879,0.40796 0.10879,0.9519 z m -0.73433,0 q 0,-0.48955 -0.0777,-0.80814 -0.0738,-0.3186 -0.22147,-0.50898 -0.14375,-0.19038 -0.35356,-0.2642 -0.20981,-0.0777 -0.47401,-0.0777 -0.26809,0 -0.48566,0.0816 -0.2137,0.0777 -0.36522,0.27198 -0.15153,0.19038 -0.23312,0.50897 -0.0777,0.3186 -0.0777,0.79649 0,0.48955 0.0855,0.81203 0.0855,0.3186 0.23312,0.50898 0.15152,0.19038 0.35356,0.26809 0.20592,0.0777 0.44681,0.0777 0.26809,0 0.48567,-0.0738 0.21757,-0.0777 0.3691,-0.26809 0.15153,-0.19038 0.23312,-0.51286 0.0816,-0.32248 0.0816,-0.81203 z"
         style=""
         id="path4333" />
      <path
         d="m 107.89107,217.23699 0,2.66533 q 0,0.30694 0.0427,0.51286 0.0466,0.20592 0.14764,0.33414 0.10102,0.12433 0.2642,0.17872 0.16707,0.0505 0.41184,0.0505 0.24866,0 0.44682,-0.0855 0.20203,-0.0894 0.3419,-0.25254 0.14376,-0.16707 0.22147,-0.40796 0.0777,-0.24478 0.0777,-0.55949 l 0,-2.43609 0.69936,0 0,3.3064 q 0,0.13211 0,0.27975 0.004,0.14375 0.008,0.27585 0.004,0.12822 0.008,0.22147 0.004,0.0933 0.008,0.12044 l -0.6605,0 q -0.004,-0.0194 -0.008,-0.1049 -0.004,-0.0855 -0.0117,-0.19427 -0.004,-0.11267 -0.008,-0.22534 -0.004,-0.11656 -0.004,-0.19427 l -0.0116,0 q -0.10102,0.18261 -0.22146,0.33025 -0.12045,0.14764 -0.27975,0.25255 -0.15929,0.10101 -0.36522,0.15541 -0.20592,0.0583 -0.47789,0.0583 -0.34968,0 -0.60222,-0.0855 -0.25255,-0.0855 -0.41573,-0.2642 -0.16319,-0.17872 -0.24089,-0.45847 -0.0738,-0.27974 -0.0738,-0.67216 l 0,-2.80131 0.70324,0 z"
         style=""
         id="path4335" />
      <path
         d="m 114.79139,220.27919 q 0,0.29529 -0.11656,0.52841 -0.11268,0.22923 -0.33025,0.38853 -0.21758,0.15541 -0.53618,0.24089 -0.31471,0.0816 -0.72267,0.0816 -0.36522,0 -0.6605,-0.0583 -0.2914,-0.0544 -0.51286,-0.17873 -0.22146,-0.12433 -0.37299,-0.32636 -0.14764,-0.20592 -0.21758,-0.50121 l 0.61777,-0.12044 q 0.0894,0.33802 0.3691,0.49732 0.27974,0.15541 0.77706,0.15541 0.22535,0 0.41185,-0.0311 0.19038,-0.0311 0.32636,-0.10491 0.13599,-0.0777 0.20981,-0.20203 0.0777,-0.12822 0.0777,-0.31471 0,-0.19038 -0.0894,-0.31083 -0.0894,-0.12433 -0.24866,-0.20592 -0.15929,-0.0816 -0.38853,-0.13987 -0.22535,-0.0622 -0.49732,-0.13599 -0.25254,-0.066 -0.5012,-0.14764 -0.24866,-0.0816 -0.4507,-0.21369 -0.19815,-0.13599 -0.32248,-0.33414 -0.12433,-0.19815 -0.12433,-0.49732 0,-0.57502 0.40796,-0.87419 0.41184,-0.30306 1.19667,-0.30306 0.69548,0 1.10343,0.24478 0.41185,0.24477 0.52064,0.78483 l -0.62942,0.0777 q -0.035,-0.16319 -0.12822,-0.27198 -0.0932,-0.11267 -0.22535,-0.17872 -0.1321,-0.0699 -0.29917,-0.0971 -0.16318,-0.0311 -0.34191,-0.0311 -0.474,0 -0.69935,0.14376 -0.22535,0.14376 -0.22535,0.43516 0,0.17095 0.0816,0.28362 0.0855,0.10879 0.23312,0.1865 0.15153,0.0738 0.36133,0.1321 0.20981,0.0544 0.46236,0.11656 0.16707,0.0427 0.3419,0.0933 0.17484,0.0466 0.33803,0.11656 0.16707,0.066 0.31082,0.15929 0.14764,0.0894 0.25643,0.21758 0.10879,0.12822 0.17096,0.29917 0.0661,0.17096 0.0661,0.3963 z"
         style=""
         id="path4337" />
      <path
         d="m 89.066716,227.27665 q 0,0.47789 -0.07771,0.88196 -0.07771,0.40408 -0.260317,0.69547 -0.178724,0.2914 -0.477893,0.45847 -0.295284,0.16318 -0.73044,0.16318 -0.450696,0 -0.788718,-0.17095 -0.338023,-0.17095 -0.516747,-0.55949 l -0.01943,0 q 0.0039,0.008 0.0039,0.0699 0.0039,0.0622 0.0039,0.15541 0.0039,0.0932 0.0039,0.20981 0.0039,0.11267 0.0039,0.22535 l 0,1.64349 -0.699356,0 0,-4.99652 q 0,-0.15153 -0.0039,-0.2914 0,-0.13987 -0.0039,-0.25254 -0.0039,-0.11656 -0.0078,-0.19815 -0.0039,-0.0816 -0.0078,-0.11656 l 0.676045,0 q 0.0039,0.0117 0.0078,0.0816 0.0078,0.0699 0.01166,0.17095 0.0078,0.0971 0.01166,0.20981 0.0078,0.11267 0.0078,0.21369 l 0.01554,0 q 0.09713,-0.20203 0.221463,-0.34191 0.12433,-0.14375 0.283628,-0.23311 0.159298,-0.0933 0.353564,-0.13211 0.198151,-0.0427 0.442925,-0.0427 0.435156,0 0.73044,0.15541 0.299169,0.15541 0.477893,0.43904 0.18261,0.27974 0.260317,0.67993 0.07771,0.3963 0.07771,0.88197 z m -0.734325,0.0155 q 0,-0.38853 -0.04662,-0.69159 -0.04662,-0.30305 -0.163184,-0.51286 -0.112674,-0.20981 -0.303054,-0.3186 -0.190381,-0.10879 -0.477894,-0.10879 -0.233119,0 -0.439041,0.0661 -0.205921,0.0661 -0.361334,0.25254 -0.151527,0.1865 -0.240889,0.51675 -0.08936,0.32636 -0.08936,0.85088 0,0.44681 0.07382,0.75764 0.07382,0.30694 0.213693,0.49732 0.143756,0.19038 0.353563,0.27586 0.209807,0.0816 0.481779,0.0816 0.291399,0 0.481779,-0.11268 0.194266,-0.11267 0.30694,-0.32636 0.11656,-0.2137 0.163184,-0.52064 0.04662,-0.31082 0.04662,-0.70712 z"
         style=""
         id="path4339" />
      <path
         d="m 90.624727,225.19412 0,2.66532 q 0,0.30694 0.04274,0.51286 0.04662,0.20593 0.147642,0.33414 0.101018,0.12433 0.264201,0.17873 0.167069,0.0505 0.411844,0.0505 0.24866,0 0.446811,-0.0855 0.202036,-0.0894 0.341908,-0.25255 0.143756,-0.16707 0.221463,-0.40796 0.07771,-0.24477 0.07771,-0.55948 l 0,-2.43609 0.699357,0 0,3.3064 q 0,0.1321 0,0.27974 0.0039,0.14376 0.0078,0.27586 0.0039,0.12822 0.0078,0.22146 0.0039,0.0933 0.0078,0.12045 l -0.660503,0 q -0.0039,-0.0194 -0.0078,-0.10491 -0.0039,-0.0855 -0.01166,-0.19426 -0.0039,-0.11268 -0.0078,-0.22535 -0.0039,-0.11656 -0.0039,-0.19427 l -0.01166,0 q -0.101018,0.18261 -0.221463,0.33026 -0.120444,0.14764 -0.279742,0.25254 -0.159298,0.10102 -0.36522,0.15541 -0.205922,0.0583 -0.477894,0.0583 -0.349678,0 -0.602223,-0.0855 -0.252546,-0.0855 -0.415729,-0.2642 -0.163183,-0.17873 -0.24089,-0.45847 -0.07382,-0.27974 -0.07382,-0.67216 l 0,-2.80131 0.703242,0 z"
         style=""
         id="path4341" />
      <path
         d="m 97.925234,227.27665 q 0,2.19908 -1.546355,2.19908 -0.477894,0 -0.79649,-0.17095 -0.31471,-0.17484 -0.512861,-0.55949 l -0.0078,0 q 0,0.10102 -0.0078,0.20981 -0.0039,0.10879 -0.01166,0.20204 -0.0039,0.0933 -0.01166,0.1593 -0.0039,0.066 -0.0078,0.0816 l -0.676045,0 q 0.0039,-0.035 0.0078,-0.11656 0.0039,-0.0855 0.0078,-0.20204 0.0039,-0.11656 0.0039,-0.25643 0.0039,-0.13987 0.0039,-0.2914 l 0,-4.89938 0.699357,0 0,1.64349 q 0,0.11656 -0.0039,0.22535 0,0.1049 -0.0039,0.18649 -0.0039,0.0971 -0.0078,0.18261 l 0.01554,0 q 0.194266,-0.40407 0.512861,-0.57891 0.322482,-0.17484 0.79649,-0.17484 0.79649,0 1.16948,0.53617 0.376875,0.53618 0.376875,1.62407 z m -0.734324,0.0233 q 0,-0.43516 -0.05439,-0.74598 -0.05439,-0.31083 -0.17484,-0.50898 -0.120444,-0.20204 -0.30694,-0.29528 -0.186495,-0.0932 -0.454581,-0.0932 -0.275858,0 -0.48955,0.0894 -0.209807,0.0894 -0.353564,0.28752 -0.139871,0.19815 -0.213692,0.52063 -0.07382,0.32248 -0.07382,0.78872 0,0.45069 0.07382,0.75763 0.07382,0.30694 0.213692,0.50121 0.143757,0.19038 0.353564,0.27586 0.209807,0.0816 0.481779,0.0816 0.256431,0 0.442926,-0.0894 0.186495,-0.0894 0.310825,-0.28752 0.12433,-0.19815 0.18261,-0.51286 0.06217,-0.3186 0.06217,-0.76929 z"
         style=""
         id="path4343" />
      <path
         d="m 98.799431,229.39803 0,-5.76581 0.699356,0 0,5.76581 -0.699356,0 z"
         style=""
         id="path4345" />
      <path
         d="m 100.56725,224.30049 0,-0.66827 0.69936,0 0,0.66827 -0.69936,0 z m 0,5.09754 0,-4.20391 0.69936,0 0,4.20391 -0.69936,0 z"
         style=""
         id="path4347" />
      <path
         d="m 102.87513,227.27665 q 0,0.36133 0.0505,0.66438 0.0544,0.30306 0.17873,0.52452 0.12433,0.21758 0.32637,0.33802 0.20592,0.12045 0.50509,0.12045 0.37299,0 0.62165,-0.20204 0.25254,-0.20203 0.31082,-0.62165 l 0.70713,0.0466 q -0.035,0.26031 -0.15153,0.5012 -0.11656,0.24089 -0.31859,0.4235 -0.19816,0.18261 -0.48567,0.29529 -0.28751,0.10878 -0.66439,0.10878 -0.49343,0 -0.83923,-0.16706 -0.34579,-0.16707 -0.56337,-0.45847 -0.21369,-0.29529 -0.31082,-0.69159 -0.0971,-0.40019 -0.0971,-0.86642 0,-0.4235 0.0699,-0.74598 0.0699,-0.32637 0.19427,-0.56726 0.12821,-0.24477 0.29917,-0.40796 0.17095,-0.16707 0.3691,-0.2642 0.20204,-0.10102 0.4235,-0.14376 0.22146,-0.0466 0.44681,-0.0466 0.35357,0 0.62942,0.0971 0.27586,0.0971 0.47401,0.26809 0.20204,0.16707 0.32637,0.3963 0.12433,0.22924 0.17484,0.49344 l -0.71879,0.0544 q -0.0544,-0.34968 -0.27585,-0.5556 -0.22147,-0.20592 -0.62942,-0.20592 -0.29917,0 -0.50121,0.10102 -0.19815,0.0971 -0.32248,0.29917 -0.12433,0.19815 -0.17873,0.5012 -0.0505,0.30306 -0.0505,0.71102 z"
         style=""
         id="path4349" />
      <path
         d="m 107.39375,229.47573 q -0.63331,0 -0.9519,-0.33413 -0.3186,-0.33414 -0.3186,-0.91694 0,-0.41573 0.15541,-0.67993 0.1593,-0.26808 0.41185,-0.41961 0.25643,-0.15153 0.58279,-0.20981 0.32637,-0.0583 0.66439,-0.0661 l 0.94413,-0.0155 0,-0.22923 q 0,-0.26032 -0.0544,-0.44293 -0.0544,-0.18261 -0.16707,-0.29528 -0.11267,-0.11268 -0.28363,-0.16319 -0.16707,-0.0544 -0.3963,-0.0544 -0.20204,0 -0.36522,0.0311 -0.16318,0.0272 -0.28363,0.1049 -0.12044,0.0738 -0.19426,0.20593 -0.0738,0.12821 -0.0971,0.32636 l -0.73044,-0.066 q 0.0389,-0.24866 0.14765,-0.45458 0.10879,-0.20981 0.30694,-0.36133 0.20203,-0.15153 0.5012,-0.23312 0.30306,-0.0855 0.73044,-0.0855 0.79261,0 1.19279,0.36522 0.40019,0.36133 0.40019,1.04904 l 0,1.81055 q 0,0.31083 0.0816,0.47013 0.0816,0.15541 0.31083,0.15541 0.0583,0 0.11656,-0.008 0.0583,-0.008 0.11267,-0.0194 l 0,0.43516 q -0.1321,0.0311 -0.2642,0.0466 -0.12822,0.0155 -0.27586,0.0155 -0.19815,0 -0.34191,-0.0505 -0.13987,-0.0544 -0.22923,-0.1593 -0.0894,-0.10878 -0.13599,-0.2642 -0.0466,-0.1593 -0.0583,-0.3691 l -0.0233,0 q -0.11267,0.20203 -0.24866,0.36522 -0.1321,0.16318 -0.31082,0.27974 -0.17873,0.11267 -0.40796,0.17484 -0.22535,0.0622 -0.52063,0.0622 z m 0.1593,-0.52451 q 0.33413,0 0.58279,-0.12045 0.25255,-0.12433 0.41573,-0.31471 0.16707,-0.19038 0.24866,-0.41573 0.0816,-0.22535 0.0816,-0.43127 l 0,-0.34579 -0.7654,0.0155 q -0.25643,0.004 -0.48955,0.0388 -0.22924,0.0311 -0.40408,0.12822 -0.17484,0.0971 -0.27974,0.27197 -0.10102,0.17484 -0.10102,0.45847 0,0.34191 0.18261,0.5284 0.1865,0.1865 0.52841,0.1865 z"
         style=""
         id="path4351" />
      <path
         d="m 112.36695,229.36695 q -0.1593,0.0427 -0.32637,0.066 -0.16318,0.0272 -0.38076,0.0272 -0.83923,0 -0.83923,-0.9519 l 0,-2.8052 -0.48566,0 0,-0.50897 0.51286,0 0.20592,-0.94025 0.46624,0 0,0.94025 0.77706,0 0,0.50897 -0.77706,0 0,2.65367 q 0,0.30306 0.0971,0.42739 0.10102,0.12044 0.3458,0.12044 0.10102,0 0.19426,-0.0155 0.0971,-0.0155 0.20981,-0.0388 l 0,0.51675 z"
         style=""
         id="path4353" />
      <path
         d="m 112.95363,224.30049 0,-0.66827 0.69936,0 0,0.66827 -0.69936,0 z m 0,5.09754 0,-4.20391 0.69936,0 0,4.20391 -0.69936,0 z"
         style=""
         id="path4355" />
      <path
         d="m 118.28429,227.29219 q 0,1.10343 -0.48567,1.64349 -0.48566,0.54005 -1.41037,0.54005 -0.43904,0 -0.78483,-0.1321 -0.3458,-0.1321 -0.58668,-0.40407 -0.23701,-0.27197 -0.36522,-0.67993 -0.12433,-0.41184 -0.12433,-0.96744 0,-2.17578 1.88437,-2.17578 0.48955,0 0.84312,0.13599 0.35745,0.13598 0.58279,0.40795 0.22924,0.27198 0.33803,0.67993 0.10879,0.40796 0.10879,0.95191 z m -0.73433,0 q 0,-0.48955 -0.0777,-0.80815 -0.0738,-0.31859 -0.22146,-0.50897 -0.14376,-0.19039 -0.35356,-0.26421 -0.20981,-0.0777 -0.47401,-0.0777 -0.26809,0 -0.48567,0.0816 -0.21369,0.0777 -0.36521,0.27197 -0.15153,0.19038 -0.23312,0.50898 -0.0777,0.31859 -0.0777,0.79649 0,0.48955 0.0855,0.81203 0.0855,0.31859 0.23312,0.50897 0.15152,0.19038 0.35356,0.26809 0.20592,0.0777 0.44681,0.0777 0.26809,0 0.48567,-0.0738 0.21757,-0.0777 0.3691,-0.26809 0.15153,-0.19038 0.23312,-0.51286 0.0816,-0.32248 0.0816,-0.81203 z"
         style=""
         id="path4357" />
      <path
         d="m 121.82769,229.39803 0,-2.66533 q 0,-0.30694 -0.0466,-0.51286 -0.0427,-0.20592 -0.14376,-0.33025 -0.10102,-0.12822 -0.26809,-0.17873 -0.16318,-0.0544 -0.40795,-0.0544 -0.24866,0 -0.4507,0.0894 -0.19815,0.0855 -0.34191,0.25255 -0.13987,0.16318 -0.21758,0.40796 -0.0777,0.24088 -0.0777,0.5556 l 0,2.43609 -0.69936,0 0,-3.30641 q 0,-0.1321 -0.004,-0.27585 0,-0.14764 -0.004,-0.27586 -0.004,-0.1321 -0.008,-0.22535 -0.004,-0.0933 -0.008,-0.12044 l 0.6605,0 q 0.004,0.0194 0.008,0.1049 0.004,0.0855 0.008,0.19815 0.008,0.10879 0.0117,0.22535 0.004,0.11267 0.004,0.19038 l 0.0117,0 q 0.10102,-0.18261 0.22146,-0.33025 0.12045,-0.14764 0.27975,-0.24866 0.1593,-0.10491 0.36522,-0.1593 0.20592,-0.0583 0.47789,-0.0583 0.34968,0 0.60222,0.0855 0.25255,0.0855 0.41573,0.2642 0.16319,0.17872 0.23701,0.46235 0.0777,0.27974 0.0777,0.66828 l 0,2.80131 -0.70324,0 z"
         style=""
         id="path4359" />
    </g>
    <path
       style="fill:none;fill-rule:evenodd;stroke:#000000;stroke-width:0.60000002;stroke-linecap:butt;stroke-linejoin:miter;stroke-miterlimit:4;stroke-dasharray:none;stroke-opacity:1"
       d="m 62,221.36222 21,-1"
       id="path4244"
       inkscape:connector-curvature="0"
       sodipodi:nodetypes="cc" />
    <g
       style="font-style:normal;font-variant:normal;font-weight:normal;font-stretch:normal;font-size:8.99025059px;line-height:125%;font-family:'Liberation Mono';-inkscape-font-specification:'Liberation Mono, Normal';text-align:end;letter-spacing:0px;word-spacing:0px;writing-mode:lr-tb;text-anchor:end;fill:#000000;fill-opacity:1;stroke:none;stroke-width:1px;stroke-linecap:butt;stroke-linejoin:miter;stroke-opacity:1"
       id="text4226">
      <path
         d="m 73.712983,167.29905 0,-0.62335 0.746261,0 0.254607,-1.23792 0.526772,0 0,1.23792 1.896381,0 0,0.62335 -1.896381,0 0,2.86213 q 0,0.34679 0.184371,0.5136 0.18876,0.16681 0.614568,0.16681 0.17559,0 0.359961,-0.0132 0.18876,-0.0176 0.359961,-0.0395 0.175591,-0.0219 0.324843,-0.0483 0.153642,-0.0263 0.258997,-0.0483 l 0,0.6014 q -0.09658,0.0263 -0.250217,0.0614 -0.153642,0.0351 -0.346792,0.0659 -0.18876,0.0307 -0.412639,0.0527 -0.223878,0.022 -0.460926,0.022 -0.711143,0 -1.066714,-0.29851 -0.355571,-0.30289 -0.355571,-0.95258 l 0,-2.94553 -0.737482,0 z"
         style=""
         id="path4309" />
      <path
         d="m 83.102703,170.93817 q 0.06585,0 0.131693,-0.009 0.06585,-0.009 0.127303,-0.022 l 0,0.49165 q -0.149252,0.0351 -0.298504,0.0527 -0.144863,0.0176 -0.311674,0.0176 -0.223878,0 -0.3863,-0.0571 -0.158032,-0.0615 -0.258996,-0.17998 -0.100965,-0.12291 -0.153642,-0.2985 -0.05268,-0.17998 -0.06585,-0.41703 l -0.02634,0 q -0.122914,0.22827 -0.272166,0.41264 -0.149252,0.18437 -0.342402,0.31606 -0.19315,0.1273 -0.443367,0.19754 -0.250217,0.0702 -0.57506,0.0702 -0.693584,0 -1.044766,-0.37752 -0.351181,-0.37752 -0.351181,-1.03599 0,-0.46971 0.171201,-0.76821 0.175591,-0.30289 0.456536,-0.4741 0.280945,-0.1712 0.636517,-0.23704 0.359961,-0.0702 0.728702,-0.0746 l 1.035986,-0.0176 0,-0.25899 q 0,-0.29412 -0.06146,-0.50044 -0.05707,-0.20632 -0.179981,-0.33362 -0.118524,-0.1273 -0.302894,-0.18437 -0.18437,-0.0615 -0.430198,-0.0615 -0.219488,0 -0.399469,0.0351 -0.175591,0.0307 -0.302894,0.11852 -0.127303,0.0834 -0.210709,0.23266 -0.07902,0.14486 -0.105354,0.36874 l -0.825277,-0.0746 q 0.0439,-0.28095 0.162421,-0.51361 0.122914,-0.23704 0.342402,-0.40825 0.219489,-0.1712 0.548722,-0.26338 0.333622,-0.0966 0.803328,-0.0966 0.877954,0 1.316931,0.41264 0.443367,0.40825 0.443367,1.18524 l 0,2.04563 q 0,0.35118 0.09219,0.53116 0.09219,0.1756 0.351182,0.1756 z m -2.673371,-0.0263 q 0.364351,0 0.632127,-0.13609 0.267776,-0.14047 0.443367,-0.35118 0.179981,-0.21071 0.267776,-0.46531 0.0878,-0.25461 0.0878,-0.48727 l 0,-0.39069 -0.834057,0.0176 q -0.241437,0.004 -0.487264,0.0395 -0.241438,0.0307 -0.438978,0.13608 -0.193149,0.10536 -0.316063,0.30729 -0.122914,0.19754 -0.122914,0.53116 0,0.35996 0.19315,0.57945 0.19754,0.21949 0.57506,0.21949 z"
         style=""
         id="path4311" />
      <path
         d="m 86.359912,173.28669 q -0.395079,0 -0.697973,-0.0834 -0.298505,-0.0834 -0.517993,-0.24144 -0.215099,-0.15364 -0.351182,-0.36874 -0.131693,-0.2151 -0.18876,-0.47849 l 0.807718,-0.10974 q 0.07463,0.32923 0.320453,0.50482 0.250217,0.17998 0.654076,0.17998 0.250217,0 0.447757,-0.0746 0.201929,-0.0746 0.342402,-0.24144 0.144862,-0.16242 0.219488,-0.42581 0.07902,-0.26338 0.07902,-0.6409 l 0,-0.85162 -0.0088,0 q -0.08341,0.17559 -0.215099,0.3424 -0.127303,0.16681 -0.311674,0.29412 -0.17998,0.1273 -0.421418,0.20632 -0.241437,0.0746 -0.557501,0.0746 -0.447756,0 -0.76382,-0.14486 -0.316063,-0.14486 -0.517993,-0.43898 -0.201929,-0.29411 -0.298504,-0.73748 -0.09219,-0.44336 -0.09219,-1.03598 0,-0.57506 0.09219,-1.02282 0.09658,-0.44776 0.302894,-0.75504 0.210709,-0.31167 0.544332,-0.4741 0.333622,-0.16242 0.816497,-0.16242 0.496044,0 0.860395,0.23266 0.368741,0.22827 0.56628,0.65408 l 0.01317,0 q 0,-0.10975 0.0044,-0.24583 0.0088,-0.13608 0.01317,-0.25461 0.0088,-0.12291 0.01756,-0.21071 0.01317,-0.0878 0.01756,-0.10096 l 0.750651,0 q -0.0044,0.0395 -0.0088,0.13608 -0.0044,0.0922 -0.0088,0.22388 -0.0044,0.13169 -0.0088,0.29411 0,0.15804 0,0.32924 l 0,3.62595 q 0,0.99648 -0.465316,1.49691 -0.465315,0.50482 -1.435455,0.50482 z m 1.115002,-4.28002 q 0,-0.49605 -0.105354,-0.84284 -0.105355,-0.34679 -0.280946,-0.56189 -0.171201,-0.21949 -0.395079,-0.31606 -0.219489,-0.0966 -0.452146,-0.0966 -0.294115,0 -0.509214,0.10097 -0.215099,0.0966 -0.355571,0.31606 -0.140473,0.2151 -0.206319,0.56189 -0.06585,0.3424 -0.06585,0.83845 0,0.5136 0.06585,0.856 0.06585,0.3424 0.201929,0.54872 0.140473,0.20632 0.351182,0.29412 0.215098,0.0834 0.504823,0.0834 0.232658,0 0.456536,-0.0922 0.223879,-0.0966 0.39947,-0.30729 0.17559,-0.2107 0.280945,-0.54872 0.109744,-0.3424 0.109744,-0.83405 z"
         style=""
         id="path4313" />
    </g>
    <path
       sodipodi:nodetypes="cc"
       inkscape:connector-curvature="0"
       id="path4230"
       d="m 64,179.36221 8,-5"
       style="fill:none;fill-rule:evenodd;stroke:#000000;stroke-width:1px;stroke-linecap:butt;stroke-linejoin:miter;stroke-opacity:1" />
    <path
       sodipodi:nodetypes="ccccc"
       inkscape:connector-curvature="0"
       id="path4232"
       d="m 90,174.36222 0,-9.99996 -18,-1e-5 0,9.99996 z"
       style="fill:none;fill-rule:evenodd;stroke:#000000;stroke-width:1px;stroke-linecap:butt;stroke-linejoin:miter;stroke-opacity:1" />
    <g
       style="font-style:normal;font-variant:normal;font-weight:normal;font-stretch:normal;font-size:8.99025059px;line-height:125%;font-family:'Liberation Mono';-inkscape-font-specification:'Liberation Mono, Normal';text-align:end;letter-spacing:0px;word-spacing:0px;writing-mode:lr-tb;text-anchor:end;fill:#000000;fill-opacity:1;stroke:none;stroke-width:1px;stroke-linecap:butt;stroke-linejoin:miter;stroke-opacity:1"
       id="text4218">
      <path
         d="m 97.712983,116.29904 0,-0.62335 0.746261,0 0.254607,-1.23791 0.526772,0 0,1.23791 1.896377,0 0,0.62335 -1.896377,0 0,2.86213 q 0,0.34679 0.184371,0.5136 0.18876,0.16681 0.614566,0.16681 0.17559,0 0.35996,-0.0132 0.18876,-0.0176 0.35996,-0.0395 0.17559,-0.022 0.32485,-0.0483 0.15364,-0.0263 0.25899,-0.0483 l 0,0.6014 q -0.0966,0.0263 -0.25021,0.0615 -0.15365,0.0351 -0.3468,0.0658 -0.18876,0.0307 -0.41263,0.0527 -0.22388,0.022 -0.46093,0.022 -0.711143,0 -1.066714,-0.29851 -0.355571,-0.30289 -0.355571,-0.95258 l 0,-2.94553 -0.737482,0 z"
         style=""
         id="path4316" />
      <path
         d="m 107.1027,119.93816 q 0.0658,0 0.1317,-0.009 0.0658,-0.009 0.1273,-0.0219 l 0,0.49165 q -0.14925,0.0351 -0.29851,0.0527 -0.14486,0.0176 -0.31167,0.0176 -0.22388,0 -0.3863,-0.0571 -0.15803,-0.0614 -0.259,-0.17998 -0.10096,-0.12291 -0.15364,-0.2985 -0.0527,-0.17998 -0.0658,-0.41703 l -0.0263,0 q -0.12292,0.22827 -0.27217,0.41264 -0.14925,0.18437 -0.3424,0.31606 -0.19315,0.12731 -0.44337,0.19754 -0.25021,0.0702 -0.57506,0.0702 -0.69358,0 -1.04476,-0.37752 -0.35118,-0.37752 -0.35118,-1.03599 0,-0.4697 0.1712,-0.76821 0.17559,-0.30289 0.45653,-0.47409 0.28095,-0.1712 0.63652,-0.23705 0.35996,-0.0702 0.7287,-0.0746 l 1.03599,-0.0176 0,-0.25899 q 0,-0.29412 -0.0615,-0.50044 -0.0571,-0.20632 -0.17998,-0.33362 -0.11852,-0.1273 -0.30289,-0.18437 -0.18437,-0.0615 -0.4302,-0.0615 -0.21949,0 -0.39947,0.0351 -0.17559,0.0307 -0.30289,0.11853 -0.12731,0.0834 -0.21071,0.23265 -0.079,0.14487 -0.10536,0.36874 l -0.82528,-0.0746 q 0.0439,-0.28095 0.16243,-0.5136 0.12291,-0.23705 0.3424,-0.40825 0.21949,-0.1712 0.54872,-0.26339 0.33362,-0.0966 0.80333,-0.0966 0.87795,0 1.31693,0.41263 0.44337,0.40825 0.44337,1.18524 l 0,2.04564 q 0,0.35118 0.0922,0.53116 0.0922,0.17559 0.35118,0.17559 z m -2.67337,-0.0263 q 0.36435,0 0.63213,-0.13608 0.26778,-0.14048 0.44337,-0.35119 0.17998,-0.2107 0.26777,-0.46531 0.0878,-0.25461 0.0878,-0.48727 l 0,-0.39068 -0.83406,0.0175 q -0.24144,0.004 -0.48726,0.0395 -0.24144,0.0307 -0.43898,0.13608 -0.19315,0.10536 -0.31606,0.30729 -0.12292,0.19754 -0.12292,0.53116 0,0.35996 0.19315,0.57945 0.19754,0.21949 0.57506,0.21949 z"
         style=""
         id="path4318" />
      <path
         d="m 110.35991,122.28669 q -0.39508,0 -0.69797,-0.0834 -0.29851,-0.0834 -0.51799,-0.24144 -0.2151,-0.15364 -0.35119,-0.36874 -0.13169,-0.2151 -0.18876,-0.47848 l 0.80772,-0.10975 q 0.0746,0.32924 0.32046,0.50483 0.25021,0.17998 0.65407,0.17998 0.25022,0 0.44776,-0.0746 0.20193,-0.0746 0.3424,-0.24144 0.14486,-0.16242 0.21949,-0.4258 0.079,-0.26339 0.079,-0.64091 l 0,-0.85162 -0.009,0 q -0.0834,0.17559 -0.21509,0.34241 -0.12731,0.16681 -0.31168,0.29411 -0.17998,0.1273 -0.42142,0.20632 -0.24143,0.0746 -0.5575,0.0746 -0.44775,0 -0.76382,-0.14487 -0.31606,-0.14486 -0.51799,-0.43897 -0.20193,-0.29412 -0.2985,-0.73749 -0.0922,-0.44336 -0.0922,-1.03598 0,-0.57506 0.0922,-1.02282 0.0966,-0.44775 0.30289,-0.75504 0.21071,-0.31167 0.54433,-0.47409 0.33362,-0.16243 0.8165,-0.16243 0.49604,0 0.86039,0.23266 0.36874,0.22827 0.56628,0.65408 l 0.0132,0 q 0,-0.10975 0.004,-0.24583 0.009,-0.13608 0.0132,-0.25461 0.009,-0.12291 0.0176,-0.2107 0.0132,-0.0878 0.0176,-0.10097 l 0.75065,0 q -0.004,0.0395 -0.009,0.13608 -0.004,0.0922 -0.009,0.22388 -0.004,0.13169 -0.009,0.29412 0,0.15803 0,0.32923 l 0,3.62595 q 0,0.99648 -0.46531,1.49691 -0.46532,0.50483 -1.43546,0.50483 z m 1.115,-4.28003 q 0,-0.49605 -0.10535,-0.84284 -0.10535,-0.34679 -0.28095,-0.56189 -0.1712,-0.21949 -0.39508,-0.31606 -0.21948,-0.0966 -0.45214,-0.0966 -0.29412,0 -0.50921,0.10097 -0.2151,0.0966 -0.35558,0.31606 -0.14047,0.2151 -0.20632,0.56189 -0.0658,0.3424 -0.0658,0.83845 0,0.5136 0.0658,0.856 0.0658,0.34241 0.20193,0.54873 0.14048,0.20631 0.35119,0.29411 0.21509,0.0834 0.50482,0.0834 0.23266,0 0.45654,-0.0922 0.22387,-0.0966 0.39946,-0.30728 0.1756,-0.21071 0.28095,-0.54872 0.10974,-0.34241 0.10974,-0.83406 z"
         style=""
         id="path4320" />
    </g>
    <path
       style="fill:none;fill-rule:evenodd;stroke:#000000;stroke-width:1px;stroke-linecap:butt;stroke-linejoin:miter;stroke-opacity:1"
       d="m 89,128.36221 7,-5"
       id="path4222"
       inkscape:connector-curvature="0"
       sodipodi:nodetypes="cc" />
    <path
       style="fill:none;fill-rule:evenodd;stroke:#000000;stroke-width:1px;stroke-linecap:butt;stroke-linejoin:miter;stroke-opacity:1"
       d="m 114,123.36222 0,-9.99997 -18,-1e-5 0,9.99997 z"
       id="path4224"
       inkscape:connector-curvature="0"
       sodipodi:nodetypes="ccccc" />
    <g
       id="g4193"
       style="fill:#bddd1f;fill-opacity:1">
      <path
         style="opacity:1;fill:#bddd1f;fill-opacity:1;stroke:none;stroke-width:3;stroke-linejoin:round;stroke-miterlimit:4;stroke-dasharray:none;stroke-dashoffset:0;stroke-opacity:1"
         id="path4143"
         sodipodi:type="arc"
         sodipodi:cx="45"
         sodipodi:cy="77.362206"
         sodipodi:rx="2.5"
         sodipodi:ry="2.5"
         sodipodi:start="3.1469857"
         sodipodi:end="3.1465145"
         sodipodi:open="true"
         d="m 42.500036,77.348723 a 2.5,2.5 0 0 1 2.513152,-2.486483 2.5,2.5 0 0 1 2.486779,2.512859 2.5,2.5 0 0 1 -2.512566,2.487075 2.5,2.5 0 0 1 -2.487371,-2.512273" />
      <path
         d="m 42.500036,97.348731 a 2.5,2.5 0 0 1 2.513152,-2.486483 2.5,2.5 0 0 1 2.486779,2.512859 2.5,2.5 0 0 1 -2.512566,2.487074 2.5,2.5 0 0 1 -2.487371,-2.512272"
         sodipodi:open="true"
         sodipodi:end="3.1465145"
         sodipodi:start="3.1469857"
         sodipodi:ry="2.5"
         sodipodi:rx="2.5"
         sodipodi:cy="97.362213"
         sodipodi:cx="45"
         sodipodi:type="arc"
         id="path4145"
         style="opacity:1;fill:#bddd1f;fill-opacity:1;stroke:none;stroke-width:3;stroke-linejoin:round;stroke-miterlimit:4;stroke-dasharray:none;stroke-dashoffset:0;stroke-opacity:1" />
      <path
         style="opacity:1;fill:#bddd1f;fill-opacity:1;stroke:none;stroke-width:3;stroke-linejoin:round;stroke-miterlimit:4;stroke-dasharray:none;stroke-dashoffset:0;stroke-opacity:1"
         id="path4147"
         sodipodi:type="arc"
         sodipodi:cx="65"
         sodipodi:cy="107.36221"
         sodipodi:rx="2.5"
         sodipodi:ry="2.5"
         sodipodi:start="3.1469857"
         sodipodi:end="3.1465145"
         sodipodi:open="true"
         d="m 62.500036,107.34873 a 2.5,2.5 0 0 1 2.513152,-2.48648 2.5,2.5 0 0 1 2.486779,2.51286 2.5,2.5 0 0 1 -2.512566,2.48707 2.5,2.5 0 0 1 -2.487371,-2.51227" />
      <path
         style="opacity:1;fill:#bddd1f;fill-opacity:1;stroke:none;stroke-width:3;stroke-linejoin:round;stroke-miterlimit:4;stroke-dasharray:none;stroke-dashoffset:0;stroke-opacity:1"
         id="path4172"
         sodipodi:type="arc"
         sodipodi:cx="55"
         sodipodi:cy="147.36221"
         sodipodi:rx="2.5"
         sodipodi:ry="2.5"
         sodipodi:start="3.1469857"
         sodipodi:end="3.1465145"
         sodipodi:open="true"
         d="m 52.500036,147.34873 a 2.5,2.5 0 0 1 2.513152,-2.48648 2.5,2.5 0 0 1 2.486779,2.51286 2.5,2.5 0 0 1 -2.512566,2.48707 2.5,2.5 0 0 1 -2.487371,-2.51227" />
      <path
         d="m 42.500036,167.34873 a 2.5,2.5 0 0 1 2.513152,-2.48648 2.5,2.5 0 0 1 2.486779,2.51286 2.5,2.5 0 0 1 -2.512566,2.48707 2.5,2.5 0 0 1 -2.487371,-2.51227"
         sodipodi:open="true"
         sodipodi:end="3.1465145"
         sodipodi:start="3.1469857"
         sodipodi:ry="2.5"
         sodipodi:rx="2.5"
         sodipodi:cy="167.36221"
         sodipodi:cx="45"
         sodipodi:type="arc"
         id="path4176"
         style="opacity:1;fill:#bddd1f;fill-opacity:1;stroke:none;stroke-width:3;stroke-linejoin:round;stroke-miterlimit:4;stroke-dasharray:none;stroke-dashoffset:0;stroke-opacity:1" />
      <path
         d="m 47.500036,202.34873 a 2.5,2.5 0 0 1 2.513152,-2.48648 2.5,2.5 0 0 1 2.486779,2.51286 2.5,2.5 0 0 1 -2.512566,2.48707 2.5,2.5 0 0 1 -2.487371,-2.51227"
         sodipodi:open="true"
         sodipodi:end="3.1465145"
         sodipodi:start="3.1469857"
         sodipodi:ry="2.5"
         sodipodi:rx="2.5"
         sodipodi:cy="202.36221"
         sodipodi:cx="50"
         sodipodi:type="arc"
         id="path4180"
         style="opacity:1;fill:#bddd1f;fill-opacity:1;stroke:none;stroke-width:3;stroke-linejoin:round;stroke-miterlimit:4;stroke-dasharray:none;stroke-dashoffset:0;stroke-opacity:1" />
      <path
         d="m 62.500036,242.34873 a 2.5,2.5 0 0 1 2.513152,-2.48648 2.5,2.5 0 0 1 2.486779,2.51286 2.5,2.5 0 0 1 -2.512566,2.48707 2.5,2.5 0 0 1 -2.487371,-2.51227"
         sodipodi:open="true"
         sodipodi:end="3.1465145"
         sodipodi:start="3.1469857"
         sodipodi:ry="2.5"
         sodipodi:rx="2.5"
         sodipodi:cy="242.36221"
         sodipodi:cx="65"
         sodipodi:type="arc"
         id="path4184"
         style="opacity:1;fill:#bddd1f;fill-opacity:1;stroke:none;stroke-width:3;stroke-linejoin:round;stroke-miterlimit:4;stroke-dasharray:none;stroke-dashoffset:0;stroke-opacity:1" />
      <path
         style="opacity:1;fill:#bddd1f;fill-opacity:1;stroke:none;stroke-width:3;stroke-linejoin:round;stroke-miterlimit:4;stroke-dasharray:none;stroke-dashoffset:0;stroke-opacity:1"
         id="path4186"
         sodipodi:type="arc"
         sodipodi:cx="45"
         sodipodi:cy="257.36221"
         sodipodi:rx="2.5"
         sodipodi:ry="2.5"
         sodipodi:start="3.1469857"
         sodipodi:end="3.1465145"
         sodipodi:open="true"
         d="m 42.500036,257.34873 a 2.5,2.5 0 0 1 2.513152,-2.48648 2.5,2.5 0 0 1 2.486779,2.51286 2.5,2.5 0 0 1 -2.512566,2.48707 2.5,2.5 0 0 1 -2.487371,-2.51227" />
      <path
         style="opacity:1;fill:#bddd1f;fill-opacity:1;stroke:none;stroke-width:3;stroke-linejoin:round;stroke-miterlimit:4;stroke-dasharray:none;stroke-dashoffset:0;stroke-opacity:1"
         id="path4190"
         sodipodi:type="arc"
         sodipodi:cx="105"
         sodipodi:cy="147.36221"
         sodipodi:rx="2.5"
         sodipodi:ry="2.5"
         sodipodi:start="3.1469857"
         sodipodi:end="3.1465145"
         sodipodi:open="true"
         d="m 102.50004,147.34873 a 2.5,2.5 0 0 1 2.51315,-2.48648 2.5,2.5 0 0 1 2.48678,2.51286 2.5,2.5 0 0 1 -2.51257,2.48707 2.5,2.5 0 0 1 -2.48737,-2.51227" />
      <path
         style="opacity:1;fill:#bddd1f;fill-opacity:1;stroke:none;stroke-width:3;stroke-linejoin:round;stroke-miterlimit:4;stroke-dasharray:none;stroke-dashoffset:0;stroke-opacity:1"
         id="path4194"
         sodipodi:type="arc"
         sodipodi:cx="155"
         sodipodi:cy="167.36221"
         sodipodi:rx="2.5"
         sodipodi:ry="2.5"
         sodipodi:start="3.1469857"
         sodipodi:end="3.1465145"
         sodipodi:open="true"
         d="m 152.50004,167.34873 a 2.5,2.5 0 0 1 2.51315,-2.48648 2.5,2.5 0 0 1 2.48678,2.51286 2.5,2.5 0 0 1 -2.51257,2.48707 2.5,2.5 0 0 1 -2.48737,-2.51227" />
      <path
         style="opacity:1;fill:#bddd1f;fill-opacity:1;stroke:none;stroke-width:3;stroke-linejoin:round;stroke-miterlimit:4;stroke-dasharray:none;stroke-dashoffset:0;stroke-opacity:1"
         id="path4178"
         sodipodi:type="arc"
         sodipodi:cx="60"
         sodipodi:cy="182.36221"
         sodipodi:rx="2.5"
         sodipodi:ry="2.5"
         sodipodi:start="3.1469857"
         sodipodi:end="3.1465145"
         sodipodi:open="true"
         d="m 57.500036,182.34873 a 2.5,2.5 0 0 1 2.513152,-2.48648 2.5,2.5 0 0 1 2.486779,2.51286 2.5,2.5 0 0 1 -2.512566,2.48707 2.5,2.5 0 0 1 -2.487371,-2.51227" />
      <path
         d="m 52.500036,127.34873 a 2.5,2.5 0 0 1 2.513152,-2.48648 2.5,2.5 0 0 1 2.486779,2.51286 2.5,2.5 0 0 1 -2.512566,2.48707 2.5,2.5 0 0 1 -2.487371,-2.51227"
         sodipodi:open="true"
         sodipodi:end="3.1465145"
         sodipodi:start="3.1469857"
         sodipodi:ry="2.5"
         sodipodi:rx="2.5"
         sodipodi:cy="127.36221"
         sodipodi:cx="55"
         sodipodi:type="arc"
         id="path4149"
         style="opacity:1;fill:#bddd1f;fill-opacity:1;stroke:none;stroke-width:3;stroke-linejoin:round;stroke-miterlimit:4;stroke-dasharray:none;stroke-dashoffset:0;stroke-opacity:1" />
      <path
         d="m 82.500036,132.34873 a 2.5,2.5 0 0 1 2.513152,-2.48648 2.5,2.5 0 0 1 2.486779,2.51286 2.5,2.5 0 0 1 -2.512566,2.48707 2.5,2.5 0 0 1 -2.487371,-2.51227"
         sodipodi:open="true"
         sodipodi:end="3.1465145"
         sodipodi:start="3.1469857"
         sodipodi:ry="2.5"
         sodipodi:rx="2.5"
         sodipodi:cy="132.36221"
         sodipodi:cx="85"
         sodipodi:type="arc"
         id="path4174"
         style="opacity:1;fill:#bddd1f;fill-opacity:1;stroke:none;stroke-width:3;stroke-linejoin:round;stroke-miterlimit:4;stroke-dasharray:none;stroke-dashoffset:0;stroke-opacity:1" />
      <path
         d="m 127.50004,152.34873 a 2.5,2.5 0 0 1 2.51315,-2.48648 2.5,2.5 0 0 1 2.48678,2.51286 2.5,2.5 0 0 1 -2.51257,2.48707 2.5,2.5 0 0 1 -2.48737,-2.51227"
         sodipodi:open="true"
         sodipodi:end="3.1465145"
         sodipodi:start="3.1469857"
         sodipodi:ry="2.5"
         sodipodi:rx="2.5"
         sodipodi:cy="152.36221"
         sodipodi:cx="130"
         sodipodi:type="arc"
         id="path4192"
         style="opacity:1;fill:#bddd1f;fill-opacity:1;stroke:none;stroke-width:3;stroke-linejoin:round;stroke-miterlimit:4;stroke-dasharray:none;stroke-dashoffset:0;stroke-opacity:1" />
      <path
         d="m 117.50004,172.34873 a 2.5,2.5 0 0 1 2.51315,-2.48648 2.5,2.5 0 0 1 2.48678,2.51286 2.5,2.5 0 0 1 -2.51257,2.48707 2.5,2.5 0 0 1 -2.48737,-2.51227"
         sodipodi:open="true"
         sodipodi:end="3.1465145"
         sodipodi:start="3.1469857"
         sodipodi:ry="2.5"
         sodipodi:rx="2.5"
         sodipodi:cy="172.36221"
         sodipodi:cx="120"
         sodipodi:type="arc"
         id="path4196"
         style="opacity:1;fill:#bddd1f;fill-opacity:1;stroke:none;stroke-width:3;stroke-linejoin:round;stroke-miterlimit:4;stroke-dasharray:none;stroke-dashoffset:0;stroke-opacity:1" />
      <path
         style="opacity:1;fill:#bddd1f;fill-opacity:1;stroke:none;stroke-width:3;stroke-linejoin:round;stroke-miterlimit:4;stroke-dasharray:none;stroke-dashoffset:0;stroke-opacity:1"
         id="path4198"
         sodipodi:type="arc"
         sodipodi:cx="135"
         sodipodi:cy="192.36221"
         sodipodi:rx="2.5"
         sodipodi:ry="2.5"
         sodipodi:start="3.1469857"
         sodipodi:end="3.1465145"
         sodipodi:open="true"
         d="m 132.50004,192.34873 a 2.5,2.5 0 0 1 2.51315,-2.48648 2.5,2.5 0 0 1 2.48678,2.51286 2.5,2.5 0 0 1 -2.51257,2.48707 2.5,2.5 0 0 1 -2.48737,-2.51227" />
      <path
         d="m 127.50004,217.34873 a 2.5,2.5 0 0 1 2.51315,-2.48648 2.5,2.5 0 0 1 2.48678,2.51286 2.5,2.5 0 0 1 -2.51257,2.48707 2.5,2.5 0 0 1 -2.48737,-2.51227"
         sodipodi:open="true"
         sodipodi:end="3.1465145"
         sodipodi:start="3.1469857"
         sodipodi:ry="2.5"
         sodipodi:rx="2.5"
         sodipodi:cy="217.36221"
         sodipodi:cx="130"
         sodipodi:type="arc"
         id="path4200"
         style="opacity:1;fill:#bddd1f;fill-opacity:1;stroke:none;stroke-width:3;stroke-linejoin:round;stroke-miterlimit:4;stroke-dasharray:none;stroke-dashoffset:0;stroke-opacity:1" />
      <path
         style="opacity:1;fill:#bddd1f;fill-opacity:1;stroke:none;stroke-width:3;stroke-linejoin:round;stroke-miterlimit:4;stroke-dasharray:none;stroke-dashoffset:0;stroke-opacity:1"
         id="path4182"
         sodipodi:type="arc"
         sodipodi:cx="55"
         sodipodi:cy="222.3622"
         sodipodi:rx="2.5"
         sodipodi:ry="2.5"
         sodipodi:start="3.1469857"
         sodipodi:end="3.1465145"
         sodipodi:open="true"
         d="m 52.500036,222.34872 a 2.5,2.5 0 0 1 2.513152,-2.48649 2.5,2.5 0 0 1 2.486779,2.51286 2.5,2.5 0 0 1 -2.512566,2.48708 2.5,2.5 0 0 1 -2.487371,-2.51228" />
      <path
         d="m 47.500036,57.348727 a 2.5,2.5 0 0 1 2.513152,-2.486483 2.5,2.5 0 0 1 2.486779,2.512859 2.5,2.5 0 0 1 -2.512566,2.487075 2.5,2.5 0 0 1 -2.487371,-2.512273"
         sodipodi:open="true"
         sodipodi:end="3.1465145"
         sodipodi:start="3.1469857"
         sodipodi:ry="2.5"
         sodipodi:rx="2.5"
         sodipodi:cy="57.362209"
         sodipodi:cx="50"
         sodipodi:type="arc"
         id="path4141"
         style="opacity:1;fill:#bddd1f;fill-opacity:1;stroke:none;stroke-width:3;stroke-linejoin:round;stroke-miterlimit:4;stroke-dasharray:none;stroke-dashoffset:0;stroke-opacity:1" />
    </g>
    <path
       style="fill:none;fill-rule:evenodd;stroke:#bddd1f;stroke-width:1px;stroke-linecap:butt;stroke-linejoin:miter;stroke-opacity:1"
       d="m 50,57.36221 -5,19.999995 0,20.000005 20,10 -10,20"
       id="path4151"
       inkscape:connector-curvature="0"
       sodipodi:nodetypes="ccccc" />
    <g
       style="font-style:normal;font-variant:normal;font-weight:normal;font-stretch:normal;font-size:7.95712519px;line-height:100%;font-family:'Liberation Sans';-inkscape-font-specification:'Liberation Sans, Normal';text-align:start;writing-mode:lr-tb;text-anchor:start"
       id="text4199">
      <path
         d="m 74.43116,58.048729 0,-2.537111 -2.96061,0 0,2.537111 -0.742095,0 0,-5.474409 0.742095,0 0,2.315648 2.96061,0 0,-2.315648 0.742095,0 0,5.474409 -0.742095,0 z"
         style=""
         id="path4373" />
      <path
         d="m 76.478721,58.048729 0,-5.474409 4.153402,0 0,0.606109 -3.411307,0 0,1.756163 3.178188,0 0,0.598338 -3.178188,0 0,1.90769 3.570604,0 0,0.606109 -4.312699,0 z"
         style=""
         id="path4375" />
      <path
         d="m 85.675262,58.048729 -0.625536,-1.60075 -2.494372,0 -0.629421,1.60075 -0.769293,0 2.234056,-5.474409 0.843114,0 2.199088,5.474409 -0.757636,0 z m -1.550241,-3.986333 q -0.06217,-0.155413 -0.120445,-0.314711 -0.05439,-0.159298 -0.09713,-0.287513 -0.04274,-0.132101 -0.07382,-0.217578 -0.0272,-0.08936 -0.03108,-0.108789 -0.0078,0.01943 -0.03497,0.108789 -0.0272,0.08936 -0.07382,0.221463 -0.04274,0.132101 -0.101018,0.291399 -0.05439,0.159298 -0.112674,0.31471 l -0.699357,1.798901 2.047561,0 -0.703242,-1.806671 z"
         style=""
         id="path4377" />
      <path
         d="m 91.821831,55.255187 q 0,0.683816 -0.205922,1.208333 -0.205921,0.520633 -0.56337,0.874196 -0.357449,0.349679 -0.846999,0.532288 -0.485664,0.178725 -1.049035,0.178725 l -2.047561,0 0,-5.474409 1.810557,0 q 0.633306,0 1.165594,0.159298 0.536174,0.155413 0.92082,0.485664 0.384646,0.326367 0.598339,0.831458 0.217577,0.505091 0.217577,1.204447 z m -0.74598,0 q 0,-0.5556 -0.159298,-0.948016 -0.159298,-0.396303 -0.446811,-0.648848 -0.287514,-0.252546 -0.687701,-0.369105 -0.400188,-0.120445 -0.878081,-0.120445 l -1.052921,0 0,4.285503 1.219989,0 q 0.43127,0 0.79649,-0.139872 0.369105,-0.139871 0.637191,-0.415728 0.268087,-0.275858 0.419614,-0.687701 0.151528,-0.411843 0.151528,-0.955788 z"
         style=""
         id="path4379" />
    </g>
    <path
       style="fill:none;fill-rule:evenodd;stroke:#000000;stroke-width:0.60000002;stroke-linecap:butt;stroke-linejoin:miter;stroke-miterlimit:4;stroke-dasharray:none;stroke-opacity:1"
       d="m 69.000006,55.362217 -12,1"
       id="path4207"
       inkscape:connector-curvature="0" />
    <g
       style="font-style:normal;font-variant:normal;font-weight:normal;font-stretch:normal;font-size:7.95712519px;line-height:100%;font-family:'Liberation Sans';-inkscape-font-specification:'Liberation Sans, Normal';text-align:start;writing-mode:lr-tb;text-anchor:start"
       id="text4211">
      <path
         d="m 70.459409,117.68766 0,-2.66533 q 0,-0.30694 -0.03885,-0.51286 -0.03885,-0.20592 -0.132101,-0.33025 -0.08936,-0.12821 -0.237004,-0.17872 -0.147642,-0.0544 -0.361335,-0.0544 -0.221463,0 -0.400187,0.0894 -0.178725,0.0855 -0.30694,0.25255 -0.12433,0.16318 -0.194266,0.40796 -0.06605,0.24089 -0.06605,0.5556 l 0,2.43609 -0.695472,0 0,-3.3064 q 0,-0.1321 -0.0039,-0.27586 0,-0.14764 -0.0039,-0.27586 -0.0039,-0.1321 -0.0078,-0.22535 -0.0039,-0.0932 -0.0078,-0.12044 l 0.660503,0 q 0.0039,0.0194 0.0078,0.1049 0.0039,0.0855 0.0078,0.19815 0.0078,0.10879 0.01166,0.22535 0.0039,0.11268 0.0039,0.19038 l 0.01166,0 q 0.09325,-0.18261 0.202036,-0.33025 0.108789,-0.14764 0.252545,-0.24866 0.147642,-0.1049 0.334138,-0.1593 0.19038,-0.0583 0.43904,-0.0583 0.477894,0 0.753751,0.19038 0.279743,0.19038 0.388532,0.60611 l 0.01166,0 q 0.09325,-0.18261 0.209807,-0.33025 0.116559,-0.14764 0.271972,-0.24866 0.155412,-0.1049 0.349678,-0.1593 0.194266,-0.0583 0.442926,-0.0583 0.318596,0 0.547829,0.0855 0.233119,0.0855 0.380761,0.2642 0.147642,0.17873 0.217578,0.46235 0.06994,0.27975 0.06994,0.66828 l 0,2.80131 -0.691586,0 0,-2.66533 q 0,-0.30694 -0.03885,-0.51286 -0.03885,-0.20592 -0.1321,-0.33025 -0.08936,-0.12821 -0.237004,-0.17872 -0.147642,-0.0544 -0.361335,-0.0544 -0.221463,0 -0.400187,0.0855 -0.178725,0.0816 -0.30694,0.24477 -0.12433,0.16319 -0.194266,0.40796 -0.06605,0.24478 -0.06605,0.56726 l 0,2.43609 -0.691586,0 z"
         style=""
         id="path4382" />
      <path
         d="m 75.183952,115.73335 q 0,0.33025 0.06605,0.60999 0.06994,0.27586 0.209807,0.47789 0.143757,0.19816 0.36522,0.31083 0.221463,0.10879 0.532288,0.10879 0.454582,0 0.726554,-0.18261 0.275857,-0.18261 0.37299,-0.46235 l 0.61388,0.17484 q -0.06605,0.17484 -0.186495,0.35356 -0.11656,0.17484 -0.314711,0.3186 -0.198151,0.13987 -0.49732,0.23311 -0.295284,0.0894 -0.714898,0.0894 -0.932476,0 -1.422026,-0.5556 -0.485664,-0.5556 -0.485664,-1.65126 0,-0.59057 0.147642,-0.99853 0.147642,-0.41184 0.404073,-0.66827 0.256431,-0.25643 0.598338,-0.36911 0.341908,-0.11656 0.73044,-0.11656 0.528402,0 0.881966,0.17096 0.357449,0.17095 0.571141,0.47401 0.217578,0.29916 0.30694,0.70712 0.09325,0.40796 0.09325,0.88197 l 0,0.0932 -2.999463,0 z m 2.276794,-0.53618 q -0.05828,-0.66439 -0.338022,-0.96744 -0.279743,-0.30694 -0.80426,-0.30694 -0.17484,0 -0.369105,0.0583 -0.190381,0.0544 -0.353564,0.19815 -0.163183,0.14376 -0.275857,0.39242 -0.112674,0.24477 -0.128216,0.62553 l 2.269024,0 z"
         style=""
         id="path4384" />
      <path
         d="m 79.092579,117.68766 0,-3.22481 q 0,-0.1321 -0.0039,-0.26809 0,-0.13987 -0.0039,-0.26808 -0.0039,-0.12822 -0.0078,-0.24089 -0.0039,-0.11268 -0.0078,-0.20204 l 0.660503,0 q 0.0039,0.0894 0.0078,0.20592 0.0078,0.11268 0.01166,0.23312 0.0078,0.12044 0.0078,0.23312 0.0039,0.10879 0.0039,0.18649 l 0.01554,0 q 0.07382,-0.24089 0.155413,-0.41572 0.08548,-0.17873 0.198151,-0.2914 0.112674,-0.11656 0.268087,-0.17096 0.155412,-0.0583 0.376875,-0.0583 0.08548,0 0.163183,0.0155 0.07771,0.0117 0.120445,0.0233 l 0,0.64107 q -0.06994,-0.0194 -0.163183,-0.0272 -0.09325,-0.0117 -0.209807,-0.0117 -0.24089,0 -0.411844,0.10879 -0.167068,0.10879 -0.275857,0.30305 -0.104903,0.19038 -0.155412,0.45847 -0.05051,0.2642 -0.05051,0.57891 l 0,2.19132 -0.699356,0 z"
         style=""
         id="path4386" />
      <path
         d="m 83.327572,119.33892 q -0.361334,0 -0.641077,-0.0738 -0.279742,-0.0738 -0.477894,-0.21369 -0.198151,-0.13599 -0.322481,-0.32637 -0.12433,-0.19038 -0.178724,-0.4235 l 0.703242,-0.10102 q 0.06994,0.2914 0.30694,0.44681 0.240889,0.1593 0.629421,0.1593 0.237004,0 0.43127,-0.0661 0.194266,-0.066 0.330252,-0.21369 0.135986,-0.14376 0.209807,-0.37688 0.07382,-0.23312 0.07382,-0.56725 l 0,-0.67605 -0.0078,0 q -0.07771,0.1593 -0.194266,0.30694 -0.112674,0.14376 -0.279743,0.25643 -0.163183,0.11268 -0.38076,0.18261 -0.217578,0.066 -0.497321,0.066 -0.400187,0 -0.6877,-0.1321 -0.283628,-0.13598 -0.466238,-0.40407 -0.178725,-0.26809 -0.264202,-0.66439 -0.08159,-0.40019 -0.08159,-0.9247 0,-0.5051 0.08159,-0.90917 0.08548,-0.40407 0.271972,-0.68381 0.190381,-0.28363 0.48955,-0.43127 0.303055,-0.15153 0.734325,-0.15153 0.446811,0 0.773177,0.20592 0.330252,0.20204 0.508977,0.57891 l 0.0078,0 q 0,-0.0971 0.0039,-0.21758 0.0078,-0.12044 0.01166,-0.22534 0.0078,-0.10879 0.01554,-0.1865 0.0078,-0.0777 0.01554,-0.0894 l 0.664389,0 q -0.0039,0.035 -0.0078,0.12044 -0.0039,0.0816 -0.0078,0.19816 -0.0039,0.11655 -0.0078,0.26031 0,0.13987 0,0.2914 l 0,3.21316 q 0,0.88196 -0.435155,1.32489 -0.43127,0.44681 -1.324893,0.44681 z m 1.064577,-3.75322 q 0,-0.43904 -0.09713,-0.74986 -0.09325,-0.31471 -0.248661,-0.51286 -0.155412,-0.19815 -0.357448,-0.2914 -0.198152,-0.0933 -0.407959,-0.0933 -0.268086,0 -0.462352,0.0933 -0.19038,0.0932 -0.318596,0.29528 -0.12433,0.19815 -0.186495,0.51286 -0.05828,0.31083 -0.05828,0.74598 0,0.45459 0.05828,0.76541 0.06216,0.30694 0.186495,0.49732 0.12433,0.19038 0.314711,0.27197 0.19038,0.0816 0.454581,0.0816 0.209807,0 0.407959,-0.0894 0.202036,-0.0894 0.361334,-0.28362 0.159298,-0.19427 0.256431,-0.50121 0.09713,-0.30694 0.09713,-0.7421 z"
         style=""
         id="path4388" />
      <path
         d="m 86.700025,115.73335 q 0,0.33025 0.06605,0.60999 0.06994,0.27586 0.209807,0.47789 0.143757,0.19816 0.36522,0.31083 0.221463,0.10879 0.532288,0.10879 0.454582,0 0.726554,-0.18261 0.275857,-0.18261 0.37299,-0.46235 l 0.61388,0.17484 q -0.06605,0.17484 -0.186495,0.35356 -0.11656,0.17484 -0.314711,0.3186 -0.198151,0.13987 -0.49732,0.23311 -0.295284,0.0894 -0.714898,0.0894 -0.932476,0 -1.422025,-0.5556 -0.485665,-0.5556 -0.485665,-1.65126 0,-0.59057 0.147642,-0.99853 0.147642,-0.41184 0.404073,-0.66827 0.256431,-0.25643 0.598339,-0.36911 0.341907,-0.11656 0.730439,-0.11656 0.528403,0 0.881966,0.17096 0.357449,0.17095 0.571142,0.47401 0.217577,0.29916 0.30694,0.70712 0.09325,0.40796 0.09325,0.88197 l 0,0.0932 -2.999463,0 z m 2.276794,-0.53618 q -0.05828,-0.66439 -0.338022,-0.96744 -0.279743,-0.30694 -0.80426,-0.30694 -0.174839,0 -0.369105,0.0583 -0.190381,0.0544 -0.353564,0.19815 -0.163183,0.14376 -0.275857,0.39242 -0.112674,0.24477 -0.128216,0.62553 l 2.269024,0 z"
         style=""
         id="path4390" />
    </g>
    <path
       inkscape:connector-curvature="0"
       id="path4215"
       d="m 66,118.36225 -5.999994,4.99999"
       style="fill:none;fill-rule:evenodd;stroke:#000000;stroke-width:0.60000002;stroke-linecap:butt;stroke-linejoin:miter;stroke-miterlimit:4;stroke-dasharray:none;stroke-opacity:1"
       sodipodi:nodetypes="cc" />
    <g
       style="font-style:normal;font-variant:normal;font-weight:normal;font-stretch:normal;font-size:7.95712519px;line-height:100%;font-family:'Liberation Sans';-inkscape-font-specification:'Liberation Sans, Normal';text-align:start;writing-mode:lr-tb;text-anchor:start"
       id="text4217">
      <path
         d="m 144.45942,142.68765 0,-2.66532 q 0,-0.30694 -0.0389,-0.51287 -0.0388,-0.20592 -0.1321,-0.33025 -0.0894,-0.12821 -0.237,-0.17872 -0.14764,-0.0544 -0.36134,-0.0544 -0.22146,0 -0.40018,0.0894 -0.17873,0.0855 -0.30694,0.25254 -0.12433,0.16319 -0.19427,0.40796 -0.066,0.24089 -0.066,0.5556 l 0,2.43609 -0.69547,0 0,-3.3064 q 0,-0.1321 -0.004,-0.27586 0,-0.14764 -0.004,-0.27586 -0.004,-0.1321 -0.008,-0.22534 -0.004,-0.0932 -0.008,-0.12045 l 0.6605,0 q 0.004,0.0194 0.008,0.10491 0.004,0.0855 0.008,0.19815 0.008,0.10879 0.0117,0.22534 0.004,0.11268 0.004,0.19039 l 0.0117,0 q 0.0932,-0.18261 0.20204,-0.33026 0.10878,-0.14764 0.25254,-0.24866 0.14764,-0.1049 0.33414,-0.15929 0.19038,-0.0583 0.43904,-0.0583 0.47789,0 0.75375,0.19038 0.27974,0.19038 0.38853,0.60611 l 0.0117,0 q 0.0932,-0.18261 0.2098,-0.33026 0.11656,-0.14764 0.27198,-0.24866 0.15541,-0.1049 0.34967,-0.15929 0.19427,-0.0583 0.44293,-0.0583 0.3186,0 0.54783,0.0855 0.23312,0.0855 0.38076,0.2642 0.14764,0.17873 0.21758,0.46236 0.0699,0.27974 0.0699,0.66827 l 0,2.80131 -0.69158,0 0,-2.66532 q 0,-0.30694 -0.0388,-0.51287 -0.0389,-0.20592 -0.13211,-0.33025 -0.0894,-0.12821 -0.237,-0.17872 -0.14764,-0.0544 -0.36133,-0.0544 -0.22147,0 -0.40019,0.0855 -0.17873,0.0816 -0.30694,0.24478 -0.12433,0.16318 -0.19427,0.40795 -0.066,0.24478 -0.066,0.56726 l 0,2.43609 -0.69158,0 z"
         style=""
         id="path4362" />
      <path
         d="m 149.18396,140.73334 q 0,0.33025 0.066,0.60999 0.0699,0.27586 0.20981,0.4779 0.14375,0.19815 0.36522,0.31082 0.22146,0.10879 0.53228,0.10879 0.45459,0 0.72656,-0.18261 0.27586,-0.18261 0.37299,-0.46235 l 0.61388,0.17484 q -0.066,0.17484 -0.1865,0.35356 -0.11656,0.17484 -0.31471,0.3186 -0.19815,0.13987 -0.49732,0.23312 -0.29528,0.0894 -0.7149,0.0894 -0.93247,0 -1.42202,-0.5556 -0.48567,-0.5556 -0.48567,-1.65126 0,-0.59057 0.14765,-0.99853 0.14764,-0.41184 0.40407,-0.66827 0.25643,-0.25643 0.59834,-0.36911 0.34191,-0.11655 0.73044,-0.11655 0.5284,0 0.88196,0.17095 0.35745,0.17095 0.57115,0.47401 0.21757,0.29917 0.30693,0.70713 0.0933,0.40795 0.0933,0.88196 l 0,0.0933 -2.99946,0 z m 2.27679,-0.53617 q -0.0583,-0.66439 -0.33802,-0.96745 -0.27974,-0.30694 -0.80426,-0.30694 -0.17484,0 -0.3691,0.0583 -0.19038,0.0544 -0.35357,0.19815 -0.16318,0.14376 -0.27585,0.39242 -0.11268,0.24477 -0.12822,0.62554 l 2.26902,0 z"
         style=""
         id="path4364" />
      <path
         d="m 153.09259,142.68765 0,-3.22481 q 0,-0.1321 -0.004,-0.26809 0,-0.13987 -0.004,-0.26808 -0.004,-0.12822 -0.008,-0.24089 -0.004,-0.11268 -0.008,-0.20204 l 0.66051,0 q 0.004,0.0894 0.008,0.20592 0.008,0.11268 0.0117,0.23312 0.008,0.12045 0.008,0.23312 0.004,0.10879 0.004,0.1865 l 0.0155,0 q 0.0738,-0.24089 0.15541,-0.41573 0.0855,-0.17873 0.19816,-0.2914 0.11267,-0.11656 0.26808,-0.17095 0.15541,-0.0583 0.37688,-0.0583 0.0855,0 0.16318,0.0155 0.0777,0.0117 0.12045,0.0233 l 0,0.64108 q -0.0699,-0.0194 -0.16319,-0.0272 -0.0933,-0.0117 -0.2098,-0.0117 -0.24089,0 -0.41185,0.10879 -0.16707,0.10879 -0.27586,0.30306 -0.1049,0.19038 -0.15541,0.45846 -0.0505,0.2642 -0.0505,0.57891 l 0,2.19132 -0.69935,0 z"
         style=""
         id="path4366" />
      <path
         d="m 157.32758,144.33891 q -0.36133,0 -0.64108,-0.0738 -0.27974,-0.0738 -0.47789,-0.21369 -0.19815,-0.13599 -0.32248,-0.32637 -0.12433,-0.19038 -0.17873,-0.4235 l 0.70325,-0.10102 q 0.0699,0.2914 0.30694,0.44682 0.24088,0.15929 0.62942,0.15929 0.237,0 0.43127,-0.0661 0.19426,-0.066 0.33025,-0.21369 0.13598,-0.14376 0.20981,-0.37687 0.0738,-0.23312 0.0738,-0.56726 l 0,-0.67605 -0.008,0 q -0.0777,0.1593 -0.19427,0.30694 -0.11267,0.14376 -0.27974,0.25643 -0.16319,0.11268 -0.38076,0.18261 -0.21758,0.0661 -0.49732,0.0661 -0.40019,0 -0.6877,-0.13211 -0.28363,-0.13598 -0.46624,-0.40407 -0.17873,-0.26809 -0.2642,-0.66439 -0.0816,-0.40018 -0.0816,-0.9247 0,-0.50509 0.0816,-0.90917 0.0855,-0.40407 0.27197,-0.68381 0.19038,-0.28363 0.48955,-0.43127 0.30305,-0.15153 0.73432,-0.15153 0.44681,0 0.77318,0.20592 0.33025,0.20204 0.50898,0.57892 l 0.008,0 q 0,-0.0971 0.004,-0.21758 0.008,-0.12045 0.0117,-0.22535 0.008,-0.10879 0.0155,-0.1865 0.008,-0.0777 0.0155,-0.0894 l 0.66439,0 q -0.004,0.035 -0.008,0.12045 -0.004,0.0816 -0.008,0.19815 -0.004,0.11656 -0.008,0.26031 0,0.13988 0,0.2914 l 0,3.21316 q 0,0.88196 -0.43516,1.32489 -0.43127,0.44681 -1.32489,0.44681 z m 1.06458,-3.75321 q 0,-0.43904 -0.0971,-0.74987 -0.0932,-0.31471 -0.24866,-0.51286 -0.15541,-0.19815 -0.35745,-0.2914 -0.19815,-0.0932 -0.40795,-0.0932 -0.26809,0 -0.46236,0.0932 -0.19038,0.0933 -0.31859,0.29529 -0.12433,0.19815 -0.1865,0.51286 -0.0583,0.31082 -0.0583,0.74598 0,0.45458 0.0583,0.7654 0.0622,0.30694 0.1865,0.49732 0.12433,0.19038 0.31471,0.27198 0.19038,0.0816 0.45458,0.0816 0.20981,0 0.40796,-0.0894 0.20203,-0.0894 0.36133,-0.28363 0.1593,-0.19427 0.25643,-0.50121 0.0971,-0.30694 0.0971,-0.74209 z"
         style=""
         id="path4368" />
      <path
         d="m 160.70003,140.73334 q 0,0.33025 0.066,0.60999 0.0699,0.27586 0.20981,0.4779 0.14376,0.19815 0.36522,0.31082 0.22146,0.10879 0.53229,0.10879 0.45458,0 0.72655,-0.18261 0.27586,-0.18261 0.37299,-0.46235 l 0.61388,0.17484 q -0.066,0.17484 -0.18649,0.35356 -0.11656,0.17484 -0.31471,0.3186 -0.19816,0.13987 -0.49732,0.23312 -0.29529,0.0894 -0.7149,0.0894 -0.93248,0 -1.42203,-0.5556 -0.48566,-0.5556 -0.48566,-1.65126 0,-0.59057 0.14764,-0.99853 0.14764,-0.41184 0.40407,-0.66827 0.25643,-0.25643 0.59834,-0.36911 0.34191,-0.11655 0.73044,-0.11655 0.5284,0 0.88197,0.17095 0.35745,0.17095 0.57114,0.47401 0.21758,0.29917 0.30694,0.70713 0.0933,0.40795 0.0933,0.88196 l 0,0.0933 -2.99947,0 z m 2.2768,-0.53617 q -0.0583,-0.66439 -0.33803,-0.96745 -0.27974,-0.30694 -0.80426,-0.30694 -0.17483,0 -0.3691,0.0583 -0.19038,0.0544 -0.35356,0.19815 -0.16319,0.14376 -0.27586,0.39242 -0.11268,0.24477 -0.12822,0.62554 l 2.26903,0 z"
         style=""
         id="path4370" />
    </g>
    <path
       sodipodi:nodetypes="cc"
       style="fill:none;fill-rule:evenodd;stroke:#000000;stroke-width:0.60000002;stroke-linecap:butt;stroke-linejoin:miter;stroke-miterlimit:4;stroke-dasharray:none;stroke-opacity:1"
       d="m 140,143.36225 -5.99998,4.99999"
       id="path4221"
       inkscape:connector-curvature="0" />
  </g>
</svg>
