<?xml version="1.0" encoding="UTF-8" standalone="no"?>
<!-- Created with Inkscape (http://www.inkscape.org/) -->

<svg
   xmlns:dc="http://purl.org/dc/elements/1.1/"
   xmlns:cc="http://creativecommons.org/ns#"
   xmlns:rdf="http://www.w3.org/1999/02/22-rdf-syntax-ns#"
   xmlns:svg="http://www.w3.org/2000/svg"
   xmlns="http://www.w3.org/2000/svg"
   xmlns:sodipodi="http://sodipodi.sourceforge.net/DTD/sodipodi-0.dtd"
   xmlns:inkscape="http://www.inkscape.org/namespaces/inkscape"
   width="40.051506mm"
   height="40.05159mm"
   viewBox="0 0 141.91479 141.91508"
   id="svg7766"
   version="1.1"
   inkscape:version="0.91 r13725"
   sodipodi:docname="info.svg">
  <defs
     id="defs7768" />
  <sodipodi:namedview
     id="base"
     pagecolor="#ffffff"
     bordercolor="#666666"
     borderopacity="1.0"
     inkscape:pageopacity="0.0"
     inkscape:pageshadow="2"
     inkscape:zoom="1.979899"
     inkscape:cx="154.64749"
     inkscape:cy="45.537567"
     inkscape:document-units="px"
     inkscape:current-layer="layer1"
     showgrid="false"
     inkscape:window-width="1920"
     inkscape:window-height="1149"
     inkscape:window-x="1920"
     inkscape:window-y="27"
     inkscape:window-maximized="1"
     fit-margin-top="0"
     fit-margin-left="0"
     fit-margin-right="0"
     fit-margin-bottom="0" />
  <metadata
     id="metadata7771">
    <rdf:RDF>
      <cc:Work
         rdf:about="">
        <dc:format>image/svg+xml</dc:format>
        <dc:type
           rdf:resource="http://purl.org/dc/dcmitype/StillImage" />
        <dc:title></dc:title>
      </cc:Work>
    </rdf:RDF>
  </metadata>
  <g
     inkscape:label="Ebene 1"
     inkscape:groupmode="layer"
     id="layer1"
     transform="translate(422.79102,-308.19132)">
    <path
       style="opacity:1;fill:#000000;fill-opacity:1;stroke:#ff0000;stroke-width:1;stroke-linejoin:round;stroke-miterlimit:4;stroke-dasharray:none;stroke-dashoffset:0;stroke-opacity:0"
       d="m -351.94727,308.69141 a 70.458138,70.458138 0 0 0 -70.34375,70.07812 l 0.0176,1.97266 a 70.458138,70.458138 0 0 0 71.53906,68.85547 70.458138,70.458138 0 0 0 69.35547,-71.05664 70.458138,70.458138 0 0 0 -70.56836,-69.84961 z m -1.01171,20.45703 c 3.38474,0 6.25681,1.20029 8.61328,3.59961 2.39931,2.35647 3.59765,5.26979 3.59765,8.74023 0,3.38475 -1.19834,6.27647 -3.59765,8.67578 -2.35647,2.35647 -5.22854,3.53516 -8.61328,3.53516 -3.47044,0 -6.40538,-1.17869 -8.80469,-3.53516 -2.39932,-2.35647 -3.59766,-5.24819 -3.59766,-8.67578 0,-3.47044 1.19834,-6.38376 3.59766,-8.74023 2.39931,-2.39932 5.33425,-3.59961 8.80469,-3.59961 z m -19.98633,31.68359 32.45508,0 0,60.54102 9.76953,0 0,7.77539 -42.22461,0 0,-7.77539 9.70508,0 0,-52.76367 -9.70508,0 0,-7.77735 z"
       id="path8338"
       inkscape:connector-curvature="0" />
    <flowRoot
       xml:space="preserve"
       id="flowRoot8314"
       style="font-style:normal;font-weight:normal;font-size:4.375px;line-height:125%;font-family:Sans;text-align:end;letter-spacing:0px;word-spacing:0px;text-anchor:end;fill:#000000;fill-opacity:1;stroke:none;stroke-width:1px;stroke-linecap:butt;stroke-linejoin:miter;stroke-opacity:1"><flowRegion
         id="flowRegion8316"><rect
           id="rect8318"
           width="220"
           height="202.85715"
           x="-968.57141"
           y="215.21935" /></flowRegion><flowPara
         id="flowPara8320"></flowPara></flowRoot>    <path
       style="opacity:1;fill:none;fill-opacity:1;stroke:#ff0000;stroke-width:0.60000002;stroke-linejoin:round;stroke-miterlimit:4;stroke-dasharray:none;stroke-dashoffset:0;stroke-opacity:0"
       id="path8326"
       sodipodi:type="arc"
       sodipodi:cx="-349.26025"
       sodipodi:cy="367.22623"
       sodipodi:rx="67.932762"
       sodipodi:ry="67.932762"
       sodipodi:start="3.1469857"
       sodipodi:end="3.1465145"
       sodipodi:open="true"
       d="m -417.19203,366.85986 a 67.932762,67.932762 0 0 1 68.29014,-67.56545 67.932762,67.932762 0 0 1 67.57349,68.28217 67.932762,67.932762 0 0 1 -68.27421,67.58155 67.932762,67.932762 0 0 1 -67.58958,-68.26626" />
  </g>
</svg>
