<?xml version="1.0" encoding="UTF-8" standalone="no"?>
<!-- Generator: Adobe Illustrator 16.0.4, SVG Export Plug-In . SVG Version: 6.00 Build 0)  -->

<svg
   xmlns:dc="http://purl.org/dc/elements/1.1/"
   xmlns:cc="http://creativecommons.org/ns#"
   xmlns:rdf="http://www.w3.org/1999/02/22-rdf-syntax-ns#"
   xmlns:svg="http://www.w3.org/2000/svg"
   xmlns="http://www.w3.org/2000/svg"
   xmlns:sodipodi="http://sodipodi.sourceforge.net/DTD/sodipodi-0.dtd"
   xmlns:inkscape="http://www.inkscape.org/namespaces/inkscape"
   version="1.1"
   id="Ebene_1"
   x="0px"
   y="0px"
   width="343.38351"
   height="93.599998"
   viewBox="0 0 343.38351 93.599999"
   enable-background="new 0 0 254 90"
   xml:space="preserve"
   inkscape:version="0.91 r13725"
   sodipodi:docname="kops.svg"><title
     id="title4261">this is not the KOPS logo because KOPS does not have a logo</title><metadata
     id="metadata145"><rdf:RDF><cc:Work
         rdf:about=""><dc:format>image/svg+xml</dc:format><dc:type
           rdf:resource="http://purl.org/dc/dcmitype/StillImage" /><dc:title>not the KOPS logo because KOPS does not have a logo</dc:title></cc:Work></rdf:RDF></metadata><defs
     id="defs143" /><sodipodi:namedview
     pagecolor="#ffffff"
     bordercolor="#666666"
     borderopacity="1"
     objecttolerance="10"
     gridtolerance="10"
     guidetolerance="10"
     inkscape:pageopacity="0"
     inkscape:pageshadow="2"
     inkscape:window-width="1920"
     inkscape:window-height="1151"
     id="namedview141"
     showgrid="false"
     inkscape:snap-page="true"
     inkscape:object-nodes="true"
     inkscape:zoom="2.8005883"
     inkscape:cx="177.77562"
     inkscape:cy="142.89578"
     inkscape:window-x="1920"
     inkscape:window-y="27"
     inkscape:window-maximized="1"
     inkscape:current-layer="Ebene_1"
     inkscape:snap-text-baseline="false"
     inkscape:snap-center="true"
     showguides="false"
     fit-margin-top="1.5"
     fit-margin-left="1"
     fit-margin-right="1"
     fit-margin-bottom="1.5"
     inkscape:snap-bbox="true"
     inkscape:bbox-nodes="true" /><rect
     style="opacity:1;fill:#009bdf;fill-opacity:0.94117647;stroke:#ff0000;stroke-width:0.51376152;stroke-linejoin:round;stroke-miterlimit:4;stroke-dasharray:none;stroke-dashoffset:0;stroke-opacity:0"
     id="rect3475"
     width="224.63895"
     height="83.927605"
     x="1.2568808"
     y="4.8361979" /><g
     id="g4640"
     transform="matrix(0.04018772,0,0,0.04018772,8.089143,18.829346)"
     style="fill:#000000;fill-opacity:1;stroke:none"><path
       inkscape:connector-curvature="0"
       id="path4619"
       d="m 1403,1393 -387,0 -410,-598 -147,149 0,449 -309,0 L 150,0 459,0 459,559 999,0 1401,0 836,568 Z"
       style="fill:#000000;fill-opacity:1;fill-rule:evenodd;stroke:none;stroke-width:1px;stroke-linecap:butt;stroke-linejoin:miter;stroke-opacity:1" /><path
       inkscape:connector-curvature="0"
       id="path4619-5"
       d="m 1567,696 q 0,219 92,339.5 92,120.5 273,120.5 178,0 271,-120.5 93,-120.5 93,-339.5 0,-219 -95,-343 -95,-124 -269,-124 -176,0 -270.5,124 -94.5,124 -94.5,343 z m -309,0 q 0,-160 47,-293 47,-133 135,-228.5 88,-95.5 213,-147.5 125,-52 279,-52 154,0 278.5,52 124.5,52 212.5,147.5 88,95.5 135,228.5 47,133 47,293 0,160 -45,293 -45,133 -131,228 -86,95 -211,147.5 -125,52.5 -286,52.5 -160,0 -285,-52.5 -125,-52.5 -211,-147.5 -86,-95 -132,-228 -46,-133 -46,-293 z"
       style="fill:#000000;fill-opacity:1;fill-rule:evenodd;stroke:none;stroke-width:1px;stroke-linecap:butt;stroke-linejoin:miter;stroke-opacity:1" /><path
       style="fill:#000000;fill-opacity:1;fill-rule:evenodd;stroke:none;stroke-width:1px;stroke-linecap:butt;stroke-linejoin:miter;stroke-opacity:1"
       d="m 3019.5577,271 0,346 243,0 q 51,0 93.5,-4 42.5,-4 74.5,-21 45,-18 68,-53 23,-35 23,-94 0,-66 -24,-100.5 -24,-34.5 -69,-53.5 -33,-12 -74.5,-16 -41.5,-4 -93.5,-4 l -241,0 z m 0,618 0,504 -309,0 0,-1393 532,0 q 115,0 192.5,11.5 77.5,11.5 133.5,33.5 121,47 192.5,148.5 71.5,101.5 71.5,255.5 0,133 -48,219 -48,86 -147,145 -86,49 -184,62.5 -98,13.5 -227,13.5 l -207,0 z"
       id="path4636"
       inkscape:connector-curvature="0" /><path
       inkscape:connector-curvature="0"
       id="path4638"
       d="m 4833.6288,382.4352 q -71.9002,-69.90298 -163.7727,-110.34684 -91.8725,-40.44387 -195.7283,-40.44387 -97.8642,0 -158.2804,37.94733 -60.4161,37.94733 -60.4161,102.85724 0,67.90576 46.9348,100.36071 46.9349,32.45496 142.8018,51.42862 l 225.6868,44.93763 q 95.867,17.97505 173.2595,48.93209 77.3926,30.95703 131.8171,77.89189 54.4244,46.93486 83.8836,113.34269 29.4591,66.40783 29.4591,158.28032 0,108.84889 -44.9377,192.73249 -44.9376,83.8836 -123.3288,139.806 -78.3912,55.9224 -185.7422,85.8808 -107.351,29.9584 -230.1805,29.9584 -120.8323,0 -222.1916,-28.9598 -101.3594,-28.9598 -181.2485,-71.9002 -79.8891,-42.9404 -135.8115,-93.8697 -55.9224,-50.9294 -88.8766,-95.867 l 214.702,-184.74357 q 65.9085,85.88077 170.763,151.78937 104.8545,65.9085 250.6521,65.9085 122.8295,0 189.2374,-44.4383 66.4078,-44.4384 66.4078,-121.33164 0,-71.90021 -56.4217,-100.36071 -56.4217,-28.4605 -152.2886,-45.43694 L 4380.258,811.83922 q -95.8669,-17.97505 -176.7546,-46.43555 -80.8878,-28.4605 -141.3039,-75.89466 -60.4162,-47.43417 -94.369,-117.83645 -33.9529,-70.40229 -33.9529,-172.26092 0,-93.86971 40.9432,-171.76161 40.9431,-77.89189 112.8433,-134.313578 71.9002,-56.421691 169.7644,-86.879418 97.8642,-30.457727 212.7048,-30.457727 185.7422,0 328.0447,61.414761 142.3025,61.414761 232.1777,157.281702 z"
       style="fill:#000000;fill-opacity:1;fill-rule:evenodd;stroke:none;stroke-width:0.99861401px;stroke-linecap:butt;stroke-linejoin:miter;stroke-opacity:1" /></g><g
     transform="matrix(0.3977667,0,0,-0.3977667,249.59409,93.766202)"
     inkscape:label="unisignetPur"
     id="g4654"><g
       id="g4656" /><g
       id="g4658"><g
         transform="matrix(1,0,0,-1,-362.5,316.5)"
         id="g4660"><path
           inkscape:connector-curvature="0"
           id="path4662"
           style="fill:none;stroke:#000000;stroke-width:1;stroke-linecap:square;stroke-linejoin:miter;stroke-miterlimit:10;stroke-dasharray:none;stroke-opacity:1"
           d="m 368.504,85.0394 226.772,0 0,226.7716 -226.772,0 0,-226.7716" /></g><g
         transform="matrix(1,0,0,-1,-362.5,316.5)"
         id="g4664"><path
           inkscape:connector-curvature="0"
           id="path4666"
           style="fill:none;stroke:#000000;stroke-width:1;stroke-linecap:butt;stroke-linejoin:miter;stroke-miterlimit:10;stroke-dasharray:none;stroke-opacity:1"
           d="m 439.37,103.937 -28.346,0" /></g><g
         transform="matrix(1,0,0,-1,-362.5,316.5)"
         id="g4668"><path
           inkscape:connector-curvature="0"
           id="path4670"
           style="fill:none;stroke:#000000;stroke-width:1;stroke-linecap:butt;stroke-linejoin:miter;stroke-miterlimit:10;stroke-dasharray:none;stroke-opacity:1"
           d="m 368.504,297.638 226.772,0" /></g><g
         transform="matrix(1,0,0,-1,-362.5,316.5)"
         id="g4672"><path
           inkscape:connector-curvature="0"
           id="path4674"
           style="fill:none;stroke:#000000;stroke-width:1;stroke-linecap:butt;stroke-linejoin:miter;stroke-miterlimit:10;stroke-dasharray:none;stroke-opacity:1"
           d="m 595.276,283.465 -170.079,0" /></g><g
         transform="matrix(1,0,0,-1,-362.5,316.5)"
         id="g4676"><path
           inkscape:connector-curvature="0"
           id="path4678"
           style="fill:none;stroke:#000000;stroke-width:1;stroke-linecap:butt;stroke-linejoin:miter;stroke-miterlimit:10;stroke-dasharray:none;stroke-opacity:1"
           d="m 396.85,297.638 0,14.173" /></g><g
         transform="matrix(1,0,0,-1,-362.5,316.5)"
         id="g4680"><path
           inkscape:connector-curvature="0"
           id="path4682"
           style="fill:none;stroke:#000000;stroke-width:1;stroke-linecap:butt;stroke-linejoin:miter;stroke-miterlimit:10;stroke-dasharray:none;stroke-opacity:1"
           d="m 425.197,85.0394 0.002,226.7716" /></g><g
         transform="matrix(1,0,0,-1,-362.5,316.5)"
         id="g4684"><path
           inkscape:connector-curvature="0"
           id="path4686"
           style="fill:none;stroke:#000000;stroke-width:1;stroke-linecap:butt;stroke-linejoin:miter;stroke-miterlimit:10;stroke-dasharray:none;stroke-opacity:1"
           d="m 453.545,255.118 -0.002,56.693" /></g><g
         transform="matrix(1,0,0,-1,-362.5,316.5)"
         id="g4688"><path
           inkscape:connector-curvature="0"
           id="path4690"
           style="fill:none;stroke:#000000;stroke-width:1;stroke-linecap:butt;stroke-linejoin:miter;stroke-miterlimit:10;stroke-dasharray:none;stroke-opacity:1"
           d="m 481.89,85.0394 0,226.7716" /></g><g
         transform="matrix(1,0,0,-1,-362.5,316.5)"
         id="g4692"><path
           inkscape:connector-curvature="0"
           id="path4694"
           style="fill:none;stroke:#000000;stroke-width:1;stroke-linecap:butt;stroke-linejoin:miter;stroke-miterlimit:10;stroke-dasharray:none;stroke-opacity:1"
           d="m 510.236,188.976 0.002,122.835" /></g><g
         transform="matrix(1,0,0,-1,-362.5,316.5)"
         id="g4696"><path
           inkscape:connector-curvature="0"
           id="path4698"
           style="fill:none;stroke:#000000;stroke-width:1;stroke-linecap:butt;stroke-linejoin:miter;stroke-miterlimit:10;stroke-dasharray:none;stroke-opacity:1"
           d="m 538.583,188.976 0.002,122.835" /></g><g
         transform="matrix(1,0,0,-1,-362.5,316.5)"
         id="g4700"><path
           inkscape:connector-curvature="0"
           id="path4702"
           style="fill:none;stroke:#000000;stroke-width:1;stroke-linecap:butt;stroke-linejoin:miter;stroke-miterlimit:10;stroke-dasharray:none;stroke-opacity:1"
           d="m 566.929,141.732 0.098,170.079" /></g><g
         transform="matrix(1,0,0,-1,-362.5,316.5)"
         id="g4704"><path
           inkscape:connector-curvature="0"
           id="path4706"
           style="fill:none;stroke:#000000;stroke-width:1;stroke-linecap:butt;stroke-linejoin:miter;stroke-miterlimit:10;stroke-dasharray:none;stroke-opacity:1"
           d="m 368.504,255.118 226.772,0" /></g><g
         transform="matrix(1,0,0,-1,-362.5,316.5)"
         id="g4708"><path
           inkscape:connector-curvature="0"
           id="path4710"
           style="fill:none;stroke:#000000;stroke-width:1;stroke-linecap:butt;stroke-linejoin:miter;stroke-miterlimit:10;stroke-dasharray:none;stroke-opacity:1"
           d="m 368.504,198.521 226.772,-0.7711" /></g><g
         transform="matrix(1,0,0,-1,-362.5,316.5)"
         id="g4712"><path
           inkscape:connector-curvature="0"
           id="path4714"
           style="fill:none;stroke:#000000;stroke-width:1;stroke-linecap:butt;stroke-linejoin:miter;stroke-miterlimit:10;stroke-dasharray:none;stroke-opacity:1"
           d="m 368.504,141.801 226.772,-0.5512" /></g><g
         transform="matrix(1,0,0,-1,-362.5,316.5)"
         id="g4716"><path
           inkscape:connector-curvature="0"
           id="path4718"
           style="fill:none;stroke:#000000;stroke-width:1;stroke-linecap:butt;stroke-linejoin:bevel;stroke-miterlimit:10;stroke-dasharray:none;stroke-opacity:1"
           d="m 425.1988,282.6961 14.0782,-27.5781 14.204,28.347 14.204,-28.347 14.205,28.347" /></g><g
         transform="matrix(1,0,0,-1,-362.5,316.5)"
         id="g4720"><path
           inkscape:connector-curvature="0"
           id="path4722"
           style="fill:none;stroke:#000000;stroke-width:1;stroke-linecap:butt;stroke-linejoin:bevel;stroke-miterlimit:10;stroke-dasharray:none;stroke-opacity:1"
           d="m 566.6658,255.118 14.8252,-28.346 13.785,28.346" /></g><g
         transform="matrix(1,0,0,-1,-362.5,316.5)"
         id="g4724"><path
           inkscape:connector-curvature="0"
           id="path4726"
           style="fill:none;stroke:#000000;stroke-width:1;stroke-linecap:butt;stroke-linejoin:miter;stroke-miterlimit:10;stroke-dasharray:none;stroke-opacity:1"
           d="m 491.387,217.323 -0.3868,80.315" /></g><g
         transform="matrix(1,0,0,-1,-362.5,316.5)"
         id="g4728"><path
           inkscape:connector-curvature="0"
           id="path4730"
           style="fill:none;stroke:#000000;stroke-width:1;stroke-linecap:butt;stroke-linejoin:miter;stroke-miterlimit:10;stroke-dasharray:none;stroke-opacity:1"
           d="m 500.788,217.323 -0.001,80.315" /></g><g
         transform="matrix(1,0,0,-1,-362.5,316.5)"
         id="g4732"><path
           inkscape:connector-curvature="0"
           id="path4734"
           style="fill:none;stroke:#000000;stroke-width:1;stroke-linecap:butt;stroke-linejoin:miter;stroke-miterlimit:10;stroke-dasharray:none;stroke-opacity:1"
           d="m 524.409,160.63 -4.408,37.795 -0.316,99.213" /></g><g
         transform="matrix(1,0,0,-1,-362.5,316.5)"
         id="g4736"><path
           inkscape:connector-curvature="0"
           id="path4738"
           style="fill:none;stroke:#000000;stroke-width:1;stroke-linecap:butt;stroke-linejoin:miter;stroke-miterlimit:10;stroke-dasharray:none;stroke-opacity:1"
           d="m 548.032,217.323 -0.001,80.315" /></g><g
         transform="matrix(1,0,0,-1,-362.5,316.5)"
         id="g4740"><path
           inkscape:connector-curvature="0"
           id="path4742"
           style="fill:none;stroke:#000000;stroke-width:1;stroke-linecap:butt;stroke-linejoin:miter;stroke-miterlimit:10;stroke-dasharray:none;stroke-opacity:1"
           d="m 557.481,217.323 -10e-4,80.315" /></g><g
         transform="matrix(1,0,0,-1,-362.5,316.5)"
         id="g4744"><path
           inkscape:connector-curvature="0"
           id="path4746"
           style="fill:none;stroke:#000000;stroke-width:1;stroke-linecap:butt;stroke-linejoin:miter;stroke-miterlimit:10;stroke-dasharray:none;stroke-opacity:1"
           d="m 510.236,198.425 14.173,-37.795 14.174,37.795" /></g><g
         transform="matrix(1,0,0,-1,-362.5,316.5)"
         id="g4748"><path
           inkscape:connector-curvature="0"
           id="path4750"
           style="fill:none;stroke:#000000;stroke-width:1;stroke-linecap:butt;stroke-linejoin:miter;stroke-miterlimit:10;stroke-dasharray:none;stroke-opacity:1"
           d="m 524.409,160.63 4.725,37.795 -0.339,99.213" /></g><g
         transform="matrix(1,0,0,-1,-362.5,316.5)"
         id="g4752"><path
           inkscape:connector-curvature="0"
           id="path4754"
           style="fill:none;stroke:#000000;stroke-width:1;stroke-linecap:butt;stroke-linejoin:miter;stroke-miterlimit:10;stroke-dasharray:none;stroke-opacity:1"
           d="m 496.063,250.394 0,28.346" /></g><g
         transform="matrix(1,0,0,-1,-362.5,316.5)"
         id="g4756"><path
           inkscape:connector-curvature="0"
           id="path4758"
           style="fill:none;stroke:#000000;stroke-width:1;stroke-linecap:butt;stroke-linejoin:miter;stroke-miterlimit:10;stroke-dasharray:none;stroke-opacity:1"
           d="m 524.409,250.394 0,28.346" /></g><g
         transform="matrix(1,0,0,-1,-362.5,316.5)"
         id="g4760"><path
           inkscape:connector-curvature="0"
           id="path4762"
           style="fill:none;stroke:#000000;stroke-width:1;stroke-linecap:butt;stroke-linejoin:miter;stroke-miterlimit:10;stroke-dasharray:none;stroke-opacity:1"
           d="m 552.756,250.394 0,28.346" /></g><g
         transform="matrix(1,0,0,-1,-362.5,316.5)"
         id="g4764"><path
           inkscape:connector-curvature="0"
           id="path4766"
           style="fill:none;stroke:#000000;stroke-width:1;stroke-linecap:butt;stroke-linejoin:miter;stroke-miterlimit:10;stroke-dasharray:none;stroke-opacity:1"
           d="m 566.929,240.945 -85.039,0" /></g><g
         transform="matrix(1,0,0,-1,-362.5,316.5)"
         id="g4768"><path
           inkscape:connector-curvature="0"
           id="path4770"
           style="fill:none;stroke:#000000;stroke-width:1;stroke-linecap:butt;stroke-linejoin:miter;stroke-miterlimit:10;stroke-dasharray:none;stroke-opacity:1"
           d="m 595.276,226.772 -113.386,0" /></g><g
         transform="matrix(1,0,0,-1,-362.5,316.5)"
         id="g4772"><path
           inkscape:connector-curvature="0"
           id="path4774"
           style="fill:none;stroke:#000000;stroke-width:1;stroke-linecap:butt;stroke-linejoin:miter;stroke-miterlimit:10;stroke-dasharray:none;stroke-opacity:1"
           d="m 566.929,151.181 28.347,0.06" /></g><g
         transform="matrix(1,0,0,-1,-362.5,316.5)"
         id="g4776"><path
           inkscape:connector-curvature="0"
           id="path4778"
           style="fill:none;stroke:#000000;stroke-width:1;stroke-linecap:butt;stroke-linejoin:miter;stroke-miterlimit:10;stroke-dasharray:none;stroke-opacity:1"
           d="m 396.85,160.63 198.426,0" /></g><g
         transform="matrix(1,0,0,-1,-362.5,316.5)"
         id="g4780"><path
           inkscape:connector-curvature="0"
           id="path4782"
           style="fill:none;stroke:#000000;stroke-width:1;stroke-linecap:butt;stroke-linejoin:miter;stroke-miterlimit:10;stroke-dasharray:none;stroke-opacity:1"
           d="m 368.504,170.079 152.3734,-0.0312" /></g><g
         transform="matrix(1,0,0,-1,-362.5,316.5)"
         id="g4784"><path
           inkscape:connector-curvature="0"
           id="path4786"
           style="fill:none;stroke:#000000;stroke-width:1;stroke-linecap:butt;stroke-linejoin:miter;stroke-miterlimit:10;stroke-dasharray:none;stroke-opacity:1"
           d="m 527.953,170.0802 67.323,0.0728" /></g><g
         transform="matrix(1,0,0,-1,-362.5,316.5)"
         id="g4788"><path
           inkscape:connector-curvature="0"
           id="path4790"
           style="fill:none;stroke:#000000;stroke-width:1;stroke-linecap:butt;stroke-linejoin:miter;stroke-miterlimit:10;stroke-dasharray:none;stroke-opacity:1"
           d="m 566.929,179.528 28.347,0" /></g><g
         transform="matrix(1,0,0,-1,-362.5,316.5)"
         id="g4792"><path
           inkscape:connector-curvature="0"
           id="path4794"
           style="fill:none;stroke:#000000;stroke-width:1;stroke-linecap:butt;stroke-linejoin:miter;stroke-miterlimit:10;stroke-dasharray:none;stroke-opacity:1"
           d="m 481.89,151.181 56.693,0" /></g><g
         transform="matrix(1,0,0,-1,-362.5,316.5)"
         id="g4796"><path
           inkscape:connector-curvature="0"
           id="path4798"
           style="fill:none;stroke:#000000;stroke-width:1;stroke-linecap:butt;stroke-linejoin:miter;stroke-miterlimit:10;stroke-dasharray:none;stroke-opacity:1"
           d="M 510.4991,141.4559 510.236,170.079" /></g><g
         transform="matrix(1,0,0,-1,-362.5,316.5)"
         id="g4800"><path
           inkscape:connector-curvature="0"
           id="path4802"
           style="fill:none;stroke:#000000;stroke-width:1;stroke-linecap:butt;stroke-linejoin:miter;stroke-miterlimit:10;stroke-dasharray:none;stroke-opacity:1"
           d="m 524.409,151.181 0,9.449" /></g><g
         transform="matrix(1,0,0,-1,-362.5,316.5)"
         id="g4804"><path
           inkscape:connector-curvature="0"
           id="path4806"
           style="fill:none;stroke:#000000;stroke-width:1;stroke-linecap:butt;stroke-linejoin:miter;stroke-miterlimit:10;stroke-dasharray:none;stroke-opacity:1"
           d="m 538.5001,85.0394 0.0939,85.0396" /></g><g
         transform="matrix(1,0,0,-1,-362.5,316.5)"
         id="g4808"><path
           inkscape:connector-curvature="0"
           id="path4810"
           style="fill:none;stroke:#000000;stroke-width:1;stroke-linecap:butt;stroke-linejoin:miter;stroke-miterlimit:10;stroke-dasharray:none;stroke-opacity:1"
           d="m 481.89,132.283 -27.897,-18.897 -0.45,85.039" /></g><g
         transform="matrix(1,0,0,-1,-362.5,316.5)"
         id="g4812"><path
           inkscape:connector-curvature="0"
           id="path4814"
           style="fill:none;stroke:#000000;stroke-width:1;stroke-linecap:butt;stroke-linejoin:miter;stroke-miterlimit:10;stroke-dasharray:none;stroke-opacity:1"
           d="m 439.37,94.48819 0,56.69281" /></g><g
         transform="matrix(1,0,0,-1,-362.5,316.5)"
         id="g4816"><path
           inkscape:connector-curvature="0"
           id="path4818"
           style="fill:none;stroke:#000000;stroke-width:1;stroke-linecap:butt;stroke-linejoin:miter;stroke-miterlimit:10;stroke-dasharray:none;stroke-opacity:1"
           d="m 538.583,141.732 14.173,9.449 14.173,-9.449" /></g><g
         transform="matrix(1,0,0,-1,-362.5,316.5)"
         id="g4820"><path
           inkscape:connector-curvature="0"
           id="path4822"
           style="fill:none;stroke:#000000;stroke-width:1;stroke-linecap:butt;stroke-linejoin:miter;stroke-miterlimit:10;stroke-dasharray:none;stroke-opacity:1"
           d="m 453.543,141.732 14.522,9.449 13.825,-9.449" /></g><g
         transform="matrix(1,0,0,-1,-362.5,316.5)"
         id="g4824"><path
           inkscape:connector-curvature="0"
           id="path4826"
           style="fill:none;stroke:#000000;stroke-width:1;stroke-linecap:butt;stroke-linejoin:miter;stroke-miterlimit:10;stroke-dasharray:none;stroke-opacity:1"
           d="m 396.85,141.732 14.522,9.449 13.825,-9.449" /></g><g
         transform="matrix(1,0,0,-1,-362.5,316.5)"
         id="g4828"><path
           inkscape:connector-curvature="0"
           id="path4830"
           style="fill:none;stroke:#000000;stroke-width:1;stroke-linecap:butt;stroke-linejoin:miter;stroke-miterlimit:10;stroke-dasharray:none;stroke-opacity:1"
           d="m 382.677,85.0394 0,66.1416 0,0" /></g><g
         transform="matrix(1,0,0,-1,-362.5,316.5)"
         id="g4832"><path
           inkscape:connector-curvature="0"
           id="path4834"
           style="fill:none;stroke:#000000;stroke-width:1;stroke-linecap:butt;stroke-linejoin:miter;stroke-miterlimit:10;stroke-dasharray:none;stroke-opacity:1"
           d="m 396.85,94.48819 0,75.59081" /></g><g
         transform="matrix(1,0,0,-1,-362.5,316.5)"
         id="g4836"><path
           inkscape:connector-curvature="0"
           id="path4838"
           style="fill:none;stroke:#000000;stroke-width:1;stroke-linecap:square;stroke-linejoin:miter;stroke-miterlimit:10;stroke-dasharray:none;stroke-opacity:1"
           d="m 439.37,94.48819 -42.52,0" /></g><g
         transform="matrix(1,0,0,-1,-362.5,316.5)"
         id="g4840"><path
           inkscape:connector-curvature="0"
           id="path4842"
           style="fill:none;stroke:#000000;stroke-width:1;stroke-linecap:butt;stroke-linejoin:miter;stroke-miterlimit:10;stroke-dasharray:none;stroke-opacity:1"
           d="m 439.37,113.386 -14.173,0" /></g><g
         transform="matrix(1,0,0,-1,-362.5,316.5)"
         id="g4844"><path
           inkscape:connector-curvature="0"
           id="path4846"
           style="fill:none;stroke:#000000;stroke-width:1;stroke-linecap:butt;stroke-linejoin:miter;stroke-miterlimit:10;stroke-dasharray:none;stroke-opacity:1"
           d="M 439.37,122.75 396.85,94.48819" /></g><g
         transform="matrix(1,0,0,-1,-362.5,316.5)"
         id="g4848"><path
           inkscape:connector-curvature="0"
           id="path4850"
           style="fill:none;stroke:#000000;stroke-width:1;stroke-linecap:butt;stroke-linejoin:miter;stroke-miterlimit:10;stroke-dasharray:none;stroke-opacity:1"
           d="m 396.85,151.181 -28.346,0" /></g><g
         transform="matrix(1,0,0,-1,-362.5,316.5)"
         id="g4852"><path
           inkscape:connector-curvature="0"
           id="path4854"
           style="fill:none;stroke:#000000;stroke-width:1;stroke-linecap:butt;stroke-linejoin:miter;stroke-miterlimit:10;stroke-dasharray:none;stroke-opacity:1"
           d="m 439.37,123 -70.866,-0.165" /></g><g
         transform="matrix(1,0,0,-1,-362.5,316.5)"
         id="g4856"><path
           inkscape:connector-curvature="0"
           id="path4858"
           style="fill:none;stroke:#000000;stroke-width:1;stroke-linecap:butt;stroke-linejoin:miter;stroke-miterlimit:10;stroke-dasharray:none;stroke-opacity:1"
           d="m 396.85,113.386 -28.346,0" /></g><g
         transform="matrix(1,0,0,-1,-362.5,316.5)"
         id="g4860"><path
           inkscape:connector-curvature="0"
           id="path4862"
           style="fill:none;stroke:#000000;stroke-width:1;stroke-linecap:butt;stroke-linejoin:miter;stroke-miterlimit:10;stroke-dasharray:none;stroke-opacity:1"
           d="m 396.85,103.937 -28.346,0" /></g><g
         transform="matrix(1,0,0,-1,-362.5,316.5)"
         id="g4864"><path
           inkscape:connector-curvature="0"
           id="path4866"
           style="fill:none;stroke:#000000;stroke-width:1;stroke-linecap:butt;stroke-linejoin:miter;stroke-miterlimit:10;stroke-dasharray:none;stroke-opacity:1"
           d="m 453.543,151.181 -28.346,0" /></g><g
         transform="matrix(1,0,0,-1,-362.5,316.5)"
         id="g4868"><path
           inkscape:connector-curvature="0"
           id="path4870"
           style="fill:none;stroke:#000000;stroke-width:1;stroke-linecap:butt;stroke-linejoin:miter;stroke-miterlimit:10;stroke-dasharray:none;stroke-opacity:1"
           d="m 481.89,179.528 -28.347,0" /></g><g
         transform="matrix(1,0,0,-1,-362.5,316.5)"
         id="g4872"><path
           inkscape:connector-curvature="0"
           id="path4874"
           style="fill:none;stroke:#000000;stroke-width:1;stroke-linecap:butt;stroke-linejoin:miter;stroke-miterlimit:10;stroke-dasharray:none;stroke-opacity:1"
           d="m 481.89,188.976 -28.347,0" /></g><g
         transform="matrix(1,0,0,-1,-362.5,316.5)"
         id="g4876"><path
           inkscape:connector-curvature="0"
           id="path4878"
           style="fill:none;stroke:#000000;stroke-width:1;stroke-linecap:butt;stroke-linejoin:miter;stroke-miterlimit:10;stroke-dasharray:none;stroke-opacity:1"
           d="m 382.677,94.48819 -14.173,0" /></g><g
         transform="matrix(1,0,0,-1,-362.5,316.5)"
         id="g4880"><path
           inkscape:connector-curvature="0"
           id="path4882"
           style="fill:none;stroke:#000000;stroke-width:1;stroke-linecap:butt;stroke-linejoin:miter;stroke-miterlimit:10;stroke-dasharray:none;stroke-opacity:1"
           d="m 396.8506,311.8111 c 0,-6.2622 6.3456,-11.3387 14.1733,-11.3387 7.8276,0 14.1732,5.0765 14.1732,11.3387 l -28.3465,0" /></g><g
         transform="matrix(1,0,0,-1,-362.5,316.5)"
         id="g4884"><path
           inkscape:connector-curvature="0"
           id="path4886"
           style="fill:none;stroke:#000000;stroke-width:1;stroke-linecap:butt;stroke-linejoin:miter;stroke-miterlimit:10;stroke-dasharray:none;stroke-opacity:1"
           d="m 425.1966,311.8111 c 0,-6.2622 6.3456,-11.3387 14.1732,-11.3387 7.8277,0 14.1733,5.0765 14.1733,11.3387 l -28.3465,0" /></g><g
         transform="matrix(1,0,0,-1,-362.5,316.5)"
         id="g4888"><path
           inkscape:connector-curvature="0"
           id="path4890"
           style="fill:none;stroke:#000000;stroke-width:1;stroke-linecap:butt;stroke-linejoin:miter;stroke-miterlimit:10;stroke-dasharray:none;stroke-opacity:1"
           d="m 453.5436,311.8111 c 0,-6.2622 6.3456,-11.3387 14.1732,-11.3387 7.8276,0 14.1732,5.0765 14.1732,11.3387 l -28.3464,0" /></g><g
         transform="matrix(1,0,0,-1,-362.5,316.5)"
         id="g4892"><path
           inkscape:connector-curvature="0"
           id="path4894"
           style="fill:none;stroke:#000000;stroke-width:1;stroke-linecap:butt;stroke-linejoin:miter;stroke-miterlimit:10;stroke-dasharray:none;stroke-opacity:1"
           d="m 481.89,132.283 -113.386,0" /></g><g
         transform="matrix(1,0,0,-1,-362.5,316.5)"
         id="g4896"><path
           inkscape:connector-curvature="0"
           id="path4898"
           style="fill:none;stroke:#000000;stroke-width:1;stroke-linecap:butt;stroke-linejoin:miter;stroke-miterlimit:10;stroke-dasharray:none;stroke-opacity:1"
           d="m 368.5042,311.8111 c 0,-6.2622 6.3456,-11.3387 14.1733,-11.3387 7.8277,0 14.1732,5.0765 14.1732,11.3387 l -28.3465,0" /></g></g></g></svg>