<?xml version="1.0" encoding="UTF-8" standalone="no"?>
<svg xmlns="http://www.w3.org/2000/svg" width="309" height="223" viewBox="0 0 309.1 223.4">
	<metadata xmlns:dc="http://purl.org/dc/elements/1.1/" xmlns:cc="http://creativecommons.org/ns#" xmlns:rdf="http://www.w3.org/1999/02/22-rdf-syntax-ns#"><rdf:RDF><cc:Work>
		<dc:format>image/svg+xml</dc:format>
		<dc:type rdf:resource="http://purl.org/dc/dcmitype/StillImage" />
		<dc:title>DSpace Logo</dc:title>
		<dc:creator>DuraSpace</dc:creator>
		<cc:license rdf:resource="https://creativecommons.org/licenses/by/4.0/" />
		<cc:attributionName>Yadhie Coy</cc:attributionName>
		<cc:attributionURL>https://duraspace.org/dspace/resources/logos/</cc:attributionURL>
	</cc:Work></rdf:RDF></metadata>
	<path d="m0 200.9v-21.5l11.3 0.1c10.7 0.1 11.4 0.2 13.5 0.9 8.7 2.9 13.9 9 14.9 17.7 1.2 10.2-4 19.1-13 22.5-3.8 1.4-6.2 1.7-16.8 1.7L0 222.4Zm23.4 12.1c4-2 6.3-5.2 7-9.9 0.9-6.1-1.8-12-6.6-14.3C21.4 187.6 18.7 187.2 13.2 187.2L9 187.2v13.6 13.6l6-0.1 6-0.1zm73.8-90.8C94.4 121.7 92 119.9 90.5 117 89.8 115.7 89.8 115.5 89.8 102.2c0-13 0-13.5 0.7-14.9 0.8-1.8 2.5-3.6 4.4-4.5 1.3-0.7 1.9-0.7 10.5-0.9 7.9-0.2 9.5-0.3 11.6-0.9C126.6 78.4 132.8 70.7 132.8 61.3c0-5.6-1.8-10.1-5.7-13.9-2.7-2.7-5-4.2-8.2-5.3-3.4-1.2-5.8-1.4-13.7-1.4-9.2 0-10-0.2-12.6-2.9-2.9-2.9-2.9-2.9-2.8-18.1L89.8 6.9 90.6 5.3C91.7 3.2 93.5 1.5 95.6 0.8 97 0.2 98.1 0.2 109.6 0.2c11.2 0 12.6 0.1 13.7 0.6 2 0.9 3.5 2.3 4.5 4.1L128.8 6.6 129 16c0.2 10.8 0.4 12 2.7 16.9 2.4 5.1 6.3 8.6 11.6 10.5 2.7 1 2.8 1 10.9 1.1 8.6 0.2 9.3 0.3 10.6 1.8 1.5 1.8 1.6 1.9 1.6 15 0 11.8 0 12.4-0.6 13.6-0.4 0.7-1.2 1.7-2 2.1l-1.3 0.9-8.3 0.2c-7.4 0.2-8.6 0.3-10.4 0.9-6.6 2.2-11.8 8-13.8 15.4-0.6 2.1-0.7 3.8-0.9 12.1-0.2 9-0.2 9.7-0.9 10.9-1 1.8-2.8 3.5-4.7 4.4-1.6 0.7-1.8 0.7-13.1 0.8-6.3 0-12.2-0.1-13-0.2zM154.6 110.9V99.2h11.6c13 0 14.1-0.1 18.5-2.4 5.3-2.8 8.9-7.1 10.9-13.1 0.8-2.2 0.8-2.3 0.9-21.3 0.1-16.6 0-19.4-0.4-21.6C194.6 34.2 190.2 28.4 184.2 25.5 179.8 23.3 179.3 23.3 166.3 23.1L154.6 23V11.5-0.1l12.7 0.2c11.3 0.1 13.1 0.2 15.7 0.8 4.3 0.9 7.8 2.2 11.4 3.9 4.6 2.3 7.6 4.5 11.8 8.6 7.1 7 11.4 15.5 12.9 25.3 0.7 4.5 0.7 40.4 0 45-2.4 16.2-13.1 29.6-28.5 35.7-6.3 2.5-11.7 3.2-26.3 3.2l-9.7 0z" fill="#92c644"/>
	<path d="m69.9 222.5c-3.9-0.9-7.7-2.7-10.5-5l-1.2-1 2.5-3.6 2.5-3.6 1.6 1.4c1.8 1.6 5.3 3.4 7.9 4 2.7 0.6 7.5 0.3 9.1-0.5 2.5-1.3 3.4-3.9 2-5.7-1-1.3-2.7-2-8.3-3.4-6.2-1.6-8.8-2.5-11.1-4-2.8-1.9-4.1-3.9-4.7-7.5-1.1-6.6 3.5-12.5 11.2-14.3 2.7-0.6 9.5-0.4 12.4 0.4 3.7 1 9.3 4.3 9 5.2-0.1 0.2-1.2 1.8-2.4 3.4l-2.3 3-1.5-1.1c-1.9-1.4-4.5-2.5-6.7-3-2.3-0.5-6.6-0.5-7.9 0.1-2 0.9-3.2 3.2-2.4 4.9 0.7 1.4 2.5 2.2 8.8 3.8 9 2.3 12.6 4.4 14.5 8.3 2.9 6 0.5 13.4-5.4 16.5-3.2 1.7-4.5 2-9.9 2.1-3.7 0.1-5.5 0-7.2-0.4zm164.7-0.1c-5.8-1.5-10.9-5.3-13.8-10.3-3.8-6.6-3.7-16.2 0.3-22.9 1.4-2.4 4.8-5.7 7.3-7.2 7.3-4.3 17.4-4.3 23.8-0.1 1.9 1.3 4.8 4.2 5.9 6l0.7 1.2-3.6 1.7c-2 1-3.7 1.7-3.9 1.7-0.2 0-0.8-0.6-1.4-1.4-3.4-4.6-10.3-5.9-15.8-2.8-8.6 4.7-9.2 18.9-1.1 24.5 2.5 1.7 4.7 2.3 8.1 2.1 2.5-0.1 3.3-0.3 4.7-1 1.7-0.9 3.2-2.2 4.6-4l0.8-1 3.7 1.9 3.7 1.9-1 1.6c-2.4 3.8-7 7.1-11.6 8.3-2.7 0.7-8.7 0.6-11.6-0.2zM114.2 201v-21.4h11.5c10.5 0 11.7 0.1 13.5 0.6 3.8 1.2 6.4 3.4 8 6.9 4 8.5-0.8 18-9.8 19.7-1 0.2-4.7 0.3-8.1 0.3H123.2v7.7 7.7h-4.5-4.5zm22.7-3c4.3-2.8 2.9-9.4-2.2-10.4C133.8 187.4 130.9 187.2 128.1 187.2H123.2v5.9 5.9l6.2-0.1c6.1-0.1 6.2-0.1 7.5-1zm30.8 3 8.2-21.4 5.8-0.1 5.8-0.1 0.3 0.9c0.2 0.5 3.9 10.1 8.2 21.3 4.3 11.2 7.9 20.5 7.9 20.6 0 0.1-2.3 0.2-5.1 0.2h-5.1l-0.4-1.2c-0.2-0.7-0.9-2.3-1.4-3.7l-0.9-2.5-9.3 0.1-9.3 0.1-1.3 3.5-1.3 3.5-5.1 0.1-5.1 0.1zm20.7 5.6c-0.1-0.2-1.6-4.3-3.3-9-1.7-4.8-3.2-8.7-3.3-8.9-0.2-0.2-6.8 17.4-6.8 18.1 0 0.1 3 0.2 6.8 0.2 5.3 0 6.7-0.1 6.6-0.4zM278.7 201v-21.4h15.2 15.2v3.8 3.8H298.4 287.7v4.6 4.6h10.6 10.6v4 4h-10.6-10.6v5 5h10.7 10.7v4 4h-15.2-15.2z" fill="#6d6e71"/>
</svg>
