<?xml version="1.0" encoding="UTF-8" standalone="no"?>
<!-- Created with Inkscape (http://www.inkscape.org/) -->

<svg
   xmlns:dc="http://purl.org/dc/elements/1.1/"
   xmlns:cc="http://creativecommons.org/ns#"
   xmlns:rdf="http://www.w3.org/1999/02/22-rdf-syntax-ns#"
   xmlns:svg="http://www.w3.org/2000/svg"
   xmlns="http://www.w3.org/2000/svg"
   xmlns:sodipodi="http://sodipodi.sourceforge.net/DTD/sodipodi-0.dtd"
   xmlns:inkscape="http://www.inkscape.org/namespaces/inkscape"
   width="74.224442mm"
   height="50.799999mm"
   viewBox="0 0 262.99999 180"
   id="svg2"
   version="1.1"
   inkscape:version="0.91 r13725"
   sodipodi:docname="dspace.svg">
  <defs
     id="defs4" />
  <sodipodi:namedview
     id="base"
     pagecolor="#ffffff"
     bordercolor="#666666"
     borderopacity="1.0"
     inkscape:pageopacity="0.0"
     inkscape:pageshadow="2"
     inkscape:zoom="1.979899"
     inkscape:cx="325.99012"
     inkscape:cy="72.766634"
     inkscape:document-units="px"
     inkscape:current-layer="layer1"
     showgrid="false"
     inkscape:window-width="1680"
     inkscape:window-height="1000"
     inkscape:window-x="0"
     inkscape:window-y="0"
     inkscape:window-maximized="1"
     fit-margin-top="0"
     fit-margin-left="0"
     fit-margin-right="0"
     fit-margin-bottom="0" />
  <metadata
     id="metadata7">
    <rdf:RDF>
      <cc:Work
         rdf:about="">
        <dc:format>image/svg+xml</dc:format>
        <dc:type
           rdf:resource="http://purl.org/dc/dcmitype/StillImage" />
        <dc:title></dc:title>
      </cc:Work>
    </rdf:RDF>
  </metadata>
  <g
     inkscape:label="Layer 1"
     inkscape:groupmode="layer"
     id="layer1"
     transform="translate(-78.730232,-166.64538)">
    <g
       id="g3347"
       transform="translate(-12.626908,-50.002551)">
      <path
         style="fill:#fcfcfb"
         d="m 91.35714,306.64793 0,-90 131.5,0 131.5,0 0,90 0,90 -131.5,0 -131.5,0 0,-90 z"
         id="path3363"
         inkscape:connector-curvature="0" />
      <path
         style="fill:#cde3a9"
         d="m 118.11249,383.88496 c -3.99832,-0.29172 -4.83696,-0.71403 -5.33159,-2.68476 -0.74956,-2.98651 -0.13265,-28.18345 0.71059,-29.02284 0.34889,-0.34731 4.73362,-0.67014 9.74384,-0.71741 8.16744,-0.0771 9.50762,0.17753 12.95936,2.46178 5.17252,3.42301 7.50921,8.53123 6.9557,15.20581 -0.93244,11.24401 -8.89206,15.93543 -25.0379,14.75742 z m 14.17207,-10.87189 c 4.77423,-6.06945 0.92669,-13.79709 -6.56337,-13.1823 l -3.86405,0.31716 -0.30147,6.39467 c -0.39749,8.43121 -0.0497,9.10533 4.69751,9.10533 3.08569,0 4.41591,-0.58112 6.03138,-2.63486 z m 27.25439,9.63126 c -3.7122,-1.68467 -4.27354,-2.33402 -4,-4.62718 0.48279,-4.04735 2.88977,-5.03767 7.23388,-2.97625 4.20957,1.99757 9.08431,1.80872 9.08431,-0.35193 0,-0.91691 -2.22917,-2.12634 -6,-3.25528 -7.86359,-2.35426 -10.91434,-5.65999 -10.19218,-11.04404 0.28748,-2.14332 1.29024,-4.74508 2.22835,-5.78169 3.83351,-4.23598 12.84403,-4.88326 19.5688,-1.40575 3.36517,1.7402 3.66548,3.67527 0.98618,6.35457 -1.80657,1.80657 -2.14511,1.82389 -6.31821,0.32325 -4.33851,-1.56012 -7.77294,-1.25172 -7.77294,0.69797 0,0.54606 1.9125,1.50065 4.25,2.12131 9.55975,2.53832 12.75,5.48415 12.75,11.77317 0,8.42232 -11.65075,12.78602 -21.81819,8.17185 z m 118.31819,0.60312 c -7.24877,-3.19476 -11.29509,-10.91166 -9.94271,-18.96214 1.01591,-6.04754 7.41135,-12.21021 13.64085,-13.14438 5.81813,-0.87249 10.58396,0.62635 14.28937,4.49396 2.32213,2.42379 2.59893,3.20396 1.57464,4.43816 -2.16732,2.61146 -4.90887,2.84061 -7.70171,0.64376 -1.44659,-1.13788 -3.72909,-2.06888 -5.07222,-2.06888 -3.57448,0 -8.28822,5.11855 -8.28822,9 0,3.88145 4.71374,9 8.28822,9 1.34313,0 3.62563,-0.931 5.07222,-2.06888 2.79044,-2.19496 5.53423,-1.96789 7.69603,0.63692 1.01164,1.21896 0.80031,1.96431 -1.1597,4.09015 -4.64001,5.03261 -12.23081,6.65886 -18.39677,3.94133 z m -83.89579,-2.29461 c -0.45788,-2.21885 -0.31866,-13.76369 0.33833,-28.05491 0.0419,-0.9122 2.6923,-1.24399 9.80746,-1.22776 7.7248,0.0176 10.19304,0.38111 11.88296,1.75 4.70832,3.81388 5.63951,9.62854 2.39432,14.95092 -2.07443,3.40225 -3.74612,4.08642 -11.02728,4.51312 l -4.5,0.26372 -0.5,5 c -0.49277,4.92771 -0.5529,5.00441 -4.15848,5.30491 -3.30375,0.27534 -3.71461,0.0329 -4.23731,-2.5 z m 15.86714,-16.6603 c 3.04351,-2.22547 1.25181,-4.64461 -3.43997,-4.64461 -3.55668,0 -4.03138,0.27475 -4.03138,2.33333 0,1.28334 0.3,2.63334 0.66667,3 1.12063,1.12064 4.84587,0.7436 6.80468,-0.68872 z m 17.07839,18.43588 c -0.31256,-0.50573 2.03577,-7.59323 5.2185,-15.75 l 5.78679,-14.83049 4.97249,0 4.97248,0 5.27931,13.34891 c 6.72962,17.01603 6.79137,17.56207 2.03094,17.95786 -3.03666,0.25248 -3.98627,-0.14577 -5.36501,-2.25 -1.45493,-2.22051 -2.3863,-2.55677 -7.08169,-2.55677 -4.79644,0 -5.53495,0.28207 -6.5455,2.5 -0.92263,2.02493 -1.85747,2.5 -4.91955,2.5 -2.07926,0 -4.0362,-0.41378 -4.34876,-0.91951 z m 18.45026,-13.01539 c 0,-0.5142 -0.46672,-2.16247 -1.03716,-3.66284 -1.16509,-3.06441 -2.45556,-2.38323 -3.50049,1.84774 -0.61019,2.47073 -0.41427,2.75 1.92924,2.75 1.43463,0 2.60841,-0.42071 2.60841,-0.9349 z m 65.45255,12.67184 c -0.28047,-0.7309 -0.38454,-7.83322 -0.23125,-15.78293 l 0.2787,-14.45401 11.5,0 11.5,0 0.30993,2.68274 c 0.32126,2.78075 -2.80017,5.55936 -4.83353,4.30267 -0.54025,-0.33389 -3.00595,-0.30361 -5.47934,0.0673 -3.50185,0.52514 -4.49706,1.09186 -4.49706,2.56083 0,1.66616 0.80496,1.88646 6.89301,1.88646 5.36304,0 7.02774,0.35109 7.5,1.58179 1.67521,4.36552 -1.03191,6.41821 -8.46444,6.41821 -5.2619,0 -5.92857,0.2249 -5.92857,2 0,1.77047 0.66667,2 5.80887,2 6.76668,0 9.53141,1.54696 9.0361,5.05603 -0.33978,2.40721 -0.51447,2.44823 -11.61372,2.7269 -8.65272,0.21724 -11.38713,-0.0256 -11.7787,-1.04599 z M 181.71414,312.65635 c -4.32016,-1.7434 -5.35919,-4.76396 -5.3252,-15.48093 0.043,-13.54953 1.75861,-15.52749 13.4682,-15.52749 9.20735,0 14.36352,-3.02639 16.57556,-9.72895 0.92441,-2.80099 0.82032,-4.25516 -0.56406,-7.88011 -2.29967,-6.0216 -7.07524,-8.46971 -17.0868,-8.75926 -6.19753,-0.17923 -7.74744,-0.58625 -9.88718,-2.59643 -2.41362,-2.26748 -2.53752,-2.91245 -2.53752,-13.20956 0,-15.05741 1.4341,-16.34577 17.45277,-15.67912 11.56211,0.48118 12.59312,1.52671 13.08229,13.26638 0.57257,13.74117 5.22113,18.58705 17.83019,18.58705 7.75126,0 8.63475,1.34791 8.63475,13.17375 0,11.68418 -0.8342,12.82625 -9.36858,12.82625 -11.78378,0 -16.78056,5.27259 -17.07841,18.02105 -0.21213,9.08002 -1.8516,12.38867 -6.61028,13.3404 -4.49299,0.8986 -16.02708,0.67951 -18.58573,-0.35303 z m 41.72167,-0.41362 c -0.73186,-0.88185 -1.0568,-4.32694 -0.87244,-9.25 l 0.29377,-7.8448 9.77525,-0.5736 c 10.46717,-0.6142 12.95608,-1.67478 17.16296,-7.31351 1.87946,-2.51915 2.06179,-4.16542 2.06179,-18.61619 0,-14.45184 -0.18219,-16.09656 -2.06179,-18.61289 -4.28848,-5.74124 -6.86939,-6.8452 -17.2604,-7.38296 l -9.67781,-0.50085 -0.29377,-7.8448 c -0.40636,-10.85126 -0.20279,-11.02353 12.26677,-10.38027 13.41194,0.69186 18.61394,2.65541 25.5682,9.65097 9.06488,9.11871 9.40937,10.313 9.76629,33.85864 0.29741,19.61952 0.22889,20.45554 -2.09016,25.5 -6.42928,13.98518 -18.15367,20.66295 -36.34489,20.70068 -4.91685,0.0102 -7.48927,-0.42106 -8.29377,-1.39042 z"
         id="path3361"
         inkscape:connector-curvature="0" />
      <path
         style="fill:#b8d689"
         d="m 160.185,382.0205 c -4.27814,-1.77593 -5.21714,-3.45793 -3.35338,-6.00679 1.29475,-1.77067 1.50088,-1.76973 6.50502,0.0297 4.07721,1.46614 5.67998,1.62503 7.5942,0.75285 4.5374,-2.06738 2.74297,-4.09942 -5.77707,-6.54203 -3.41375,-0.97869 -6.32426,-2.52155 -7.25,-3.84322 -1.77825,-2.53882 -2.01425,-7.02084 -0.51699,-9.81851 2.42839,-4.53748 10.88091,-6.2623 17.3804,-3.54664 3.85769,1.61184 4.83166,2.80859 4.01589,4.93447 -0.91698,2.38959 -3.08239,2.70905 -7.06983,1.04299 -2.79441,-1.16758 -4.2602,-1.28453 -6.02451,-0.48065 -4.30112,1.95972 -2.23992,4.28139 5.00829,5.64116 5.65053,1.06005 9.66012,4.84491 9.66012,9.1187 0,1.91226 -0.46334,4.3426 -1.02964,5.40075 -2.51194,4.6936 -11.90548,6.3214 -19.1425,3.31718 z m 35.37214,0.42743 c -1.66924,-1.66924 -1.66924,-27.93076 0,-29.6 1.47311,-1.47311 11.93226,-1.5687 17.02052,-0.15556 4.60892,1.28002 6.77948,4.23957 6.77948,9.24381 0,7.1566 -2.78907,9.62943 -11.9753,10.61751 l -5.5247,0.59424 -0.31891,4.48357 c -0.3964,5.57305 -3.07082,7.7267 -5.98109,4.81643 z m 15.21821,-17.40699 c 1.97104,-0.75636 2.05622,-3.75438 0.15158,-5.33509 -2.21548,-1.83869 -8.98104,-0.93828 -9.39605,1.25049 -0.62386,3.29028 0.63453,4.69159 4.21309,4.69159 1.89728,0 4.1614,-0.27314 5.03138,-0.60699 z m 17.71806,17.71237 c -1.09469,-0.69354 -0.27404,-3.69327 4.1596,-15.20474 5.77044,-14.98234 7.13966,-16.7611 11.969,-15.54901 2.71649,0.68179 3.09633,1.40726 9.36933,17.89437 3.66113,9.62242 4.30081,12.18034 3.21768,12.8667 -2.3458,1.48651 -3.95383,0.97677 -6.66479,-2.1127 -2.29244,-2.6125 -3.30531,-3 -7.84168,-3 -4.64665,0 -5.43992,0.32399 -7.34541,3 -2.15259,3.02303 -4.35095,3.69735 -6.86373,2.10538 z m 17.86373,-12.48326 c 0,-1.74047 -2.84492,-8.62212 -3.56445,-8.62212 -0.75308,0 -3.43555,6.6117 -3.43555,8.46788 0,1.08433 1.02295,1.53212 3.5,1.53212 2.30657,0 3.5,-0.46983 3.5,-1.37788 z m 31.45042,11.97128 c -9.36999,-4.08131 -12.31872,-16.84273 -5.70732,-24.69994 6.09389,-7.24218 16.04861,-7.93195 23.0069,-1.59418 2.84385,2.59024 2.82806,3.48021 -0.0853,4.80763 -1.87339,0.85357 -3.01069,0.65228 -5.75,-1.0177 -4.42759,-2.69922 -6.12065,-2.62825 -9.72884,0.40784 -3.62985,3.05432 -4.63585,6.60947 -3.1469,11.12103 1.93304,5.85716 10.40613,8.16531 14.01438,3.81764 1.50223,-1.81007 3.04244,-1.81738 5.49225,-0.026 1.90102,1.39007 1.90024,1.4402 -0.0565,3.60238 -4.42279,4.88712 -11.71637,6.33516 -18.03867,3.58134 z m 34.79958,0.74432 c -0.92103,-0.37164 -1.25,-4.40199 -1.25,-15.31406 0,-12.582 0.23793,-14.90099 1.58179,-15.41667 2.05454,-0.7884 16.78188,-0.7884 18.83642,0 2.05051,0.78685 2.05051,4.99917 0,5.78602 -0.86998,0.33385 -4.27487,0.60699 -7.56642,0.60699 -5.93873,0 -5.98221,0.0211 -5.66821,2.75 0.3048,2.64898 0.55519,2.76112 6.81642,3.0528 7.23931,0.33725 8.50638,1.02639 7.53195,4.09654 -0.59291,1.86809 -1.43425,2.10066 -7.59934,2.10066 l -6.93261,0 0,2.95619 0,2.95619 7.25,0.29381 c 6.78222,0.27485 7.27178,0.44782 7.58749,2.68072 0.18562,1.3128 -0.26438,2.76841 -1,3.23469 -1.41503,0.89693 -17.4615,1.07398 -19.58749,0.21612 z m -198.25,-15.33772 0,-15 8.75,0.004 c 9.95857,0.004 13.83734,1.63106 17.2554,7.23712 4.16049,6.82374 1.70983,16.52336 -5.24626,20.76454 -2.59482,1.58208 -5.04268,1.98789 -12.00914,1.99086 l -8.75,0.003 0,-15 z m 18.54546,6.54545 c 2.88892,-2.88892 3.33365,-8.84533 0.91793,-12.29426 -1.98337,-2.83165 -8.68964,-4.73565 -11.45921,-3.25343 -1.74254,0.93258 -2.00418,2.09065 -2.00418,8.87076 0,4.28898 0.3,8.09815 0.66667,8.46481 0.36666,0.36667 2.63712,0.66667 5.04545,0.66667 3.31575,0 4.97468,-0.59589 6.83334,-2.45455 z m 49.07585,-62.83062 c -3.46079,-1.16506 -4.62131,-4.81624 -4.62131,-14.53938 0,-12.02933 0.60046,-12.74383 11.26917,-13.40943 9.48891,-0.59199 13.52244,-2.26271 16.90199,-7.00093 3.08353,-4.32319 3.1873,-11.46677 0.22431,-15.44176 -3.52114,-4.72378 -7.71493,-6.5017 -17.04815,-7.22743 -10.99615,-0.85503 -11.34732,-1.29374 -11.34732,-14.17625 0,-13.77999 0.61246,-14.41965 13.80666,-14.41965 13.1138,0 13.78806,0.55692 14.38235,11.87949 0.72796,13.86954 4.86515,18.54241 17.3186,19.56103 5.05354,0.41335 7.91552,1.11459 8.53286,2.09072 0.5109,0.80782 0.9358,5.37412 0.94422,10.14733 0.0192,10.90249 -0.71212,11.82143 -9.40824,11.82143 -11.52994,0 -17.57645,7.07182 -17.57645,20.5569 0,9.4713 -0.82971,10.18897 -12.27318,10.61584 -4.82524,0.17999 -9.82272,-0.0261 -11.10551,-0.45791 z m 41.83713,-0.96255 c -0.30876,-0.80461 -0.42572,-4.34054 -0.25991,-7.85761 l 0.30147,-6.39467 9.57825,-0.5 c 8.6145,-0.44969 9.95838,-0.78997 13.35611,-3.38182 6.0112,-4.58546 6.78959,-7.65209 6.40208,-25.22212 -0.2986,-13.53853 -0.56836,-15.56478 -2.39823,-18.01346 -4.28982,-5.74052 -6.8701,-6.84402 -17.2604,-7.38175 l -9.67781,-0.50085 -0.29708,-7.41189 c -0.21058,-5.25379 0.0806,-7.65146 1,-8.23469 3.5314,-2.24013 21.35693,-0.13894 28.12852,3.31567 5.98783,3.05476 12.26689,10.14142 14.66515,16.55134 1.93506,5.1719 2.09193,7.3133 1.81099,24.72098 -0.34969,21.66771 -1.11309,24.43248 -8.92479,32.32227 -6.81818,6.88634 -11.57937,8.64142 -24.62288,9.07656 -9.18727,0.3065 -11.34262,0.1078 -11.80147,-1.08796 z"
         id="path3359"
         inkscape:connector-curvature="0" />
      <path
         style="fill:#9d9d9f"
         d="m 160.185,382.0205 c -4.27814,-1.77593 -5.21714,-3.45793 -3.35338,-6.00679 1.29475,-1.77067 1.50088,-1.76973 6.50502,0.0297 4.07721,1.46614 5.67998,1.62503 7.5942,0.75285 4.5374,-2.06738 2.74297,-4.09942 -5.77707,-6.54203 -3.41375,-0.97869 -6.32426,-2.52155 -7.25,-3.84322 -1.77825,-2.53882 -2.01425,-7.02084 -0.51699,-9.81851 2.42839,-4.53748 10.88091,-6.2623 17.3804,-3.54664 3.85769,1.61184 4.83166,2.80859 4.01589,4.93447 -0.91698,2.38959 -3.08239,2.70905 -7.06983,1.04299 -2.79441,-1.16758 -4.2602,-1.28453 -6.02451,-0.48065 -4.30112,1.95972 -2.23992,4.28139 5.00829,5.64116 5.65053,1.06005 9.66012,4.84491 9.66012,9.1187 0,1.91226 -0.46334,4.3426 -1.02964,5.40075 -2.51194,4.6936 -11.90548,6.3214 -19.1425,3.31718 z m 35.37214,0.42743 c -1.66924,-1.66924 -1.66924,-27.93076 0,-29.6 1.47311,-1.47311 11.93226,-1.5687 17.02052,-0.15556 4.60892,1.28002 6.77948,4.23957 6.77948,9.24381 0,7.1566 -2.78907,9.62943 -11.9753,10.61751 l -5.5247,0.59424 -0.31891,4.48357 c -0.3964,5.57305 -3.07082,7.7267 -5.98109,4.81643 z m 15.21821,-17.40699 c 1.97104,-0.75636 2.05622,-3.75438 0.15158,-5.33509 -2.21548,-1.83869 -8.98104,-0.93828 -9.39605,1.25049 -0.62386,3.29028 0.63453,4.69159 4.21309,4.69159 1.89728,0 4.1614,-0.27314 5.03138,-0.60699 z m 17.71806,17.71237 c -1.09469,-0.69354 -0.27404,-3.69327 4.1596,-15.20474 5.77044,-14.98234 7.13966,-16.7611 11.969,-15.54901 2.71649,0.68179 3.09633,1.40726 9.36933,17.89437 3.66113,9.62242 4.30081,12.18034 3.21768,12.8667 -2.3458,1.48651 -3.95383,0.97677 -6.66479,-2.1127 -2.29244,-2.6125 -3.30531,-3 -7.84168,-3 -4.64665,0 -5.43992,0.32399 -7.34541,3 -2.15259,3.02303 -4.35095,3.69735 -6.86373,2.10538 z m 17.86373,-12.48326 c 0,-1.74047 -2.84492,-8.62212 -3.56445,-8.62212 -0.75308,0 -3.43555,6.6117 -3.43555,8.46788 0,1.08433 1.02295,1.53212 3.5,1.53212 2.30657,0 3.5,-0.46983 3.5,-1.37788 z m 31.45042,11.97128 c -9.36999,-4.08131 -12.31872,-16.84273 -5.70732,-24.69994 6.09389,-7.24218 16.04861,-7.93195 23.0069,-1.59418 2.84385,2.59024 2.82806,3.48021 -0.0853,4.80763 -1.87339,0.85357 -3.01069,0.65228 -5.75,-1.0177 -4.42759,-2.69922 -6.12065,-2.62825 -9.72884,0.40784 -3.62985,3.05432 -4.63585,6.60947 -3.1469,11.12103 1.93304,5.85716 10.40613,8.16531 14.01438,3.81764 1.50223,-1.81007 3.04244,-1.81738 5.49225,-0.026 1.90102,1.39007 1.90024,1.4402 -0.0565,3.60238 -4.42279,4.88712 -11.71637,6.33516 -18.03867,3.58134 z m 34.79958,0.74432 c -0.92103,-0.37164 -1.25,-4.40199 -1.25,-15.31406 0,-12.582 0.23793,-14.90099 1.58179,-15.41667 2.05454,-0.7884 16.78188,-0.7884 18.83642,0 2.05051,0.78685 2.05051,4.99917 0,5.78602 -0.86998,0.33385 -4.27487,0.60699 -7.56642,0.60699 -5.93873,0 -5.98221,0.0211 -5.66821,2.75 0.3048,2.64898 0.55519,2.76112 6.81642,3.0528 7.23931,0.33725 8.50638,1.02639 7.53195,4.09654 -0.59291,1.86809 -1.43425,2.10066 -7.59934,2.10066 l -6.93261,0 0,2.95619 0,2.95619 7.25,0.29381 c 6.78222,0.27485 7.27178,0.44782 7.58749,2.68072 0.18562,1.3128 -0.26438,2.76841 -1,3.23469 -1.41503,0.89693 -17.4615,1.07398 -19.58749,0.21612 z m -197.25,-15.33772 0,-14 8.13197,0 c 6.51143,0 8.80797,0.4178 11.52424,2.09654 8.45943,5.22822 8.51017,18.54734 0.0905,23.75099 -2.8175,1.74131 -5.03612,2.15247 -11.61473,2.15247 l -8.13197,0 0,-14 z m 18.07692,7.07692 c 2.36236,-2.36236 2.92308,-3.78398 2.92308,-7.4111 0,-3.73473 -0.49154,-4.90164 -2.92853,-6.95223 -3.48569,-2.93301 -9.23647,-4.23083 -12.05746,-2.72109 -1.7844,0.95498 -2.01401,2.08092 -2.01401,9.87602 0,4.83898 0.3,9.09815 0.66667,9.46481 0.36666,0.36667 2.87628,0.66667 5.57692,0.66667 4.09379,0 5.3963,-0.48604 7.83333,-2.92308 z m 48.91013,-64.27051 c -3.08056,-1.15103 -3.98705,-4.23985 -3.98705,-13.58568 0,-11.0739 0.59873,-11.75296 11.01749,-12.49553 9.35317,-0.66664 13.92838,-2.78868 17.33291,-8.03924 2.95601,-4.55886 3.31217,-8.16445 1.28557,-13.01477 -2.8879,-6.91174 -10.19865,-10.6552 -20.82927,-10.66561 -7.7667,-0.008 -8.8067,-1.57511 -8.8067,-13.27354 0,-8.03424 0.21942,-9.04237 2.45454,-11.2775 2.18955,-2.18954 3.29617,-2.45295 10.25,-2.4398 4.28751,0.008 8.92046,0.58234 10.29546,1.27608 2.26143,1.14096 2.5572,2.02227 3.09943,9.23525 0.74507,9.91133 1.44179,12.22944 4.76291,15.84709 3.56772,3.88626 8.02386,5.62684 14.40554,5.62684 2.93267,0 5.87212,0.54 6.53212,1.2 1.62069,1.62069 1.62069,17.97931 0,19.6 -0.66,0.66 -3.82793,1.2 -7.03984,1.2 -7.12675,0 -12.32278,2.45664 -15.6009,7.37597 -1.81277,2.72034 -2.46308,5.38608 -2.8831,11.81834 -0.76983,11.7893 -0.59465,11.60436 -11.35165,11.98465 -4.99464,0.17657 -9.91649,0.009 -10.93746,-0.37255 z m 47.21849,0.38979 -5.29447,-0.3038 0.29447,-6.6962 0.29446,-6.6962 9,-0.53666 c 9.67471,-0.57689 11.53449,-1.24406 15.68638,-5.62728 4.16165,-4.39352 4.81362,-7.41878 4.81362,-22.33606 0,-14.91728 -0.65197,-17.94254 -4.81362,-22.33606 -4.15189,-4.38322 -6.01167,-5.05039 -15.68638,-5.62728 l -9,-0.53666 0,-7 0,-7 5,-0.33986 c 7.16095,-0.48675 18.31497,1.64424 23.1511,4.42305 5.63161,3.23589 11.86297,10.54245 13.7738,16.15042 1.20498,3.53642 1.57491,8.86926 1.57431,22.69453 -7.8e-4,17.80311 -0.0433,18.16169 -2.8584,24.11223 -6.21351,13.13404 -17.56253,18.71007 -35.93527,17.65583 z"
         id="path3357"
         inkscape:connector-curvature="0" />
      <path
         style="fill:#94c54b"
         d="m 160.72719,381.20754 c -3.99115,-1.73689 -4.7484,-3.00072 -2.77784,-4.63614 1.14748,-0.95232 2.02828,-1.01706 3.27181,-0.24046 5.35978,3.34723 13.53217,2.12685 12.95532,-1.93462 -0.25362,-1.78565 -1.60187,-2.66248 -6.55095,-4.2604 -7.97936,-2.57632 -10.26839,-4.53888 -10.26839,-8.80389 0,-6.84188 9.16035,-10.73308 17.28016,-7.3404 3.97611,1.66132 4.53314,2.73643 2.35459,4.54446 -1.03005,0.85488 -2.07349,0.76369 -4.25,-0.37139 -3.71802,-1.93901 -6.83901,-1.91965 -8.81332,0.0547 -3.00716,3.00716 -1.23544,4.90684 6.47272,6.94022 2.83633,0.74821 6.01171,2.13392 7.0564,3.07935 1.89179,1.71205 2.52663,6.61101 1.27827,9.8642 -1.58934,4.14174 -11.64279,5.87479 -18.00877,3.10441 z m 35.87995,0.77372 c -0.91605,-0.36642 -1.25,-4.21285 -1.25,-14.39761 l 0,-13.89762 2.58604,-0.64905 c 1.42233,-0.35698 5.50331,-0.41489 9.06886,-0.12868 8.31453,0.66741 11.3451,3.13555 11.3451,9.23963 0,6.02036 -3.10846,8.62363 -11.22387,9.39977 l -6.27613,0.60023 -0.5,4.92245 c -0.49272,4.85083 -1.28998,5.89489 -3.75,4.91088 z m 15.5,-16.59366 c 1.68463,-1.3269 1.58421,-5.21741 -0.17231,-6.67519 -0.79588,-0.66053 -3.54853,-1.04477 -6.25,-0.87244 l -4.82769,0.30796 0,3.95492 c 0,3.3731 0.36777,4.05355 2.5,4.62541 2.81826,0.75587 6.87796,0.13385 8.75,-1.34066 z m 16.76277,16.281 c -0.33289,-0.53864 -0.16405,-1.80375 0.37521,-2.81136 0.53926,-1.00761 2.81375,-6.71274 5.05443,-12.67807 2.24068,-5.96532 4.57538,-11.45021 5.18822,-12.18864 1.40204,-1.68935 5.29406,-1.74351 6.65472,-0.0926 2.09211,2.53836 11.13817,27.22648 10.28775,28.0769 -1.01136,1.01136 -5.0731,-0.0478 -5.0731,-1.32286 0,-2.38775 -3.43115,-4.00404 -8.5,-4.00404 -5.21457,0 -5.75674,0.26061 -9.28943,4.4653 -1.46147,1.73947 -3.79545,2.01539 -4.6978,0.55537 z m 18.48723,-10.87145 c 0,-2.68473 -2.04663,-8.41769 -3.59885,-10.08101 -1.13912,-1.22065 -1.63264,-0.77825 -3.34669,3 -1.1058,2.43749 -2.02042,5.44429 -2.0325,6.68179 -0.0196,2.00325 0.47153,2.25 4.47804,2.25 3.71239,0 4.5,-0.32393 4.5,-1.85078 z m 30.07108,10.09923 c -4.77925,-2.437 -7.27936,-6.27564 -7.76609,-11.92396 -0.77993,-9.05066 4.65488,-15.33539 13.90354,-16.07785 4.344,-0.34872 5.90482,-0.006 8.71695,1.91429 3.6625,2.50092 4.09768,3.79109 1.77331,5.25727 -1.00884,0.63636 -2.30175,0.25267 -4.21208,-1.25 -1.51604,-1.19251 -3.61809,-2.1682 -4.67123,-2.1682 -5.12395,0 -10.81548,5.78863 -10.81548,11 0,3.44468 2.82677,7.85906 6.12463,9.56445 3.4347,1.77615 7.28092,1.26617 10.18391,-1.35032 1.26549,-1.14061 2.26454,-1.34241 3.32722,-0.67209 2.39216,1.50894 2.00171,2.78566 -1.59275,5.20796 -4.07501,2.74614 -10.16622,2.94893 -14.97193,0.49845 z m 35.38161,0.48885 c -0.28244,-0.73601 -0.38733,-7.3905 -0.2331,-14.78775 l 0.28041,-13.44955 9.5,0 c 8.83333,0 9.5,0.14035 9.5,2 0,1.7619 -0.83333,2.05952 -7,2.5 -6.84103,0.48865 -7.0075,0.56567 -7.33008,3.39149 -0.43391,3.80115 1.02346,4.57472 8.6534,4.5932 5.47775,0.0133 6.27886,0.24933 5.99081,1.76531 -0.2675,1.40781 -1.69947,1.84777 -7.32332,2.25 l -6.99081,0.5 0,3.5 0,3.5 7,0.5 c 6.16667,0.44048 7,0.7381 7,2.5 0,1.83542 -0.76258,2.02368 -9.2669,2.28775 -7.02366,0.21809 -9.3912,-0.0362 -9.78041,-1.05045 z m -197.45269,-13.7373 0,-14 8.13197,0 c 6.51143,0 8.80797,0.4178 11.52424,2.09654 8.45943,5.22822 8.51017,18.54734 0.0905,23.75099 -2.8175,1.74131 -5.03612,2.15247 -11.61473,2.15247 l -8.13197,0 0,-14 z m 18.07692,7.07692 c 2.36236,-2.36236 2.92308,-3.78398 2.92308,-7.4111 0,-3.73473 -0.49154,-4.90164 -2.92853,-6.95223 -3.48569,-2.93301 -9.23647,-4.23083 -12.05746,-2.72109 -1.7844,0.95498 -2.01401,2.08092 -2.01401,9.87602 0,4.83898 0.3,9.09815 0.66667,9.46481 0.36666,0.36667 2.87628,0.66667 5.57692,0.66667 4.09379,0 5.3963,-0.48604 7.83333,-2.92308 z m 48.91013,-64.27051 c -3.08056,-1.15103 -3.98705,-4.23985 -3.98705,-13.58568 0,-11.0739 0.59873,-11.75296 11.01749,-12.49553 9.35317,-0.66664 13.92838,-2.78868 17.33291,-8.03924 2.95601,-4.55886 3.31217,-8.16445 1.28557,-13.01477 -2.8879,-6.91174 -10.19865,-10.6552 -20.82927,-10.66561 -7.7667,-0.008 -8.8067,-1.57511 -8.8067,-13.27354 0,-8.03424 0.21942,-9.04237 2.45454,-11.2775 2.18955,-2.18954 3.29617,-2.45295 10.25,-2.4398 4.28751,0.008 8.92046,0.58234 10.29546,1.27608 2.26143,1.14096 2.5572,2.02227 3.09943,9.23525 0.74507,9.91133 1.44179,12.22944 4.76291,15.84709 3.56772,3.88626 8.02386,5.62684 14.40554,5.62684 2.93267,0 5.87212,0.54 6.53212,1.2 1.62069,1.62069 1.62069,17.97931 0,19.6 -0.66,0.66 -3.82793,1.2 -7.03984,1.2 -7.12675,0 -12.32278,2.45664 -15.6009,7.37597 -1.81277,2.72034 -2.46308,5.38608 -2.8831,11.81834 -0.76983,11.7893 -0.59465,11.60436 -11.35165,11.98465 -4.99464,0.17657 -9.91649,0.009 -10.93746,-0.37255 z m 47.21849,0.38979 -5.29447,-0.3038 0.29447,-6.6962 0.29446,-6.6962 9,-0.53666 c 9.67471,-0.57689 11.53449,-1.24406 15.68638,-5.62728 4.16165,-4.39352 4.81362,-7.41878 4.81362,-22.33606 0,-14.91728 -0.65197,-17.94254 -4.81362,-22.33606 -4.15189,-4.38322 -6.01167,-5.05039 -15.68638,-5.62728 l -9,-0.53666 0,-7 0,-7 5,-0.33986 c 7.16095,-0.48675 18.31497,1.64424 23.1511,4.42305 5.63161,3.23589 11.86297,10.54245 13.7738,16.15042 1.20498,3.53642 1.57491,8.86926 1.57431,22.69453 -7.8e-4,17.80311 -0.0433,18.16169 -2.8584,24.11223 -6.21351,13.13404 -17.56253,18.71007 -35.93527,17.65583 z"
         id="path3355"
         inkscape:connector-curvature="0" />
      <path
         style="fill:#90c53e"
         d="m 160.72719,381.20754 c -3.99115,-1.73689 -4.7484,-3.00072 -2.77784,-4.63614 1.14748,-0.95232 2.02828,-1.01706 3.27181,-0.24046 5.35978,3.34723 13.53217,2.12685 12.95532,-1.93462 -0.25362,-1.78565 -1.60187,-2.66248 -6.55095,-4.2604 -7.97936,-2.57632 -10.26839,-4.53888 -10.26839,-8.80389 0,-6.84188 9.16035,-10.73308 17.28016,-7.3404 3.97611,1.66132 4.53314,2.73643 2.35459,4.54446 -1.03005,0.85488 -2.07349,0.76369 -4.25,-0.37139 -3.71802,-1.93901 -6.83901,-1.91965 -8.81332,0.0547 -3.00716,3.00716 -1.23544,4.90684 6.47272,6.94022 2.83633,0.74821 6.01171,2.13392 7.0564,3.07935 1.89179,1.71205 2.52663,6.61101 1.27827,9.8642 -1.58934,4.14174 -11.64279,5.87479 -18.00877,3.10441 z m 35.87995,0.77372 c -0.91605,-0.36642 -1.25,-4.21285 -1.25,-14.39761 l 0,-13.89762 2.58604,-0.64905 c 1.42233,-0.35698 5.50331,-0.41489 9.06886,-0.12868 8.31453,0.66741 11.3451,3.13555 11.3451,9.23963 0,6.02036 -3.10846,8.62363 -11.22387,9.39977 l -6.27613,0.60023 -0.5,4.92245 c -0.49272,4.85083 -1.28998,5.89489 -3.75,4.91088 z m 15.5,-16.59366 c 1.68463,-1.3269 1.58421,-5.21741 -0.17231,-6.67519 -0.79588,-0.66053 -3.54853,-1.04477 -6.25,-0.87244 l -4.82769,0.30796 0,3.95492 c 0,3.3731 0.36777,4.05355 2.5,4.62541 2.81826,0.75587 6.87796,0.13385 8.75,-1.34066 z m 16.76277,16.281 c -0.33289,-0.53864 -0.16405,-1.80375 0.37521,-2.81136 0.53926,-1.00761 2.81375,-6.71274 5.05443,-12.67807 2.24068,-5.96532 4.57538,-11.45021 5.18822,-12.18864 1.40204,-1.68935 5.29406,-1.74351 6.65472,-0.0926 2.09211,2.53836 11.13817,27.22648 10.28775,28.0769 -1.01136,1.01136 -5.0731,-0.0478 -5.0731,-1.32286 0,-2.38775 -3.43115,-4.00404 -8.5,-4.00404 -5.21457,0 -5.75674,0.26061 -9.28943,4.4653 -1.46147,1.73947 -3.79545,2.01539 -4.6978,0.55537 z m 18.48723,-10.87145 c 0,-2.68473 -2.04663,-8.41769 -3.59885,-10.08101 -1.13912,-1.22065 -1.63264,-0.77825 -3.34669,3 -1.1058,2.43749 -2.02042,5.44429 -2.0325,6.68179 -0.0196,2.00325 0.47153,2.25 4.47804,2.25 3.71239,0 4.5,-0.32393 4.5,-1.85078 z m 30.07108,10.09923 c -4.77925,-2.437 -7.27936,-6.27564 -7.76609,-11.92396 -0.77993,-9.05066 4.65488,-15.33539 13.90354,-16.07785 4.344,-0.34872 5.90482,-0.006 8.71695,1.91429 3.6625,2.50092 4.09768,3.79109 1.77331,5.25727 -1.00884,0.63636 -2.30175,0.25267 -4.21208,-1.25 -1.51604,-1.19251 -3.61809,-2.1682 -4.67123,-2.1682 -5.12395,0 -10.81548,5.78863 -10.81548,11 0,3.44468 2.82677,7.85906 6.12463,9.56445 3.4347,1.77615 7.28092,1.26617 10.18391,-1.35032 1.26549,-1.14061 2.26454,-1.34241 3.32722,-0.67209 2.39216,1.50894 2.00171,2.78566 -1.59275,5.20796 -4.07501,2.74614 -10.16622,2.94893 -14.97193,0.49845 z m 35.38161,0.48885 c -0.28244,-0.73601 -0.38733,-7.3905 -0.2331,-14.78775 l 0.28041,-13.44955 9.5,0 c 8.83333,0 9.5,0.14035 9.5,2 0,1.7619 -0.83333,2.05952 -7,2.5 -6.84103,0.48865 -7.0075,0.56567 -7.33008,3.39149 -0.43391,3.80115 1.02346,4.57472 8.6534,4.5932 5.47775,0.0133 6.27886,0.24933 5.99081,1.76531 -0.2675,1.40781 -1.69947,1.84777 -7.32332,2.25 l -6.99081,0.5 0,3.5 0,3.5 7,0.5 c 6.16667,0.44048 7,0.7381 7,2.5 0,1.83542 -0.76258,2.02368 -9.2669,2.28775 -7.02366,0.21809 -9.3912,-0.0362 -9.78041,-1.05045 z m -196.45269,-3.29632 c 0,-1.45136 0.43284,-2.2915 1,-1.94098 0.55,0.33992 1,1.49148 1,2.55902 0,1.06754 -0.45,1.94098 -1,1.94098 -0.55,0 -1,-1.15156 -1,-2.55902 z m 4.08333,2.19792 c 0.22917,-0.19861 3.11667,-0.65156 6.41667,-1.00656 4.10722,-0.44183 5.52681,-0.33275 4.5,0.34579 -1.34794,0.89076 -11.92045,1.53069 -10.91667,0.66077 z m 14.91667,-3.98526 c 0,-0.1905 0.73885,-1.82743 1.64189,-3.63761 1.28429,-2.57441 1.44764,-4.27527 0.75,-7.80917 -1.15556,-5.85357 -4.46712,-8.3827 -11.76884,-8.98821 -4.75106,-0.394 -5.63153,-0.17793 -6.78202,1.66429 -1.77959,2.84958 -2.84103,2.66695 -2.84103,-0.48883 l 0,-2.60588 7.75,0.35923 c 9.19698,0.42629 12.37908,2.25677 14.83364,8.53295 1.5259,3.90165 1.51855,4.48514 -0.11022,8.75 -0.95982,2.51328 -2.134,4.56959 -2.60928,4.56959 -0.47528,0 -0.86414,-0.15586 -0.86414,-0.34636 z m 46.55949,-69.2012 c -2.49487,-1.97651 -2.56439,-2.3235 -2.00344,-10 0.42902,-5.871 1.07237,-8.45437 2.45801,-9.87014 1.56244,-1.59641 2.13733,-1.70155 3.43141,-0.62755 1.2088,1.00321 1.87392,1.02507 2.99061,0.0983 1.0455,-0.86769 1.97953,-0.90099 3.43426,-0.12245 3.19656,1.71075 6.25811,1.29421 6.83991,-0.9306 0.53264,-2.03682 0.8954,-2.2009 5.28745,-2.39157 1.86816,-0.0811 2.52738,-0.68622 2.61549,-2.40081 0.0648,-1.26081 1.10162,-3.3396 2.30406,-4.61954 1.91502,-2.03844 2.09913,-2.99467 1.48407,-7.70762 -0.38927,-2.98273 -1.74924,-6.93223 -3.05175,-8.8626 -1.29227,-1.91517 -2.34957,-3.96263 -2.34957,-4.54992 0,-0.91565 -4.83191,-2.24804 -14.97747,-4.12999 -1.36261,-0.25276 -2.65928,-0.64137 -2.88149,-0.86357 -0.2222,-0.22221 -1.18268,0.0127 -2.13438,0.52206 -4.42649,2.36898 -7.16738,-5.77051 -5.55772,-16.50449 0.57803,-3.85459 0.92929,-4.42293 2.12188,-3.43317 0.92127,0.76458 1.87341,0.85122 2.67918,0.24379 2.94604,-2.22089 9.73953,-3.64493 12.01031,-2.51758 1.23183,0.61155 3.13969,1.25242 4.23969,1.42416 1.76245,0.27516 2.06986,1.32056 2.58814,8.80155 0.60313,8.70555 2.56989,14.26036 5.43889,15.3613 0.9686,0.37168 1.47696,1.50581 1.28698,2.87118 -0.30695,2.20609 -0.10046,2.25682 9.18599,2.25682 l 9.5,0 0.29765,8 c 0.26734,7.1855 0.0779,8.17817 -1.86079,9.75 -1.29769,1.05213 -3.84926,1.75 -6.39842,1.75 -6.83076,0 -10.13998,1.70652 -14.16001,7.30211 -3.46676,4.82546 -3.67135,5.52903 -3.46429,11.91311 0.13876,4.2784 -0.17415,6.78478 -0.84705,6.78478 -0.5869,0 -1.06709,0.62041 -1.06709,1.37868 0,3.9562 -14.77221,4.77211 -19.44051,1.07376 z m 9.87575,-2.34765 c 0.3043,-0.49237 -0.0751,-1.13637 -0.84322,-1.4311 -1.46629,-0.56268 -2.59202,0.0857 -2.59202,1.49298 0,1.11676 2.73727,1.06745 3.43524,-0.0619 z m -5.86406,-8.67723 c -0.9752,-3.88549 -2.6784,-2.84776 -2.17048,1.32244 0.2512,2.0625 0.50249,3.975 0.55843,4.25 0.0559,0.275 0.57861,-0.3201 1.16151,-1.32244 0.5829,-1.00234 0.78564,-2.91484 0.45054,-4.25 z m 15.42882,1.60762 c 0,-1.28928 -3.37957,-3.03518 -5.87524,-3.03518 -2.25473,0 -3.55815,1.48975 -2.62476,3 0.79286,1.28287 8.5,1.31478 8.5,0.0352 z m -10,-6.03518 c 0,-0.55 -0.87344,-1 -1.94098,-1 -1.06754,0 -2.22364,-0.45734 -2.5691,-1.01631 -0.34547,-0.55897 -1.04702,-0.75742 -1.55902,-0.44099 -1.62806,1.0062 -1.00602,2.30373 1.3191,2.75157 3.9985,0.77014 4.75,0.72359 4.75,-0.29427 z m 24.36163,-16.5 c -0.31659,-0.825 -0.75246,-1.5 -0.96862,-1.5 -0.21615,0 -0.39301,0.675 -0.39301,1.5 0,0.825 0.43588,1.5 0.96862,1.5 0.53273,0 0.70959,-0.675 0.39301,-1.5 z m 4.46169,-4.83287 c 0.19138,-0.98676 -0.31876,-1.66713 -1.25,-1.66713 -0.92763,0 -1.57332,0.855 -1.57332,2.08333 0,2.43705 2.33677,2.09257 2.82332,-0.4162 z m -4.37315,-3.58651 c 0.7412,-1.19928 -2.33386,-4.27054 -3.53349,-3.52912 -0.55136,0.34075 -0.5048,1.34959 0.1158,2.50919 1.11612,2.08549 2.50329,2.49946 3.41769,1.01993 z m 6.73316,-6.29729 c -0.71756,-0.71756 -1.18333,-0.7766 -1.18333,-0.15 0,1.33478 1.18261,2.51739 1.85,1.85 0.28417,-0.28416 -0.0158,-1.04916 -0.66667,-1.7 z m -25.18333,-11.78333 c 0,-0.55 -1.15156,-1 -2.55902,-1 -1.45136,0 -2.2915,0.43284 -1.94098,1 0.33992,0.55 1.49148,1 2.55902,1 1.06754,0 1.94098,-0.45 1.94098,-1 z m 36,60 c -0.825,-0.53316 -2.7375,-0.97626 -4.25,-0.98469 -2.53911,-0.0141 -2.75,-0.32205 -2.75,-4.01531 0,-2.2 -0.002,-4.3375 -0.004,-4.75 -0.002,-0.4125 3.12948,-0.81073 6.95934,-0.88495 6.02485,-0.11676 11.20921,-1.27309 19.56005,-4.36271 1.88494,-0.69738 2.035,-1.76433 2.31933,-16.49125 0.1672,-8.66009 0.7228,-16.84715 1.23467,-18.19346 1.51755,-3.99147 1.19397,-8.3559 -0.56934,-7.67926 -0.96343,0.36971 -1.5,-0.0204 -1.5,-1.0904 0,-0.9163 0.45,-1.38789 1,-1.04797 0.55,0.33992 1,-0.36101 1,-1.55761 0,-1.62788 -0.46779,-2.05332 -1.85797,-1.68978 -3.8081,0.99584 -7.16815,-3.26114 -3.64203,-4.61424 0.825,-0.31658 1.48503,-1.37722 1.46673,-2.35699 -0.0289,-1.54875 -0.27838,-1.48756 -1.91029,0.46862 -2.09893,2.516 -3.27254,2.7399 -6.18675,1.18026 -1.59618,-0.85425 -1.75971,-1.35785 -0.81181,-2.5 0.96205,-1.15926 0.80801,-1.43026 -0.81304,-1.43026 -1.1,0 -2.5602,0.675 -3.24489,1.5 -0.78262,0.943 -2.96325,1.49431 -5.87244,1.48469 -4.78408,-0.0158 -8.77608,-1.67093 -6.37756,-2.64415 1.77165,-0.71887 1.55241,-2.34054 -0.31642,-2.34054 -1.11887,0 -1.47602,-0.78573 -1.25,-2.75 0.17796,-1.54669 0.86338,-2.64061 1.56642,-2.5 0.6875,0.1375 1.25,-0.25351 1.25,-0.86892 0,-1.67862 18.81295,-0.0776 22.16276,1.88612 1.46452,0.85852 3.34082,3.28711 4.16955,5.39687 1.35211,3.44212 4.66769,5.45655 4.66769,2.83593 0,-1.96098 1.69962,-0.95468 2.92317,1.73072 1.22262,2.68336 1.20979,2.69958 -0.74021,0.93486 -2.78852,-2.52358 -3.59236,-0.45577 -1.06959,2.75141 1.39928,1.77891 1.88895,3.43763 1.48726,5.03808 -0.74888,2.98379 0.17783,5.54493 2.00636,5.54493 0.84927,0 1.39899,-1.07342 1.40832,-2.75 0.0119,-2.14294 0.22931,-2.41887 0.98469,-1.25 0.53316,0.825 0.97627,8.80767 0.98469,17.73927 0.0128,13.5371 -0.29965,17.06818 -1.87751,21.22077 -2.30614,6.06927 -7.03288,12.21289 -11.53887,14.99774 -6.69195,4.13586 -17.22139,6.20517 -20.56831,4.04222 z m 7,-3.39301 c 0,-1.56321 -2.69393,-2.91419 -4.09024,-2.05122 -1.91109,1.18112 -0.86618,3.44423 1.59024,3.44423 1.47022,0 2.5,-0.5738 2.5,-1.39301 z m 11.79956,-4.46195 c 0.78228,-0.49622 -0.80986,-0.85401 -4,-0.89891 -4.03837,-0.0568 -4.70461,0.11927 -2.79956,0.73997 3.37386,1.09926 5.24808,1.14307 6.79956,0.15894 z m 8.86461,-6.57782 c -0.33077,-0.86197 -1.01304,-1.56722 -1.51615,-1.56722 -1.39305,0 -2.09662,3.84461 -0.79186,4.32705 1.68087,0.62152 3.00018,-0.95606 2.30801,-2.75983 z m 3.33583,-8.56722 c 0,-1.17991 -0.66667,-2 -1.62584,-2 -1.43238,0 -1.57345,-1.36836 -1.18564,-11.5 0.38571,-10.07683 0.24138,-11.5 -1.16624,-11.5 -1.3893,0 -1.59286,1.57943 -1.50614,11.68607 0.0693,8.07799 0.46825,11.80872 1.29207,12.08333 0.65548,0.2185 1.19179,1.03477 1.19179,1.81393 0,0.77917 0.675,1.41667 1.5,1.41667 0.83333,0 1.5,-0.88889 1.5,-2 z m -29,-51 c 1,-0.64625 1.08333,-0.97448 0.25,-0.98469 -0.6875,-0.008 -1.25,-0.69031 -1.25,-1.51531 0,-1.98029 -1.623,-1.92482 -2.39301,0.0818 -1.31762,3.43367 0.17528,4.49767 3.39301,2.41821 z m 11.5,-1 c 0.33992,-0.55 0.14148,-1 -0.44098,-1 -0.58246,0 -1.05902,0.45 -1.05902,1 0,0.55 0.19844,1 0.44098,1 0.24254,0 0.7191,-0.45 1.05902,-1 z"
         id="path3353"
         inkscape:connector-curvature="0" />
      <path
         style="fill:#7d7d80"
         d="m 160.72719,381.20754 c -3.99115,-1.73689 -4.7484,-3.00072 -2.77784,-4.63614 1.14748,-0.95232 2.02828,-1.01706 3.27181,-0.24046 5.35978,3.34723 13.53217,2.12685 12.95532,-1.93462 -0.25362,-1.78565 -1.60187,-2.66248 -6.55095,-4.2604 -7.97936,-2.57632 -10.26839,-4.53888 -10.26839,-8.80389 0,-6.84188 9.16035,-10.73308 17.28016,-7.3404 3.97611,1.66132 4.53314,2.73643 2.35459,4.54446 -1.03005,0.85488 -2.07349,0.76369 -4.25,-0.37139 -3.71802,-1.93901 -6.83901,-1.91965 -8.81332,0.0547 -3.00716,3.00716 -1.23544,4.90684 6.47272,6.94022 2.83633,0.74821 6.01171,2.13392 7.0564,3.07935 1.89179,1.71205 2.52663,6.61101 1.27827,9.8642 -1.58934,4.14174 -11.64279,5.87479 -18.00877,3.10441 z m 35.87995,0.77372 c -0.91605,-0.36642 -1.25,-4.21285 -1.25,-14.39761 l 0,-13.89762 2.58604,-0.64905 c 1.42233,-0.35698 5.50331,-0.41489 9.06886,-0.12868 8.31453,0.66741 11.3451,3.13555 11.3451,9.23963 0,6.02036 -3.10846,8.62363 -11.22387,9.39977 l -6.27613,0.60023 -0.5,4.92245 c -0.49272,4.85083 -1.28998,5.89489 -3.75,4.91088 z m 15.5,-16.59366 c 1.68463,-1.3269 1.58421,-5.21741 -0.17231,-6.67519 -0.79588,-0.66053 -3.54853,-1.04477 -6.25,-0.87244 l -4.82769,0.30796 0,3.95492 c 0,3.3731 0.36777,4.05355 2.5,4.62541 2.81826,0.75587 6.87796,0.13385 8.75,-1.34066 z m 16.76277,16.281 c -0.33289,-0.53864 -0.16405,-1.80375 0.37521,-2.81136 0.53926,-1.00761 2.81375,-6.71274 5.05443,-12.67807 2.24068,-5.96532 4.57538,-11.45021 5.18822,-12.18864 1.40204,-1.68935 5.29406,-1.74351 6.65472,-0.0926 2.09211,2.53836 11.13817,27.22648 10.28775,28.0769 -1.01136,1.01136 -5.0731,-0.0478 -5.0731,-1.32286 0,-2.38775 -3.43115,-4.00404 -8.5,-4.00404 -5.21457,0 -5.75674,0.26061 -9.28943,4.4653 -1.46147,1.73947 -3.79545,2.01539 -4.6978,0.55537 z m 18.48723,-10.87145 c 0,-2.68473 -2.04663,-8.41769 -3.59885,-10.08101 -1.13912,-1.22065 -1.63264,-0.77825 -3.34669,3 -1.1058,2.43749 -2.02042,5.44429 -2.0325,6.68179 -0.0196,2.00325 0.47153,2.25 4.47804,2.25 3.71239,0 4.5,-0.32393 4.5,-1.85078 z m 30.07108,10.09923 c -4.77925,-2.437 -7.27936,-6.27564 -7.76609,-11.92396 -0.77993,-9.05066 4.65488,-15.33539 13.90354,-16.07785 4.344,-0.34872 5.90482,-0.006 8.71695,1.91429 3.6625,2.50092 4.09768,3.79109 1.77331,5.25727 -1.00884,0.63636 -2.30175,0.25267 -4.21208,-1.25 -1.51604,-1.19251 -3.61809,-2.1682 -4.67123,-2.1682 -5.12395,0 -10.81548,5.78863 -10.81548,11 0,3.44468 2.82677,7.85906 6.12463,9.56445 3.4347,1.77615 7.28092,1.26617 10.18391,-1.35032 1.26549,-1.14061 2.26454,-1.34241 3.32722,-0.67209 2.39216,1.50894 2.00171,2.78566 -1.59275,5.20796 -4.07501,2.74614 -10.16622,2.94893 -14.97193,0.49845 z m 35.38161,0.48885 c -0.28244,-0.73601 -0.38733,-7.3905 -0.2331,-14.78775 l 0.28041,-13.44955 9.5,0 c 8.83333,0 9.5,0.14035 9.5,2 0,1.7619 -0.83333,2.05952 -7,2.5 -6.84103,0.48865 -7.0075,0.56567 -7.33008,3.39149 -0.43391,3.80115 1.02346,4.57472 8.6534,4.5932 5.47775,0.0133 6.27886,0.24933 5.99081,1.76531 -0.2675,1.40781 -1.69947,1.84777 -7.32332,2.25 l -6.99081,0.5 0,3.5 0,3.5 7,0.5 c 6.16667,0.44048 7,0.7381 7,2.5 0,1.83542 -0.76258,2.02368 -9.2669,2.28775 -7.02366,0.21809 -9.3912,-0.0362 -9.78041,-1.05045 z"
         id="path3351"
         inkscape:connector-curvature="0" />
      <path
         style="fill:#6d6e71"
         d="m 160.70947,380.65462 c -1.18122,-0.47659 -2.42606,-1.31698 -2.76632,-1.86751 -1.20304,-1.94658 1.39312,-2.18663 6.29796,-0.58234 4.25371,1.39132 5.36928,1.43091 7.77873,0.2761 3.1058,-1.48858 4.11835,-4.18691 2.36424,-6.30048 -0.62601,-0.7543 -4.2143,-2.30579 -7.97397,-3.44775 -7.03984,-2.13829 -8.05297,-3.15657 -8.05297,-8.09392 0,-5.77082 9.32839,-9.07644 16.45295,-5.83027 5.07836,2.31385 2.37944,4.50305 -2.85514,2.3159 -4.1613,-1.7387 -8.20412,-1.08056 -9.6206,1.56617 -1.68739,3.1529 -0.007,4.78694 7.35959,7.1548 5.55108,1.78439 7.44291,2.89254 8.40606,4.92387 1.64639,3.47232 0.0224,8.20903 -3.33969,9.7409 -2.89863,1.32071 -10.93097,1.40333 -14.05084,0.14453 z m 35.64767,-13.10931 0,-14.10261 8.4726,0.35261 c 10.12619,0.42144 12.7274,2.14762 12.7274,8.44601 0,5.60592 -3.5716,8.40661 -10.72058,8.40661 -6.14748,0 -7.47942,1.3239 -7.47942,7.43426 0,2.50288 -0.44711,3.56574 -1.5,3.56574 -1.26242,0 -1.5,-2.23362 -1.5,-14.10262 z m 16.17126,-1.55237 c 2.36314,-2.13861 2.33414,-5.57765 -0.0653,-7.74914 -1.36806,-1.23807 -3.23737,-1.62826 -6.73104,-1.40499 -4.18417,0.2674 -4.96013,0.6613 -5.74958,2.91869 -0.50195,1.43526 -0.61441,3.79776 -0.24992,5.25 0.60901,2.4265 1.08014,2.64043 5.81491,2.64043 3.39086,0 5.77739,-0.56578 6.98095,-1.65499 z m 17.30337,13.90499 c 0.37874,-0.9625 2.48518,-6.4543 4.68098,-12.20399 5.36614,-14.05119 5.47427,-14.22417 8.66165,-13.85594 2.43757,0.28161 3.15791,1.498 7.88215,13.30993 2.85968,7.15 5.22218,13.3375 5.25,13.75 0.1294,1.91844 -4.08214,0.53109 -4.89744,-1.61331 -1.9467,-5.1202 -15.8888,-4.87687 -17.53379,0.30603 -0.37785,1.1905 -1.51228,2.05728 -2.69256,2.05728 -1.53813,0 -1.87029,-0.43026 -1.35099,-1.75 z m 18.20876,-7.86731 c 0.34134,-0.88951 -0.28437,-4.15201 -1.39046,-7.25 -2.74341,-7.68386 -4.95722,-7.63982 -7.55393,0.1503 -1.06021,3.18064 -1.67433,6.44314 -1.36471,7.25 0.82376,2.14669 9.47607,2.02055 10.3091,-0.1503 z m 28.61516,7.65779 c -8.67664,-5.29045 -8.31477,-19.87801 0.60757,-24.49193 4.23007,-2.18746 10.91559,-1.95459 14.97739,0.52168 2.56852,1.5659 3.10385,2.34241 2.22247,3.22379 -0.88137,0.88137 -1.57592,0.86478 -2.8835,-0.0689 -3.98579,-2.846 -6.56597,-3.3658 -10.07596,-2.02989 -10.12576,3.8539 -10.12576,17.7556 0,21.6095 3.50999,1.33591 6.09017,0.81611 10.07596,-2.02989 1.30758,-0.93366 2.00213,-0.95025 2.8835,-0.0689 0.88138,0.88138 0.34605,1.65789 -2.22247,3.22379 -4.3778,2.66892 -11.30861,2.71816 -15.58496,0.11071 z m 36.70145,-12.04048 0,-14 9,0 c 7.21299,0 9,0.28914 9,1.45619 0,1.114 -1.70367,1.52523 -7.25,1.75 l -7.25,0.29381 -0.30647,3.6846 c -0.38742,4.65789 1.87893,6.07408 9.01193,5.63135 3.3212,-0.20614 5.23656,0.1028 5.51078,0.88886 0.29722,0.85201 -1.7227,1.29125 -6.89797,1.5 l -7.31827,0.29519 0,4.5 0,4.5 7.25,0.29381 c 5.54633,0.22477 7.25,0.636 7.25,1.75 0,1.16705 -1.78701,1.45619 -9,1.45619 l -9,0 0,-14 z"
         id="path3349"
         inkscape:connector-curvature="0" />
    </g>
  </g>
</svg>
