<?xml version="1.0" encoding="UTF-8" standalone="no"?>
<!-- Created with Inkscape (http://www.inkscape.org/) -->

<svg
   xmlns:dc="http://purl.org/dc/elements/1.1/"
   xmlns:cc="http://creativecommons.org/ns#"
   xmlns:rdf="http://www.w3.org/1999/02/22-rdf-syntax-ns#"
   xmlns:svg="http://www.w3.org/2000/svg"
   xmlns="http://www.w3.org/2000/svg"
   xmlns:sodipodi="http://sodipodi.sourceforge.net/DTD/sodipodi-0.dtd"
   xmlns:inkscape="http://www.inkscape.org/namespaces/inkscape"
   width="272.62784mm"
   height="197.03943mm"
   viewBox="0 0 966.00415 698.17121"
   id="svg2"
   version="1.1"
   inkscape:version="0.91 r13725"
   sodipodi:docname="dspace.svg">
  <defs
     id="defs4" />
  <sodipodi:namedview
     id="base"
     pagecolor="#ffffff"
     bordercolor="#666666"
     borderopacity="1.0"
     inkscape:pageopacity="0.0"
     inkscape:pageshadow="2"
     inkscape:zoom="0.98994949"
     inkscape:cx="557.81825"
     inkscape:cy="376.2783"
     inkscape:document-units="px"
     inkscape:current-layer="g3353"
     showgrid="false"
     inkscape:window-width="1680"
     inkscape:window-height="1000"
     inkscape:window-x="0"
     inkscape:window-y="0"
     inkscape:window-maximized="1"
     fit-margin-top="0"
     fit-margin-left="0"
     fit-margin-right="0"
     fit-margin-bottom="0" />
  <metadata
     id="metadata7">
    <rdf:RDF>
      <cc:Work
         rdf:about="">
        <dc:format>image/svg+xml</dc:format>
        <dc:type
           rdf:resource="http://purl.org/dc/dcmitype/StillImage" />
        <dc:title />
      </cc:Work>
    </rdf:RDF>
  </metadata>
  <g
     inkscape:label="Layer 1"
     inkscape:groupmode="layer"
     id="layer1"
     transform="translate(322.19776,22.223829)">
    <g
       id="g3347"
       transform="translate(-12.626908,-50.002551)">
      <g
         id="g3353"
         transform="translate(2.0203338,109.09647)">
        <path
           style="fill:#cfd0d0"
           d="m -92.58826,615.3965 c -4.125,-0.64833 -9.80459,-1.95266 -12.6213,-2.89852 -9.29593,-3.12158 -25.3787,-14.08492 -25.3787,-17.3002 0,-1.89523 14.77051,-23.3443 16.07563,-23.3443 0.52394,0 3.53065,2.09983 6.68156,4.66628 17.27302,14.06907 44.12708,17.67454 54.49281,7.3163 2.86117,-2.8591 3.75,-4.552 3.75,-7.14243 0,-7.29631 -4.0734,-9.52287 -29,-15.85164 -26.85507,-6.8184 -38.76441,-13.70023 -44.72953,-25.847 -2.51748,-5.12634 -2.77047,-6.64601 -2.77047,-16.64151 0,-10.4182 0.16816,-11.32165 3.1793,-17.08144 6.30195,-12.05447 18.68207,-20.7239 34.3207,-24.03373 9.83637,-2.08182 27.54007,-1.34098 37.82863,1.58299 11.58116,3.29133 27.95939,12.43143 29.50815,16.46744 0.60194,1.56862 -13.45365,21.28862 -15.82117,22.19712 -0.80822,0.31015 -4.18637,-1.25037 -7.50701,-3.4678 -17.60654,-11.7572 -43.22496,-13.38202 -48.55265,-3.07939 -4.51478,8.73062 1.10411,12.99218 24.30888,18.43673 22.50989,5.28149 34.11629,10.48708 42.02375,18.84806 7.26529,7.68197 9.49773,14.39083 9.02779,27.13002 -0.3181,8.6228 -0.79037,10.89518 -3.4292,16.5 -5.96945,12.67898 -17.67438,20.99612 -33.10899,23.52616 -10.26778,1.6831 -27.62813,1.69075 -38.27818,0.0169 z m 515.5,-0.12423 c -18.76456,-3.13696 -37.3853,-16.81827 -46.16467,-33.91879 -6.77957,-13.2053 -7.81559,-17.86074 -7.78891,-35 0.0215,-13.80411 0.24569,-15.63704 2.8121,-22.9904 10.89219,-31.20867 38.38786,-48.85893 73.58302,-47.23506 20.50063,0.94588 35.55031,8.56315 47.48113,24.03218 5.27175,6.83515 6.30162,9.43324 4.43011,11.17605 -0.74403,0.69286 -6.43794,3.64883 -12.65314,6.56881 l -11.30035,5.30907 -5.97416,-6.6193 c -7.08351,-7.84844 -13.99397,-11.54289 -23.19881,-12.40245 -11.83805,-1.10545 -26.18785,4.59368 -33.31414,13.23097 -14.94147,18.10951 -13.3221,46.11404 3.57094,61.75402 7.89859,7.3127 14.67873,9.93576 26.03715,10.07309 7.71828,0.0933 9.14758,-0.20577 15.18482,-3.17755 6.10746,-3.00635 15.79491,-11.79385 15.79491,-14.32758 0,-2.01921 4.59908,-0.58267 15.48898,4.83803 7.75778,3.86161 11.51102,6.27117 11.51102,7.38999 0,2.56685 -7.99323,12.82183 -14.57275,18.69623 -7.61405,6.79806 -16.27491,11.03342 -26.10496,12.76591 -9.5895,1.6901 -24.14426,1.62188 -34.82229,-0.16322 z m -734.5,-68.33192 0,-68.04877 2.41276,-0.60556 c 1.32701,-0.33306 16.51451,-0.41911 33.75,-0.19123 35.25325,0.46611 39.9437,1.19347 54.77922,8.49473 11.17058,5.49756 22.45017,16.93948 27.863,28.26396 11.2195,23.47295 9.13708,52.31348 -5.23115,72.44874 -8.18063,11.46412 -19.18528,19.26877 -34.40718,24.40203 -7.58247,2.55703 -8.05918,2.58925 -43.41665,2.93514 l -35.75,0.34972 0,-68.04876 z m 67.65382,38.5266 c 7.48319,-2.37227 16.20784,-9.24301 20.17057,-15.88451 4.84461,-8.11951 6.48786,-15.42592 5.93088,-26.37048 -0.55604,-10.92588 -4.11635,-19.71956 -10.61503,-26.21824 -8.64335,-8.64335 -17.0492,-11.11215 -37.89024,-11.12837 l -15.25,-0.0119 0,40.33333 c 0,22.18334 0.3375,40.67977 0.75,41.10319 1.37892,1.41541 31.36026,-0.0657 36.90382,-1.82305 z m 287.80582,28.13653 c -0.26268,-0.6875 -0.36106,-31.4 -0.21862,-68.25 l 0.25898,-67 34.5,-0.29653 c 22.71143,-0.19521 36.55019,0.0902 40.5,0.83517 9.05403,1.70775 17.4144,6.12025 23.21323,12.25166 9.22127,9.75014 12.82344,19.97 12.03677,34.15007 -1.08323,19.52572 -10.99115,32.97366 -28.95104,39.29502 -6.72239,2.36608 -8.97756,2.60692 -28.54896,3.04893 l -21.25,0.47991 -0.0136,21.11789 c -0.008,11.61483 -0.285,22.13038 -0.61664,23.36788 -0.59113,2.20581 -0.8959,2.25 -15.51773,2.25 -11.01042,0 -15.03977,-0.32722 -15.39234,-1.25 z m 71.15869,-77.31179 c 9.85248,-7.36514 9.68142,-21.35865 -0.33724,-27.58744 -3.5335,-2.19684 -4.94338,-2.37244 -21.53109,-2.68175 l -17.75,-0.33099 0,16.64283 0,16.64282 18.43012,-0.31184 c 16.77848,-0.28389 18.67729,-0.49661 21.18821,-2.37363 z m 70.38167,77.2868 c 0,-1.84896 49.82766,-130.80003 51.57574,-133.47501 1.43404,-2.19442 1.91142,-2.25 19.32487,-2.25 13.07419,0 18.12696,0.33467 18.87214,1.25 1.7247,2.11852 52.20367,133.97913 51.63946,134.89204 -0.29163,0.47188 -8.12098,0.85796 -17.39854,0.85796 l -16.8683,0 -3.11885,-8.25 c -1.71537,-4.5375 -3.60553,-9.49441 -4.20037,-11.01536 l -1.08151,-2.76535 -28.02531,0.26535 -28.02531,0.26536 -3.59701,9.5 c -1.97836,5.225 -3.96107,10.0625 -4.40603,10.75 -1.17843,1.82079 -34.69098,1.79665 -34.69098,-0.025 z m 89,-50.1254 c 0,-1.28249 -16.85417,-48.56012 -17.65223,-49.51628 -0.19127,-0.22916 -0.58935,-0.17508 -0.88462,0.12019 -1.09336,1.09336 -18.25595,49.32271 -17.80901,50.04588 0.25514,0.41283 8.53734,0.7506 18.40488,0.7506 14.71372,0 17.94098,-0.25191 17.94098,-1.40039 z m 283.66667,50.73372 c -0.36667,-0.36666 -0.66667,-30.65166 -0.66667,-67.3 0,-50.49259 0.29068,-66.92401 1.2,-67.83333 0.89834,-0.89834 12.69294,-1.2 46.91821,-1.2 25.14502,0 46.43002,0.27314 47.3,0.60699 1.32826,0.5097 1.58179,2.65632 1.58179,13.39301 0,10.73669 -0.25353,12.88331 -1.58179,13.39301 -0.86998,0.33385 -15.49498,0.60699 -32.5,0.60699 l -30.91821,0 0,12.5 0,12.5 30.41821,0 c 16.73002,0 31.13002,0.27314 32,0.60699 2.36265,0.90663 2.36265,26.87939 0,27.78602 -0.86998,0.33385 -15.26998,0.60699 -32,0.60699 l -30.41821,0 0,13.5 0,13.5 30.91821,0 c 17.00502,0 31.63002,0.27314 32.5,0.60699 1.33343,0.51168 1.58179,2.70981 1.58179,14 l 0,13.39301 -47.83333,0 c -26.30834,0 -48.13334,-0.3 -48.5,-0.66667 z M -10.58826,301.9402 c -5.58123,-1.75266 -10.97358,-5.2498 -14.80311,-9.60038 -7.12713,-8.09685 -7.19689,-8.63072 -7.19689,-55.07711 l 0,-41.23449 3.26467,-6.3065 c 3.52015,-6.80002 9.90849,-12.53495 16.56134,-14.86743 2.4472,-0.85798 13.19053,-1.5223 32.17399,-1.98949 30.23613,-0.74413 33.65267,-1.22945 45.48141,-6.46068 23.65083,-10.45952 38.95416,-35.08319 37.14963,-59.77524 -1.64402,-22.495783 -14.64284,-41.460323 -35.13104,-51.254163 -14.52808,-6.94476 -19.09616,-7.7004 -51,-8.43623 -26.34351,-0.60758 -28.24986,-0.7775 -32.22344,-2.87217 -5.3645,-2.8279 -10.63029,-8.08185 -13.51979,-13.4894 -2.24418,-4.19987 -2.25677,-4.46897 -2.25677,-48.22344 l 0,-44 2.7342,-4.651102 c 3.76815,-6.409956 10.52158,-12.101311 16.14392,-13.605058 7.3955,-1.977993 80.10554,-1.740522 87.07094,0.284374 6.8827,2.000856 12.75675,7.154231 16.23999,14.247539 l 2.81095,5.724247 0.61632,30.5 c 0.49074,24.285575 0.96099,31.692465 2.30796,36.352543 5.63259,19.486987 17.42813,34.533417 33.07572,42.191517 11.57812,5.66646 16.42817,6.45594 39.66088,6.45594 11.40737,0 23.05279,0.49586 25.8787,1.10191 6.47772,1.38922 13.22317,7.47501 14.85038,13.39809 1.53693,5.59449 1.51246,74.999623 -0.0281,79.600783 -1.68071,5.01984 -5.49106,9.66938 -9.67226,11.80247 -3.23437,1.65006 -6.74546,1.94236 -28.19206,2.34704 -26.84289,0.50651 -30.98722,1.18388 -42.96306,7.02214 -9.97361,4.86217 -21.63196,16.92864 -26.84401,27.78375 -7.00487,14.58898 -7.36959,16.88189 -8.10321,50.94382 -0.63698,29.57454 -0.73043,30.65043 -3.07991,35.45781 -3.07322,6.28823 -8.29756,11.52504 -14.58448,14.61928 l -4.92287,2.42291 -39.5,0.18589 c -21.725,0.10225 -40.625,-0.16738 -42,-0.59917 z m 180.63949,-0.58382 c -0.90105,-2.3481 -0.7707,-70.74847 0.13755,-72.17638 0.54273,-0.85326 10.97613,-1.27007 38.23468,-1.52746 l 37.48828,-0.35399 8.4012,-2.905 c 16.95009,-5.86107 31.54256,-18.4826 39.02925,-33.75776 7.73616,-15.78416 7.56955,-14.02816 7.56955,-79.78231 0,-45.682703 -0.29766,-59.814593 -1.35858,-64.500003 -5.8603,-25.8812 -26.53371,-46.663281 -51.72898,-52.000878 -5.29583,-1.121917 -14.99264,-1.468456 -41.46244,-1.481758 -25.51892,-0.012825 -34.86367,-0.331034 -35.75,-1.217364 -0.88657,-0.886575 -1.2,-10.137381 -1.2,-35.418213 0,-18.820016 0.27314,-34.930016 0.60699,-35.799999 0.53884,-1.404204 4.89774,-1.581788 38.82593,-1.581788 43.70562,0 53.6099,0.924051 70.50699,6.578171 48.40474,16.197237 84.56832,58.382011 94.66091,110.421829 1.3726,7.07744 1.72605,18.0395 2.11194,65.500003 0.30859,37.95357 0.0856,61.28123 -0.66735,69.81239 -5.64238,63.93004 -50.36629,114.72292 -113.54541,128.95337 -8.02668,1.80792 -13.44597,2.07455 -50.11051,2.46539 -37.69081,0.40178 -41.16371,0.29961 -41.75,-1.22825 z"
           id="path3367"
           inkscape:connector-curvature="0" />
        <path
           style="fill:#cde4ab"
           d="m -87.27327,615.90888 c -8.22633,-1.30275 -19.24481,-4.94078 -26.56482,-8.77104 -8.02089,-4.19701 -16.08051,-10.98112 -15.33959,-12.91194 1.03447,-2.69577 13.92866,-20.37242 14.86062,-20.37242 0.52488,0 3.71608,2.08935 7.09156,4.64301 11.61378,8.78618 24.59448,12.89377 38.18549,12.08338 13.14972,-0.78408 20.45175,-5.84478 20.45175,-14.17416 0,-3.26941 -0.59807,-4.73586 -2.75,-6.74295 -4.20297,-3.92009 -5.92925,-4.56471 -26.31017,-9.82481 -21.73657,-5.60997 -30.26289,-9.28526 -37.5673,-16.19347 -7.68683,-7.26989 -9.87994,-12.90584 -9.84144,-25.291 0.0273,-8.78115 0.35832,-10.67037 2.71589,-15.5 5.4596,-11.18432 13.50664,-17.84844 27.36163,-22.65938 7.14832,-2.48215 9.16257,-2.73379 21.39139,-2.67243 15.67163,0.0786 25.11038,2.11144 36.58962,7.88022 7.79457,3.91708 14.41038,8.89881 14.41038,10.85108 0,1.33511 -13.5628,19.91025 -14.87822,20.37669 -0.42837,0.1519 -3.79632,-1.74725 -7.48432,-4.22032 -11.22365,-7.52628 -29.16088,-11.41676 -39.57706,-8.58403 -6.08588,1.65508 -11.0604,6.73435 -11.0604,11.29331 0,7.37015 5.21986,10.36617 27.2576,15.64493 38.00554,9.10357 50.8428,20.90308 49.54948,45.54396 -0.99389,18.93608 -12.89254,32.48715 -33.47804,38.12729 -6.6885,1.83255 -27.27708,2.69933 -35.01405,1.47408 z m 513.68501,-0.51203 c -16.61337,-3.57568 -26.4527,-8.81018 -37.52215,-19.96173 -13.58008,-13.68078 -18.89523,-27.32904 -18.91954,-48.58164 -0.0249,-21.75421 5.18643,-34.96714 19.34559,-49.04944 14.78109,-14.70086 29.0471,-20.3446 51.5961,-20.41181 10.87629,-0.0324 14.22522,0.34202 20.5,2.2921 8.93493,2.77679 14.65706,5.90663 21.76191,11.90311 6.04831,5.10475 14.71055,16.69257 13.70022,18.32732 -0.37543,0.60746 -5.66514,3.54981 -11.75491,6.53856 l -11.0723,5.4341 -6.06746,-6.42017 c -3.41929,-3.61806 -8.46796,-7.66233 -11.56746,-9.2662 -4.98981,-2.58203 -6.42762,-2.84283 -15.5,-2.81152 -12.73546,0.0439 -19.13181,2.37697 -27.3324,9.96926 -9.39136,8.69475 -14.1676,19.98662 -14.1676,33.49469 0,18.28748 8.93252,32.81926 24.77667,40.30769 6.07801,2.87265 7.63516,3.17835 16.22333,3.18498 8.1782,0.006 10.27998,-0.35841 15.1058,-2.62133 5.54299,-2.59921 13.02898,-9.05766 16.0408,-13.83901 l 1.55442,-2.46768 11.84656,5.55888 c 6.5156,3.05738 11.99071,5.99135 12.16691,6.51993 0.52705,1.58116 -5.45599,9.876 -11.18758,15.51036 -6.70049,6.58683 -16.03541,12.28968 -24.51163,14.97454 -8.44889,2.6762 -25.88224,3.38071 -35.01528,1.41501 z m -738,-68.46422 0,-68.07915 32.43462,0 c 25.0118,0 34.06845,0.34369 39.57375,1.50176 21.27136,4.47457 38.06383,17.08587 46.6016,34.99824 5.02586,10.54433 6.70954,18.35107 6.68577,31 -0.0393,20.92422 -5.49434,34.94784 -18.6897,48.04688 -9.01886,8.95304 -17.32074,13.87374 -29.62237,17.55778 -6.98632,2.09223 -9.79309,2.26817 -42.23367,2.64741 l -34.75,0.40623 0,-68.07915 z m 65.38034,39.41 c 20.02895,-5.21688 31.99151,-24.81019 28.64837,-46.92279 -2.8157,-18.62396 -15.05118,-30.84481 -33.55973,-33.51961 -9.93426,-1.43567 -28.77545,-1.34028 -30.26898,0.15325 -0.89201,0.89201 -1.2,11.13738 -1.2,39.91821 0,21.29502 0.27315,39.43002 0.60699,40.3 0.51536,1.34301 2.82349,1.58179 15.2899,1.58179 9.87217,0 16.58342,-0.49502 20.48345,-1.51085 z m 292.36966,27.43075 c -1.63862,-0.95441 -1.75,-5.2089 -1.75,-66.84715 0,-55.96093 0.21504,-66.00633 1.43465,-67.01851 1.06966,-0.88774 10.54626,-1.09565 37.25,-0.81722 40.41612,0.42139 41.42277,0.57559 52.44937,8.03427 21.3892,14.46819 23.97924,49.25372 4.98986,67.01606 -10.47113,9.79452 -17.78064,11.71265 -44.63398,11.71265 -14.29214,0 -20.43621,0.34631 -21.2899,1.2 -0.86283,0.86283 -1.2,7.57622 -1.2,23.89301 0,19.77057 -0.20371,22.77118 -1.58179,23.3 -2.63163,1.00985 -23.79174,0.61984 -25.66821,-0.47311 z m 68.16142,-75.92054 c 5.8714,-3.32654 8.26807,-6.81195 8.85023,-12.87064 0.63255,-6.58309 -0.1527,-9.36557 -3.8227,-13.54547 -5.09826,-5.80659 -9.03532,-6.68784 -28.43895,-6.36559 l -17,0.28234 -0.27533,16.36701 c -0.19869,11.81102 0.0662,16.77849 0.95145,17.8452 1.01629,1.22456 4.15196,1.41884 18.27533,1.13235 16.00763,-0.32472 17.3179,-0.49844 21.45997,-2.8452 z m 73.3308,75.75064 c -0.71137,-0.88684 6.33793,-20.27976 24.26351,-66.75 13.8964,-36.025 25.78524,-66.0625 26.41965,-66.75 1.64599,-1.78373 34.39248,-1.77685 35.87339,0.008 0.93031,1.12096 49.68572,126.52416 50.96825,131.09483 0.28588,1.01879 -0.10725,2.2494 -0.87362,2.73469 -2.2474,1.4231 -28.24193,1.13155 -30.05058,-0.33705 -0.84668,-0.6875 -3.24168,-5.8692 -5.32221,-11.5149 l -3.78278,-10.26489 -29.03247,0.26489 -29.03247,0.2649 -3.9606,10.66583 c -3.04026,8.1874 -4.45458,10.79841 -6.08644,11.23635 -4.38616,1.1771 -28.34281,0.64538 -29.38363,-0.65218 z m 88.18513,-48.63245 c 0.79849,-1.29199 -18.5572,-54.24093 -19.68996,-53.86335 -1.00681,0.33561 -19.73739,50.98132 -19.73739,53.36803 0,1.12311 3.59332,1.37777 19.44098,1.37777 10.69254,0 19.68641,-0.3971 19.98637,-0.88245 z m 284.14408,48.31102 c -1.39609,-1.39608 -1.57143,-8.76788 -1.57143,-66.06574 0,-42.54522 0.3523,-65.15259 1.03518,-66.42857 1.0009,-1.87019 2.59072,-1.93426 48,-1.93426 l 46.96482,0 0,13 0,13 -33.02822,0 -33.02822,0 0.27822,13.75 0.27822,13.75 32.25,0.26385 32.25,0.26386 0,12.47229 0,12.47229 -32.25,0.26386 -32.25,0.26385 0,15 0,15 32.75,0.26366 32.75,0.26367 0,12.98633 0,12.98634 -46.42857,0 c -40.87446,0 -46.61656,-0.18799 -48,-1.57143 z M -8.24451,301.84465 c -9.33298,-1.91963 -17.86046,-8.55512 -21.72103,-16.90178 -2.05834,-4.4502 -2.12272,-5.87837 -2.12272,-47.08939 l 0,-42.5 2.67232,-5.06346 c 1.46977,-2.7849 4.55697,-6.76612 6.86043,-8.84717 7.54685,-6.81811 8.33035,-6.96889 39.96725,-7.69093 25.11405,-0.57318 29.39104,-0.90947 36,-2.83057 13.22181,-3.84332 21.63397,-8.66622 30.60348,-17.54572 12.41939,-12.29476 18.39652,-26.27288 18.39652,-43.02215 0,-10.07133 -1.89596,-17.703453 -6.97707,-28.085913 C 88.22636,67.538477 72.521,55.111487 54.39541,49.794887 47.7459,47.844467 43.67927,47.529227 17.91174,46.966777 l -29,-0.633 -5.31885,-2.93655 c -5.93536,-3.27693 -10.05907,-7.52244 -13.42501,-13.82155 -2.2399,-4.19181 -2.25614,-4.52814 -2.25614,-46.7222 l 0,-42.5 2.81095,-5.724247 c 1.54602,-3.148336 4.67636,-7.320974 6.95632,-9.27253 7.2723,-6.22482 9.53595,-6.503223 52.87672,-6.503223 36.5669,0 39.09181,0.116293 44.22518,2.036936 3.55268,1.329225 6.83691,3.547845 9.4527,6.38564 7.74051,8.397468 7.58412,7.624014 8.30594,41.077424 0.56266,26.076816 0.92463,31.038595 2.76794,37.941978 5.32463,19.941332 17.38019,35.574602 33.64959,43.635732 11.16063,5.52985 14.875,6.12357 42.53145,6.7983 l 25.57678,0.62399 4.05207,2.68402 c 2.43773,1.61471 4.89712,4.42967 6.17321,7.06572 2.04928,4.23324 2.12115,5.69029 2.12115,43.000883 0,24.85493 -0.37908,39.62251 -1.06362,41.43428 -1.51214,4.00221 -5.78064,8.2637 -10.43638,10.41924 -3.50659,1.62349 -6.72486,1.85465 -26.09004,1.8739 -18.6628,0.0186 -23.2863,0.32791 -29.80048,1.99396 -27.09549,6.92986 -45.06981,29.05132 -48.59363,59.80543 -0.54969,4.79741 -1.00313,18.65491 -1.00765,30.79443 -0.009,25.2154 -0.65743,28.47595 -7.11886,35.81652 -2.2093,2.50989 -6.48717,5.74009 -9.6749,7.30547 l -5.71444,2.80615 -37,0.17302 c -20.35,0.0952 -38.87031,-0.21168 -41.15625,-0.68185 z m 179.90625,0.4081 c -0.96666,-0.43765 -1.25,-8.79637 -1.25,-36.87561 0,-32.18719 0.17959,-36.3786 1.58179,-36.91667 0.86998,-0.33385 17.20044,-0.60699 36.2899,-0.60699 39.46345,0 40.88039,-0.19191 55.93029,-7.57521 13.27824,-6.51415 23.09742,-16.30957 29.50831,-29.43691 7.56861,-15.49795 7.68971,-16.76347 7.68971,-80.35775 0,-63.894623 -0.14555,-65.437463 -7.59758,-80.533703 C 286.20566,14.536709 272.36345,2.217522 255.965,-3.734794 246.13887,-7.301489 235.7425,-8.146523 201.68797,-8.146523 l -31.27623,0 0,-36.5 0,-36.5 37.31358,0 c 43.02626,0 53.95974,1.001182 70.17005,6.425491 51.52408,17.241031 88.96941,62.268876 96.43804,115.966289 0.67588,4.85946 1.07833,30.82788 1.07833,69.581213 0,56.71429 -0.16104,62.767 -1.94699,73.17764 -8.23825,48.02242 -41.50308,89.62494 -86.10029,107.68094 -22.74634,9.20928 -30.5958,10.31426 -76.45272,10.76233 -20.9,0.20422 -38.5625,0.11664 -39.25,-0.19463 z"
           id="path3365"
           inkscape:connector-curvature="0" />
        <path
           style="fill:#bbdb8b"
           d="m -87.27327,615.90888 c -8.22633,-1.30275 -19.24481,-4.94078 -26.56482,-8.77104 -8.02089,-4.19701 -16.08051,-10.98112 -15.33959,-12.91194 1.03447,-2.69577 13.92866,-20.37242 14.86062,-20.37242 0.52488,0 3.71608,2.08935 7.09156,4.64301 11.61378,8.78618 24.59448,12.89377 38.18549,12.08338 13.14972,-0.78408 20.45175,-5.84478 20.45175,-14.17416 0,-3.26941 -0.59807,-4.73586 -2.75,-6.74295 -4.20297,-3.92009 -5.92925,-4.56471 -26.31017,-9.82481 -21.73657,-5.60997 -30.26289,-9.28526 -37.5673,-16.19347 -7.68683,-7.26989 -9.87994,-12.90584 -9.84144,-25.291 0.0273,-8.78115 0.35832,-10.67037 2.71589,-15.5 5.4596,-11.18432 13.50664,-17.84844 27.36163,-22.65938 7.14832,-2.48215 9.16257,-2.73379 21.39139,-2.67243 15.67163,0.0786 25.11038,2.11144 36.58962,7.88022 7.79457,3.91708 14.41038,8.89881 14.41038,10.85108 0,1.33511 -13.5628,19.91025 -14.87822,20.37669 -0.42837,0.1519 -3.79632,-1.74725 -7.48432,-4.22032 -11.22365,-7.52628 -29.16088,-11.41676 -39.57706,-8.58403 -6.08588,1.65508 -11.0604,6.73435 -11.0604,11.29331 0,7.37015 5.21986,10.36617 27.2576,15.64493 38.00554,9.10357 50.8428,20.90308 49.54948,45.54396 -0.99389,18.93608 -12.89254,32.48715 -33.47804,38.12729 -6.6885,1.83255 -27.27708,2.69933 -35.01405,1.47408 z m 513.68501,-0.51203 c -16.61337,-3.57568 -26.4527,-8.81018 -37.52215,-19.96173 -13.58008,-13.68078 -18.89523,-27.32904 -18.91954,-48.58164 -0.0249,-21.75421 5.18643,-34.96714 19.34559,-49.04944 14.78109,-14.70086 29.0471,-20.3446 51.5961,-20.41181 10.87629,-0.0324 14.22522,0.34202 20.5,2.2921 8.93493,2.77679 14.65706,5.90663 21.76191,11.90311 6.04831,5.10475 14.71055,16.69257 13.70022,18.32732 -0.37543,0.60746 -5.66514,3.54981 -11.75491,6.53856 l -11.0723,5.4341 -6.06746,-6.42017 c -3.41929,-3.61806 -8.46796,-7.66233 -11.56746,-9.2662 -4.98981,-2.58203 -6.42762,-2.84283 -15.5,-2.81152 -12.73546,0.0439 -19.13181,2.37697 -27.3324,9.96926 -9.39136,8.69475 -14.1676,19.98662 -14.1676,33.49469 0,18.28748 8.93252,32.81926 24.77667,40.30769 6.07801,2.87265 7.63516,3.17835 16.22333,3.18498 8.1782,0.006 10.27998,-0.35841 15.1058,-2.62133 5.54299,-2.59921 13.02898,-9.05766 16.0408,-13.83901 l 1.55442,-2.46768 11.84656,5.55888 c 6.5156,3.05738 11.99071,5.99135 12.16691,6.51993 0.52705,1.58116 -5.45599,9.876 -11.18758,15.51036 -6.70049,6.58683 -16.03541,12.28968 -24.51163,14.97454 -8.44889,2.6762 -25.88224,3.38071 -35.01528,1.41501 z m -380.25,-1.62347 c -1.63862,-0.95441 -1.75,-5.2089 -1.75,-66.84715 0,-55.96093 0.21504,-66.00633 1.43465,-67.01851 1.06966,-0.88774 10.54626,-1.09565 37.25,-0.81722 40.41612,0.42139 41.42277,0.57559 52.44937,8.03427 21.3892,14.46819 23.97924,49.25372 4.98986,67.01606 -10.47113,9.79452 -17.78064,11.71265 -44.63398,11.71265 -14.29214,0 -20.43621,0.34631 -21.2899,1.2 -0.86283,0.86283 -1.2,7.57622 -1.2,23.89301 0,19.77057 -0.20371,22.77118 -1.58179,23.3 -2.63163,1.00985 -23.79174,0.61984 -25.66821,-0.47311 z m 68.16142,-75.92054 c 5.8714,-3.32654 8.26807,-6.81195 8.85023,-12.87064 0.63255,-6.58309 -0.1527,-9.36557 -3.8227,-13.54547 -5.09826,-5.80659 -9.03532,-6.68784 -28.43895,-6.36559 l -17,0.28234 -0.27533,16.36701 c -0.19869,11.81102 0.0662,16.77849 0.95145,17.8452 1.01629,1.22456 4.15196,1.41884 18.27533,1.13235 16.00763,-0.32472 17.3179,-0.49844 21.45997,-2.8452 z m 73.3308,75.75064 c -0.71137,-0.88684 6.33793,-20.27976 24.26351,-66.75 13.8964,-36.025 25.78524,-66.0625 26.41965,-66.75 1.64599,-1.78373 34.39248,-1.77685 35.87339,0.008 0.93031,1.12096 49.68572,126.52416 50.96825,131.09483 0.28588,1.01879 -0.10725,2.2494 -0.87362,2.73469 -2.2474,1.4231 -28.24193,1.13155 -30.05058,-0.33705 -0.84668,-0.6875 -3.24168,-5.8692 -5.32221,-11.5149 l -3.78278,-10.26489 -29.03247,0.26489 -29.03247,0.2649 -3.9606,10.66583 c -3.04026,8.1874 -4.45458,10.79841 -6.08644,11.23635 -4.38616,1.1771 -28.34281,0.64538 -29.38363,-0.65218 z m 88.18513,-48.63245 c 0.79849,-1.29199 -18.5572,-54.24093 -19.68996,-53.86335 -1.00681,0.33561 -19.73739,50.98132 -19.73739,53.36803 0,1.12311 3.59332,1.37777 19.44098,1.37777 10.69254,0 19.68641,-0.3971 19.98637,-0.88245 z m 284.14408,48.31102 c -1.39609,-1.39608 -1.57143,-8.76788 -1.57143,-66.06574 0,-42.54522 0.3523,-65.15259 1.03518,-66.42857 1.0009,-1.87019 2.59072,-1.93426 48,-1.93426 l 46.96482,0 0,13 0,13 -33.02822,0 -33.02822,0 0.27822,13.75 0.27822,13.75 32.25,0.26385 32.25,0.26386 0,12.47229 0,12.47229 -32.25,0.26386 -32.25,0.26385 0,15 0,15 32.75,0.26366 32.75,0.26367 0,12.98633 0,12.98634 -46.42857,0 c -40.87446,0 -46.61656,-0.18799 -48,-1.57143 z m -871.57143,-66.96024 0,-67.66883 33.25,0.44706 c 30.19336,0.40596 33.98543,0.64711 41.25,2.62314 25.28442,6.87761 41.62756,22.55589 48.10435,46.14739 2.4138,8.79221 2.46153,28.00992 0.0919,36.98291 -5.77683,21.87439 -20.57314,37.46523 -42.95828,45.26506 l -9.23797,3.21884 -35.25,0.32663 -35.25,0.32663 0,-67.66883 z m 63.20078,41.40729 c 14.88015,-3.15724 26.0362,-13.56334 30.3131,-28.27536 2.3822,-8.19448 1.66563,-22.86009 -1.51958,-31.10026 -3.17545,-8.21493 -12.20631,-17.26981 -20.4943,-20.54883 -5.37391,-2.1261 -7.90437,-2.41222 -24.25,-2.74191 l -18.25,-0.3681 0,41.41275 c 0,22.77702 0.3,41.71276 0.66667,42.07942 1.11094,1.11095 27.86186,0.74582 33.53411,-0.45771 z M -10.78246,300.47723 c -2.5818,-0.70743 -5.5068,-1.90039 -6.5,-2.65103 -4.80745,-3.6334 -9.68434,-8.85894 -11.64053,-12.47272 -2.1061,-3.89069 -2.17325,-5.13036 -2.45736,-45.36524 -0.32651,-46.24033 -0.20631,-47.27181 6.40968,-55.0011 1.95267,-2.28126 5.65004,-5.38208 8.21637,-6.89071 l 4.66604,-2.74295 27.5,-0.63086 c 27.37473,-0.62798 32.97937,-1.208 42.5,-4.39827 16.66185,-5.58322 32.15643,-18.59399 38.89762,-32.66224 17.41064,-36.33444 -1.5594,-76.355813 -41.89762,-88.391963 -8.53922,-2.54794 -10.45914,-2.71817 -37.5,-3.32498 -26.67498,-0.59859 -28.7636,-0.77903 -32.61647,-2.81782 -6.38909,-3.38086 -10.24153,-7.07883 -13.18269,-12.65413 l -2.70084,-5.11974 0,-43 c 0,-42.403224 0.0306,-43.05713 2.2022,-47.11647 3.38401,-6.325571 6.64002,-9.702904 12.46508,-12.92958 l 5.33272,-2.95395 39.35975,-0.293913 c 34.08707,-0.254541 40.01087,-0.07765 44.22024,1.320481 6.56227,2.179637 14.06298,9.1025 17.00397,15.694001 2.25368,5.051072 2.38217,6.598694 2.97052,35.779431 0.56608,28.076335 0.79613,31.056251 2.89502,37.5 7.88519,24.20807 23.36535,39.8254 45.72248,46.12763 4.37011,1.23188 11.45651,1.74049 28.32802,2.03319 12.375,0.21468 23.97212,0.62602 25.77138,0.91408 3.78058,0.60527 9.56987,5.33285 12.0297,9.82354 1.51434,2.76459 1.69892,7.23009 1.69892,41.101563 0,20.9 -0.344,39.22925 -0.76445,40.73166 -1.05857,3.78268 -6.55509,9.79499 -10.43781,11.4173 -2.36868,0.98969 -8.86997,1.35104 -24.30778,1.35104 -24.03087,0 -32.27305,1.21863 -43.48996,6.43011 -12.91803,6.00184 -23.84006,17.12992 -30.36307,30.9359 -5.94625,12.58525 -6.3671,15.49745 -7.02832,48.63399 l -0.60861,30.5 -2.79009,5.6816 c -3.16099,6.43691 -8.00593,11.13432 -14.6591,14.21274 -4.3467,2.01122 -6.25516,2.11485 -42.55081,2.31065 -28.4155,0.15329 -39.18399,-0.11943 -42.6942,-1.08124 z m 181.83753,-0.11083 c -0.8172,-2.1296 -0.85134,-67.80729 -0.0363,-69.93113 0.53715,-1.39979 4.5929,-1.58379 35.25,-1.59915 26.34784,-0.0132 36.31914,-0.36504 41.64301,-1.46934 9.40127,-1.95005 23.57952,-9.24321 31.20321,-16.05065 7.16626,-6.39899 15.14366,-17.79568 18.31064,-26.15898 4.78558,-12.63765 5.11766,-18.17029 4.74493,-79.05303 -0.38979,-63.663473 -0.16738,-61.511813 -7.98501,-77.250643 -3.28936,-6.62231 -5.99909,-10.26724 -12.2665,-16.5 C 272.93737,3.421463 266.0954,-1.015506 255.24666,-4.943371 l -7.33492,-2.655663 -37.46597,-0.33054 c -24.56944,-0.216762 -37.90796,-0.697358 -38.75,-1.39619 -1.0012,-0.830922 -1.28403,-8.876998 -1.28403,-36.528816 l 0,-35.463168 41.25,0.439156 c 36.77689,0.391534 42.22595,0.658665 50.25,2.463418 50.85753,11.438772 90.92341,47.722911 106.30233,96.268651 6.17959,19.50675 6.35641,22.38548 5.95805,97.000003 l -0.36037,67.5 -2.64127,10.07111 c -6.34499,24.19342 -15.60504,42.09463 -31.25946,60.42973 -20.20569,23.66574 -49.30419,40.44709 -80.844,46.62341 -6.30427,1.23454 -17.14483,1.70688 -47.76195,2.08109 -36.40602,0.44495 -39.65866,0.34859 -40.25,-1.19242 z"
           id="path3363"
           inkscape:connector-curvature="0" />
        <path
           style="fill:#9b9c9e"
           d="m -87.27327,615.90888 c -8.22633,-1.30275 -19.24481,-4.94078 -26.56482,-8.77104 -8.02089,-4.19701 -16.08051,-10.98112 -15.33959,-12.91194 1.03447,-2.69577 13.92866,-20.37242 14.86062,-20.37242 0.52488,0 3.71608,2.08935 7.09156,4.64301 11.61378,8.78618 24.59448,12.89377 38.18549,12.08338 13.14972,-0.78408 20.45175,-5.84478 20.45175,-14.17416 0,-3.26941 -0.59807,-4.73586 -2.75,-6.74295 -4.20297,-3.92009 -5.92925,-4.56471 -26.31017,-9.82481 -21.73657,-5.60997 -30.26289,-9.28526 -37.5673,-16.19347 -7.68683,-7.26989 -9.87994,-12.90584 -9.84144,-25.291 0.0273,-8.78115 0.35832,-10.67037 2.71589,-15.5 5.4596,-11.18432 13.50664,-17.84844 27.36163,-22.65938 7.14832,-2.48215 9.16257,-2.73379 21.39139,-2.67243 15.67163,0.0786 25.11038,2.11144 36.58962,7.88022 7.79457,3.91708 14.41038,8.89881 14.41038,10.85108 0,1.33511 -13.5628,19.91025 -14.87822,20.37669 -0.42837,0.1519 -3.79632,-1.74725 -7.48432,-4.22032 -11.22365,-7.52628 -29.16088,-11.41676 -39.57706,-8.58403 -6.08588,1.65508 -11.0604,6.73435 -11.0604,11.29331 0,7.37015 5.21986,10.36617 27.2576,15.64493 38.00554,9.10357 50.8428,20.90308 49.54948,45.54396 -0.99389,18.93608 -12.89254,32.48715 -33.47804,38.12729 -6.6885,1.83255 -27.27708,2.69933 -35.01405,1.47408 z m 513.68501,-0.51203 c -16.61337,-3.57568 -26.4527,-8.81018 -37.52215,-19.96173 -13.58008,-13.68078 -18.89523,-27.32904 -18.91954,-48.58164 -0.0249,-21.75421 5.18643,-34.96714 19.34559,-49.04944 14.78109,-14.70086 29.0471,-20.3446 51.5961,-20.41181 10.87629,-0.0324 14.22522,0.34202 20.5,2.2921 8.93493,2.77679 14.65706,5.90663 21.76191,11.90311 6.04831,5.10475 14.71055,16.69257 13.70022,18.32732 -0.37543,0.60746 -5.66514,3.54981 -11.75491,6.53856 l -11.0723,5.4341 -6.06746,-6.42017 c -3.41929,-3.61806 -8.46796,-7.66233 -11.56746,-9.2662 -4.98981,-2.58203 -6.42762,-2.84283 -15.5,-2.81152 -12.73546,0.0439 -19.13181,2.37697 -27.3324,9.96926 -9.39136,8.69475 -14.1676,19.98662 -14.1676,33.49469 0,18.28748 8.93252,32.81926 24.77667,40.30769 6.07801,2.87265 7.63516,3.17835 16.22333,3.18498 8.1782,0.006 10.27998,-0.35841 15.1058,-2.62133 5.54299,-2.59921 13.02898,-9.05766 16.0408,-13.83901 l 1.55442,-2.46768 11.84656,5.55888 c 6.5156,3.05738 11.99071,5.99135 12.16691,6.51993 0.52705,1.58116 -5.45599,9.876 -11.18758,15.51036 -6.70049,6.58683 -16.03541,12.28968 -24.51163,14.97454 -8.44889,2.6762 -25.88224,3.38071 -35.01528,1.41501 z m -380.25,-1.62347 c -1.63862,-0.95441 -1.75,-5.2089 -1.75,-66.84715 0,-55.96093 0.21504,-66.00633 1.43465,-67.01851 1.06966,-0.88774 10.54626,-1.09565 37.25,-0.81722 40.41612,0.42139 41.42277,0.57559 52.44937,8.03427 21.3892,14.46819 23.97924,49.25372 4.98986,67.01606 -10.47113,9.79452 -17.78064,11.71265 -44.63398,11.71265 -14.29214,0 -20.43621,0.34631 -21.2899,1.2 -0.86283,0.86283 -1.2,7.57622 -1.2,23.89301 0,19.77057 -0.20371,22.77118 -1.58179,23.3 -2.63163,1.00985 -23.79174,0.61984 -25.66821,-0.47311 z m 68.16142,-75.92054 c 5.8714,-3.32654 8.26807,-6.81195 8.85023,-12.87064 0.63255,-6.58309 -0.1527,-9.36557 -3.8227,-13.54547 -5.09826,-5.80659 -9.03532,-6.68784 -28.43895,-6.36559 l -17,0.28234 -0.27533,16.36701 c -0.19869,11.81102 0.0662,16.77849 0.95145,17.8452 1.01629,1.22456 4.15196,1.41884 18.27533,1.13235 16.00763,-0.32472 17.3179,-0.49844 21.45997,-2.8452 z m 73.3308,75.75064 c -0.71137,-0.88684 6.33793,-20.27976 24.26351,-66.75 13.8964,-36.025 25.78524,-66.0625 26.41965,-66.75 1.64599,-1.78373 34.39248,-1.77685 35.87339,0.008 0.93031,1.12096 49.68572,126.52416 50.96825,131.09483 0.28588,1.01879 -0.10725,2.2494 -0.87362,2.73469 -2.2474,1.4231 -28.24193,1.13155 -30.05058,-0.33705 -0.84668,-0.6875 -3.24168,-5.8692 -5.32221,-11.5149 l -3.78278,-10.26489 -29.03247,0.26489 -29.03247,0.2649 -3.9606,10.66583 c -3.04026,8.1874 -4.45458,10.79841 -6.08644,11.23635 -4.38616,1.1771 -28.34281,0.64538 -29.38363,-0.65218 z m 88.18513,-48.63245 c 0.79849,-1.29199 -18.5572,-54.24093 -19.68996,-53.86335 -1.00681,0.33561 -19.73739,50.98132 -19.73739,53.36803 0,1.12311 3.59332,1.37777 19.44098,1.37777 10.69254,0 19.68641,-0.3971 19.98637,-0.88245 z m 284.14408,48.31102 c -1.39609,-1.39608 -1.57143,-8.76788 -1.57143,-66.06574 0,-42.54522 0.3523,-65.15259 1.03518,-66.42857 1.0009,-1.87019 2.59072,-1.93426 48,-1.93426 l 46.96482,0 0,13 0,13 -33.02822,0 -33.02822,0 0.27822,13.75 0.27822,13.75 32.25,0.26385 32.25,0.26386 0,12.47229 0,12.47229 -32.25,0.26386 -32.25,0.26385 0,15 0,15 32.75,0.26366 32.75,0.26367 0,12.98633 0,12.98634 -46.42857,0 c -40.87446,0 -46.61656,-0.18799 -48,-1.57143 z m -871.57274,-66.77882 10e-4,-66.85025 33.25,0.44706 c 37.3438,0.5021 41.93622,1.18283 56.75,8.41193 14.44212,7.04773 27.0771,22.77465 31.6069,39.34151 2.41072,8.81674 2.4571,28.03415 0.0893,37 -5.84872,22.14659 -20.91373,37.51191 -44.1962,45.07722 -6.33274,2.05773 -9.28773,2.30618 -31,2.60639 -13.2,0.18251 -29.06309,0.44086 -35.25131,0.57411 l -11.25131,0.24228 10e-4,-66.85025 z m 63.20209,42.24269 c 20.20369,-4.22267 32.79922,-20.50218 32.79922,-42.39244 0,-20.35924 -10.17924,-35.15573 -27.88516,-40.53374 -5.72025,-1.73747 -8.93615,-1.9797 -23.12944,-1.74216 l -16.4854,0.2759 -0.2613,41.49937 c -0.14371,22.82465 -0.0453,42.06215 0.21862,42.75 0.62219,1.62141 27.14758,1.73064 34.74346,0.14307 z M -9.08826,299.89975 c -8.25921,-2.18458 -13.91417,-6.49298 -18.28822,-13.93342 l -2.71178,-4.61285 -0.30114,-41 c -0.20909,-28.46695 0.047,-42.25294 0.83762,-45.0988 1.69664,-6.10673 7.67255,-13.37768 13.43218,-16.34306 4.87634,-2.5106 5.48956,-2.56991 33,-3.19155 23.87241,-0.53943 29.18104,-0.94134 35.78032,-2.70883 15.03689,-4.02734 28.94791,-12.62265 37.32148,-23.0601 12.64288,-15.75905 17.23064,-35.82553 12.45754,-54.488183 -6.07285,-23.74462 -24.13324,-41.11101 -50.028,-48.10559 -5.14404,-1.38949 -12.44537,-1.88594 -35,-2.37982 l -28.5,-0.62407 -5.5,-3.08414 c -6.07805,-3.40828 -11.27049,-9.99295 -13.02853,-16.52183 -0.68358,-2.53862 -0.95275,-18.280183 -0.7636,-44.657332 0.28381,-39.57657 0.35381,-40.851893 2.45784,-44.781646 2.51452,-4.696417 9.96586,-11.891329 13.43871,-12.976242 1.31757,-0.411605 2.71667,-1.250221 3.10911,-1.863591 1.01004,-1.578663 82.5633,-1.578226 83.57294,4.47e-4 0.39244,0.613616 2.56942,2.056383 4.83774,3.20615 4.88806,2.477666 8.91333,6.986785 11.7641,13.178184 1.89903,4.124378 2.12536,7.045884 2.71138,35 0.47778,22.790394 1.0208,31.76387 2.14825,35.5 5.40974,17.92667 13.50025,29.93775 26.33477,39.09627 13.92069,9.9336 20.55433,11.49717 52.09681,12.27934 23.33065,0.57854 25.38207,0.77578 27.93821,2.68618 3.98703,2.97982 6.38683,6.54022 7.4248,11.0156 1.18497,5.10924 1.18497,70.735983 0,75.845223 -1.18567,5.11221 -3.81243,8.55237 -8.63655,11.31094 -3.70093,2.1163 -5.01691,2.23441 -25.06801,2.25 -25.45621,0.0198 -33.3265,1.24922 -45.0779,7.04172 -16.80208,8.28208 -29.04729,23.61482 -34.83807,43.62219 -1.34399,4.64356 -1.83047,12.15303 -2.35499,36.35254 -0.72172,33.29727 -0.86997,34.17559 -7.09492,42.03524 -1.7398,2.19668 -5.5149,5.0662 -8.76418,6.6618 l -5.70791,2.80296 -38,0.16989 c -20.9,0.0934 -39.35,-0.18719 -41,-0.62362 z m 180.99211,-0.20623 c -0.28562,-0.74431 -0.40068,-16.6503 -0.25571,-35.34666 l 0.2636,-33.99338 37.5,-0.55772 c 41.88296,-0.62291 41.58412,-0.57926 56.5,-8.25309 11.63577,-5.9863 23.68681,-18.18747 29.32388,-29.68919 7.87981,-16.07776 7.67612,-13.9018 7.67612,-82 l 0,-60.500003 -2.34186,-7.5 c -4.01014,-12.84279 -8.70132,-20.63794 -18.1087,-30.090529 -9.04942,-9.092908 -16.71819,-14.034742 -28.04944,-18.07533 -6.24754,-2.227801 -7.97589,-2.33756 -44.5,-2.825982 l -38,-0.508159 -0.26263,-35.75 -0.26263,-35.75 34.26263,0.05135 c 42.33092,0.06344 49.74475,0.929425 72.42276,8.459427 41.71839,13.852157 74.30919,46.451047 88.35597,88.377889 6.5098,19.430453 6.27854,16.338743 6.70206,89.597937 0.42075,72.77821 0.2503,75.8952 -5.19581,95.0134 -3.43976,12.07504 -13.99153,33.05746 -21.87553,43.5 -17.24178,22.83711 -41.81229,40.69159 -68.17756,49.54212 -18.01588,6.04773 -23.58681,6.65114 -66.21355,7.17183 -32.39987,0.39576 -39.33487,0.24335 -39.7636,-0.87391 z"
           id="path3361"
           inkscape:connector-curvature="0" />
        <path
           style="fill:#91c544"
           d="m -87.70477,615.40363 c -0.30005,-0.30005 -4.10909,-1.45373 -8.46452,-2.56375 -4.35543,-1.11001 -11.06897,-3.51844 -14.91897,-5.35208 -7.63365,-3.63567 -17.82057,-11.17262 -17.28252,-12.78676 0.68755,-2.06266 13.31272,-19.79015 14.11422,-19.81832 0.45744,-0.0161 2.74997,1.54263 5.09451,3.4638 22.89479,18.76056 61.57379,17.43184 61.57379,-2.11522 0,-8.22538 -5.13047,-11.23736 -29.58248,-17.36723 -18.50931,-4.64009 -27.20603,-7.89016 -33.66913,-12.58256 -12.27497,-8.91197 -16.69697,-23.7918 -11.76026,-39.57269 7.68676,-24.57183 42.01442,-35.47066 76.16782,-24.18284 8.29021,2.73994 22.84405,11.32124 22.84405,13.46941 0,0.65027 -3.18317,5.41722 -7.0737,10.59323 -6.88393,9.15845 -7.13209,9.36866 -9.25,7.83544 -11.63189,-8.42069 -22.38061,-12.05548 -35.6763,-12.06429 -7.36749,-0.005 -10.36828,0.42469 -13.36806,1.91367 -7.4422,3.69404 -9.81621,11.83074 -5.09044,17.44699 3.02101,3.59026 9.98295,6.36409 24.4585,9.74491 21.09235,4.92621 32.11486,9.60929 40.01894,17.00263 7.32596,6.85257 9.48106,12.62285 9.48106,25.38551 0,9.67098 -0.24433,11.0132 -3.09455,17 -5.29749,11.1272 -14.47427,18.28956 -28.9684,22.60945 -5.75504,1.71526 -34.22497,3.2693 -35.55356,1.9407 z m 513.61651,-0.77672 c -1.65,-0.5576 -6.375,-2.1309 -10.5,-3.49622 -28.87858,-9.55848 -46.5946,-36.60748 -44.69449,-68.24001 1.14842,-19.11859 6.75194,-32.15392 19.16258,-44.57743 6.31439,-6.32094 9.84952,-8.928 16.53191,-12.19184 12.60987,-6.15895 19.2568,-7.64434 34.5,-7.70969 17.7039,-0.0759 27.89688,3.12871 40.27707,12.66282 4.71715,3.63273 15.18868,16.0621 15.21332,18.05771 0.005,0.42833 -5.00218,3.23847 -11.1277,6.24477 l -11.13732,5.466 -5.75368,-6.27913 c -7.51341,-8.19956 -14.75375,-11.85465 -24.7722,-12.50557 -25.32555,-1.64547 -45.19949,18.05069 -45.19949,44.79516 0,12.84756 4.00028,23.00359 12.62033,32.0408 16.45417,17.25048 42.04931,17.18918 57.72975,-0.13826 l 5.44817,-6.02043 11.14068,5.58726 11.14069,5.58727 -1.78981,3.17909 c -0.9844,1.7485 -5.16481,6.61407 -9.28981,10.81237 -7.95689,8.09829 -18.47735,14.36497 -26.18492,15.59746 -2.12267,0.33943 -4.10099,1.00804 -4.39626,1.48579 -0.73941,1.19639 -25.21584,0.89345 -28.91882,-0.35792 z m -737.50131,-68.12368 10e-4,-66.85025 33.25,0.44706 c 37.3438,0.5021 41.93622,1.18283 56.75,8.41193 14.44212,7.04773 27.0771,22.77465 31.6069,39.34151 2.41072,8.81674 2.4571,28.03415 0.0893,37 -5.84872,22.14659 -20.91373,37.51191 -44.1962,45.07722 -6.33274,2.05773 -9.28773,2.30618 -31,2.60639 -13.2,0.18251 -29.06309,0.44086 -35.25131,0.57411 l -11.25131,0.24228 10e-4,-66.85025 z m 63.20209,42.24269 c 20.20369,-4.22267 32.79922,-20.50218 32.79922,-42.39244 0,-20.35924 -10.17924,-35.15573 -27.88516,-40.53374 -5.72025,-1.73747 -8.93615,-1.9797 -23.12944,-1.74216 l -16.4854,0.2759 -0.2613,41.49937 c -0.14371,22.82465 -0.0453,42.06215 0.21862,42.75 0.62219,1.62141 27.14758,1.73064 34.74346,0.14307 z m 855.04922,24.35781 -46.25,-0.27022 0,-66.49002 0,-66.49001 47,0 47,0 0,12 0,12 -32.96482,0 c -32.39957,0 -32.98396,0.0358 -34.08176,2.08703 -1.74456,3.25974 -0.87234,25.72104 1.04658,26.95135 0.90127,0.57785 14.17335,0.86192 33.2505,0.71167 l 31.75051,-0.25005 0,12 0,12 -31.75051,-0.25005 c -19.1201,-0.15059 -32.3472,0.13325 -33.2505,0.71352 -1.22063,0.78412 -1.5,3.67772 -1.5,15.53653 0,11.85574 0.27968,14.7539 1.5,15.54343 0.91226,0.59023 14.13663,0.86981 33.75063,0.71353 l 32.25063,-0.25696 -6.3e-4,12.25 c -3.5e-4,6.7375 -0.33813,12.14211 -0.75063,12.01023 -0.4125,-0.13187 -21.5625,-0.36136 -47,-0.50998 z M 45.6546,546.60348 l 0.25714,-66.25 32,-0.27617 c 18.54331,-0.16003 34.83333,0.15837 38.73766,0.75716 22.9371,3.51774 37.45534,22.28492 35.47872,45.86199 -1.38776,16.55328 -10.62594,29.25253 -25.71638,35.351 -5.00866,2.02414 -7.55466,2.25633 -28.4996,2.59907 -13.84734,0.22659 -23.49717,0.78931 -24.25,1.4141 -0.93386,0.77503 -1.2504,6.8293 -1.2504,23.91529 l 0,22.87756 -13.50714,0 -13.50714,0 0.25714,-66.25 z m 64.19363,-5.83832 c 18.62077,-4.68877 19.78084,-29.61394 1.66429,-35.75873 -2.04791,-0.69461 -10.25428,-1.15295 -20.64301,-1.15295 -14.80159,0 -17.32976,0.22403 -17.85078,1.58179 -1.19204,3.1064 -0.67264,33.95256 0.59301,35.21821 1.55326,1.55326 30.16132,1.64142 36.23649,0.11168 z m 78.56351,71.03661 c 0,-1.53116 49.12133,-129.14866 50.31601,-130.7213 0.73138,-0.96275 5.12593,-1.20647 18.03145,-1 l 17.06439,0.27301 25.26245,65.5 c 13.89434,36.025 25.27668,65.84922 25.29407,66.27605 0.0174,0.42682 -6.81416,0.65182 -15.18123,0.5 l -15.21285,-0.27605 -4.03715,-10.39948 c -2.75733,-7.10275 -4.67116,-10.64682 -6.03714,-11.17971 -1.1,-0.42913 -13.72649,-0.81187 -28.05887,-0.85052 -20.71028,-0.0559 -26.44768,0.21401 -27.95317,1.31485 -1.04186,0.76183 -3.55576,5.82433 -5.58645,11.25 l -3.69215,9.86486 -15.10468,0.27605 c -10.51682,0.1922 -15.10468,-0.0592 -15.10468,-0.82776 z m 88.56945,-46.26868 c 0.86564,-2.25581 -18.84535,-55.12357 -20.68096,-55.46935 -1.26896,-0.23904 -3.68458,5.4412 -11.36454,26.72339 -5.36418,14.86482 -9.49062,27.71081 -9.16988,28.54665 0.49491,1.28972 3.61924,1.5197 20.64593,1.5197 15.69811,0 20.173,-0.28725 20.56945,-1.32039 z M -9.08826,299.89975 c -8.25921,-2.18458 -13.91417,-6.49298 -18.28822,-13.93342 l -2.71178,-4.61285 -0.30114,-41 c -0.20909,-28.46695 0.047,-42.25294 0.83762,-45.0988 1.69664,-6.10673 7.67255,-13.37768 13.43218,-16.34306 4.87634,-2.5106 5.48956,-2.56991 33,-3.19155 23.87241,-0.53943 29.18104,-0.94134 35.78032,-2.70883 15.03689,-4.02734 28.94791,-12.62265 37.32148,-23.0601 12.64288,-15.75905 17.23064,-35.82553 12.45754,-54.488183 -6.07285,-23.74462 -24.13324,-41.11101 -50.028,-48.10559 -5.14404,-1.38949 -12.44537,-1.88594 -35,-2.37982 l -28.5,-0.62407 -5.5,-3.08414 c -6.07805,-3.40828 -11.27049,-9.99295 -13.02853,-16.52183 -0.68358,-2.53862 -0.95275,-18.280183 -0.7636,-44.657332 0.28381,-39.57657 0.35381,-40.851893 2.45784,-44.781646 2.51452,-4.696417 9.96586,-11.891329 13.43871,-12.976242 1.31757,-0.411605 2.71667,-1.250221 3.10911,-1.863591 1.01004,-1.578663 82.5633,-1.578226 83.57294,4.47e-4 0.39244,0.613616 2.56942,2.056383 4.83774,3.20615 4.88806,2.477666 8.91333,6.986785 11.7641,13.178184 1.89903,4.124378 2.12536,7.045884 2.71138,35 0.47778,22.790394 1.0208,31.76387 2.14825,35.5 5.40974,17.92667 13.50025,29.93775 26.33477,39.09627 13.92069,9.9336 20.55433,11.49717 52.09681,12.27934 23.33065,0.57854 25.38207,0.77578 27.93821,2.68618 3.98703,2.97982 6.38683,6.54022 7.4248,11.0156 1.18497,5.10924 1.18497,70.735983 0,75.845223 -1.18567,5.11221 -3.81243,8.55237 -8.63655,11.31094 -3.70093,2.1163 -5.01691,2.23441 -25.06801,2.25 -25.45621,0.0198 -33.3265,1.24922 -45.0779,7.04172 -16.80208,8.28208 -29.04729,23.61482 -34.83807,43.62219 -1.34399,4.64356 -1.83047,12.15303 -2.35499,36.35254 -0.72172,33.29727 -0.86997,34.17559 -7.09492,42.03524 -1.7398,2.19668 -5.5149,5.0662 -8.76418,6.6618 l -5.70791,2.80296 -38,0.16989 c -20.9,0.0934 -39.35,-0.18719 -41,-0.62362 z m 180.99211,-0.20623 c -0.28562,-0.74431 -0.40068,-16.6503 -0.25571,-35.34666 l 0.2636,-33.99338 37.5,-0.55772 c 41.88296,-0.62291 41.58412,-0.57926 56.5,-8.25309 11.63577,-5.9863 23.68681,-18.18747 29.32388,-29.68919 7.87981,-16.07776 7.67612,-13.9018 7.67612,-82 l 0,-60.500003 -2.34186,-7.5 c -4.01014,-12.84279 -8.70132,-20.63794 -18.1087,-30.090529 -9.04942,-9.092908 -16.71819,-14.034742 -28.04944,-18.07533 -6.24754,-2.227801 -7.97589,-2.33756 -44.5,-2.825982 l -38,-0.508159 -0.26263,-35.75 -0.26263,-35.75 34.26263,0.05135 c 42.33092,0.06344 49.74475,0.929425 72.42276,8.459427 41.71839,13.852157 74.30919,46.451047 88.35597,88.377889 6.5098,19.430453 6.27854,16.338743 6.70206,89.597937 0.42075,72.77821 0.2503,75.8952 -5.19581,95.0134 -3.43976,12.07504 -13.99153,33.05746 -21.87553,43.5 -17.24178,22.83711 -41.81229,40.69159 -68.17756,49.54212 -18.01588,6.04773 -23.58681,6.65114 -66.21355,7.17183 -32.39987,0.39576 -39.33487,0.24335 -39.7636,-0.87391 z"
           id="path3359"
           inkscape:connector-curvature="0" />
        <path
           style="fill:#7d7e80"
           d="m -87.70477,615.40363 c -0.30005,-0.30005 -4.10909,-1.45373 -8.46452,-2.56375 -4.35543,-1.11001 -11.06897,-3.51844 -14.91897,-5.35208 -7.63365,-3.63567 -17.82057,-11.17262 -17.28252,-12.78676 0.68755,-2.06266 13.31272,-19.79015 14.11422,-19.81832 0.45744,-0.0161 2.74997,1.54263 5.09451,3.4638 22.89479,18.76056 61.57379,17.43184 61.57379,-2.11522 0,-8.22538 -5.13047,-11.23736 -29.58248,-17.36723 -18.50931,-4.64009 -27.20603,-7.89016 -33.66913,-12.58256 -12.27497,-8.91197 -16.69697,-23.7918 -11.76026,-39.57269 7.68676,-24.57183 42.01442,-35.47066 76.16782,-24.18284 8.29021,2.73994 22.84405,11.32124 22.84405,13.46941 0,0.65027 -3.18317,5.41722 -7.0737,10.59323 -6.88393,9.15845 -7.13209,9.36866 -9.25,7.83544 -11.63189,-8.42069 -22.38061,-12.05548 -35.6763,-12.06429 -7.36749,-0.005 -10.36828,0.42469 -13.36806,1.91367 -7.4422,3.69404 -9.81621,11.83074 -5.09044,17.44699 3.02101,3.59026 9.98295,6.36409 24.4585,9.74491 21.09235,4.92621 32.11486,9.60929 40.01894,17.00263 7.32596,6.85257 9.48106,12.62285 9.48106,25.38551 0,9.67098 -0.24433,11.0132 -3.09455,17 -5.29749,11.1272 -14.47427,18.28956 -28.9684,22.60945 -5.75504,1.71526 -34.22497,3.2693 -35.55356,1.9407 z m 513.61651,-0.77672 c -1.65,-0.5576 -6.375,-2.1309 -10.5,-3.49622 -28.87858,-9.55848 -46.5946,-36.60748 -44.69449,-68.24001 1.14842,-19.11859 6.75194,-32.15392 19.16258,-44.57743 6.31439,-6.32094 9.84952,-8.928 16.53191,-12.19184 12.60987,-6.15895 19.2568,-7.64434 34.5,-7.70969 17.7039,-0.0759 27.89688,3.12871 40.27707,12.66282 4.71715,3.63273 15.18868,16.0621 15.21332,18.05771 0.005,0.42833 -5.00218,3.23847 -11.1277,6.24477 l -11.13732,5.466 -5.75368,-6.27913 c -7.51341,-8.19956 -14.75375,-11.85465 -24.7722,-12.50557 -25.32555,-1.64547 -45.19949,18.05069 -45.19949,44.79516 0,12.84756 4.00028,23.00359 12.62033,32.0408 16.45417,17.25048 42.04931,17.18918 57.72975,-0.13826 l 5.44817,-6.02043 11.14068,5.58726 11.14069,5.58727 -1.78981,3.17909 c -0.9844,1.7485 -5.16481,6.61407 -9.28981,10.81237 -7.95689,8.09829 -18.47735,14.36497 -26.18492,15.59746 -2.12267,0.33943 -4.10099,1.00804 -4.39626,1.48579 -0.73941,1.19639 -25.21584,0.89345 -28.91882,-0.35792 z m 180.75,-1.52318 -46.25,-0.27022 0,-66.49002 0,-66.49001 47,0 47,0 0,12 0,12 -32.96482,0 c -32.39957,0 -32.98396,0.0358 -34.08176,2.08703 -1.74456,3.25974 -0.87234,25.72104 1.04658,26.95135 0.90127,0.57785 14.17335,0.86192 33.2505,0.71167 l 31.75051,-0.25005 0,12 0,12 -31.75051,-0.25005 c -19.1201,-0.15059 -32.3472,0.13325 -33.2505,0.71352 -1.22063,0.78412 -1.5,3.67772 -1.5,15.53653 0,11.85574 0.27968,14.7539 1.5,15.54343 0.91226,0.59023 14.13663,0.86981 33.75063,0.71353 l 32.25063,-0.25696 -6.3e-4,12.25 c -3.5e-4,6.7375 -0.33813,12.14211 -0.75063,12.01023 -0.4125,-0.13187 -21.5625,-0.36136 -47,-0.50998 z M 45.6546,546.60348 l 0.25714,-66.25 32,-0.27617 c 18.54331,-0.16003 34.83333,0.15837 38.73766,0.75716 22.9371,3.51774 37.45534,22.28492 35.47872,45.86199 -1.38776,16.55328 -10.62594,29.25253 -25.71638,35.351 -5.00866,2.02414 -7.55466,2.25633 -28.4996,2.59907 -13.84734,0.22659 -23.49717,0.78931 -24.25,1.4141 -0.93386,0.77503 -1.2504,6.8293 -1.2504,23.91529 l 0,22.87756 -13.50714,0 -13.50714,0 0.25714,-66.25 z m 64.19363,-5.83832 c 18.62077,-4.68877 19.78084,-29.61394 1.66429,-35.75873 -2.04791,-0.69461 -10.25428,-1.15295 -20.64301,-1.15295 -14.80159,0 -17.32976,0.22403 -17.85078,1.58179 -1.19204,3.1064 -0.67264,33.95256 0.59301,35.21821 1.55326,1.55326 30.16132,1.64142 36.23649,0.11168 z m 78.56351,71.03661 c 0,-1.53116 49.12133,-129.14866 50.31601,-130.7213 0.73138,-0.96275 5.12593,-1.20647 18.03145,-1 l 17.06439,0.27301 25.26245,65.5 c 13.89434,36.025 25.27668,65.84922 25.29407,66.27605 0.0174,0.42682 -6.81416,0.65182 -15.18123,0.5 l -15.21285,-0.27605 -4.03715,-10.39948 c -2.75733,-7.10275 -4.67116,-10.64682 -6.03714,-11.17971 -1.1,-0.42913 -13.72649,-0.81187 -28.05887,-0.85052 -20.71028,-0.0559 -26.44768,0.21401 -27.95317,1.31485 -1.04186,0.76183 -3.55576,5.82433 -5.58645,11.25 l -3.69215,9.86486 -15.10468,0.27605 c -10.51682,0.1922 -15.10468,-0.0592 -15.10468,-0.82776 z m 88.56945,-46.26868 c 0.86564,-2.25581 -18.84535,-55.12357 -20.68096,-55.46935 -1.26896,-0.23904 -3.68458,5.4412 -11.36454,26.72339 -5.36418,14.86482 -9.49062,27.71081 -9.16988,28.54665 0.49491,1.28972 3.61924,1.5197 20.64593,1.5197 15.69811,0 20.173,-0.28725 20.56945,-1.32039 z"
           id="path3357"
           inkscape:connector-curvature="0" />
        <path
           style="fill:#6c6d70"
           d="m -84.58826,614.85348 c 2.31319,-0.74081 2.24324,-0.80809 -0.93611,-0.90032 -5.23333,-0.15182 -15.83469,-3.02391 -22.91022,-6.20677 -5.95849,-2.68037 -19.15367,-11.3265 -19.15367,-12.55042 0,-0.73618 12.98225,-19.34249 13.49591,-19.34249 0.219,0 3.26339,2.16867 6.76532,4.81927 23.65574,17.90497 60.73877,15.25996 60.73877,-4.33229 0,-8.86785 -4.78783,-11.7219 -31.02269,-18.49283 -27.61427,-7.12695 -37.07607,-12.38488 -42.62593,-23.68727 -2.55796,-5.20932 -2.85138,-6.83594 -2.85138,-15.80688 0,-9.07157 0.27164,-10.5364 2.92576,-15.77756 10.86926,-21.46378 43.67436,-29.78287 74.4526,-18.88054 7.32235,2.59373 21.12164,10.69847 21.12164,12.40536 0,0.4527 -2.94453,4.83482 -6.5434,9.73805 l -6.54341,8.91497 -6.06077,-3.91727 c -14.63549,-9.45938 -35.03385,-12.69743 -45.60992,-7.24017 -4.52406,2.33442 -8.2425,7.50198 -8.2425,11.4547 0,8.00369 5.957,11.85256 26,16.79885 30.33442,7.48606 40.82907,13.0465 47.56192,25.20006 2.75223,4.96807 2.93808,6.00068 2.93808,16.32458 0,10.41307 -0.17928,11.38519 -3.24993,17.62258 -5.68234,11.54245 -16.96617,19.41276 -31.89003,22.2428 -4.28869,0.81328 -6.11038,1.50343 -4.86004,1.84124 1.1,0.29719 -4.3,0.54769 -12,0.55667 -8.40055,0.01 -13.0001,-0.3039 -11.5,-0.78432 z m 515,0 c 2.33742,-0.74857 2.28198,-0.80712 -0.8525,-0.90032 -5.06225,-0.15052 -20.79046,-5.73798 -27.32394,-9.70686 -12.43168,-7.55185 -22.35214,-20.24804 -27.57968,-35.29645 -2.37998,-6.85119 -2.63928,-9.01877 -2.64334,-22.09637 -0.004,-13.08062 0.25895,-15.29078 2.68678,-22.57841 2.84727,-8.54665 8.1172,-17.54294 14.2584,-24.34052 4.74909,-5.25667 16.77533,-13.3092 23.80498,-15.93933 20.94697,-7.83726 45.3961,-6.49244 61.6493,3.39102 7.59268,4.61705 20,17.70116 20,21.09094 0,0.74469 -3.64989,3.18911 -8.11086,5.43204 -12.91995,6.49602 -12.28736,6.42013 -15.45176,1.8539 -8.56291,-12.35629 -26.70755,-17.86786 -42.58204,-12.93462 -20.00454,6.21671 -32.0426,24.91968 -30.58919,47.52498 1.18698,18.46146 12.05655,33.68945 28.37368,39.75082 4.37573,1.62547 8.14529,2.18605 14.8812,2.21304 8.20522,0.0329 9.62129,-0.25937 15.65868,-3.23156 4.47089,-2.20102 8.45291,-5.22841 12.19854,-9.27413 l 5.56089,-6.00643 10.60107,5.31816 10.60108,5.31815 -4.41058,5.99135 c -8.55573,11.62214 -21.39808,20.05221 -34.73071,22.79818 -4.142,0.85308 -5.77446,1.52949 -4.5,1.86457 1.1,0.28922 -3.85,0.53319 -11,0.54217 -7.90027,0.01 -12.01928,-0.29776 -10.5,-0.78432 z m 176.5,-1.98484 -46,-0.51516 -0.25725,-65.2786 c -0.20374,-51.70021 0.004,-65.37441 1,-65.7392 0.69149,-0.25333 21.84492,-0.57796 47.00762,-0.7214 l 45.75038,-0.2608 4e-5,11.5 4e-5,11.5 -33.75041,0 -33.75042,0 -0.27538,15.12673 c -0.27303,14.99761 -0.25596,15.13194 2,15.73635 1.25146,0.33528 15.88788,0.61576 32.52538,0.62327 l 30.25,0.0136 0,10.5 0,10.5 -30.25,0.0136 c -16.6375,0.008 -31.2625,0.285 -32.5,0.61664 -2.21641,0.59397 -2.25,0.84583 -2.25,16.86971 0,16.02388 0.0336,16.27574 2.25,16.86971 3.97795,1.06605 63.75,0.71941 63.75,-0.36971 0,-0.55 0.45,-1 1,-1 0.61333,0 1,4.83333 1,12.5 0,6.875 -0.3375,12.39432 -0.75,12.26516 -0.4125,-0.12916 -21.45,-0.46666 -46.75,-0.75 z M 47.07841,612.18681 c -0.36667,-0.36666 -0.66667,-30.06666 -0.66667,-66 l 0,-65.33333 33.25,0.0174 c 36.45238,0.019 42.79793,0.70683 51.8188,5.6166 13.17759,7.17215 20.83882,22.4646 19.66649,39.25595 -1.23881,17.74328 -11.44371,31.15985 -27.46462,36.10821 -5.62467,1.73724 -9.29973,2.00184 -27.80458,2.00184 -18.05142,0 -21.56435,0.24112 -22.89466,1.57143 -1.33719,1.33719 -1.57143,4.98918 -1.57143,24.5 l 0,22.92857 -11.83333,0 c -6.50834,0 -12.13334,-0.3 -12.5,-0.66667 z m 67.64931,-72.20448 c 12.56165,-6.18472 14.47846,-24.23968 3.44325,-32.43281 -5.49418,-4.07918 -9.08988,-4.69604 -27.37327,-4.69604 -16.09596,0 -17.38851,0.13624 -18.35078,1.93426 -0.59356,1.10907 -1.03518,8.97097 -1.03518,18.42857 0,14.05723 0.2461,16.74041 1.66562,18.15994 1.45589,1.45589 3.87982,1.62228 19.25,1.32143 16.09201,-0.31499 17.99311,-0.54544 22.40036,-2.71535 z m 74.69656,71.64861 c 0.007,-0.7026 11.2095,-30.30246 24.89466,-65.77746 l 24.88211,-64.5 16.92036,-0.27282 16.92037,-0.27282 25.18498,65.3422 c 13.85174,35.93822 25.18498,65.66084 25.18498,66.05028 0,0.38944 -6.39529,0.58322 -14.21175,0.43062 l -14.21175,-0.27746 -4.37688,-11.26453 -4.37689,-11.26453 -30.1535,0.26453 -30.1535,0.26453 -4.17049,11 -4.1705,11 -14.08737,0.27746 c -10.91453,0.21496 -14.08454,-0.0103 -14.07483,-1 z m 87.40567,-44.38445 c 0.86999,-0.33384 1.58179,-1.17906 1.58179,-1.87827 0,-1.40818 -18.53062,-52.76919 -20.08979,-55.68252 -1.24154,-2.31984 -3.48797,-2.36197 -4.38422,-0.0822 -4.56149,11.60284 -19.52599,53.91138 -19.52599,55.20504 0,0.94139 0.3,2.01161 0.66667,2.37827 0.83316,0.83317 39.5915,0.88857 41.75154,0.0597 z m 375.97033,-21.89301 c 0.002,-7.15 0.16103,-9.94379 0.35396,-6.20841 0.19293,3.73537 0.19149,9.58537 -0.003,13 -0.19468,3.41462 -0.35253,0.35841 -0.35078,-6.79159 z"
           id="path3355"
           inkscape:connector-curvature="0" />
      </g>
    </g>
  </g>
</svg>
