<?xml version="1.0" encoding="utf-8"?>
<!-- Generator: Adobe Illustrator 21.1.0, SVG Export Plug-In . SVG Version: 6.00 Build 0)  -->
<svg version="1.1" id="Ebene_2" xmlns="http://www.w3.org/2000/svg" xmlns:xlink="http://www.w3.org/1999/xlink" x="0px" y="0px"
	 viewBox="0 0 283.5 155.9" style="enable-background:new 0 0 283.5 155.9;" xml:space="preserve">
<style type="text/css">
	.st0{clip-path:url(#SVGID_2_);fill:#D3D800;}
	.st1{fill:#D3D800;}
	.st2{clip-path:url(#SVGID_4_);fill:#D3D800;}
	.st3{clip-path:url(#SVGID_6_);fill:#D3D800;}
	.st4{clip-path:url(#SVGID_8_);fill:#D3D800;}
	.st5{clip-path:url(#SVGID_10_);fill:#D3D800;}
	.st6{clip-path:url(#SVGID_12_);fill:#D3D800;}
	.st7{clip-path:url(#SVGID_14_);fill:#D3D800;}
	.st8{clip-path:url(#SVGID_16_);fill:#D3D800;}
	.st9{clip-path:url(#SVGID_18_);fill:#1F3F5E;}
	.st10{fill:#1F3F5E;}
	.st11{clip-path:url(#SVGID_20_);fill:#1F3F5E;}
</style>
<g>
	<defs>
		<rect id="SVGID_1_" x="6.8" y="6.2" width="265.9" height="144.7"/>
	</defs>
	<clipPath id="SVGID_2_">
		<use xlink:href="#SVGID_1_"  style="overflow:visible;"/>
	</clipPath>
	<path class="st0" d="M127.5,25.5c-1.4,0.5-2.1,2-1.6,3.4c0.2,0.7,0.8,1.2,1.4,1.5c0.6,0.3,1.3,0.3,2,0.1c0.7-0.2,1.2-0.8,1.5-1.4
		c0.3-0.6,0.3-1.3,0.1-2C130.4,25.7,128.9,25,127.5,25.5"/>
	<path class="st0" d="M130.2,33.1c0.6-0.2,1.5-0.3,2.1,0c0.5,0.2,1.1,1,1.3,1.6c0.2,0.6,0.3,1.5,0,2.1c-0.3,0.5-1,1.1-1.6,1.3
		c-0.6,0.2-1.5,0.3-2.1,0c-0.5-0.3-1.1-1-1.3-1.6c-0.2-0.6-0.3-1.5,0-2.1C128.8,33.8,129.6,33.3,130.2,33.1"/>
	<path class="st0" d="M132.9,40.6c0.5-0.2,1.6-0.4,2.1-0.2c0.4,0.2,1,1.2,1.2,1.7c0.2,0.5,0.4,1.6,0.2,2.1c-0.2,0.4-1.2,1-1.7,1.2
		c-0.5,0.2-1.6,0.4-2.1,0.2c-0.4-0.2-1-1.2-1.2-1.7c-0.2-0.5-0.4-1.6-0.2-2.1C131.4,41.4,132.4,40.8,132.9,40.6"/>
	<path class="st0" d="M135.6,48.2c0.4-0.1,1.8-0.4,2.1-0.3c0.4,0.2,1,1.4,1.1,1.8c0.1,0.4,0.4,1.8,0.3,2.1c-0.2,0.4-1.4,1-1.8,1.1
		c-0.4,0.1-1.8,0.4-2.1,0.3c-0.4-0.2-1-1.4-1.1-1.8c-0.1-0.4-0.4-1.8-0.3-2.1C134,49,135.2,48.4,135.6,48.2"/>
	<path class="st0" d="M138.3,55.8c0.3-0.1,1.9-0.5,2.1-0.4c0.3,0.1,0.9,1.6,1,1.9s0.5,1.9,0.4,2.1c-0.1,0.3-1.6,0.9-1.9,1
		c-0.3,0.1-1.9,0.5-2.1,0.4s-0.9-1.6-1-1.9c-0.1-0.3-0.5-1.9-0.4-2.1C136.6,56.5,138,55.9,138.3,55.8"/>
	<path class="st0" d="M141,63.3c0.2-0.1,2-0.6,2.1-0.5c0.2,0.1,0.9,1.8,1,2c0.1,0.2,0.6,2,0.5,2.1c-0.1,0.2-1.8,0.9-2,1
		c-0.2,0.1-2,0.6-2.1,0.5c-0.2-0.1-0.9-1.8-1-2c-0.1-0.2-0.6-2-0.5-2.1S140.9,63.4,141,63.3"/>
	<path class="st0" d="M143.8,70.9c0.1,0,2.1-0.7,2.2-0.7c0.1,0,0.8,2,0.9,2.1c0,0.1,0.7,2.1,0.7,2.2c0,0.1-2,0.8-2.1,0.9
		c-0.1,0-2.1,0.7-2.2,0.7c-0.1,0-0.8-2-0.9-2.1c0-0.1-0.7-2.1-0.7-2.2C141.7,71.7,143.7,70.9,143.8,70.9"/>
</g>
<polygon class="st1" points="150.2,82 148,82.8 145.9,83.6 145.1,81.4 144.3,79.2 146.5,78.5 148.7,77.7 149.4,79.9 "/>
<g>
	<defs>
		<rect id="SVGID_3_" x="6.8" y="6.2" width="265.9" height="144.7"/>
	</defs>
	<clipPath id="SVGID_4_">
		<use xlink:href="#SVGID_3_"  style="overflow:visible;"/>
	</clipPath>
	<path class="st2" d="M135.6,22.6c-1.4,0.5-2.1,2-1.6,3.4c0.2,0.7,0.8,1.2,1.4,1.5c0.6,0.3,1.4,0.3,2,0.1c0.7-0.2,1.2-0.8,1.5-1.4
		c0.3-0.6,0.3-1.3,0.1-2C138.6,22.8,137,22.1,135.6,22.6"/>
	<path class="st2" d="M138.3,30.2c0.6-0.2,1.5-0.3,2.1,0c0.5,0.2,1.1,1,1.3,1.6c0.2,0.6,0.3,1.5,0,2.1c-0.3,0.5-1,1.1-1.6,1.3
		c-0.6,0.2-1.5,0.3-2.1,0c-0.5-0.3-1.1-1-1.3-1.6c-0.2-0.6-0.3-1.5,0-2.1C137,30.9,137.7,30.4,138.3,30.2"/>
	<path class="st2" d="M141.1,37.7c0.5-0.2,1.6-0.4,2.1-0.2c0.4,0.2,1,1.2,1.2,1.7c0.2,0.5,0.4,1.6,0.2,2.1c-0.2,0.4-1.2,1-1.7,1.2
		c-0.5,0.2-1.6,0.4-2.1,0.2c-0.4-0.2-1-1.2-1.2-1.7c-0.2-0.5-0.4-1.6-0.2-2.1C139.6,38.5,140.6,37.9,141.1,37.7"/>
	<path class="st2" d="M143.8,45.3c0.4-0.1,1.8-0.4,2.1-0.3c0.4,0.2,1,1.4,1.1,1.8c0.1,0.4,0.4,1.8,0.3,2.1c-0.2,0.4-1.4,1-1.8,1.1
		c-0.4,0.1-1.8,0.4-2.1,0.3c-0.4-0.2-1-1.4-1.1-1.8c-0.1-0.4-0.4-1.8-0.3-2.1C142.1,46.1,143.4,45.4,143.8,45.3"/>
	<path class="st2" d="M146.5,52.9c0.3-0.1,1.9-0.5,2.1-0.4c0.3,0.1,0.9,1.6,1,1.9s0.5,1.9,0.4,2.1c-0.1,0.3-1.6,0.9-1.9,1
		c-0.3,0.1-1.9,0.5-2.1,0.4s-0.9-1.6-1-1.9c-0.1-0.3-0.5-1.9-0.4-2.1C144.7,53.6,146.2,53,146.5,52.9"/>
	<path class="st2" d="M149.2,60.4c0.2-0.1,2-0.6,2.1-0.5c0.2,0.1,0.9,1.8,1,2c0.1,0.2,0.6,2,0.5,2.1c-0.1,0.2-1.8,0.9-2,1
		c-0.2,0.1-2,0.6-2.1,0.5c-0.2-0.1-0.9-1.8-1-2c-0.1-0.2-0.6-2-0.5-2.1S149,60.5,149.2,60.4"/>
	<path class="st2" d="M151.9,68c0.1,0,2.1-0.7,2.2-0.7c0.1,0,0.8,2,0.9,2.1c0,0.1,0.7,2.1,0.7,2.2c0,0.1-2,0.8-2.1,0.9
		c-0.1,0-2.1,0.7-2.2,0.7c-0.1,0-0.8-2-0.9-2.1c0-0.1-0.7-2.1-0.7-2.2C149.8,68.8,151.8,68,151.9,68"/>
</g>
<polygon class="st1" points="158.4,79.1 156.2,79.9 154,80.7 153.2,78.5 152.4,76.3 154.6,75.5 156.8,74.8 157.6,76.9 "/>
<g>
	<defs>
		<rect id="SVGID_5_" x="6.8" y="6.2" width="265.9" height="144.7"/>
	</defs>
	<clipPath id="SVGID_6_">
		<use xlink:href="#SVGID_5_"  style="overflow:visible;"/>
	</clipPath>
	<path class="st3" d="M143.2,19.9c-1.4,0.5-2.1,2-1.6,3.4c0.2,0.7,0.8,1.2,1.4,1.5c0.6,0.3,1.4,0.3,2,0.1c0.7-0.2,1.2-0.8,1.5-1.4
		c0.3-0.6,0.3-1.3,0.1-2C146.1,20.1,144.5,19.4,143.2,19.9"/>
	<path class="st3" d="M145.9,27.5c0.6-0.2,1.5-0.3,2.1,0c0.5,0.2,1.1,1,1.3,1.6c0.2,0.6,0.3,1.5,0,2.1c-0.3,0.5-1,1.1-1.6,1.3
		c-0.6,0.2-1.5,0.3-2.1,0c-0.5-0.3-1.1-1-1.3-1.6c-0.2-0.6-0.3-1.5,0-2.1C144.5,28.2,145.3,27.7,145.9,27.5"/>
	<path class="st3" d="M148.6,35c0.5-0.2,1.6-0.4,2.1-0.2c0.4,0.2,1,1.2,1.2,1.7c0.2,0.5,0.4,1.6,0.2,2.1c-0.2,0.4-1.2,1-1.7,1.2
		c-0.5,0.2-1.6,0.4-2.1,0.2c-0.4-0.2-1-1.2-1.2-1.7c-0.2-0.5-0.4-1.6-0.2-2.1C147.1,35.8,148.1,35.2,148.6,35"/>
	<path class="st3" d="M151.3,42.6c0.4-0.1,1.8-0.4,2.1-0.3c0.4,0.2,1,1.4,1.1,1.8c0.1,0.4,0.4,1.8,0.3,2.1c-0.2,0.4-1.4,1-1.8,1.1
		c-0.4,0.1-1.8,0.4-2.1,0.3c-0.4-0.2-1-1.4-1.1-1.8c-0.1-0.4-0.4-1.8-0.3-2.1C149.7,43.4,150.9,42.7,151.3,42.6"/>
	<path class="st3" d="M154,50.1c0.3-0.1,1.9-0.5,2.1-0.4c0.3,0.1,0.9,1.6,1,1.9s0.5,1.9,0.4,2.1c-0.1,0.3-1.6,0.9-1.9,1
		c-0.3,0.1-1.9,0.5-2.1,0.4s-0.9-1.6-1-1.9c-0.1-0.3-0.5-1.9-0.4-2.1C152.2,50.9,153.7,50.3,154,50.1"/>
	<path class="st3" d="M156.7,57.7c0.2-0.1,2-0.6,2.1-0.5c0.2,0.1,0.9,1.8,1,2c0.1,0.2,0.6,2,0.5,2.1c-0.1,0.2-1.8,0.9-2,1
		c-0.2,0.1-2,0.6-2.1,0.5c-0.2-0.1-0.9-1.8-1-2c-0.1-0.2-0.6-2-0.5-2.1S156.5,57.8,156.7,57.7"/>
	<path class="st3" d="M159.4,65.3c0.1,0,2.1-0.7,2.2-0.7c0.1,0,0.8,2,0.9,2.1c0,0.1,0.7,2.1,0.7,2.2c0,0.1-2,0.8-2.1,0.9
		c-0.1,0-2.1,0.7-2.2,0.7c-0.1,0-0.8-2-0.9-2.1c0-0.1-0.7-2.1-0.7-2.2C157.4,66.1,159.3,65.3,159.4,65.3"/>
</g>
<polygon class="st1" points="165.9,76.4 163.7,77.2 161.5,78 160.7,75.8 159.9,73.6 162.1,72.8 164.3,72.1 165.1,74.2 "/>
<g>
	<defs>
		<rect id="SVGID_7_" x="6.8" y="6.2" width="265.9" height="144.7"/>
	</defs>
	<clipPath id="SVGID_8_">
		<use xlink:href="#SVGID_7_"  style="overflow:visible;"/>
	</clipPath>
	<path class="st4" d="M150.7,17.2c-1.4,0.5-2.1,2-1.6,3.4c0.2,0.7,0.8,1.2,1.4,1.5c0.6,0.3,1.4,0.3,2,0.1c0.7-0.2,1.2-0.8,1.5-1.4
		c0.3-0.6,0.3-1.3,0.1-2C153.6,17.4,152.1,16.7,150.7,17.2"/>
	<path class="st4" d="M153.4,24.8c0.6-0.2,1.5-0.3,2.1,0c0.5,0.2,1.1,1,1.3,1.6c0.2,0.6,0.3,1.5,0,2.1c-0.3,0.5-1,1.1-1.6,1.3
		c-0.6,0.2-1.5,0.3-2.1,0c-0.5-0.3-1.1-1-1.3-1.6c-0.2-0.6-0.3-1.5,0-2.1C152,25.5,152.8,25,153.4,24.8"/>
	<path class="st4" d="M156.1,32.3c0.5-0.2,1.6-0.4,2.1-0.2c0.4,0.2,1,1.2,1.2,1.7c0.2,0.5,0.4,1.6,0.2,2.1c-0.2,0.4-1.2,1-1.7,1.2
		c-0.5,0.2-1.6,0.4-2.1,0.2c-0.4-0.2-1-1.2-1.2-1.7c-0.2-0.5-0.4-1.6-0.2-2.1C154.6,33.1,155.6,32.5,156.1,32.3"/>
	<path class="st4" d="M158.8,39.9c0.4-0.1,1.8-0.4,2.1-0.3c0.4,0.2,1,1.4,1.1,1.8c0.1,0.4,0.4,1.8,0.3,2.1c-0.2,0.4-1.4,1-1.8,1.1
		c-0.4,0.1-1.8,0.4-2.1,0.3c-0.4-0.2-1-1.4-1.1-1.8c-0.1-0.4-0.4-1.8-0.3-2.1C157.2,40.7,158.4,40,158.8,39.9"/>
	<path class="st4" d="M161.5,47.4c0.3-0.1,1.9-0.5,2.1-0.4c0.3,0.1,0.9,1.6,1,1.9s0.5,1.9,0.4,2.1c-0.1,0.3-1.6,0.9-1.9,1
		c-0.3,0.1-1.9,0.5-2.1,0.4s-0.9-1.6-1-1.9c-0.1-0.3-0.5-1.9-0.4-2.1C159.8,48.2,161.2,47.6,161.5,47.4"/>
	<path class="st4" d="M164.2,55c0.2-0.1,2-0.6,2.1-0.5c0.2,0.1,0.9,1.8,1,2c0.1,0.2,0.6,2,0.5,2.1c-0.1,0.2-1.8,0.9-2,1
		c-0.2,0.1-2,0.6-2.1,0.5c-0.2-0.1-0.9-1.8-1-2c-0.1-0.2-0.6-2-0.5-2.1S164,55.1,164.2,55"/>
	<path class="st4" d="M166.9,62.6c0.1,0,2.1-0.7,2.2-0.7c0.1,0,0.8,2,0.9,2.1c0,0.1,0.7,2.1,0.7,2.2c0,0.1-2,0.8-2.1,0.9
		c-0.1,0-2.1,0.7-2.2,0.7c-0.1,0-0.8-2-0.9-2.1c0-0.1-0.7-2.1-0.7-2.2C164.9,63.4,166.8,62.6,166.9,62.6"/>
</g>
<polygon class="st1" points="173.4,73.7 171.2,74.5 169,75.3 168.3,73.1 167.5,70.9 169.7,70.1 171.8,69.4 172.6,71.5 "/>
<g>
	<defs>
		<rect id="SVGID_9_" x="6.8" y="6.2" width="265.9" height="144.7"/>
	</defs>
	<clipPath id="SVGID_10_">
		<use xlink:href="#SVGID_9_"  style="overflow:visible;"/>
	</clipPath>
	<path class="st5" d="M158.2,14.5c-1.4,0.5-2.1,2-1.6,3.4c0.2,0.7,0.8,1.2,1.4,1.5c0.6,0.3,1.4,0.3,2,0.1c0.7-0.2,1.2-0.8,1.5-1.4
		c0.3-0.6,0.3-1.3,0.1-2C161.1,14.7,159.6,14,158.2,14.5"/>
	<path class="st5" d="M160.9,22.1c0.6-0.2,1.5-0.3,2.1,0c0.5,0.2,1.1,1,1.3,1.6c0.2,0.6,0.3,1.5,0,2.1c-0.3,0.5-1,1.1-1.6,1.3
		c-0.6,0.2-1.5,0.3-2.1,0c-0.5-0.3-1.1-1-1.3-1.6c-0.2-0.6-0.3-1.5,0-2.1C159.6,22.8,160.3,22.3,160.9,22.1"/>
	<path class="st5" d="M163.6,29.6c0.5-0.2,1.6-0.4,2.1-0.2c0.4,0.2,1,1.2,1.2,1.7c0.2,0.5,0.4,1.6,0.2,2.1c-0.2,0.4-1.2,1-1.7,1.2
		c-0.5,0.2-1.6,0.4-2.1,0.2c-0.4-0.2-1-1.2-1.2-1.7c-0.2-0.5-0.4-1.6-0.2-2.1C162.1,30.4,163.1,29.8,163.6,29.6"/>
	<path class="st5" d="M166.3,37.2c0.4-0.1,1.8-0.4,2.1-0.3c0.4,0.2,1,1.4,1.1,1.8c0.1,0.4,0.4,1.8,0.3,2.1c-0.2,0.4-1.4,1-1.8,1.1
		c-0.4,0.1-1.8,0.4-2.1,0.3c-0.4-0.2-1-1.4-1.1-1.8c-0.1-0.4-0.4-1.8-0.3-2.1C164.7,38,165.9,37.3,166.3,37.2"/>
	<path class="st5" d="M169.1,44.7c0.3-0.1,1.9-0.5,2.1-0.4c0.3,0.1,0.9,1.6,1,1.9s0.5,1.9,0.4,2.1c-0.1,0.3-1.6,0.9-1.9,1
		c-0.3,0.1-1.9,0.5-2.1,0.4c-0.3-0.1-0.9-1.6-1-1.9c-0.1-0.3-0.5-1.9-0.4-2.1C167.3,45.5,168.8,44.9,169.1,44.7"/>
	<path class="st5" d="M171.8,52.3c0.2-0.1,2-0.6,2.1-0.5c0.2,0.1,0.9,1.8,1,2c0.1,0.2,0.6,2,0.5,2.1c-0.1,0.2-1.8,0.9-2,1
		c-0.2,0.1-2,0.6-2.1,0.5c-0.2-0.1-0.9-1.8-1-2c-0.1-0.2-0.6-2-0.5-2.1C169.9,53.1,171.6,52.4,171.8,52.3"/>
	<path class="st5" d="M174.5,59.9c0.1,0,2.1-0.7,2.2-0.7c0.1,0,0.8,2,0.9,2.1c0,0.1,0.7,2.1,0.7,2.2c0,0.1-2,0.8-2.1,0.9
		c-0.1,0-2.1,0.7-2.2,0.7c-0.1,0-0.8-2-0.9-2.1c0-0.1-0.7-2.1-0.7-2.2C172.4,60.7,174.4,59.9,174.5,59.9"/>
</g>
<polygon class="st1" points="180.9,71 178.8,71.8 176.6,72.6 175.8,70.4 175,68.2 177.2,67.4 179.4,66.6 180.2,68.8 "/>
<g>
	<defs>
		<rect id="SVGID_11_" x="6.8" y="6.2" width="265.9" height="144.7"/>
	</defs>
	<clipPath id="SVGID_12_">
		<use xlink:href="#SVGID_11_"  style="overflow:visible;"/>
	</clipPath>
	<path class="st6" d="M165.7,11.8c-1.4,0.5-2.1,2-1.6,3.4c0.2,0.7,0.8,1.2,1.4,1.5c0.6,0.3,1.4,0.3,2,0.1c0.7-0.2,1.2-0.8,1.5-1.4
		c0.3-0.6,0.3-1.3,0.1-2C168.7,12,167.1,11.3,165.7,11.8"/>
	<path class="st6" d="M168.4,19.4c0.6-0.2,1.5-0.3,2.1,0c0.5,0.2,1.1,1,1.3,1.6c0.2,0.6,0.3,1.5,0,2.1c-0.3,0.5-1,1.1-1.6,1.3
		c-0.6,0.2-1.5,0.3-2.1,0c-0.5-0.3-1.1-1-1.3-1.6c-0.2-0.6-0.3-1.5,0-2.1C167.1,20.1,167.8,19.6,168.4,19.4"/>
	<path class="st6" d="M171.2,26.9c0.5-0.2,1.6-0.4,2.1-0.2c0.4,0.2,1,1.2,1.2,1.7c0.2,0.5,0.4,1.6,0.2,2.1c-0.2,0.4-1.2,1-1.7,1.2
		c-0.5,0.2-1.6,0.4-2.1,0.2c-0.4-0.2-1-1.2-1.2-1.7c-0.2-0.5-0.4-1.6-0.2-2.1C169.7,27.7,170.7,27.1,171.2,26.9"/>
	<path class="st6" d="M173.9,34.5c0.4-0.1,1.8-0.4,2.1-0.3c0.4,0.2,1,1.4,1.1,1.8c0.1,0.4,0.4,1.8,0.3,2.1c-0.2,0.4-1.4,1-1.8,1.1
		c-0.4,0.1-1.8,0.4-2.1,0.3c-0.4-0.2-1-1.4-1.1-1.8c-0.1-0.4-0.4-1.8-0.3-2.1C172.2,35.2,173.5,34.6,173.9,34.5"/>
	<path class="st6" d="M176.6,42c0.3-0.1,1.9-0.5,2.1-0.4c0.3,0.1,0.9,1.6,1,1.9s0.5,1.9,0.4,2.1c-0.1,0.3-1.6,0.9-1.9,1
		c-0.3,0.1-1.9,0.5-2.1,0.4c-0.3-0.1-0.9-1.6-1-1.9c-0.1-0.3-0.5-1.9-0.4-2.1C174.8,42.8,176.3,42.1,176.6,42"/>
	<path class="st6" d="M179.3,49.6c0.2-0.1,2-0.6,2.1-0.5c0.2,0.1,0.9,1.8,1,2c0.1,0.2,0.6,2,0.5,2.1c-0.1,0.2-1.8,0.9-2,1
		c-0.2,0.1-2,0.6-2.1,0.5c-0.2-0.1-0.9-1.8-1-2c-0.1-0.2-0.6-2-0.5-2.1C177.4,50.4,179.1,49.7,179.3,49.6"/>
	<path class="st6" d="M182,57.2c0.1,0,2.1-0.7,2.2-0.7c0.1,0,0.8,2,0.9,2.1c0,0.1,0.7,2.1,0.7,2.2c0,0.1-2,0.8-2.1,0.9
		c-0.1,0-2.1,0.7-2.2,0.7c-0.1,0-0.8-2-0.9-2.1c0-0.1-0.7-2.1-0.7-2.2C179.9,57.9,181.9,57.2,182,57.2"/>
</g>
<polygon class="st1" points="188.5,68.3 186.3,69.1 184.1,69.9 183.3,67.7 182.5,65.5 184.7,64.7 186.9,63.9 187.7,66.1 "/>
<g>
	<defs>
		<rect id="SVGID_13_" x="6.8" y="6.2" width="265.9" height="144.7"/>
	</defs>
	<clipPath id="SVGID_14_">
		<use xlink:href="#SVGID_13_"  style="overflow:visible;"/>
	</clipPath>
	<path class="st7" d="M173.3,9.1c-1.4,0.5-2.1,2-1.6,3.4c0.2,0.7,0.8,1.2,1.4,1.5c0.6,0.3,1.4,0.3,2,0.1c0.7-0.2,1.2-0.8,1.5-1.4
		c0.3-0.6,0.3-1.3,0.1-2C176.2,9.3,174.6,8.6,173.3,9.1"/>
	<path class="st7" d="M176,16.7c0.6-0.2,1.5-0.3,2.1,0c0.5,0.2,1.1,1,1.3,1.6c0.2,0.6,0.3,1.5,0,2.1c-0.3,0.5-1,1.1-1.6,1.3
		c-0.6,0.2-1.5,0.3-2.1,0c-0.5-0.3-1.1-1-1.3-1.6c-0.2-0.6-0.3-1.5,0-2.1C174.6,17.4,175.4,16.9,176,16.7"/>
	<path class="st7" d="M178.7,24.2c0.5-0.2,1.6-0.4,2.1-0.2c0.4,0.2,1,1.2,1.2,1.7c0.2,0.5,0.4,1.6,0.2,2.1c-0.2,0.4-1.2,1-1.7,1.2
		c-0.5,0.2-1.6,0.4-2.1,0.2c-0.4-0.2-1-1.2-1.2-1.7c-0.2-0.5-0.4-1.6-0.2-2.1C177.2,25,178.2,24.4,178.7,24.2"/>
	<path class="st7" d="M181.4,31.8c0.4-0.1,1.8-0.4,2.1-0.3c0.4,0.2,1,1.4,1.1,1.8c0.1,0.4,0.4,1.8,0.3,2.1c-0.2,0.4-1.4,1-1.8,1.1
		c-0.4,0.1-1.8,0.4-2.1,0.3c-0.4-0.2-1-1.4-1.1-1.8c-0.1-0.4-0.4-1.8-0.3-2.1C179.8,32.5,181,31.9,181.4,31.8"/>
	<path class="st7" d="M184.1,39.3c0.3-0.1,1.9-0.5,2.1-0.4c0.3,0.1,0.9,1.6,1,1.9s0.5,1.9,0.4,2.1c-0.1,0.3-1.6,0.9-1.9,1
		c-0.3,0.1-1.9,0.5-2.1,0.4c-0.3-0.1-0.9-1.6-1-1.9c-0.1-0.3-0.5-1.9-0.4-2.1C182.3,40.1,183.8,39.4,184.1,39.3"/>
	<path class="st7" d="M186.8,46.9c0.2-0.1,2-0.6,2.1-0.5c0.2,0.1,0.9,1.8,1,2c0.1,0.2,0.6,2,0.5,2.1c-0.1,0.2-1.8,0.9-2,1
		c-0.2,0.1-2,0.6-2.1,0.5c-0.2-0.1-0.9-1.8-1-2c-0.1-0.2-0.6-2-0.5-2.1S186.6,47,186.8,46.9"/>
	<path class="st7" d="M189.5,54.5c0.1,0,2.1-0.7,2.2-0.7c0.1,0,0.8,2,0.9,2.1c0,0.1,0.7,2.1,0.7,2.2c0,0.1-2,0.8-2.1,0.9
		c-0.1,0-2.1,0.7-2.2,0.7c-0.1,0-0.8-2-0.9-2.1c0-0.1-0.7-2.1-0.7-2.2C187.5,55.2,189.4,54.5,189.5,54.5"/>
</g>
<polygon class="st1" points="196,65.6 193.8,66.4 191.6,67.2 190.8,65 190,62.8 192.2,62 194.4,61.2 195.2,63.4 "/>
<g>
	<defs>
		<rect id="SVGID_15_" x="6.8" y="6.2" width="265.9" height="144.7"/>
	</defs>
	<clipPath id="SVGID_16_">
		<use xlink:href="#SVGID_15_"  style="overflow:visible;"/>
	</clipPath>
	<path class="st8" d="M180.8,6.4c-1.4,0.5-2.1,2-1.6,3.4c0.2,0.7,0.8,1.2,1.4,1.5c0.6,0.3,1.4,0.3,2,0.1c0.7-0.2,1.2-0.8,1.5-1.4
		c0.3-0.6,0.3-1.3,0.1-2C183.7,6.6,182.2,5.9,180.8,6.4"/>
	<path class="st8" d="M183.5,13.9c0.6-0.2,1.5-0.3,2.1,0c0.5,0.2,1.1,1,1.3,1.6c0.2,0.6,0.3,1.5,0,2.1c-0.3,0.5-1,1.1-1.6,1.3
		c-0.6,0.2-1.5,0.3-2.1,0c-0.5-0.3-1.1-1-1.3-1.6c-0.2-0.6-0.3-1.5,0-2.1C182.1,14.7,182.9,14.2,183.5,13.9"/>
	<path class="st8" d="M186.2,21.5c0.5-0.2,1.6-0.4,2.1-0.2c0.4,0.2,1,1.2,1.2,1.7c0.2,0.5,0.4,1.6,0.2,2.1c-0.2,0.4-1.2,1-1.7,1.2
		c-0.5,0.2-1.6,0.4-2.1,0.2c-0.4-0.2-1-1.2-1.2-1.7c-0.2-0.5-0.4-1.6-0.2-2.1C184.7,22.3,185.7,21.7,186.2,21.5"/>
	<path class="st8" d="M188.9,29.1c0.4-0.1,1.8-0.4,2.1-0.3c0.4,0.2,1,1.4,1.1,1.8c0.1,0.4,0.4,1.8,0.3,2.1c-0.2,0.4-1.4,1-1.8,1.1
		c-0.4,0.1-1.8,0.4-2.1,0.3c-0.4-0.2-1-1.4-1.1-1.8c-0.1-0.4-0.4-1.8-0.3-2.1C187.3,29.8,188.5,29.2,188.9,29.1"/>
	<path class="st8" d="M191.6,36.6c0.3-0.1,1.9-0.5,2.1-0.4c0.3,0.1,0.9,1.6,1,1.9s0.5,1.9,0.4,2.1c-0.1,0.3-1.6,0.9-1.9,1
		c-0.3,0.1-1.9,0.5-2.1,0.4c-0.3-0.1-0.9-1.6-1-1.9c-0.1-0.3-0.5-1.9-0.4-2.1C189.9,37.4,191.3,36.7,191.6,36.6"/>
	<path class="st8" d="M194.3,44.2c0.2-0.1,2-0.6,2.1-0.5c0.2,0.1,0.9,1.8,1,2c0.1,0.2,0.6,2,0.5,2.1c-0.1,0.2-1.8,0.9-2,1
		c-0.2,0.1-2,0.6-2.1,0.5c-0.2-0.1-0.9-1.8-1-2c-0.1-0.2-0.6-2-0.5-2.1S194.1,44.3,194.3,44.2"/>
	<path class="st8" d="M197.1,51.8c0.1,0,2.1-0.7,2.2-0.7c0.1,0,0.8,2,0.9,2.1c0,0.1,0.7,2.1,0.7,2.2c0,0.1-2,0.8-2.1,0.9
		c-0.1,0-2.1,0.7-2.2,0.7c-0.1,0-0.8-2-0.9-2.1c0-0.1-0.7-2.1-0.7-2.2C195,52.5,197,51.8,197.1,51.8"/>
</g>
<polygon class="st1" points="203.5,62.9 201.3,63.7 199.1,64.5 198.4,62.3 197.6,60.1 199.8,59.3 201.9,58.5 202.7,60.7 "/>
<g>
	<defs>
		<rect id="SVGID_17_" x="6.8" y="6.2" width="265.9" height="144.7"/>
	</defs>
	<clipPath id="SVGID_18_">
		<use xlink:href="#SVGID_17_"  style="overflow:visible;"/>
	</clipPath>
	<path class="st9" d="M243.8,64.6V26.4h-6.1v37.7c0,8.7-5.5,14.3-13.9,14.3s-13.8-5.7-13.8-14.3V26.4H204v38.2
		c0,11.4,8.3,19.3,19.9,19.3S243.8,76,243.8,64.6"/>
	<path class="st9" d="M93.7,43.2c0,7.5-5,11.4-12.1,11.4H67.1V31.9h14.6C88.8,31.9,93.7,35.6,93.7,43.2 M99.8,43.2
		c0-10.3-7.2-16.7-17.6-16.7H61v57h6.1V60h15.1C92.6,60,99.8,53.4,99.8,43.2 M40.6,54.9c0,11.9-0.4,15.8-4,19.5
		c-2.5,2.6-6.1,4.1-9.9,4.1s-7.4-1.5-9.9-4.1c-3.6-3.7-4-7.5-4-19.5s0.4-15.8,4-19.5c2.5-2.6,6.1-4.1,9.9-4.1s7.4,1.5,9.9,4.1
		C40.2,39.2,40.6,43,40.6,54.9 M46.6,54.9c0-12.1,0-17.7-5.4-23.1c-3.8-3.8-8.9-5.9-14.6-5.9S16,28,12.1,31.9
		c-5.4,5.4-5.4,11-5.4,23.1s0,17.7,5.4,23.1c3.8,3.8,8.9,5.9,14.6,5.9s10.7-2.1,14.6-5.9C46.6,72.6,46.6,67,46.6,54.9"/>
</g>
<path class="st10" d="M132.6,65.3h-21.3L122,35.1L132.6,65.3z M145.4,83.4l-20.9-57h-5.1l-21,57h6.5l4.6-12.9h24.9l4.6,12.9H145.4z"
	/>
<g>
	<defs>
		<rect id="SVGID_19_" x="6.8" y="6.2" width="265.9" height="144.7"/>
	</defs>
	<clipPath id="SVGID_20_">
		<use xlink:href="#SVGID_19_"  style="overflow:visible;"/>
	</clipPath>
	<path class="st11" d="M185.8,42.4c0,7-4.7,10.4-11.4,10.4h-15.2V31.9h15.2C181.1,31.9,185.8,35.4,185.8,42.4 M193,83.4l-13.5-25.9
		c7.4-1.5,12.4-7,12.4-15.3c0-9.9-7-15.9-16.9-15.9h-21.9v57h6.1V58.1h13.7l13,25.3H193z"/>
	<path class="st11" d="M198.5,150.4v-8.6c0-2.4-1.1-3.4-3.1-3.4c-1.3,0-2.4,0.6-3.5,1.7c-0.9-1.4-1.8-1.7-2.8-1.7
		c-1.1,0-2.2,0.5-3.1,1.5c0-0.7-0.2-1.1-0.4-1.5l-2.3,0.7c0.3,0.6,0.4,1.5,0.4,3v8.4h2.5v-8.7c0.9-0.8,1.7-1.2,2.4-1.2
		c1,0,1.3,0.4,1.3,1.8v8.1h2.4v-8.6c0.8-0.8,1.6-1.3,2.5-1.3c0.9,0,1.2,0.4,1.2,1.8v8.1H198.5z M181.2,150.4l-0.4-1.6
		c-0.3,0.1-0.7,0-0.8-0.2c-0.2-0.3-0.3-0.5-0.3-2.1v-10c0-1.5,0-2.5-0.2-3.2l-2.6,0.6c0.2,1,0.2,1.8,0.2,3.4v10c0,1,0,3.3,2.6,3.3
		C180.3,150.7,180.8,150.6,181.2,150.4 M173.3,145.9v-11.6h-2.7v10.8c0,2.1-1,3.3-2.9,3.3c-2,0-2.9-0.8-2.9-3.3v-10.8h-2.7v11.6
		c0,2.6,1.3,4.8,5.6,4.8C171.2,150.7,173.3,148.9,173.3,145.9 M154.7,150.2l-0.3-1.5c-0.4,0.2-0.7,0.2-1.1,0.2
		c-1.1,0-1.4-0.4-1.4-1.9v-6.6h2.2l0.7-1.8h-2.8c0-1.2,0.1-2.6,0.2-3.5l-2.6,0.6c-0.1,0.9-0.1,1.9-0.1,2.9H148v1.8h1.3v7.3
		c0,1.7,0.8,3,3.1,3C153.2,150.7,153.9,150.6,154.7,150.2 M145.2,135.8c0-0.9-0.7-1.6-1.6-1.6c-0.9,0-1.6,0.7-1.6,1.6
		c0,0.9,0.7,1.6,1.6,1.6C144.5,137.4,145.2,136.7,145.2,135.8 M140.4,135.8c0-0.9-0.7-1.6-1.6-1.6c-0.9,0-1.6,0.7-1.6,1.6
		c0,0.9,0.7,1.6,1.6,1.6C139.7,137.4,140.4,136.7,140.4,135.8 M142.8,144.9l0,2.8c-0.5,0.7-1.3,1.2-2.1,1.2c-1,0-1.6-0.7-1.6-1.8
		c0-1.5,0.8-2.2,3.3-2.2C142.5,144.9,142.8,144.9,142.8,144.9 M146.4,149.3c-0.9-0.6-1-1.1-1-2.7l0-3.4c0-1.7,0-2.4-0.2-2.9
		c-0.5-1.3-1.7-2-3.6-2c-1.8,0-3.2,0.5-5,1.6l1.1,1.8c0.4-0.3,2-1.3,3.5-1.3c1.4,0,1.6,0.7,1.6,2.1v0.6h-0.8c-3.8,0-5.8,1.4-5.8,4.1
		c0,2,1.2,3.5,3.9,3.5c1.3,0,2.3-0.4,3.2-1.4c0.3,0.7,0.9,1.3,1.6,1.6L146.4,149.3z M134.8,150.2l-0.3-1.5c-0.4,0.2-0.7,0.2-1.1,0.2
		c-1.1,0-1.4-0.4-1.4-1.9v-6.6h2.2l0.7-1.8H132c0-1.2,0.1-2.6,0.2-3.5l-2.6,0.6c-0.1,0.9-0.1,1.9-0.1,2.9h-1.3v1.8h1.3v7.3
		c0,1.7,0.8,3,3.1,3C133.3,150.7,134.1,150.6,134.8,150.2 M125.9,135.2c0-1-0.8-1.7-1.7-1.7c-1,0-1.7,0.8-1.7,1.7
		c0,0.9,0.7,1.7,1.7,1.7C125.2,136.9,125.9,136.1,125.9,135.2 M125.5,150.4v-12l-2.6,0.5v11.6H125.5z M120.2,146.7
		c0-1.4-0.6-2.7-3-3.3l-1.5-0.4c-1.2-0.3-1.6-0.7-1.6-1.4c0-0.9,0.7-1.5,1.8-1.5c0.9,0,1.8,0.3,2.9,0.9l0.8-1.8c-1-0.5-2.3-1-3.9-1
		c-2.6,0-4.4,1.5-4.4,3.7c0,1.7,1,2.9,2.8,3.2l1.4,0.3c1.3,0.3,1.9,0.7,1.9,1.7c0,1-0.8,1.7-1.9,1.7c-1.3,0-2.8-0.6-3.8-1.2
		l-0.9,1.8c1.5,0.8,3.1,1.3,4.5,1.3C118.2,150.7,120.2,149.1,120.2,146.7 M110.4,138.5c-0.3-0.1-0.5-0.2-0.9-0.2
		c-1.1,0-2.1,0.6-3,1.9c0-0.7-0.2-1.3-0.4-1.9l-2.3,0.6c0.3,0.7,0.4,1.7,0.4,3.2v8.3h2.6v-8c0.2-1,1.1-1.7,2.2-1.7
		c0.3,0,0.5,0.1,0.7,0.2L110.4,138.5z M98.5,143.4h-4.3c0-1.9,0.8-3,2.2-3C97.6,140.3,98.5,141.4,98.5,143.4 M101.1,145.2v-0.5
		c0-2.7-0.5-4.2-1.5-5.1c-1-0.9-2.1-1.2-3.2-1.2c-1.5,0-2.7,0.5-3.6,1.6c-1,1.2-1.5,2.5-1.5,4.6c0,3.8,2.1,6.2,5.4,6.2
		c1.6,0,3-0.5,4.2-1.6l-1-1.6c-0.9,0.8-1.8,1.2-2.9,1.2c-2.3,0-2.9-1.7-2.9-3.3v-0.2H101.1z M90.1,138.7h-2.7l-2,6
		c-0.4,1.2-0.7,2.4-0.7,2.7h0c-0.1-0.6-0.4-1.8-0.7-2.6l-2-6.3l-2.6,0.4l4.2,11.7h2.3L90.1,138.7z M77.7,135.2c0-1-0.8-1.7-1.7-1.7
		c-1,0-1.7,0.8-1.7,1.7c0,0.9,0.7,1.7,1.7,1.7C77,136.9,77.7,136.1,77.7,135.2 M77.3,150.4v-12l-2.6,0.5v11.6H77.3z M70.8,150.4
		v-8.8c0-2.2-1.3-3.3-3.1-3.3c-1.3,0-2.3,0.6-3.6,1.6c0-0.6-0.1-1.1-0.4-1.7l-2.3,0.7c0.3,0.8,0.4,1.6,0.4,2.8v8.7h2.5v-8.5
		c0.8-0.8,1.8-1.3,2.6-1.3c1,0,1.3,0.4,1.3,2v7.8H70.8z M58,145.9v-11.6h-2.7v10.8c0,2.1-1,3.3-2.9,3.3c-2,0-2.9-0.8-2.9-3.3v-10.8
		h-2.7v11.6c0,2.6,1.3,4.8,5.6,4.8C55.9,150.7,58,148.9,58,145.9 M39.9,138.5c-0.3-0.1-0.5-0.2-0.9-0.2c-1.1,0-2.1,0.6-3,1.9
		c0-0.7-0.2-1.3-0.4-1.9l-2.3,0.6c0.3,0.7,0.4,1.7,0.4,3.2v8.3h2.6v-8c0.2-1,1.1-1.7,2.2-1.7c0.3,0,0.5,0.1,0.7,0.2L39.9,138.5z
		 M27.9,143.4h-4.3c0-1.9,0.8-3,2.2-3C27.1,140.3,27.9,141.4,27.9,143.4 M30.6,145.2v-0.5c0-2.7-0.5-4.2-1.5-5.1
		c-1-0.9-2.1-1.2-3.2-1.2c-1.5,0-2.7,0.5-3.6,1.6c-1,1.2-1.5,2.5-1.5,4.6c0,3.8,2.1,6.2,5.4,6.2c1.6,0,3-0.5,4.2-1.6l-1-1.6
		c-0.9,0.8-1.8,1.2-2.9,1.2c-2.3,0-2.9-1.7-2.9-3.3v-0.2H30.6z M14.9,147.4c-0.3,0.6-1.1,1.1-2.1,1.1c-1.9,0-2.4-1.3-2.4-3.9
		c0-2.8,0.7-4.1,2.4-4.1c0.9,0,1.6,0.3,2.1,1V147.4z M17.8,150.4c-0.2-0.6-0.4-1.8-0.4-4.1v-12.7l-2.5-0.4v4.3c0,0.9,0,1.7,0.1,1.9
		c-0.7-0.7-1.5-1.1-2.5-1.1c-2.8,0-4.9,2.5-4.9,6.2c0,3.7,1.8,6,4.8,6c1.2,0,2.1-0.4,2.9-1.2c0.1,0.5,0.1,0.7,0.2,0.9H17.8z"/>
	<path class="st11" d="M272.7,122.5v-8.6c0-2.4-1.1-3.4-3.1-3.4c-1.3,0-2.4,0.6-3.5,1.7c-0.9-1.4-1.8-1.7-2.8-1.7
		c-1.1,0-2.2,0.5-3.1,1.5c0-0.7-0.2-1.1-0.4-1.5l-2.3,0.7c0.3,0.6,0.4,1.5,0.4,3v8.4h2.5v-8.7c0.9-0.8,1.7-1.2,2.4-1.2
		c1,0,1.3,0.4,1.3,1.8v8.1h2.4V114c0.8-0.8,1.6-1.3,2.5-1.3c0.9,0,1.2,0.4,1.2,1.8v8.1H272.7z M254.8,121.7
		c-0.1-0.1-0.7-0.8-0.7-2.3v-8.9l-2.5,0.5v8.4c-0.4,0.8-1.4,1.5-2.3,1.5c-1.5,0-1.7-1.1-1.7-2.5v-7.9l-2.5,0.5v8
		c0,1.5,0.2,2.2,0.7,2.8c0.6,0.7,1.6,1.2,2.9,1.2c1.3,0,2.5-0.5,3.3-1.4c0.2,0.7,0.5,1.1,1,1.5L254.8,121.7z M241.7,107.3
		c0-1-0.8-1.7-1.7-1.7c-1,0-1.7,0.8-1.7,1.7c0,0.9,0.7,1.7,1.7,1.7C240.9,109,241.7,108.2,241.7,107.3 M241.3,122.5v-12l-2.6,0.5
		v11.6H241.3z M237,110.6c-0.3-0.1-0.5-0.2-0.9-0.2c-1.1,0-2.1,0.6-3,1.9c0-0.7-0.2-1.3-0.4-1.9l-2.3,0.6c0.3,0.7,0.4,1.7,0.4,3.2
		v8.3h2.6v-8c0.2-1,1.1-1.7,2.2-1.7c0.3,0,0.5,0.1,0.7,0.2L237,110.6z M224.7,116.7c0,3-0.8,4.2-2.3,4.2c-1.5,0-2.4-1-2.4-4.4
		c0-2.9,0.7-4.1,2.3-4.1C223.8,112.4,224.7,113.4,224.7,116.7 M227.6,116.7c0-3.7-1.9-6.2-5.3-6.2c-3.1,0-5.1,2.4-5.1,6.2
		c0,3.8,2,6.2,5.2,6.2S227.6,120.5,227.6,116.7 M215.7,122.3l-0.3-1.5c-0.4,0.2-0.7,0.2-1.1,0.2c-1.1,0-1.4-0.4-1.4-1.9v-6.6h2.2
		l0.7-1.8h-2.8c0-1.2,0.1-2.6,0.2-3.5l-2.6,0.6c-0.1,0.9-0.1,1.9-0.1,2.9H209v1.8h1.3v7.3c0,1.7,0.8,3,3.1,3
		C214.2,122.8,214.9,122.7,215.7,122.3 M206.8,107.3c0-1-0.8-1.7-1.7-1.7c-1,0-1.7,0.8-1.7,1.7c0,0.9,0.7,1.7,1.7,1.7
		C206,109,206.8,108.2,206.8,107.3 M206.3,122.5v-12l-2.6,0.5v11.6H206.3z M201,118.8c0-1.4-0.6-2.7-3-3.3l-1.5-0.4
		c-1.2-0.3-1.6-0.7-1.6-1.4c0-0.9,0.7-1.5,1.8-1.5c0.9,0,1.8,0.3,2.9,0.9l0.8-1.8c-1-0.5-2.3-1-3.9-1c-2.6,0-4.4,1.5-4.4,3.7
		c0,1.7,1,2.9,2.8,3.2l1.4,0.3c1.3,0.3,1.9,0.7,1.9,1.7c0,1-0.8,1.7-1.9,1.7c-1.3,0-2.8-0.6-3.8-1.2l-0.9,1.8
		c1.5,0.8,3.1,1.3,4.5,1.3C199,122.8,201,121.2,201,118.8 M186.9,116.7c0,3-0.8,4.2-2.3,4.2c-1.5,0-2.4-1-2.4-4.4
		c0-2.9,0.7-4.1,2.3-4.1C186,112.4,186.9,113.4,186.9,116.7 M189.7,116.7c0-3.7-1.9-6.2-5.3-6.2c-3.1,0-5.1,2.4-5.1,6.2
		c0,3.8,2,6.2,5.2,6.2C187.7,122.8,189.7,120.5,189.7,116.7 M174.1,116.7c0,2.8-0.8,4.1-2.5,4.1c-0.8,0-1.6-0.4-2.2-1v-5.9
		c0.7-0.8,1.6-1.2,2.5-1.2C173.6,112.6,174.1,114,174.1,116.7 M176.9,116.4c0-4.1-2.1-5.9-4.4-5.9c-1.2,0-2.4,0.5-3.1,1.4
		c0-0.7-0.1-1-0.2-1.4l-2.3,0.4c0.2,0.9,0.2,1.5,0.2,2.9v13.7l2.5-0.6V123c0-0.6,0-1.1,0-1.2c0.8,0.6,1.8,1,2.8,1
		C175.2,122.7,176.9,120.3,176.9,116.4 M161.3,115.4H157c0-1.9,0.8-3,2.2-3C160.5,112.4,161.3,113.5,161.3,115.4 M164,117.3v-0.5
		c0-2.7-0.5-4.2-1.5-5.1c-1-0.9-2.1-1.2-3.2-1.2c-1.5,0-2.7,0.5-3.6,1.6c-1,1.2-1.5,2.5-1.5,4.6c0,3.8,2.1,6.2,5.4,6.2
		c1.6,0,3-0.5,4.2-1.6l-1-1.6c-0.9,0.8-1.8,1.2-2.9,1.2c-2.3,0-2.9-1.7-2.9-3.3v-0.2H164z M148.9,111.1c0,0.8-0.3,1.5-0.7,2
		c-0.5,0.5-1.2,0.7-2.6,0.7h-1.4v-5.1h1.5C148,108.6,148.9,109.4,148.9,111.1 M152.5,122.5l-2.4-3.9c-0.8-1.3-1.9-2.9-2.5-3.2
		c2.5,0,4-2.1,4-4.4c0-2.5-1.6-4.6-5.2-4.6h-4.9v16.1h2.6v-7c0.5,0,0.7,0.2,1,0.5c0.9,0.9,1.6,2,2.7,4l1.4,2.5H152.5z M133.6,118.8
		c0-1.4-0.6-2.7-3-3.3l-1.5-0.4c-1.2-0.3-1.6-0.7-1.6-1.4c0-0.9,0.7-1.5,1.8-1.5c0.9,0,1.8,0.3,2.9,0.9l0.8-1.8c-1-0.5-2.3-1-3.9-1
		c-2.6,0-4.4,1.5-4.4,3.7c0,1.7,1,2.9,2.8,3.2l1.4,0.3c1.3,0.3,1.9,0.7,1.9,1.7c0,1-0.8,1.7-1.9,1.7c-1.3,0-2.8-0.6-3.8-1.2
		l-0.9,1.8c1.5,0.8,3.1,1.3,4.5,1.3C131.7,122.8,133.6,121.2,133.6,118.8 M122.6,118.8c0-1.4-0.6-2.7-3-3.3l-1.5-0.4
		c-1.2-0.3-1.6-0.7-1.6-1.4c0-0.9,0.7-1.5,1.8-1.5c0.9,0,1.8,0.3,2.9,0.9l0.8-1.8c-1-0.5-2.3-1-3.9-1c-2.6,0-4.4,1.5-4.4,3.7
		c0,1.7,1,2.9,2.8,3.2l1.4,0.3c1.3,0.3,1.9,0.7,1.9,1.7c0,1-0.8,1.7-1.9,1.7c-1.3,0-2.8-0.6-3.8-1.2l-0.9,1.8
		c1.5,0.8,3.1,1.3,4.5,1.3C120.6,122.8,122.6,121.2,122.6,118.8 M108.8,115.4h-4.3c0-1.9,0.8-3,2.2-3
		C108,112.4,108.8,113.5,108.8,115.4 M111.4,117.3v-0.5c0-2.7-0.5-4.2-1.5-5.1c-1-0.9-2.1-1.2-3.2-1.2c-1.5,0-2.7,0.5-3.6,1.6
		c-1,1.2-1.5,2.5-1.5,4.6c0,3.8,2.1,6.2,5.4,6.2c1.6,0,3-0.5,4.2-1.6l-1-1.6c-0.9,0.8-1.8,1.2-2.9,1.2c-2.3,0-2.9-1.7-2.9-3.3v-0.2
		H111.4z M99.9,121.3l-1.2-1.6c-0.8,0.8-1.6,1.2-2.4,1.2c-0.6,0-1.2-0.3-1.6-0.7c-0.5-0.6-0.8-1.6-0.8-3.2c0-1.5,0.1-2.6,0.5-3.3
		c0.4-0.8,1-1.2,1.9-1.2c0.7,0,1.3,0.3,2,0.9l1.3-1.7c-1-1-2-1.3-3.3-1.3c-2.6,0-5.2,2-5.2,6.3c0,3.8,1.8,6,5,6
		C97.7,122.8,98.8,122.3,99.9,121.3 M89.3,121.3l-1.2-1.6c-0.8,0.8-1.6,1.2-2.4,1.2c-0.6,0-1.2-0.3-1.6-0.7
		c-0.5-0.6-0.8-1.6-0.8-3.2c0-1.5,0.1-2.6,0.5-3.3c0.4-0.8,1-1.2,1.9-1.2c0.7,0,1.3,0.3,2,0.9l1.3-1.7c-1-1-2-1.3-3.3-1.3
		c-2.6,0-5.2,2-5.2,6.3c0,3.8,1.8,6,5,6C87.2,122.8,88.3,122.3,89.3,121.3 M74.4,116.1h-4c0.3-1,1.7-5.8,2-7h0
		C72.6,109.7,74.2,115.7,74.4,116.1 M79.2,122.5l-5.1-16.1H71l-5.3,16.1h2.8l1.3-4.2H75l1.3,4.2H79.2z M58.6,122.5v-8.8
		c0-2.2-1.3-3.3-3.1-3.3c-1.3,0-2.3,0.6-3.6,1.6c0-0.6-0.1-1.1-0.4-1.7l-2.3,0.7c0.3,0.8,0.4,1.6,0.4,2.8v8.7h2.5V114
		c0.8-0.8,1.8-1.3,2.6-1.3c1,0,1.3,0.4,1.3,2v7.8H58.6z M43.9,115.4h-4.3c0-1.9,0.8-3,2.2-3C43.1,112.4,43.9,113.5,43.9,115.4
		 M46.6,117.3v-0.5c0-2.7-0.5-4.2-1.5-5.1c-1-0.9-2.1-1.2-3.2-1.2c-1.5,0-2.7,0.5-3.6,1.6c-1,1.2-1.5,2.5-1.5,4.6
		c0,3.8,2.1,6.2,5.4,6.2c1.6,0,3-0.5,4.2-1.6l-1-1.6c-0.9,0.8-1.8,1.2-2.9,1.2c-2.3,0-2.9-1.7-2.9-3.3v-0.2H46.6z M31.4,116.7
		c0,2.8-0.8,4.1-2.5,4.1c-0.8,0-1.6-0.4-2.2-1v-5.9c0.7-0.8,1.6-1.2,2.5-1.2C30.9,112.6,31.4,114,31.4,116.7 M34.2,116.4
		c0-4.1-2.1-5.9-4.4-5.9c-1.2,0-2.4,0.5-3.1,1.4c0-0.7-0.1-1-0.2-1.4l-2.3,0.4c0.2,0.9,0.2,1.5,0.2,2.9v13.7l2.5-0.6V123
		c0-0.6,0-1.1,0-1.2c0.8,0.6,1.8,1,2.8,1C32.5,122.7,34.2,120.3,34.2,116.4 M18,114.7c0,4.3-1.2,6.1-3.6,6.1c-2.7,0-3.8-2.3-3.8-6.4
		c0-3.9,1-6,3.7-6C17.2,108.3,18,110.7,18,114.7 M21,114.5c0-4.7-2.2-8.3-6.7-8.3c-4,0-6.7,3-6.7,8.3c0,4.8,2.3,8.3,6.8,8.3
		C18.6,122.8,21,119.5,21,114.5"/>
</g>
</svg>

