<?xml version="1.0" encoding="utf-8"?>
<!-- Generator: Adobe Illustrator 16.0.4, SVG Export Plug-In . SVG Version: 6.00 Build 0)  -->
<!DOCTYPE svg PUBLIC "-//W3C//DTD SVG 1.1//EN" "http://www.w3.org/Graphics/SVG/1.1/DTD/svg11.dtd">
<svg version="1.1" id="Ebene_1" xmlns="http://www.w3.org/2000/svg" xmlns:xlink="http://www.w3.org/1999/xlink" x="0px" y="0px"
	 width="254px" height="90px" viewBox="0 0 254 90" enable-background="new 0 0 254 90" xml:space="preserve">
<g>
	<path fill="#D3D800" d="M129.744,25.291c-1.391,0.5-2.113,2.032-1.614,3.422c0.25,0.696,0.758,1.224,1.377,1.516
		s1.351,0.348,2.045,0.099c0.696-0.25,1.225-0.758,1.517-1.377c0.292-0.619,0.348-1.35,0.098-2.045
		C132.667,25.515,131.135,24.792,129.744,25.291L129.744,25.291z"/>
	<path fill="#D3D800" d="M132.455,32.854c0.596-0.214,1.535-0.278,2.065-0.028c0.531,0.25,1.078,1.016,1.292,1.611
		c0.215,0.596,0.278,1.535,0.028,2.066c-0.25,0.53-1.015,1.079-1.612,1.292c-0.595,0.214-1.533,0.278-2.064,0.028
		c-0.531-0.25-1.078-1.016-1.292-1.612s-0.279-1.535-0.028-2.066C131.094,33.616,131.859,33.068,132.455,32.854L132.455,32.854z"/>
	<path fill="#D3D800" d="M135.166,40.417c0.497-0.178,1.644-0.363,2.086-0.154c0.442,0.209,1.03,1.211,1.208,1.708
		s0.363,1.644,0.154,2.086s-1.211,1.029-1.707,1.208c-0.497,0.178-1.645,0.362-2.086,0.153c-0.442-0.208-1.03-1.21-1.208-1.707
		c-0.179-0.497-0.363-1.644-0.154-2.086C133.668,41.183,134.669,40.596,135.166,40.417L135.166,40.417z"/>
	<path fill="#D3D800" d="M137.877,47.98c0.398-0.144,1.753-0.448,2.105-0.28c0.354,0.166,0.981,1.405,1.124,1.803
		s0.447,1.752,0.28,2.106c-0.167,0.354-1.406,0.98-1.803,1.123c-0.398,0.143-1.752,0.447-2.106,0.28
		c-0.354-0.167-0.98-1.406-1.123-1.804s-0.447-1.752-0.28-2.105C136.241,48.749,137.479,48.123,137.877,47.98L137.877,47.98z"/>
	<path fill="#D3D800" d="M140.589,55.543c0.298-0.106,1.86-0.531,2.126-0.406c0.265,0.125,0.931,1.602,1.038,1.899
		s0.532,1.86,0.407,2.126c-0.125,0.265-1.602,0.932-1.899,1.039c-0.298,0.106-1.86,0.531-2.126,0.406
		c-0.266-0.126-0.932-1.602-1.039-1.899c-0.106-0.298-0.532-1.861-0.406-2.126C138.814,56.316,140.29,55.65,140.589,55.543
		L140.589,55.543z"/>
	<path fill="#D3D800" d="M143.3,63.106c0.198-0.071,1.969-0.616,2.146-0.533c0.177,0.084,0.883,1.797,0.954,1.995
		c0.071,0.199,0.615,1.97,0.532,2.146c-0.084,0.177-1.797,0.883-1.995,0.954s-1.969,0.616-2.146,0.532
		c-0.177-0.083-0.883-1.796-0.955-1.994c-0.071-0.199-0.616-1.97-0.532-2.146C141.388,63.884,143.101,63.178,143.3,63.106
		L143.3,63.106z"/>
	<path fill="#D3D800" d="M146.011,70.669c0.1-0.035,2.078-0.7,2.166-0.659c0.089,0.042,0.834,1.992,0.87,2.091
		c0.036,0.1,0.701,2.079,0.659,2.167s-1.992,0.834-2.091,0.87c-0.1,0.035-2.078,0.7-2.166,0.658
		c-0.089-0.041-0.834-1.991-0.87-2.091s-0.7-2.078-0.659-2.166C143.962,71.45,145.912,70.705,146.011,70.669L146.011,70.669z"/>
	<polygon fill="#D3D800" points="152.479,81.82 150.292,82.605 148.105,83.391 147.32,81.204 146.535,79.018 148.722,78.232 
		150.909,77.447 151.694,79.634 152.479,81.82 	"/>
	<path fill="#D3D800" d="M137.88,22.37c-1.391,0.5-2.113,2.031-1.614,3.422c0.25,0.695,0.758,1.224,1.377,1.516
		c0.619,0.292,1.351,0.349,2.046,0.099c0.695-0.25,1.224-0.758,1.516-1.377s0.348-1.35,0.099-2.045
		C140.803,22.593,139.271,21.871,137.88,22.37L137.88,22.37z"/>
	<path fill="#D3D800" d="M140.591,29.933c0.597-0.214,1.535-0.278,2.066-0.028c0.53,0.25,1.078,1.016,1.292,1.611
		c0.214,0.597,0.277,1.535,0.027,2.066c-0.25,0.53-1.015,1.078-1.61,1.292c-0.597,0.214-1.535,0.277-2.066,0.027
		c-0.531-0.25-1.078-1.016-1.292-1.612c-0.214-0.596-0.279-1.535-0.028-2.065C139.229,30.695,139.995,30.147,140.591,29.933
		L140.591,29.933z"/>
	<path fill="#D3D800" d="M143.303,37.496c0.496-0.178,1.644-0.362,2.085-0.154c0.443,0.208,1.03,1.211,1.208,1.708
		s0.363,1.643,0.154,2.085c-0.208,0.443-1.211,1.03-1.707,1.208c-0.497,0.179-1.645,0.363-2.086,0.154
		c-0.442-0.208-1.029-1.211-1.208-1.708c-0.178-0.497-0.362-1.644-0.154-2.085C141.804,38.262,142.806,37.675,143.303,37.496
		L143.303,37.496z"/>
	<path fill="#D3D800" d="M146.014,45.06c0.397-0.143,1.752-0.448,2.105-0.28c0.354,0.167,0.98,1.405,1.124,1.803
		c0.142,0.397,0.446,1.752,0.279,2.105c-0.167,0.354-1.405,0.98-1.803,1.124c-0.397,0.143-1.752,0.446-2.105,0.28
		c-0.354-0.167-0.981-1.406-1.123-1.804c-0.144-0.397-0.447-1.752-0.28-2.105C144.377,45.828,145.616,45.202,146.014,45.06
		L146.014,45.06z"/>
	<path fill="#D3D800" d="M148.725,52.622c0.298-0.107,1.86-0.531,2.126-0.406s0.933,1.601,1.039,1.898
		c0.107,0.299,0.531,1.861,0.406,2.127c-0.125,0.265-1.601,0.932-1.899,1.038c-0.298,0.107-1.86,0.531-2.126,0.406
		s-0.932-1.601-1.039-1.898c-0.106-0.298-0.531-1.861-0.405-2.126C146.951,53.396,148.427,52.729,148.725,52.622L148.725,52.622z"/>
	<path fill="#D3D800" d="M151.436,60.185c0.198-0.071,1.97-0.615,2.146-0.532s0.883,1.796,0.954,1.995
		c0.071,0.198,0.617,1.969,0.533,2.146c-0.084,0.178-1.797,0.884-1.995,0.955c-0.199,0.071-1.97,0.615-2.146,0.532
		s-0.883-1.796-0.954-1.995c-0.071-0.198-0.617-1.969-0.532-2.146C149.525,60.962,151.237,60.256,151.436,60.185L151.436,60.185z"/>
	<path fill="#D3D800" d="M154.146,67.748c0.1-0.035,2.078-0.701,2.167-0.659s0.833,1.991,0.869,2.091s0.701,2.078,0.659,2.167
		c-0.042,0.088-1.991,0.834-2.091,0.869c-0.099,0.036-2.078,0.701-2.166,0.659s-0.834-1.991-0.87-2.091
		c-0.035-0.1-0.7-2.078-0.659-2.167C152.098,68.529,154.048,67.784,154.146,67.748L154.146,67.748z"/>
	<polygon fill="#D3D800" points="160.615,78.899 158.428,79.685 156.242,80.47 155.457,78.283 154.672,76.097 156.857,75.312 
		159.045,74.526 159.83,76.713 160.615,78.899 	"/>
	<path fill="#D3D800" d="M145.406,19.668c-1.392,0.5-2.114,2.032-1.614,3.422c0.249,0.696,0.757,1.224,1.377,1.516
		c0.619,0.292,1.35,0.348,2.045,0.098c0.696-0.25,1.224-0.757,1.516-1.377c0.292-0.619,0.349-1.35,0.099-2.045
		C148.329,19.892,146.797,19.168,145.406,19.668L145.406,19.668z"/>
	<path fill="#D3D800" d="M148.117,27.231c0.596-0.214,1.535-0.278,2.064-0.028c0.531,0.25,1.079,1.016,1.293,1.612
		c0.214,0.596,0.278,1.535,0.028,2.066c-0.251,0.53-1.016,1.079-1.612,1.292c-0.596,0.214-1.535,0.277-2.064,0.028
		c-0.531-0.251-1.079-1.016-1.293-1.612s-0.278-1.535-0.028-2.066C146.756,27.993,147.521,27.445,148.117,27.231L148.117,27.231z"/>
	<path fill="#D3D800" d="M150.828,34.794c0.497-0.178,1.643-0.363,2.086-0.154c0.441,0.208,1.029,1.211,1.208,1.708
		c0.178,0.497,0.362,1.644,0.153,2.086s-1.211,1.03-1.707,1.208c-0.497,0.178-1.644,0.363-2.086,0.154
		c-0.442-0.208-1.029-1.211-1.207-1.708c-0.179-0.497-0.363-1.644-0.154-2.086C149.329,35.56,150.331,34.973,150.828,34.794
		L150.828,34.794z"/>
	<path fill="#D3D800" d="M153.539,42.357c0.397-0.143,1.752-0.447,2.105-0.28c0.354,0.167,0.981,1.406,1.123,1.803
		c0.144,0.397,0.448,1.752,0.281,2.106s-1.406,0.98-1.804,1.123s-1.752,0.446-2.105,0.28c-0.354-0.167-0.98-1.406-1.124-1.804
		c-0.142-0.397-0.446-1.751-0.279-2.105C151.903,43.126,153.142,42.5,153.539,42.357L153.539,42.357z"/>
	<path fill="#D3D800" d="M156.25,49.92c0.298-0.106,1.861-0.531,2.127-0.406c0.265,0.125,0.931,1.601,1.038,1.899
		c0.106,0.298,0.532,1.86,0.407,2.126c-0.126,0.265-1.602,0.932-1.899,1.038c-0.299,0.107-1.861,0.532-2.126,0.407
		c-0.266-0.126-0.932-1.602-1.039-1.899s-0.532-1.861-0.407-2.126C154.476,50.693,155.952,50.027,156.25,49.92L156.25,49.92z"/>
	<path fill="#D3D800" d="M158.961,57.483c0.199-0.071,1.97-0.616,2.146-0.533c0.178,0.084,0.883,1.796,0.954,1.995
		s0.616,1.97,0.532,2.146c-0.083,0.177-1.796,0.883-1.994,0.954c-0.199,0.071-1.97,0.616-2.146,0.532
		c-0.177-0.083-0.882-1.796-0.954-1.994c-0.071-0.199-0.616-1.97-0.533-2.147C157.05,58.261,158.763,57.555,158.961,57.483
		L158.961,57.483z"/>
	<path fill="#D3D800" d="M161.673,65.046c0.099-0.035,2.078-0.7,2.166-0.659c0.089,0.042,0.834,1.992,0.87,2.091
		c0.035,0.1,0.7,2.079,0.659,2.167c-0.042,0.088-1.992,0.834-2.091,0.87c-0.101,0.035-2.078,0.7-2.167,0.658
		c-0.089-0.041-0.835-1.991-0.869-2.091c-0.036-0.1-0.701-2.078-0.659-2.166C159.623,65.827,161.573,65.082,161.673,65.046
		L161.673,65.046z"/>
	<polygon fill="#D3D800" points="168.14,76.197 165.954,76.982 163.767,77.768 162.981,75.581 162.197,73.395 164.384,72.609 
		166.57,71.824 167.354,74.011 168.14,76.197 	"/>
	<path fill="#D3D800" d="M152.931,16.966c-1.391,0.499-2.112,2.031-1.614,3.422c0.25,0.695,0.759,1.224,1.378,1.516
		s1.35,0.348,2.046,0.099c0.694-0.25,1.223-0.758,1.515-1.377s0.348-1.35,0.099-2.045C155.854,17.189,154.322,16.467,152.931,16.966
		L152.931,16.966z"/>
	<path fill="#D3D800" d="M155.642,24.529c0.598-0.214,1.535-0.278,2.066-0.028c0.531,0.25,1.078,1.016,1.292,1.611
		c0.214,0.597,0.279,1.535,0.028,2.066c-0.25,0.53-1.016,1.079-1.611,1.293c-0.596,0.214-1.535,0.277-2.066,0.027
		c-0.53-0.25-1.078-1.016-1.292-1.612s-0.278-1.535-0.027-2.065C154.281,25.291,155.046,24.743,155.642,24.529L155.642,24.529z"/>
	<path fill="#D3D800" d="M158.354,32.092c0.496-0.178,1.644-0.362,2.085-0.154c0.443,0.209,1.03,1.211,1.208,1.708
		c0.179,0.497,0.363,1.644,0.154,2.086c-0.208,0.443-1.21,1.03-1.707,1.208s-1.644,0.363-2.086,0.154
		c-0.441-0.208-1.029-1.211-1.208-1.708c-0.178-0.497-0.362-1.644-0.154-2.085C156.854,32.858,157.856,32.271,158.354,32.092
		L158.354,32.092z"/>
	<path fill="#D3D800" d="M161.064,39.656c0.397-0.143,1.752-0.448,2.106-0.28c0.354,0.167,0.979,1.405,1.123,1.803
		c0.142,0.397,0.447,1.752,0.28,2.106c-0.167,0.354-1.405,0.98-1.804,1.123c-0.396,0.143-1.752,0.447-2.105,0.28
		c-0.354-0.167-0.981-1.406-1.123-1.803c-0.144-0.398-0.447-1.752-0.28-2.106C159.428,40.425,160.667,39.798,161.064,39.656
		L161.064,39.656z"/>
	<path fill="#D3D800" d="M163.775,47.218c0.299-0.106,1.861-0.531,2.127-0.406c0.265,0.125,0.932,1.602,1.039,1.899
		c0.106,0.298,0.53,1.86,0.405,2.126c-0.125,0.265-1.601,0.932-1.898,1.039c-0.298,0.106-1.861,0.531-2.126,0.406
		c-0.267-0.125-0.933-1.602-1.039-1.899c-0.107-0.298-0.531-1.86-0.406-2.126S163.478,47.325,163.775,47.218L163.775,47.218z"/>
	<path fill="#D3D800" d="M166.487,54.781c0.198-0.071,1.969-0.616,2.146-0.533c0.177,0.084,0.883,1.797,0.954,1.995
		c0.072,0.199,0.617,1.97,0.533,2.146s-1.796,0.883-1.995,0.954s-1.969,0.616-2.146,0.532c-0.177-0.083-0.883-1.796-0.953-1.994
		c-0.072-0.199-0.617-1.97-0.533-2.146S166.288,54.853,166.487,54.781L166.487,54.781z"/>
	<path fill="#D3D800" d="M169.198,62.345c0.099-0.036,2.077-0.701,2.167-0.659c0.088,0.041,0.834,1.991,0.869,2.091
		c0.035,0.099,0.7,2.078,0.658,2.166c-0.042,0.089-1.99,0.834-2.091,0.87c-0.099,0.035-2.078,0.7-2.166,0.658
		c-0.088-0.041-0.834-1.991-0.87-2.091c-0.035-0.1-0.699-2.078-0.659-2.166C167.148,63.125,169.099,62.38,169.198,62.345
		L169.198,62.345z"/>
	<polygon fill="#D3D800" points="175.666,73.495 173.479,74.28 171.293,75.065 170.508,72.879 169.723,70.692 171.909,69.907 
		174.096,69.122 174.881,71.309 175.666,73.495 	"/>
	<path fill="#D3D800" d="M160.457,14.264c-1.391,0.5-2.113,2.032-1.614,3.422c0.25,0.695,0.758,1.224,1.377,1.516
		s1.351,0.348,2.045,0.099c0.696-0.25,1.225-0.758,1.517-1.377c0.292-0.619,0.348-1.35,0.098-2.045
		C163.38,14.488,161.848,13.765,160.457,14.264L160.457,14.264z"/>
	<path fill="#D3D800" d="M163.168,21.828c0.596-0.214,1.535-0.278,2.064-0.028c0.531,0.25,1.079,1.016,1.294,1.612
		c0.214,0.596,0.277,1.535,0.027,2.066c-0.251,0.53-1.015,1.078-1.612,1.292c-0.596,0.214-1.534,0.277-2.064,0.028
		c-0.531-0.251-1.079-1.016-1.293-1.612c-0.214-0.596-0.278-1.535-0.028-2.065C161.807,22.589,162.572,22.042,163.168,21.828
		L163.168,21.828z"/>
	<path fill="#D3D800" d="M165.879,29.391c0.497-0.179,1.643-0.363,2.086-0.154c0.442,0.208,1.029,1.211,1.208,1.708
		c0.178,0.497,0.362,1.644,0.154,2.086c-0.209,0.442-1.211,1.029-1.707,1.208c-0.497,0.178-1.645,0.362-2.086,0.154
		c-0.443-0.209-1.03-1.211-1.208-1.708c-0.179-0.497-0.363-1.644-0.154-2.086C164.38,30.156,165.382,29.569,165.879,29.391
		L165.879,29.391z"/>
	<path fill="#D3D800" d="M168.59,36.954c0.398-0.143,1.752-0.447,2.106-0.28c0.354,0.167,0.98,1.406,1.123,1.803
		s0.447,1.752,0.28,2.106c-0.167,0.354-1.405,0.98-1.804,1.123c-0.397,0.143-1.752,0.447-2.104,0.28
		c-0.354-0.167-0.981-1.406-1.125-1.803c-0.142-0.397-0.446-1.752-0.279-2.106S168.193,37.096,168.59,36.954L168.59,36.954z"/>
	<path fill="#D3D800" d="M171.301,44.517c0.298-0.107,1.861-0.532,2.127-0.406c0.266,0.125,0.932,1.601,1.038,1.898
		c0.107,0.298,0.532,1.86,0.407,2.126c-0.126,0.266-1.602,0.932-1.9,1.039c-0.298,0.107-1.859,0.531-2.125,0.406
		s-0.932-1.602-1.039-1.899c-0.106-0.298-0.531-1.86-0.406-2.126C169.527,45.29,171.003,44.624,171.301,44.517L171.301,44.517z"/>
	<path fill="#D3D800" d="M174.012,52.079c0.199-0.071,1.97-0.616,2.147-0.533c0.177,0.084,0.882,1.797,0.954,1.996
		c0.07,0.198,0.615,1.969,0.532,2.146c-0.084,0.177-1.797,0.883-1.995,0.954s-1.97,0.616-2.146,0.533
		c-0.177-0.084-0.882-1.797-0.954-1.995c-0.071-0.199-0.616-1.97-0.532-2.146C172.101,52.856,173.813,52.15,174.012,52.079
		L174.012,52.079z"/>
	<path fill="#D3D800" d="M176.723,59.643c0.101-0.036,2.079-0.701,2.167-0.659s0.834,1.991,0.87,2.091
		c0.035,0.099,0.7,2.078,0.659,2.166c-0.042,0.089-1.992,0.835-2.091,0.87c-0.101,0.036-2.078,0.7-2.166,0.658
		c-0.089-0.041-0.835-1.991-0.87-2.091c-0.036-0.099-0.701-2.077-0.659-2.166S176.624,59.678,176.723,59.643L176.723,59.643z"/>
	<polygon fill="#D3D800" points="183.191,70.793 181.005,71.578 178.818,72.363 178.033,70.177 177.248,67.99 179.435,67.205 
		181.621,66.42 182.406,68.606 183.191,70.793 	"/>
	<path fill="#D3D800" d="M167.981,11.562c-1.39,0.5-2.112,2.032-1.613,3.423c0.25,0.695,0.758,1.224,1.377,1.516
		c0.62,0.292,1.35,0.348,2.046,0.099c0.695-0.25,1.223-0.758,1.515-1.377c0.293-0.62,0.349-1.35,0.099-2.045
		C170.905,11.786,169.373,11.063,167.981,11.562L167.981,11.562z"/>
	<path fill="#D3D800" d="M170.693,19.125c0.597-0.214,1.534-0.278,2.065-0.028c0.531,0.25,1.078,1.016,1.292,1.611
		c0.214,0.596,0.279,1.535,0.028,2.066c-0.25,0.53-1.016,1.079-1.611,1.293c-0.596,0.214-1.535,0.277-2.065,0.027
		c-0.531-0.25-1.078-1.016-1.292-1.612c-0.215-0.596-0.279-1.535-0.028-2.066C169.332,19.887,170.098,19.339,170.693,19.125
		L170.693,19.125z"/>
	<path fill="#D3D800" d="M173.405,26.688c0.495-0.178,1.643-0.363,2.086-0.154c0.441,0.208,1.028,1.211,1.207,1.708
		c0.178,0.497,0.362,1.644,0.153,2.086c-0.208,0.442-1.21,1.03-1.707,1.208s-1.643,0.363-2.086,0.154
		c-0.441-0.208-1.028-1.211-1.208-1.708c-0.178-0.497-0.361-1.644-0.153-2.086C171.906,27.454,172.908,26.867,173.405,26.688
		L173.405,26.688z"/>
	<path fill="#D3D800" d="M176.116,34.251c0.396-0.143,1.752-0.447,2.105-0.28c0.354,0.167,0.98,1.406,1.123,1.803
		c0.144,0.397,0.447,1.752,0.28,2.106c-0.167,0.354-1.405,0.98-1.803,1.124c-0.397,0.143-1.752,0.447-2.106,0.28
		c-0.354-0.167-0.98-1.406-1.123-1.803c-0.143-0.398-0.447-1.752-0.281-2.106C174.479,35.021,175.718,34.395,176.116,34.251
		L176.116,34.251z"/>
	<path fill="#D3D800" d="M178.827,41.815c0.298-0.107,1.86-0.532,2.126-0.407c0.265,0.125,0.932,1.601,1.039,1.899
		c0.106,0.298,0.53,1.86,0.405,2.126c-0.125,0.265-1.601,0.931-1.898,1.038s-1.861,0.531-2.126,0.406
		c-0.266-0.125-0.932-1.601-1.039-1.898s-0.531-1.861-0.406-2.126C177.053,42.588,178.529,41.922,178.827,41.815L178.827,41.815z"/>
	<path fill="#D3D800" d="M181.538,49.377c0.199-0.071,1.969-0.616,2.146-0.532c0.178,0.083,0.883,1.796,0.954,1.995
		c0.072,0.198,0.617,1.969,0.533,2.146c-0.083,0.178-1.796,0.883-1.995,0.954c-0.198,0.071-1.969,0.616-2.146,0.533
		c-0.178-0.083-0.884-1.796-0.954-1.995c-0.072-0.198-0.616-1.969-0.533-2.146C179.627,50.154,181.339,49.448,181.538,49.377
		L181.538,49.377z"/>
	<path fill="#D3D800" d="M184.249,56.94c0.099-0.036,2.078-0.701,2.167-0.659c0.088,0.042,0.834,1.991,0.869,2.091
		c0.036,0.1,0.701,2.078,0.659,2.166c-0.042,0.089-1.992,0.835-2.092,0.87c-0.099,0.036-2.077,0.7-2.166,0.659
		c-0.088-0.042-0.834-1.992-0.87-2.091c-0.034-0.1-0.699-2.078-0.657-2.167C182.2,57.722,184.15,56.976,184.249,56.94L184.249,56.94
		z"/>
	<polygon fill="#D3D800" points="190.717,68.092 188.53,68.877 186.344,69.661 185.559,67.475 184.773,65.288 186.96,64.503 
		189.146,63.719 189.932,65.905 190.717,68.092 	"/>
	<path fill="#D3D800" d="M175.508,8.86c-1.391,0.5-2.114,2.032-1.614,3.422c0.249,0.695,0.759,1.224,1.377,1.516
		c0.619,0.292,1.351,0.348,2.046,0.098c0.695-0.25,1.224-0.758,1.516-1.377s0.348-1.35,0.098-2.045
		C178.431,9.083,176.898,8.361,175.508,8.86L175.508,8.86z"/>
	<path fill="#D3D800" d="M178.219,16.423c0.596-0.214,1.535-0.278,2.065-0.028s1.079,1.016,1.293,1.612s0.277,1.535,0.027,2.066
		c-0.251,0.53-1.015,1.078-1.611,1.292c-0.597,0.214-1.535,0.277-2.065,0.027c-0.531-0.25-1.079-1.016-1.293-1.612
		c-0.214-0.596-0.278-1.535-0.028-2.065C176.857,17.185,177.623,16.638,178.219,16.423L178.219,16.423z"/>
	<path fill="#D3D800" d="M180.93,23.986c0.497-0.178,1.644-0.362,2.086-0.154s1.029,1.211,1.208,1.708s0.362,1.644,0.154,2.085
		c-0.209,0.443-1.211,1.03-1.707,1.208c-0.497,0.179-1.644,0.363-2.086,0.154c-0.442-0.208-1.03-1.21-1.208-1.708
		c-0.178-0.497-0.363-1.643-0.154-2.085C179.431,24.752,180.433,24.165,180.93,23.986L180.93,23.986z"/>
	<path fill="#D3D800" d="M183.641,31.55c0.398-0.143,1.752-0.448,2.106-0.28c0.354,0.167,0.98,1.405,1.123,1.803
		c0.143,0.397,0.448,1.752,0.281,2.106c-0.167,0.354-1.406,0.98-1.805,1.123c-0.396,0.143-1.751,0.447-2.104,0.28
		c-0.354-0.167-0.981-1.406-1.124-1.803s-0.447-1.752-0.28-2.106S183.244,31.692,183.641,31.55L183.641,31.55z"/>
	<path fill="#D3D800" d="M186.352,39.113c0.299-0.107,1.861-0.532,2.127-0.406c0.266,0.125,0.932,1.601,1.038,1.899
		c0.107,0.298,0.532,1.86,0.407,2.126c-0.126,0.265-1.601,0.932-1.9,1.039c-0.297,0.107-1.859,0.531-2.125,0.406
		c-0.266-0.125-0.932-1.601-1.038-1.899c-0.107-0.298-0.532-1.861-0.406-2.126C184.578,39.886,186.054,39.22,186.352,39.113
		L186.352,39.113z"/>
	<path fill="#D3D800" d="M189.063,46.676c0.198-0.072,1.97-0.616,2.146-0.533s0.882,1.796,0.954,1.995
		c0.071,0.199,0.616,1.969,0.533,2.146c-0.084,0.178-1.797,0.884-1.995,0.955c-0.199,0.071-1.971,0.616-2.147,0.532
		c-0.177-0.083-0.882-1.796-0.954-1.994c-0.07-0.199-0.615-1.97-0.531-2.147C187.152,47.452,188.865,46.747,189.063,46.676
		L189.063,46.676z"/>
	<path fill="#D3D800" d="M191.775,54.238c0.099-0.035,2.077-0.701,2.166-0.659c0.088,0.042,0.834,1.992,0.869,2.091
		c0.035,0.1,0.7,2.078,0.659,2.167c-0.042,0.088-1.992,0.834-2.091,0.869c-0.1,0.036-2.078,0.701-2.166,0.659
		c-0.089-0.042-0.835-1.991-0.87-2.091c-0.036-0.1-0.701-2.078-0.659-2.167C189.725,55.02,191.675,54.274,191.775,54.238
		L191.775,54.238z"/>
	<polygon fill="#D3D800" points="198.243,65.39 196.056,66.175 193.869,66.96 193.084,64.773 192.299,62.587 194.486,61.802 
		196.672,61.017 197.458,63.203 198.243,65.39 	"/>
	<path fill="#D3D800" d="M183.034,6.158c-1.392,0.5-2.114,2.032-1.615,3.422c0.25,0.696,0.758,1.224,1.377,1.516
		c0.62,0.292,1.35,0.348,2.046,0.099c0.695-0.25,1.225-0.758,1.516-1.377c0.293-0.619,0.348-1.35,0.099-2.045
		C185.956,6.382,184.424,5.659,183.034,6.158L183.034,6.158z"/>
	<path fill="#D3D800" d="M185.745,13.722c0.596-0.214,1.534-0.278,2.064-0.028c0.531,0.25,1.078,1.016,1.292,1.611
		c0.215,0.596,0.279,1.535,0.028,2.066c-0.25,0.53-1.015,1.079-1.611,1.292c-0.596,0.214-1.534,0.278-2.065,0.028
		c-0.531-0.251-1.078-1.016-1.292-1.612c-0.214-0.596-0.278-1.535-0.028-2.065S185.148,13.936,185.745,13.722L185.745,13.722z"/>
	<path fill="#D3D800" d="M188.456,21.285c0.496-0.178,1.643-0.363,2.086-0.154c0.442,0.208,1.029,1.211,1.207,1.708
		c0.179,0.497,0.363,1.644,0.154,2.086c-0.208,0.442-1.21,1.03-1.707,1.208s-1.644,0.363-2.086,0.154s-1.029-1.211-1.207-1.708
		c-0.18-0.497-0.363-1.644-0.155-2.086C186.957,22.05,187.959,21.463,188.456,21.285L188.456,21.285z"/>
	<path fill="#D3D800" d="M191.167,28.848c0.396-0.143,1.752-0.447,2.105-0.28c0.354,0.167,0.98,1.406,1.123,1.803
		c0.144,0.397,0.447,1.752,0.28,2.106c-0.167,0.354-1.405,0.98-1.803,1.124c-0.397,0.143-1.752,0.447-2.106,0.28
		c-0.354-0.167-0.98-1.406-1.123-1.804s-0.446-1.752-0.279-2.105C189.531,29.617,190.77,28.99,191.167,28.848L191.167,28.848z"/>
	<path fill="#D3D800" d="M193.878,36.411c0.298-0.107,1.861-0.532,2.126-0.407c0.265,0.125,0.932,1.601,1.039,1.899
		c0.107,0.298,0.531,1.861,0.406,2.126c-0.125,0.266-1.602,0.932-1.899,1.039s-1.861,0.531-2.126,0.406s-0.932-1.601-1.039-1.899
		c-0.105-0.298-0.531-1.861-0.406-2.126C192.104,37.184,193.58,36.518,193.878,36.411L193.878,36.411z"/>
	<path fill="#D3D800" d="M196.589,43.974c0.199-0.071,1.969-0.616,2.146-0.533c0.177,0.083,0.883,1.796,0.953,1.996
		c0.072,0.198,0.617,1.969,0.533,2.146c-0.083,0.177-1.796,0.883-1.995,0.954c-0.197,0.071-1.969,0.616-2.146,0.532
		c-0.177-0.083-0.883-1.796-0.954-1.994c-0.072-0.199-0.616-1.97-0.533-2.146C194.678,44.751,196.39,44.045,196.589,43.974
		L196.589,43.974z"/>
	<path fill="#D3D800" d="M199.3,51.536c0.099-0.035,2.078-0.7,2.167-0.659c0.088,0.042,0.834,1.992,0.869,2.091
		c0.036,0.1,0.701,2.079,0.659,2.167c-0.041,0.088-1.991,0.834-2.091,0.87c-0.1,0.035-2.078,0.7-2.166,0.658
		c-0.088-0.041-0.834-1.991-0.87-2.091c-0.035-0.1-0.7-2.078-0.658-2.166C197.251,52.317,199.201,51.572,199.3,51.536L199.3,51.536z
		"/>
	<polygon fill="#D3D800" points="205.768,62.688 203.582,63.473 201.395,64.258 200.61,62.071 199.825,59.885 202.011,59.1 
		204.198,58.314 204.982,60.501 205.768,62.688 	"/>
	<path fill="#1F3F5E" d="M246.048,64.397V26.19h-6.087v37.727c0,8.651-5.527,14.338-13.858,14.338
		c-8.33,0-13.776-5.687-13.776-14.338V26.19h-6.087v38.207c0,11.375,8.33,19.305,19.863,19.305
		C237.638,83.702,246.048,75.772,246.048,64.397L246.048,64.397z"/>
	<path fill="#1F3F5E" d="M48.89,54.706c0-12.095,0-17.702-5.367-23.069c-3.845-3.845-8.891-5.927-14.578-5.927
		s-10.733,2.083-14.578,5.927C9,37.004,9,42.611,9,54.706s0,17.702,5.367,23.068c3.845,3.845,8.891,5.928,14.578,5.928
		s10.733-2.083,14.578-5.928C48.89,72.408,48.89,66.801,48.89,54.706L48.89,54.706z M42.802,54.706
		c0,11.935-0.4,15.779-4.005,19.464c-2.483,2.563-6.088,4.085-9.853,4.085s-7.369-1.521-9.852-4.085
		c-3.604-3.685-4.005-7.529-4.005-19.464s0.401-15.78,4.005-19.464c2.483-2.563,6.087-4.085,9.852-4.085s7.369,1.522,9.853,4.085
		C42.402,38.926,42.802,42.771,42.802,54.706L42.802,54.706z M102.076,42.932c0-10.253-7.209-16.741-17.623-16.741H63.227v57.031
		h6.088v-23.47h15.139C94.867,59.752,102.076,53.184,102.076,42.932L102.076,42.932z M95.988,42.932
		c0,7.528-4.966,11.374-12.095,11.374H69.315V31.637h14.578C91.022,31.637,95.988,35.402,95.988,42.932L95.988,42.932z"/>
	<path fill="#1F3F5E" d="M147.679,83.222L126.772,26.19h-5.126L100.66,83.222h6.488l4.566-12.896h24.911l4.564,12.896H147.679
		L147.679,83.222z M134.863,65.039h-21.308l10.733-30.118L134.863,65.039L134.863,65.039z"/>
	<path fill="#1F3F5E" d="M195.296,83.222L181.76,57.349c7.369-1.521,12.415-6.969,12.415-15.298c0-9.852-6.969-15.86-16.901-15.86
		h-21.866v57.031h6.087V57.91h13.697l12.977,25.312H195.296L195.296,83.222z M188.087,42.13c0,6.968-4.725,10.413-11.374,10.413
		h-15.219V31.637h15.219C183.362,31.637,188.087,35.162,188.087,42.13L188.087,42.13z"/>
</g>
</svg>
