<?xml version="1.0" encoding="UTF-8" standalone="no"?>
<svg
   xmlns:dc="http://purl.org/dc/elements/1.1/"
   xmlns:cc="http://creativecommons.org/ns#"
   xmlns:rdf="http://www.w3.org/1999/02/22-rdf-syntax-ns#"
   xmlns:svg="http://www.w3.org/2000/svg"
   xmlns="http://www.w3.org/2000/svg"
   width="240"
   height="100"
   viewBox="0 0 63.499999 26.458333"
   version="1.1">
  <title>TL;DR</title>
  <metadata>
    <rdf:RDF>
      <cc:Work>
        <dc:format>image/svg+xml</dc:format>
        <dc:type
           rdf:resource="http://purl.org/dc/dcmitype/StillImage" />
        <dc:title>TL;DR</dc:title>
        <dc:source>https://openclipart.org/detail/219323/basura-trash</dc:source>
      </cc:Work>
    </rdf:RDF>
  </metadata>
  <g
     transform="matrix(0.67823872,0,0,0.67823872,-57.183305,-123.71793)">
    <path
       style="fill:#b6bcc6;stroke:none"
       d="m 91.642853,191.7372 h 18.499997 c 1.108,0 2,0.892 2,2 v 22.51786 c 0,1.108 -0.892,2 -2,2 H 91.642853 c -1.108,0 -2,-0.892 -2,-2 V 193.7372 c 0,-1.108 0.892,-2 2,-2 z" />
    <rect
       style="fill:#8993a3;stroke:none"
       width="3.3928571"
       height="17.857143"
       x="99.196426"
       y="197.71935"
       rx="2"
       ry="2" />
    <rect
       ry="2"
       rx="2"
       y="197.71935"
       x="105.19643"
       height="17.857143"
       width="3.3928571"
       style="fill:#8993a3;stroke:none" />
    <rect
       ry="2"
       rx="2"
       y="197.71935"
       x="93.196426"
       height="17.857143"
       width="3.3928571"
       style="fill:#8993a3;stroke:none" />
    <path
       style="fill:#b6bcc6;stroke:none"
       d="m 96.821426,185.57648 h 8.142854 c 1.108,0 2,0.892 2,2 v 4.39285 c 0,1.108 -0.892,2 -2,2 h -0.91517 v -4.55357 c -0.0909,-0.41514 -0.17976,-0.83126 -0.7634,-1 h -4.741071 c -0.415846,0.13967 -0.763878,0.36073 -0.763392,1 v 4.55357 h -0.959821 c -1.108,0 -2,-0.892 -2,-2 v -4.39285 c 0,-1.108 0.892,-2 2,-2 z" />
    <path
       style="fill:#cbd0d9;stroke:none"
       d="m 88.848429,191.46934 h 24.088841 c 0.50965,0 0.78246,0.46334 0.91995,1 l 0.63135,2.46429 c 0.1375,0.53667 -0.4103,1 -0.91995,1 H 88.217084 c -0.509653,0 -1.057444,-0.46333 -0.91995,-1 l 0.631345,-2.46429 c 0.137491,-0.53666 0.410297,-1 0.91995,-1 z" />
    <path
       style="fill:#000000;fill-opacity:0.11764706;stroke:none"
       d="m 89.6735,195.9129 h 22.47122 v 4.28571 H 89.6735 Z" />
    <rect
       style="fill:#000000;fill-opacity:0.15686275;stroke:none"
       width="0.63134533"
       height="14.89975"
       x="95.838226"
       y="199.41464"
       rx="2"
       ry="2" />
    <rect
       ry="2"
       rx="2"
       y="199.41464"
       x="101.83823"
       height="14.89975"
       width="0.63134533"
       style="fill:#000000;fill-opacity:0.15686275;stroke:none" />
    <rect
       style="fill:#000000;fill-opacity:0.15686275;stroke:none"
       width="0.63134533"
       height="14.89975"
       x="107.83823"
       y="199.41464"
       rx="2"
       ry="2" />
  </g>
  <path
     style="fill:#000000;stroke:none"
     d="M 60.913325,12.19359 H 58.323938 L 56.79649,8.25132 h -1.702013 v 3.94227 H 52.766938 V 2.21427 h 4.204118 q 0.567337,0 0.901921,0.0291 0.349131,0.0145 0.829186,0.13092 0.480055,0.11638 0.829186,0.34914 0.610979,0.39277 0.931015,1.07648 0.334584,0.66917 0.334584,1.41107 0,0.85828 -0.465508,1.57109 -0.465508,0.71281 -1.265599,1.00375 z M 58.382126,5.19643 q 0,-1.20742 -1.600183,-1.20742 h -1.687466 v 2.54575 h 1.687466 q 1.600183,0 1.600183,-1.33833 z m -7.084501,1.9784 q 0,2.19662 -1.294693,3.63678 -1.251053,1.38198 -3.622233,1.38198 H 43.09305 V 2.21427 h 2.894877 q 1.294693,0 2.152973,0.2182 0.858281,0.20366 1.614731,0.90192 1.541994,1.45472 1.541994,3.84044 z m -2.400274,-0.0727 q 0,-1.32379 -0.712809,-2.25481 Q 47.806317,4.36727 47.355356,4.20725 46.918942,4.04723 46.220681,4.04723 h -0.800092 v 6.26981 h 0.785545 q 0.785544,0 1.265599,-0.21821 0.494602,-0.2182 0.872827,-0.84373 0.552791,-0.90192 0.552791,-2.15297 z M 41.173008,7.05843 H 38.88911 V 4.80362 h 2.283898 z m 0,4.91692 -1.469259,2.54575 H 38.88911 l 1.134675,-2.32754 H 38.88911 V 9.92421 h 2.283898 z m -3.404026,0.21821 H 31.426438 V 2.21424 h 2.32754 v 8.00091 h 4.015004 z m -7.49189,-8.00092 h -2.502105 v 8.00092 H 25.447448 V 4.19264 H 22.91625 v -1.9784 h 7.360842 z" />
  <path
     d="m 52.587236,21.33845 -0.606423,1.8623 q -0.03521,0.14476 -0.0939,0.28952 -0.05477,0.14867 -0.121285,0.26604 -0.0626,0.11737 -0.191708,0.19171 -0.125197,0.0743 -0.301255,0.0743 -0.08216,0 -0.363854,-0.0274 v -0.44993 q 0.01956,0 0.125197,0.0117 0.109548,0.0156 0.164321,0.0156 0.140847,0 0.207358,-0.0548 0.07042,-0.0509 0.109547,-0.19171 l -0.723795,-1.9875 h 0.622073 l 0.379503,1.18154 0.363854,-1.18154 z m -1.874028,0.54382 h -0.03912 q -0.117372,0 -0.203445,0.043 -0.08607,0.0391 -0.133022,0.10172 -0.04695,0.0626 -0.07434,0.16041 -0.02739,0.0978 -0.03521,0.18388 -0.0078,0.0822 -0.0078,0.19562 v 0.75901 h -0.575124 v -1.9875 h 0.536 v 0.37167 h 0.0078 q 0.113459,-0.4108 0.395152,-0.4108 0.04304,0 0.12911,0.008 z m -1.404587,0.46558 q 0,0.43427 -0.266043,0.7277 -0.262132,0.28952 -0.692496,0.28952 -0.442102,0 -0.692496,-0.29343 -0.250394,-0.29343 -0.250394,-0.74336 0,-0.44601 0.250394,-0.73553 0.250394,-0.29343 0.692496,-0.29343 0.449926,0 0.704233,0.29734 0.254306,0.29344 0.254306,0.75119 z m -0.61816,0.004 q 0,-0.0978 -0.0039,-0.14085 0,-0.043 -0.0078,-0.14084 -0.0078,-0.0978 -0.0313,-0.14868 -0.01956,-0.0548 -0.05477,-0.11737 -0.0313,-0.0665 -0.0939,-0.0939 -0.0626,-0.0313 -0.144759,-0.0313 -0.109547,0 -0.183883,0.0587 -0.07042,0.0587 -0.101722,0.16432 -0.02739,0.10564 -0.03521,0.1878 -0.0078,0.0822 -0.0078,0.19562 0,0.12911 0.0039,0.21127 0.0078,0.0822 0.03521,0.21518 0.02739,0.12911 0.09781,0.19953 0.07433,0.0704 0.187795,0.0704 0.11346,0 0.187795,-0.0587 0.07434,-0.0626 0.105635,-0.17215 0.0313,-0.10954 0.03912,-0.19562 0.0078,-0.0861 0.0078,-0.20344 z m -1.49847,0.97019 q -0.215182,0.043 -0.359941,0.043 -0.395153,0 -0.535999,-0.14867 -0.136934,-0.15258 -0.136934,-0.54774 v -0.87638 h -0.32473 V 21.3345 h 0.348204 l 0.05086,-0.58294 0.500788,-0.0391 v 0.62207 h 0.426452 v 0.45775 H 46.73424 v 0.82552 q 0,0.16041 0.03912,0.2191 0.04304,0.0587 0.19562,0.0587 0.07434,0 0.223007,-0.008 z m -1.604124,-2.16356 h -0.575123 v -0.55557 h 0.575123 z m 0,2.16747 h -0.575123 v -1.9875 h 0.575123 z m -0.915503,-0.63772 q 0,0.34037 -0.262132,0.50861 -0.262131,0.16823 -0.622072,0.16823 -0.766831,0 -0.907678,-0.58686 l 0.496876,-0.0704 q 0.02739,0.14084 0.152583,0.20344 0.125197,0.0626 0.285606,0.0626 0.117372,0 0.230832,-0.043 0.117372,-0.0469 0.117372,-0.14475 0,-0.09 -0.05869,-0.12129 -0.05869,-0.0313 -0.164321,-0.0469 -0.01174,0 -0.03912,-0.004 -0.117372,-0.0156 -0.183883,-0.0235 -0.0626,-0.0117 -0.179971,-0.0352 -0.11346,-0.0274 -0.17997,-0.0548 -0.06651,-0.0274 -0.152584,-0.0783 -0.08607,-0.0509 -0.133022,-0.10955 -0.04695,-0.0626 -0.08216,-0.14867 -0.0313,-0.09 -0.0313,-0.19953 0,-0.33647 0.246482,-0.50079 0.246481,-0.16432 0.60251,-0.16432 0.590773,0 0.782481,0.52035 l -0.426452,0.11346 q -0.07042,-0.26604 -0.387328,-0.26604 -0.297343,0 -0.297343,0.17606 0,0.0861 0.08607,0.13302 0.08998,0.043 0.223007,0.0548 0.133022,0.008 0.285606,0.0391 0.156496,0.0313 0.289518,0.0822 0.133021,0.0509 0.219094,0.18779 0.08999,0.13694 0.08999,0.34821 z M 42.73569,22.34785 q 0,0.43427 -0.266044,0.7277 -0.262131,0.28952 -0.692495,0.28952 -0.442102,0 -0.692496,-0.29343 -0.250394,-0.29343 -0.250394,-0.74336 0,-0.44601 0.250394,-0.73553 0.250394,-0.29343 0.692496,-0.29343 0.449926,0 0.704232,0.29734 0.254307,0.29344 0.254307,0.75119 z m -0.61816,0.004 q 0,-0.0978 -0.0039,-0.14085 0,-0.043 -0.0078,-0.14084 -0.0078,-0.0978 -0.0313,-0.14868 -0.01956,-0.0548 -0.05477,-0.11737 -0.0313,-0.0665 -0.0939,-0.0939 -0.0626,-0.0313 -0.144759,-0.0313 -0.109547,0 -0.183883,0.0587 -0.07042,0.0587 -0.101722,0.16432 -0.02739,0.10564 -0.03521,0.1878 -0.0078,0.0822 -0.0078,0.19562 0,0.12911 0.0039,0.21127 0.0078,0.0822 0.03521,0.21518 0.02739,0.12911 0.09781,0.19953 0.07434,0.0704 0.187796,0.0704 0.113459,0 0.187795,-0.0587 0.07434,-0.0626 0.105635,-0.17215 0.0313,-0.10954 0.03912,-0.19562 0.0078,-0.0861 0.0078,-0.20344 z m -1.510221,-0.37959 q 0.03521,0.16823 0.03521,0.36385 0,0.19562 -0.03912,0.37168 -0.03912,0.17214 -0.121285,0.32473 -0.08216,0.15258 -0.238656,0.24257 -0.152584,0.09 -0.359942,0.09 -0.148671,0 -0.273868,-0.0626 -0.125197,-0.0665 -0.183883,-0.19562 h -0.0078 v 0.88812 h -0.575123 v -2.65652 h 0.539912 v 0.29343 h 0.0078 q 0.156497,-0.33256 0.516438,-0.33256 0.207357,0 0.356029,0.0939 0.152583,0.09 0.230831,0.25039 0.07825,0.1565 0.11346,0.32865 z m -0.567298,0.3482 q 0,-0.61425 -0.305168,-0.61425 -0.0939,0 -0.160409,0.0469 -0.0626,0.047 -0.0939,0.10564 -0.0313,0.0548 -0.05086,0.16432 -0.01565,0.10954 -0.01956,0.17214 0,0.0587 0.0039,0.18389 0.0039,0.12128 0.0039,0.13693 0,0.4421 0.312993,0.4421 0.30908,0 0.30908,-0.63772 z m -1.541521,0.10955 h -1.275444 q 0,0.0196 -0.0039,0.0587 0,0.0391 0,0.0626 0,0.17215 0.105635,0.28952 0.105635,0.11346 0.277781,0.11346 0.136934,0 0.242569,-0.09 0.109547,-0.09 0.109547,-0.223 l 0.532087,0.0391 q 0,0.0822 -0.07825,0.20736 -0.129109,0.23083 -0.344291,0.35603 -0.215183,0.12128 -0.481226,0.12128 -0.442102,0 -0.712058,-0.27778 -0.269956,-0.28169 -0.269956,-0.72771 0,-0.45775 0.258219,-0.759 0.258219,-0.30126 0.708145,-0.30126 0.457752,0 0.692496,0.31299 0.238657,0.313 0.238657,0.7864 z m -0.575124,-0.34038 q -0.02347,-0.41472 -0.332554,-0.41472 -0.336467,0 -0.371679,0.41472 z m -1.557151,1.23632 h -0.696408 l -0.410802,-1.06026 h -0.457752 v 1.06026 h -0.625984 v -2.68391 h 1.130685 q 0.152583,0 0.242569,0.008 0.0939,0.004 0.223007,0.0352 0.129109,0.0313 0.223007,0.0939 0.164321,0.10564 0.250394,0.28952 0.08998,0.17997 0.08998,0.3795 0,0.23084 -0.125197,0.42254 -0.125197,0.19171 -0.340379,0.26996 z m -0.680758,-1.88187 q 0,-0.32473 -0.430365,-0.32473 h -0.453839 v 0.68467 h 0.453839 q 0.430365,0 0.430365,-0.35994 z m -3.075136,1.88187 H 32.03911 q -0.03521,-0.14476 -0.02739,-0.30908 -0.125197,0.17997 -0.273869,0.26604 -0.144759,0.0822 -0.359941,0.0822 -0.277781,0 -0.453839,-0.14476 -0.172146,-0.14867 -0.172146,-0.41862 0,-0.18389 0.08216,-0.31691 0.08216,-0.13693 0.215182,-0.19953 0.133022,-0.0665 0.297343,-0.11346 0.164321,-0.0469 0.328642,-0.0548 0.164321,-0.0117 0.30908,-0.0313 v -0.0469 q 0,-0.17997 -0.05869,-0.26605 -0.05477,-0.09 -0.22692,-0.09 -0.144759,0 -0.246481,0.0743 -0.09781,0.0743 -0.09781,0.21519 l -0.543825,-0.0509 q 0.02739,-0.22692 0.179971,-0.37167 0.156496,-0.14868 0.344292,-0.19954 0.191708,-0.0509 0.422539,-0.0509 0.414715,0 0.629898,0.17997 0.05869,0.0469 0.09781,0.10564 0.03912,0.0587 0.05477,0.11737 0.01565,0.0587 0.02347,0.12911 0.01174,0.0665 0.0078,0.13302 0,0.0626 0,0.13693 v 0.92724 q 0,0.17606 0.03912,0.29735 z m -0.625985,-0.95072 q -0.11346,0.0117 -0.19562,0.0274 -0.07825,0.0156 -0.191708,0.0548 -0.11346,0.0352 -0.176058,0.10955 -0.05869,0.0704 -0.05869,0.17215 0,0.11737 0.06651,0.1917 0.07042,0.0704 0.187796,0.0704 0.183883,0 0.273868,-0.14476 0.0939,-0.14476 0.0939,-0.34038 z m -1.459346,0.94681 q -0.215183,0.043 -0.359941,0.043 -0.395153,0 -0.536,-0.14867 -0.136934,-0.15258 -0.136934,-0.54774 v -0.87638 h -0.32473 V 21.3345 h 0.348204 l 0.05086,-0.58294 0.500787,-0.0391 v 0.62207 h 0.426452 v 0.45775 h -0.426452 v 0.82552 q 0,0.16041 0.03912,0.2191 0.04304,0.0587 0.195621,0.0587 0.07434,0 0.223007,-0.008 z m -1.514134,0.004 h -0.571211 q -0.03521,-0.14476 -0.02739,-0.30908 -0.125197,0.17997 -0.273868,0.26604 -0.144759,0.0822 -0.359941,0.0822 -0.277781,0 -0.453839,-0.14476 -0.172146,-0.14867 -0.172146,-0.41862 0,-0.18389 0.08216,-0.31691 0.08216,-0.13693 0.215183,-0.19953 0.133021,-0.0665 0.297342,-0.11346 0.164321,-0.0469 0.328642,-0.0548 0.164321,-0.0117 0.30908,-0.0313 v -0.0469 q 0,-0.17997 -0.05869,-0.26605 -0.05477,-0.09 -0.226919,-0.09 -0.144759,0 -0.246482,0.0743 -0.09781,0.0743 -0.09781,0.21519 l -0.543824,-0.0509 q 0.02739,-0.22692 0.17997,-0.37167 0.156497,-0.14868 0.344292,-0.19954 0.191708,-0.0509 0.42254,-0.0509 0.414715,0 0.629897,0.17997 0.05869,0.0469 0.09781,0.10564 0.03912,0.0587 0.05477,0.11737 0.01565,0.0587 0.02347,0.12911 0.01174,0.0665 0.0078,0.13302 0,0.0626 0,0.13693 v 0.92724 q 0,0.17606 0.03912,0.29735 z m -0.625985,-0.95072 q -0.11346,0.0117 -0.19562,0.0274 -0.07825,0.0156 -0.191708,0.0548 -0.11346,0.0352 -0.176058,0.10955 -0.05869,0.0704 -0.05869,0.17215 0,0.11737 0.06651,0.1917 0.07042,0.0704 0.187795,0.0704 0.183883,0 0.273868,-0.14476 0.0939,-0.14476 0.0939,-0.34038 z m -1.49064,-0.39906 q 0,0.59077 -0.348204,0.9781 -0.336467,0.37168 -0.974189,0.37168 h -0.884203 v -2.68391 h 0.778568 q 0.348204,0 0.579036,0.0587 0.230832,0.0548 0.434277,0.24257 0.414715,0.39124 0.414715,1.03288 z m -0.645547,-0.0196 q 0,-0.35603 -0.191708,-0.60643 -0.101722,-0.12911 -0.223007,-0.17214 -0.117372,-0.043 -0.305167,-0.043 h -0.215183 v 1.68625 h 0.21127 q 0.21127,0 0.340379,-0.0587 0.133022,-0.0587 0.234745,-0.22692 0.148671,-0.24257 0.148671,-0.57903 z m 29.699455,-4.41707 h -1.275444 q 0,0.0196 -0.0039,0.0587 0,0.0391 0,0.0626 0,0.17214 0.105635,0.28951 0.105635,0.11346 0.277781,0.11346 0.136934,0 0.242569,-0.09 0.109547,-0.09 0.109547,-0.22301 l 0.532087,0.0391 q 0,0.0822 -0.07825,0.20735 -0.129109,0.23083 -0.344291,0.35603 -0.215183,0.12129 -0.481226,0.12129 -0.442102,0 -0.712058,-0.27778 -0.269956,-0.2817 -0.269956,-0.72771 0,-0.45775 0.258219,-0.75901 0.258219,-0.30125 0.708145,-0.30125 0.457752,0 0.692496,0.31299 0.238657,0.31299 0.238657,0.78639 z m -0.575124,-0.34038 q -0.02347,-0.41471 -0.332554,-0.41471 -0.336467,0 -0.371679,0.41471 z m -1.529769,1.23241 q -0.215182,0.043 -0.359941,0.043 -0.395153,0 -0.536,-0.14868 -0.136934,-0.15258 -0.136934,-0.54773 v -0.87638 h -0.324729 v -0.45775 h 0.348204 l 0.05086,-0.58295 0.500788,-0.0391 v 0.62207 h 0.426452 v 0.45775 h -0.426452 v 0.82552 q 0,0.16041 0.03912,0.21909 0.04304,0.0587 0.19562,0.0587 0.07434,0 0.223007,-0.008 z m -1.514134,0.004 h -0.571211 q -0.03521,-0.14476 -0.02739,-0.30908 -0.125197,0.17997 -0.273868,0.26605 -0.144759,0.0822 -0.359941,0.0822 -0.277781,0 -0.453839,-0.14476 -0.172146,-0.14867 -0.172146,-0.41863 0,-0.18388 0.08216,-0.31691 0.08216,-0.13693 0.215183,-0.19953 0.133021,-0.0665 0.297342,-0.11346 0.164321,-0.0469 0.328642,-0.0548 0.164321,-0.0117 0.30908,-0.0313 v -0.0469 q 0,-0.17997 -0.05869,-0.26604 -0.05477,-0.09 -0.226919,-0.09 -0.144759,0 -0.246482,0.0743 -0.09781,0.0743 -0.09781,0.21518 l -0.543824,-0.0509 q 0.02739,-0.22692 0.179971,-0.37168 0.156496,-0.14867 0.344291,-0.19953 0.191708,-0.0509 0.42254,-0.0509 0.414715,0 0.629897,0.17997 0.05869,0.0469 0.09781,0.10563 0.03912,0.0587 0.05477,0.11737 0.01565,0.0587 0.02347,0.12911 0.01174,0.0665 0.0078,0.13303 0,0.0626 0,0.13693 v 0.92724 q 0,0.17606 0.03912,0.29734 z m -0.625985,-0.95071 q -0.113459,0.0117 -0.19562,0.0274 -0.07825,0.0156 -0.191708,0.0548 -0.113459,0.0352 -0.176058,0.10955 -0.05869,0.0704 -0.05869,0.17214 0,0.11737 0.06651,0.19171 0.07042,0.0704 0.187795,0.0704 0.183883,0 0.273869,-0.14476 0.0939,-0.14476 0.0939,-0.34038 z m -1.545428,0.95071 h -0.575124 v -1.20129 q 0,-0.12519 -0.01174,-0.18779 -0.0078,-0.0665 -0.07042,-0.11737 -0.05869,-0.0548 -0.176058,-0.0548 -0.08607,0 -0.144759,0.0391 -0.05869,0.0352 -0.08607,0.0782 -0.02739,0.0391 -0.04304,0.1252 -0.01174,0.0861 -0.01565,0.12911 0,0.043 0,0.13693 v 1.05244 h -0.575124 v -1.18937 q 0,-0.17606 -0.05086,-0.27387 -0.05086,-0.10172 -0.207357,-0.10172 -0.07434,0 -0.12911,0.0196 -0.05086,0.0196 -0.08216,0.0704 -0.02739,0.0469 -0.04695,0.0822 -0.01565,0.0313 -0.02347,0.11346 -0.0078,0.0822 -0.0078,0.10954 0,0.0274 0,0.11737 v 1.05244 h -0.575124 v -1.9875 h 0.547737 v 0.30517 h 0.0078 q 0.148671,-0.34429 0.551649,-0.34429 0.367766,0 0.543824,0.34429 0.07434,-0.16824 0.226919,-0.25431 0.156497,-0.09 0.352117,-0.09 0.29343,0 0.442101,0.1604 0.152584,0.1565 0.152584,0.44993 z M 46.91819,16.26815 h -0.575124 v -0.55556 h 0.575124 z m 0,2.16747 h -0.575124 v -1.9875 h 0.575124 z m -0.899872,-0.004 q -0.215182,0.043 -0.359941,0.043 -0.395153,0 -0.536,-0.14868 -0.136934,-0.15258 -0.136934,-0.54773 v -0.87638 h -0.32473 v -0.45775 h 0.348204 l 0.05086,-0.58295 0.500787,-0.0391 v 0.62207 h 0.426453 v 0.45775 h -0.426453 v 0.82552 q 0,0.16041 0.03912,0.21909 0.04304,0.0587 0.19562,0.0587 0.07434,0 0.223007,-0.008 z M 44.414194,16.26806 H 43.83907 V 15.7125 h 0.575124 z m 0,2.16747 H 43.83907 v -1.9875 h 0.575124 z m -0.774647,-1.94055 q -0.125197,-0.0196 -0.152584,-0.0196 -0.08999,0 -0.156496,0.0469 -0.0626,0.043 -0.07434,0.12519 0.156497,0.17215 0.156497,0.38733 0,0.29734 -0.242569,0.45384 -0.238657,0.1565 -0.551649,0.1565 -0.04695,0 -0.42254,-0.0313 -0.09781,0.0548 -0.09781,0.14476 0,0.11346 0.113459,0.15258 0.09781,0.0313 0.293431,0.0391 0.199532,0.008 0.379503,0.0156 0.179971,0.008 0.356029,0.047 0.176058,0.0352 0.281693,0.1565 0.105635,0.11737 0.105635,0.32082 0,0.1604 -0.08216,0.28169 -0.08216,0.1252 -0.203445,0.19171 -0.117372,0.0665 -0.281693,0.10563 -0.164321,0.043 -0.301255,0.0548 -0.133022,0.0117 -0.281693,0.0117 -1.02505,0 -1.02505,-0.46166 0,-0.14085 0.09781,-0.23475 0.101723,-0.0939 0.246482,-0.12519 -0.254307,-0.12911 -0.254307,-0.35603 0,-0.16432 0.105635,-0.26605 0.109548,-0.10172 0.293431,-0.17605 -0.352117,-0.13303 -0.352117,-0.48514 0,-0.16823 0.08607,-0.29343 0.08607,-0.12911 0.223007,-0.19562 0.140847,-0.0704 0.289518,-0.10172 0.152584,-0.0313 0.312992,-0.0313 0.281694,0 0.528175,0.0861 0.02739,-0.22301 0.125197,-0.30517 0.101722,-0.0822 0.32473,-0.0822 0.02739,0 0.08607,0.008 0.05869,0.008 0.07434,0.008 z m -0.802043,0.52426 q 0,-0.14085 -0.101722,-0.21518 -0.09781,-0.0783 -0.242569,-0.0783 -0.136935,0 -0.22692,0.0822 -0.08998,0.0782 -0.08998,0.21518 0,0.14476 0.08607,0.22301 0.08607,0.0783 0.230832,0.0783 0.148671,0 0.246481,-0.0783 0.09781,-0.0822 0.09781,-0.22692 z m 0.242569,1.57279 q 0,-0.1252 -0.21127,-0.13694 l -0.778568,-0.0313 q -0.125197,0.0469 -0.125197,0.16041 0,0.0782 0.07434,0.1252 0.07825,0.0509 0.17997,0.0587 0.101723,0.0117 0.207358,0.0156 0.105635,0.008 0.164321,0 0.48905,0 0.48905,-0.19171 z m -1.764528,-1.05244 h -1.275444 q 0,0.0196 -0.0039,0.0587 0,0.0391 0,0.0626 0,0.17214 0.105635,0.28951 0.105635,0.11346 0.277781,0.11346 0.136934,0 0.242569,-0.09 0.109547,-0.09 0.109547,-0.22301 l 0.532087,0.0391 q 0,0.0822 -0.07825,0.20735 -0.129109,0.23083 -0.344292,0.35603 -0.215182,0.12129 -0.481225,0.12129 -0.442102,0 -0.712058,-0.27778 -0.269956,-0.2817 -0.269956,-0.72771 0,-0.45775 0.258219,-0.75901 0.258219,-0.30125 0.708145,-0.30125 0.457751,0 0.692496,0.31299 0.238656,0.31299 0.238656,0.78639 z m -0.575123,-0.34038 q -0.02348,-0.41471 -0.332554,-0.41471 -0.336467,0 -0.371679,0.41471 z m -1.443678,1.23632 h -1.705808 v -2.68391 h 0.625985 v 2.15182 h 1.079823 z m -3.141656,-1.9875 -0.606423,1.8623 q -0.03521,0.14476 -0.0939,0.28952 -0.05477,0.14867 -0.121285,0.26605 -0.0626,0.11737 -0.191708,0.1917 -0.125197,0.0743 -0.301255,0.0743 -0.08216,0 -0.363854,-0.0274 v -0.44992 q 0.01956,0 0.125197,0.0117 0.109548,0.0156 0.164321,0.0156 0.140847,0 0.207358,-0.0548 0.07042,-0.0509 0.109547,-0.19171 l -0.723795,-1.9875 h 0.622073 l 0.379503,1.18155 0.363854,-1.18155 z m -2.0697,1.9875 h -0.575124 v -2.68391 h 0.575124 z m -1.017263,0 h -0.575124 v -2.68391 h 0.575124 z m -0.927273,0 H 31.56964 q -0.03521,-0.14476 -0.02739,-0.30908 -0.125197,0.17997 -0.273869,0.26605 -0.144759,0.0822 -0.359941,0.0822 -0.277781,0 -0.453839,-0.14476 -0.172146,-0.14867 -0.172146,-0.41863 0,-0.18388 0.08216,-0.31691 0.08216,-0.13693 0.215182,-0.19953 0.133022,-0.0665 0.297343,-0.11346 0.164321,-0.0469 0.328642,-0.0548 0.164321,-0.0117 0.30908,-0.0313 v -0.0469 q 0,-0.17997 -0.05869,-0.26604 -0.05477,-0.09 -0.22692,-0.09 -0.144759,0 -0.246481,0.0743 -0.09781,0.0743 -0.09781,0.21518 l -0.543825,-0.0509 q 0.02739,-0.22692 0.179971,-0.37168 0.156496,-0.14867 0.344292,-0.19953 0.191707,-0.0509 0.422539,-0.0509 0.414715,0 0.629897,0.17997 0.05869,0.0469 0.09781,0.10563 0.03912,0.0587 0.05477,0.11737 0.01565,0.0587 0.02347,0.12911 0.01174,0.0665 0.0078,0.13303 0,0.0626 0,0.13693 v 0.92724 q 0,0.17606 0.03913,0.29734 z m -0.625985,-0.95071 q -0.11346,0.0117 -0.19562,0.0274 -0.07825,0.0156 -0.191708,0.0548 -0.11346,0.0352 -0.176058,0.10955 -0.05869,0.0704 -0.05869,0.17214 0,0.11737 0.06651,0.19171 0.07042,0.0704 0.187796,0.0704 0.183883,0 0.273868,-0.14476 0.0939,-0.14476 0.0939,-0.34038 z m -1.459346,0.9468 q -0.215183,0.043 -0.359942,0.043 -0.395152,0 -0.535999,-0.14868 -0.136934,-0.15258 -0.136934,-0.54773 v -0.87638 h -0.32473 v -0.45775 h 0.348204 l 0.05086,-0.58295 0.500787,-0.0391 v 0.62207 h 0.426452 v 0.45775 h -0.426452 v 0.82552 q 0,0.16041 0.03912,0.21909 0.04304,0.0587 0.195621,0.0587 0.07434,0 0.223007,-0.008 z m -1.482835,-0.97419 q 0,0.43428 -0.266044,0.72771 -0.262131,0.28952 -0.692495,0.28952 -0.442102,0 -0.692496,-0.29343 -0.250394,-0.29343 -0.250394,-0.74336 0,-0.44602 0.250394,-0.73553 0.250394,-0.29343 0.692496,-0.29343 0.449926,0 0.704233,0.29734 0.254306,0.29343 0.254306,0.75118 z m -0.61816,0.004 q 0,-0.0978 -0.0039,-0.14084 0,-0.043 -0.0078,-0.14085 -0.0078,-0.0978 -0.0313,-0.14867 -0.01956,-0.0548 -0.05477,-0.11737 -0.0313,-0.0665 -0.0939,-0.0939 -0.0626,-0.0313 -0.144759,-0.0313 -0.109547,0 -0.183883,0.0587 -0.07042,0.0587 -0.101722,0.16432 -0.02739,0.10563 -0.03521,0.18779 -0.0078,0.0822 -0.0078,0.19562 0,0.12911 0.0039,0.21127 0.0078,0.0822 0.03521,0.21518 0.02739,0.12911 0.09781,0.19954 0.07434,0.0704 0.187796,0.0704 0.113459,0 0.187795,-0.0587 0.07434,-0.0626 0.105635,-0.17214 0.0313,-0.10955 0.03912,-0.19562 0.0078,-0.0861 0.0078,-0.20345 z m -1.471098,-1.17772 h -0.672933 v 2.15182 H 25.18451 v -2.15182 h -0.680758 v -0.53209 h 1.979676 z"
     style="fill:#000000;stroke:none" />
</svg>
