<?xml version="1.0" encoding="UTF-8" standalone="no"?>
<svg
   xmlns:dc="http://purl.org/dc/elements/1.1/"
   xmlns:cc="http://creativecommons.org/ns#"
   xmlns:rdf="http://www.w3.org/1999/02/22-rdf-syntax-ns#"
   xmlns:svg="http://www.w3.org/2000/svg"
   xmlns="http://www.w3.org/2000/svg"
   width="666"
   height="94.630"
   viewBox="0 0 186.2125 26.458333"
   version="1.1">
  <title>TL;DR</title>
  <metadata>
    <rdf:RDF>
      <cc:Work>
        <dc:format>image/svg+xml</dc:format>
        <dc:type
           rdf:resource="http://purl.org/dc/dcmitype/StillImage" />
        <dc:title>TL;DR</dc:title>
        <dc:source>https://openclipart.org/detail/219323/basura-trash</dc:source>
      </cc:Work>
    </rdf:RDF>
  </metadata>
  <g transform="matrix(0.67823872,0,0,0.67823872,-57.183305,-123.65091)">
    <path
       style="fill:#b6bcc6;stroke:none"
       d="m 91.642853,191.7372 h 18.499997 c 1.108,0 2,0.892 2,2 v 22.51786 c 0,1.108 -0.892,2 -2,2 H 91.642853 c -1.108,0 -2,-0.892 -2,-2 V 193.7372 c 0,-1.108 0.892,-2 2,-2 z" />
    <rect
       style="fill:#8993a3;stroke:none"
       width="3.3928571"
       height="17.857143"
       x="99.196426"
       y="197.71935"
       rx="2"
       ry="2" />
    <rect
       ry="2"
       rx="2"
       y="197.71935"
       x="105.19643"
       height="17.857143"
       width="3.3928571"
       style="fill:#8993a3;stroke:none" />
    <rect
       ry="2"
       rx="2"
       y="197.71935"
       x="93.196426"
       height="17.857143"
       width="3.3928571"
       style="fill:#8993a3;stroke:none" />
    <path
       style="fill:#b6bcc6;stroke:none"
       d="m 96.821426,185.57648 h 8.142854 c 1.108,0 2,0.892 2,2 v 4.39285 c 0,1.108 -0.892,2 -2,2 h -0.91517 v -4.55357 c -0.0909,-0.41514 -0.17976,-0.83126 -0.7634,-1 h -4.741071 c -0.415846,0.13967 -0.763878,0.36073 -0.763392,1 v 4.55357 h -0.959821 c -1.108,0 -2,-0.892 -2,-2 v -4.39285 c 0,-1.108 0.892,-2 2,-2 z" />
    <path
       style="fill:#cbd0d9;stroke:none"
       d="m 88.848429,191.46934 h 24.088841 c 0.50965,0 0.78246,0.46334 0.91995,1 l 0.63135,2.46429 c 0.1375,0.53667 -0.4103,1 -0.91995,1 H 88.217084 c -0.509653,0 -1.057444,-0.46333 -0.91995,-1 l 0.631345,-2.46429 c 0.137491,-0.53666 0.410297,-1 0.91995,-1 z" />
    <path
       style="fill:#000000;fill-opacity:0.11764706;stroke:none"
       d="m 89.6735,195.9129 h 22.47122 v 4.28571 H 89.6735 Z" />
    <rect
       style="fill:#000000;fill-opacity:0.15686275;stroke:none"
       width="0.63134533"
       height="14.89975"
       x="95.838226"
       y="199.41464"
       rx="2"
       ry="2" />
    <rect
       ry="2"
       rx="2"
       y="199.41464"
       x="101.83823"
       height="14.89975"
       width="0.63134533"
       style="fill:#000000;fill-opacity:0.15686275;stroke:none" />
    <rect
       style="fill:#000000;fill-opacity:0.15686275;stroke:none"
       width="0.63134533"
       height="14.89975"
       x="107.83823"
       y="199.41464"
       rx="2"
       ry="2"/>
  </g>
  <path
     transform="translate(5)"
     style="fill:#ffffff;stroke:none"
     d="M 92.456902,21.325422 H 87.790036 L 85.037109,14.22025 h -3.067546 v 7.105172 H 77.774627 V 3.3396432 h 7.577103 q 1.022515,0 1.625537,0.052447 0.629241,0.026134 1.494446,0.2359577 0.865205,0.2097523 1.494446,0.6292568 1.10117,0.7078913 1.677973,1.9401452 0.603022,1.2060485 0.603022,2.5431785 0,1.5468826 -0.838986,2.8315846 -0.838988,1.2847 -2.280997,1.809063 z M 87.894908,8.7144049 q 0,-2.176139 -2.884017,-2.176139 h -3.041328 v 4.5882191 h 3.041328 q 2.884017,0 2.884017,-2.4120801 z M 75.126477,12.280086 q 0,3.95898 -2.333431,6.554587 -2.254779,2.490749 -6.528369,2.490749 H 60.339332 V 3.3396432 h 5.21745 q 2.333432,0 3.880315,0.3932629 1.546883,0.3670574 2.910237,1.6255349 2.779143,2.6218491 2.779143,6.921645 z m -4.326025,-0.131027 q 0,-2.3858743 -1.284699,-4.0638563 Q 68.834076,7.2200062 68.021307,6.9316014 67.234755,6.6431965 65.976276,6.6431965 h -1.44201 V 17.943307 h 1.415791 q 1.41579,0 2.280996,-0.393281 0.891424,-0.393263 1.573101,-1.520658 0.996298,-1.625536 0.996298,-3.880309 z M 56.87883,12.070298 H 52.762549 V 8.0064415 h 4.116281 z m 0,8.861789 -2.648053,4.588217 h -1.468228 l 2.04503,-4.194936 h -2.04503 v -4.090061 h 4.116281 z m -6.135093,0.393281 H 39.312538 V 3.3395891 h 4.194937 V 17.75967 h 7.236262 z M 37.241066,6.9052692 H 32.73151 V 21.325368 H 28.536574 V 6.9052692 h -4.56199 V 3.3395891 h 13.266482 z" />
  <path
     transform="translate(10)"
     d="m 164.42296,16.849106 -1.45619,4.471913 q -0.0845,0.347613 -0.22549,0.695222 -0.13152,0.357002 -0.29124,0.638839 -0.15035,0.281841 -0.46035,0.460353 -0.30064,0.178427 -0.7234,0.178427 -0.19729,0 -0.87371,-0.0658 v -1.080412 q 0.047,0 0.30062,0.0281 0.26307,0.03747 0.39459,0.03747 0.33822,0 0.49794,-0.131587 0.16909,-0.122232 0.26305,-0.460351 l -1.73804,-4.772569 h 1.49378 l 0.91128,2.837217 0.87372,-2.837217 z m -4.50008,1.305866 h -0.0939 q -0.28184,0 -0.48853,0.103271 -0.20666,0.09388 -0.31942,0.24426 -0.11273,0.150311 -0.17852,0.38519 -0.0658,0.234846 -0.0845,0.441548 -0.0188,0.197388 -0.0188,0.469742 v 1.822599 h -1.38092 v -4.772565 h 1.2871 v 0.892485 h 0.0188 q 0.27244,-0.986448 0.94886,-0.986448 0.10327,0 0.31005,0.01922 z m -3.37282,1.117991 q 0,1.042808 -0.63884,1.747416 -0.62945,0.695221 -1.66288,0.695221 -1.06161,0 -1.66288,-0.704607 -0.60128,-0.704611 -0.60128,-1.785022 0,-1.070999 0.60128,-1.766218 0.60127,-0.704608 1.66288,-0.704608 1.0804,0 1.69107,0.713998 0.61065,0.704634 0.61065,1.80382 z m -1.48438,0.0097 q 0,-0.234845 -0.009,-0.33822 0,-0.103257 -0.0188,-0.338198 -0.0188,-0.234847 -0.0752,-0.357024 -0.0469,-0.1316 -0.13152,-0.281838 -0.0752,-0.159684 -0.22547,-0.225482 -0.15031,-0.07517 -0.3476,-0.07517 -0.26307,0 -0.44156,0.140958 -0.1691,0.140957 -0.24427,0.394579 -0.0658,0.253673 -0.0846,0.450962 -0.0188,0.197387 -0.0188,0.469741 0,0.310029 0.009,0.50732 0.0188,0.197382 0.0846,0.51671 0.0658,0.310029 0.23487,0.479126 0.17848,0.169056 0.45095,0.169056 0.27245,0 0.45096,-0.140958 0.17852,-0.15033 0.25364,-0.413381 0.0752,-0.263036 0.094,-0.46974 0.0188,-0.206751 0.0188,-0.48852 z m -3.59825,2.329703 q -0.51671,0.103258 -0.86432,0.103258 -0.94887,0 -1.28709,-0.357001 -0.32882,-0.36639 -0.32882,-1.315282 v -2.104557 h -0.77976 v -1.099188 h 0.83613 l 0.12219,-1.399805 1.20254,-0.09389 v 1.493769 h 1.02403 v 1.099188 h -1.02402 v 1.982312 q 0,0.385189 0.0939,0.52612 0.10341,0.140958 0.46974,0.140958 0.17852,0 0.53551,-0.01921 z m -3.85197,-5.195452 h -1.38103 v -1.334055 h 1.38103 z m 0,5.204716 h -1.38103 v -4.772556 h 1.38103 z m -2.19837,-1.531348 q 0,0.817327 -0.62946,1.221319 -0.62946,0.403967 -1.49377,0.403967 -1.84139,0 -2.1796,-1.409218 l 1.19314,-0.169056 q 0.0658,0.338198 0.36639,0.488515 0.30064,0.150313 0.68583,0.150313 0.28184,0 0.5543,-0.103231 0.28184,-0.112585 0.28184,-0.347587 0,-0.216115 -0.14094,-0.291253 -0.14094,-0.07517 -0.39458,-0.112585 -0.0283,0 -0.094,-0.0097 -0.28184,-0.03747 -0.44156,-0.05643 -0.1503,-0.0281 -0.43216,-0.08455 -0.27245,-0.0658 -0.43216,-0.131587 -0.15972,-0.0658 -0.3664,-0.188022 -0.20667,-0.122233 -0.31941,-0.263059 -0.11274,-0.150313 -0.1973,-0.357001 -0.0752,-0.216116 -0.0752,-0.479129 0,-0.807961 0.59186,-1.202542 0.59187,-0.394578 1.44681,-0.394578 1.41861,0 1.87895,1.249509 l -1.02403,0.272477 q -0.16909,-0.638836 -0.93008,-0.638836 -0.714,0 -0.714,0.422771 0,0.206749 0.20667,0.319418 0.21607,0.103257 0.5355,0.131587 0.31943,0.01921 0.68583,0.09388 0.37579,0.07517 0.69521,0.197388 0.31942,0.122246 0.52611,0.450937 0.2161,0.328831 0.2161,0.836153 z m -4.65051,-0.817352 q 0,1.042809 -0.63885,1.747417 -0.62946,0.695221 -1.66289,0.695221 -1.06161,0 -1.66288,-0.704607 -0.60126,-0.704611 -0.60126,-1.785022 0,-1.070999 0.60126,-1.766218 0.60127,-0.704609 1.66288,-0.704609 1.08041,0 1.69107,0.713999 0.61067,0.704633 0.61067,1.803819 z m -1.48439,0.0097 q 0,-0.234846 -0.009,-0.33822 0,-0.103257 -0.0188,-0.338199 -0.0188,-0.234847 -0.0752,-0.357023 -0.047,-0.1316 -0.13152,-0.281838 -0.0752,-0.159685 -0.22548,-0.225482 -0.15034,-0.07517 -0.34762,-0.07517 -0.26305,0 -0.44155,0.140959 -0.16909,0.140957 -0.24427,0.394579 -0.0658,0.253672 -0.0846,0.450962 -0.0188,0.197387 -0.0188,0.46974 0,0.310029 0.009,0.50732 0.0188,0.197383 0.0846,0.516711 0.0658,0.310029 0.23487,0.479126 0.17852,0.169056 0.45095,0.169056 0.27245,0 0.45094,-0.140958 0.17852,-0.15033 0.25368,-0.413381 0.0752,-0.263037 0.0939,-0.469741 0.0188,-0.20675 0.0188,-0.488519 z m -3.62647,-0.911539 q 0.0846,0.403968 0.0846,0.873707 0,0.469744 -0.094,0.892512 -0.0939,0.413359 -0.29123,0.779769 -0.1973,0.36639 -0.57309,0.582482 -0.3664,0.216112 -0.86432,0.216112 -0.35701,0 -0.65764,-0.150312 -0.30063,-0.159667 -0.44156,-0.46974 h -0.0188 v 2.132631 h -1.38103 v -6.379141 h 1.29648 v 0.704607 h 0.0188 q 0.3758,-0.79857 1.24013,-0.79857 0.49792,0 0.85492,0.225481 0.36639,0.216117 0.55429,0.601257 0.18791,0.375802 0.27245,0.789184 z m -1.36224,0.836129 q 0,-1.474992 -0.73279,-1.474992 -0.22549,0 -0.3852,0.112625 -0.1503,0.112865 -0.22547,0.253672 -0.0752,0.1316 -0.12219,0.394582 -0.0376,0.263036 -0.0469,0.413357 0,0.140958 0.009,0.441572 0.009,0.291227 0.009,0.328807 0,1.061608 0.75158,1.061608 0.74219,0 0.74219,-1.531346 z m -3.70163,0.263047 h -3.06271 q 0,0.04708 -0.009,0.140958 0,0.09388 0,0.150312 0,0.413383 0.25366,0.695221 0.25366,0.272451 0.66703,0.272451 0.32882,0 0.58247,-0.216117 0.26307,-0.216118 0.26307,-0.535485 l 1.27769,0.09388 q 0,0.197387 -0.18791,0.497932 -0.31002,0.554288 -0.82674,0.854928 -0.51672,0.29123 -1.15556,0.29123 -1.06161,0 -1.70986,-0.66703 -0.64824,-0.676417 -0.64824,-1.74744 0,-1.099189 0.62006,-1.822577 0.62006,-0.723412 1.70046,-0.723412 1.09919,0 1.66288,0.751579 0.57308,0.751603 0.57308,1.88837 z m -1.38104,-0.817348 q -0.0564,-0.995864 -0.79856,-0.995864 -0.80796,0 -0.89251,0.995864 z m -3.73917,2.968758 h -1.67228 l -0.98645,-2.545989 h -1.09919 v 2.545989 h -1.50317 v -6.444916 h 2.7151 q 0.3664,0 0.58248,0.01921 0.22548,0.0096 0.5355,0.08452 0.31003,0.07516 0.5355,0.225481 0.39459,0.253671 0.60127,0.69522 0.21607,0.432161 0.21607,0.911288 0,0.554316 -0.30063,1.01464 -0.30064,0.460348 -0.81735,0.648252 z m -1.63469,-4.518978 q 0,-0.779771 -1.03343,-0.779771 h -1.0898 v 1.64409 h 1.0898 q 1.03343,0 1.03343,-0.864319 z m -7.38429,4.518908 h -1.37164 q -0.0846,-0.347609 -0.0658,-0.74219 -0.30063,0.432161 -0.65763,0.638838 -0.34761,0.197387 -0.86432,0.197387 -0.66704,0 -1.0898,-0.34761 -0.41337,-0.356998 -0.41337,-1.005226 0,-0.441572 0.19729,-0.760991 0.19729,-0.328809 0.51671,-0.479131 0.31942,-0.159665 0.714,-0.27245 0.39459,-0.112612 0.78917,-0.131587 0.39458,-0.0281 0.74219,-0.07518 v -0.112585 q 0,-0.43216 -0.14094,-0.638866 -0.13154,-0.216114 -0.5449,-0.216114 -0.34761,0 -0.59187,0.178411 -0.23487,0.17841 -0.23487,0.516735 L 112.131,18.248803 q 0.0658,-0.5449 0.43216,-0.892488 0.37579,-0.357023 0.82674,-0.479153 0.46035,-0.122219 1.01464,-0.122219 0.99585,0 1.51256,0.43216 0.14095,0.112612 0.23487,0.253673 0.094,0.140958 0.13154,0.281838 0.0376,0.140958 0.0563,0.310029 0.0282,0.159684 0.0188,0.319421 0,0.150313 0,0.328808 v 2.22657 q 0,0.422769 0.0939,0.71402 z m -1.50317,-2.282951 q -0.27245,0.0281 -0.46974,0.0658 -0.18791,0.03747 -0.46034,0.1316 -0.27245,0.08451 -0.42277,0.263063 -0.14094,0.169056 -0.14094,0.41338 0,0.281839 0.15972,0.460328 0.16909,0.169056 0.45096,0.169056 0.44155,0 0.65763,-0.34761 0.22548,-0.347609 0.22548,-0.81735 z m -3.5043,2.273561 q -0.51672,0.103257 -0.86433,0.103257 -0.94887,0 -1.28709,-0.357 -0.32881,-0.366387 -0.32881,-1.315282 V 17.93875 h -0.77977 v -1.09919 h 0.83614 l 0.12213,-1.399805 1.20254,-0.09389 v 1.493769 h 1.02403 v 1.099188 H 110.346 v 1.982311 q 0,0.385189 0.0939,0.526122 0.10335,0.140958 0.46974,0.140958 0.17852,0 0.53551,-0.01921 z m -3.63588,0.0097 h -1.37164 q -0.0846,-0.347609 -0.0658,-0.742186 -0.30064,0.43216 -0.65764,0.638838 -0.34761,0.197383 -0.86432,0.197383 -0.66703,0 -1.0898,-0.34761 -0.41337,-0.356998 -0.41337,-1.005226 0,-0.441572 0.19729,-0.760991 0.19729,-0.328807 0.51672,-0.479127 0.31942,-0.159667 0.714,-0.272453 0.39458,-0.112611 0.78916,-0.131587 0.39459,-0.0281 0.74219,-0.07518 v -0.112585 q 0,-0.432156 -0.14094,-0.638861 -0.13153,-0.216114 -0.54489,-0.216114 -0.34761,0 -0.59188,0.17841 -0.23487,0.17841 -0.23487,0.516732 l -1.30588,-0.122233 q 0.0658,-0.5449 0.43216,-0.892486 0.3758,-0.357024 0.82675,-0.479154 0.46034,-0.122233 1.01463,-0.122233 0.99586,0 1.51257,0.432161 0.14094,0.112611 0.23487,0.253674 0.0939,0.140957 0.13153,0.281838 0.0376,0.140958 0.0563,0.310029 0.0282,0.159684 0.0188,0.319421 0,0.15033 0,0.328807 v 2.226569 q 0,0.42277 0.0939,0.714023 z m -1.50316,-2.282938 q -0.27245,0.0281 -0.46974,0.0658 -0.18791,0.03747 -0.46035,0.131587 -0.27245,0.08454 -0.42276,0.263063 -0.14094,0.169056 -0.14094,0.413383 0,0.281838 0.15972,0.460325 0.16909,0.169056 0.45094,0.169056 0.44156,0 0.65764,-0.347611 0.22548,-0.347608 0.22548,-0.817348 z m -3.57946,-0.958291 q 0,1.418609 -0.83614,2.348698 -0.80795,0.89251 -2.339312,0.89251 h -2.123223 v -6.444941 h 1.869563 q 0.836142,0 1.390432,0.140955 0.5543,0.131587 1.04283,0.58248 0.99585,0.939479 0.99585,2.48024 z m -1.55014,-0.04708 q 0,-0.854931 -0.46035,-1.456214 -0.24427,-0.310034 -0.53551,-0.413361 -0.281842,-0.103244 -0.732792,-0.103244 h -0.516716 v 4.04917 h 0.50732 q 0.507319,0 0.817348,-0.140977 0.31943,-0.140958 0.56369,-0.5449 0.35701,-0.582477 0.35701,-1.390414 z m 71.3169,-10.6066523 h -3.06271 q 0,0.047066 -0.0107,0.1409547 0,0.09389 0,0.1503213 0,0.4133573 0.25366,0.6951964 0.25367,0.2724498 0.66705,0.2724498 0.32882,0 0.58247,-0.2161155 0.26305,-0.216116 0.26305,-0.5355112 l 1.27769,0.093891 q 0,0.1973859 -0.18779,0.497907 -0.31004,0.5542888 -0.82675,0.85493 -0.51673,0.2912521 -1.15555,0.2912521 -1.06161,0 -1.70987,-0.6670294 -0.64823,-0.6764424 -0.64823,-1.7474401 0,-1.0991891 0.62006,-1.8226006 0.62004,-0.7233875 1.70045,-0.7233875 1.0992,0 1.66288,0.7515786 0.57307,0.7515784 0.57307,1.8883478 z m -1.38103,-0.8173495 q -0.0564,-0.9958377 -0.79857,-0.9958377 -0.80793,0 -0.89249,0.9958377 z m -3.67343,2.9593694 q -0.51672,0.103256 -0.86431,0.103256 -0.94887,0 -1.28709,-0.3570231 -0.32883,-0.3663887 -0.32883,-1.3152571 V 6.1955116 h -0.77975 V 5.0963225 h 0.83613 l 0.12219,-1.3998302 1.20255,-0.093891 v 1.493769 h 1.02403 v 1.099189 h -1.02403 v 1.9823103 q 0,0.3851903 0.0939,0.5260978 0.10327,0.1409547 0.46972,0.1409547 0.17861,0 0.53554,-0.019211 z m -3.63585,0.00959 h -1.37165 q -0.0846,-0.3476066 -0.0658,-0.7421861 -0.30063,0.4321598 -0.65764,0.6388626 -0.34759,0.1973855 -0.86431,0.1973855 -0.66702,0 -1.08979,-0.3476102 -0.41339,-0.3569993 -0.41339,-1.0052508 0,-0.4415482 0.1973,-0.7609915 0.1973,-0.3288082 0.51672,-0.4791286 0.31942,-0.1596841 0.71401,-0.27245 0.39457,-0.1126183 0.78915,-0.1315922 0.39457,-0.028095 0.74219,-0.07516 V 6.7878279 q 0,-0.4321595 -0.14094,-0.6388383 -0.13152,-0.2161156 -0.54491,-0.2161156 -0.34761,0 -0.59187,0.1784155 -0.23487,0.1784156 -0.23487,0.5167087 l -1.30589,-0.1222244 q 0.0658,-0.5449002 0.43217,-0.8925102 0.37579,-0.3569995 0.82673,-0.4791287 0.46035,-0.1222258 1.01464,-0.1222258 0.99586,0 1.51256,0.4321599 0.14094,0.1126183 0.2349,0.2536476 0.0939,0.1409547 0.13152,0.2818392 0.0377,0.1409547 0.0564,0.31003 0.0282,0.1596841 0.0188,0.319443 0,0.1503213 0,0.3288083 v 2.2265688 q 0,0.4227708 0.094,0.7139985 z m -1.50318,-2.2829181 q -0.27245,0.028095 -0.46974,0.065795 -0.18791,0.037461 -0.46035,0.1315922 -0.27245,0.084526 -0.42276,0.2630609 -0.14094,0.1690509 -0.14094,0.4133572 0,0.2818391 0.15976,0.4603509 0.16908,0.1690509 0.45094,0.1690509 0.44157,0 0.65764,-0.3476103 Q 162.3,8.4036341 162.3,7.9338945 Z m -3.71101,2.2829338 H 157.2079 V 6.993939 q 0,-0.300617 -0.0282,-0.4509373 -0.0188,-0.1596843 -0.16911,-0.2818392 -0.1409,-0.1315921 -0.42277,-0.1315921 -0.20667,0 -0.3476,0.093892 -0.14094,0.084526 -0.20667,0.187781 -0.0658,0.093891 -0.10341,0.3006412 -0.0282,0.2067505 -0.0376,0.3100298 0,0.103256 0,0.3288081 v 2.5272086 h -1.38102 V 7.021913 q 0,-0.4227703 -0.12219,-0.6576404 -0.12219,-0.2442586 -0.49793,-0.2442586 -0.17851,0 -0.31003,0.047066 -0.1222,0.047066 -0.19728,0.1690509 -0.0658,0.1126183 -0.11274,0.1973858 -0.0376,0.07516 -0.0564,0.2724499 -0.0188,0.1973855 -0.0188,0.2630368 0,0.065793 0,0.2818388 v 2.5272102 h -1.38092 V 5.1054951 h 1.31528 v 0.7328011 h 0.0188 q 0.35699,-0.8267392 1.32466,-0.8267392 0.88312,0 1.30589,0.8267392 0.17852,-0.4039926 0.54489,-0.6106713 0.3758,-0.2161159 0.84553,-0.2161159 0.70461,0 1.06161,0.3851665 0.36639,0.3758013 0.36639,1.0804106 z m -7.779,-5.2047216 h -1.38103 V 3.3398054 h 1.38103 z m 0,5.2047167 h -1.38103 V 5.1060237 h 1.38103 z m -2.16085,-0.00959 q -0.51671,0.103256 -0.86431,0.103256 -0.94888,0 -1.28709,-0.3570234 -0.32883,-0.3663985 -0.32883,-1.3152667 V 6.1955115 h -0.77976 v -1.099189 h 0.83613 l 0.12219,-1.3998302 1.20254,-0.093891 v 1.4937692 h 1.02403 v 1.0991896 h -1.02403 V 8.17787 q 0,0.3851903 0.0939,0.526098 0.1034,0.1409546 0.46973,0.1409546 0.17852,0 0.53551,-0.019211 z M 144.79715,4.6736416 H 143.4161 V 3.3395891 h 1.38105 z m 0,5.2047169 H 143.4161 V 5.1058077 h 1.38105 z m -1.86016,-4.6598103 q -0.30063,-0.047066 -0.3664,-0.047066 -0.2161,0 -0.37578,0.1126223 -0.15034,0.1032559 -0.17852,0.3006169 0.3758,0.4133816 0.3758,0.9300903 0,0.7139986 -0.58249,1.0897999 -0.57308,0.3758016 -1.32466,0.3758016 -0.11273,0 -1.01464,-0.07516 -0.23487,0.1315921 -0.23487,0.3476099 0,0.2724502 0.27245,0.3663885 0.23487,0.075158 0.70461,0.093891 0.47913,0.019211 0.91129,0.037459 0.43216,0.019211 0.85493,0.1128608 0.42277,0.084526 0.67643,0.375801 0.25366,0.2818393 0.25366,0.7703806 0,0.385167 -0.1973,0.676418 -0.19729,0.300641 -0.48853,0.460351 -0.28184,0.159684 -0.67642,0.253648 -0.39458,0.103256 -0.72339,0.131592 -0.31943,0.0281 -0.67643,0.0281 -2.46144,0 -2.46144,-1.108578 0,-0.338221 0.23487,-0.5637015 0.24427,-0.2254809 0.59187,-0.3006171 -0.61067,-0.3100292 -0.61067,-0.8549294 0,-0.3945791 0.25367,-0.6388619 0.26305,-0.2442592 0.7046,-0.4227467 -0.84553,-0.3194423 -0.84553,-1.1649593 0,-0.4039685 0.20668,-0.7046095 0.20669,-0.31003 0.5355,-0.4697399 0.33822,-0.1690507 0.69522,-0.2442589 0.3664,-0.07516 0.75158,-0.07516 0.67643,0 1.2683,0.2067506 0.0658,-0.5355109 0.30064,-0.7328007 0.24427,-0.1973858 0.77977,-0.1973858 0.0658,0 0.20667,0.019211 0.14094,0.019211 0.17852,0.019211 z m -1.92593,1.2588982 q 0,-0.338221 -0.24427,-0.5167088 -0.23487,-0.1880201 -0.58247,-0.1880201 -0.32883,0 -0.5449,0.1973853 -0.21607,0.1877808 -0.21607,0.5167089 0,0.3476102 0.20668,0.535511 0.20667,0.1880205 0.55429,0.1880205 0.35701,0 0.59188,-0.1880205 0.23486,-0.197386 0.23486,-0.5449001 z m 0.58248,3.7767196 q 0,-0.3006412 -0.50733,-0.3288323 l -1.86956,-0.075161 q -0.30063,0.1126183 -0.30063,0.3851903 0,0.187782 0.17852,0.300642 0.1879,0.122226 0.43215,0.140954 0.24427,0.0281 0.49793,0.03746 0.25367,0.01921 0.39458,0 1.17436,0 1.17436,-0.46035 z M 137.3564,7.7269557 h -3.0627 q 0,0.047066 -0.009,0.1409547 0,0.09389 0,0.1503213 0,0.4133573 0.25366,0.6951964 0.25366,0.2724498 0.66703,0.2724498 0.32882,0 0.58247,-0.2161155 0.26306,-0.216116 0.26306,-0.5355112 l 1.27769,0.093891 q 0,0.1973859 -0.18789,0.497907 -0.31002,0.5542888 -0.82675,0.85493 -0.51671,0.2912521 -1.15555,0.2912521 -1.06161,0 -1.70985,-0.6670294 -0.64825,-0.6764424 -0.64825,-1.7474401 0,-1.0991891 0.62006,-1.8226006 0.62,-0.7233866 1.7004,-0.7233866 1.09918,0 1.66288,0.7515785 0.57308,0.7515787 0.57308,1.8883478 z m -1.38103,-0.8173495 q -0.0564,-0.9958377 -0.79856,-0.9958377 -0.80796,0 -0.89251,0.9958377 z m -3.46668,2.9687583 h -4.09614 v -6.444837 h 1.50316 v 5.1671364 h 2.59298 z m -7.54403,-4.7725568 -1.45619,4.4719158 q -0.0846,0.3476102 -0.22548,0.6952205 -0.13154,0.356999 -0.29124,0.638862 -0.15033,0.281839 -0.46035,0.460327 -0.30063,0.178415 -0.7234,0.178415 -0.19729,0 -0.87372,-0.06579 v -1.080392 q 0.047,0 0.30064,0.02809 0.26306,0.03746 0.39458,0.03746 0.33821,0 0.49793,-0.131592 0.16911,-0.122224 0.26305,-0.4603503 l -1.73804,-4.7725559 h 1.49378 l 0.91129,2.83724 0.87372,-2.83724 z m -4.96994,4.7725568 h -1.38104 v -6.444837 h 1.38104 z m -2.44274,0 h -1.38104 v -6.444837 h 1.38104 z m -2.22665,0 h -1.37164 q -0.0846,-0.3476102 -0.0658,-0.7421897 -0.30063,0.4321597 -0.65764,0.6388625 -0.34761,0.1973854 -0.86432,0.1973854 -0.66703,0 -1.0898,-0.3476102 -0.41337,-0.3569991 -0.41337,-1.0052504 0,-0.4415485 0.19729,-0.7609917 0.19729,-0.328808 0.51671,-0.4791288 0.31943,-0.1596842 0.71401,-0.2724498 0.39458,-0.1126209 0.78916,-0.1315921 0.39459,-0.028094 0.74219,-0.07516 v -0.112622 q 0,-0.4321591 -0.14094,-0.6388379 -0.13153,-0.2161158 -0.5449,-0.2161158 -0.3476,0 -0.59187,0.1784155 -0.23487,0.1784156 -0.23487,0.5167087 l -1.30587,-0.1222244 q 0.0658,-0.5449003 0.43216,-0.8925103 0.37579,-0.3569996 0.82675,-0.4791288 0.46034,-0.1222244 1.01463,-0.1222244 0.99585,0 1.51257,0.4321597 0.14094,0.1126183 0.23487,0.2536477 0.0939,0.1409545 0.13153,0.2818391 0.0376,0.1409547 0.0563,0.3100302 0.0282,0.1596843 0.0188,0.319443 0,0.1503213 0,0.3288083 v 2.2265695 q 0,0.4227706 0.094,0.7139986 z m -1.50317,-2.282927 q -0.27244,0.028094 -0.46974,0.065793 -0.18791,0.037461 -0.46034,0.1315922 -0.27245,0.084526 -0.42277,0.2630609 -0.14094,0.1690509 -0.14094,0.4133572 0,0.281839 0.15972,0.4603511 0.16909,0.1690508 0.45095,0.1690508 0.44156,0 0.65764,-0.3476102 0.22548,-0.3476103 0.22548,-0.8173498 z m -3.5043,2.2735381 q -0.51672,0.103256 -0.86433,0.103256 -0.94887,0 -1.28709,-0.3570231 -0.32881,-0.3663891 -0.32881,-1.3152574 V 6.1955115 h -0.77977 v -1.099189 h 0.83614 l 0.12214,-1.3998302 1.20253,-0.093891 v 1.493769 h 1.02403 v 1.0991882 h -1.02404 v 1.98231 q 0,0.3851902 0.094,0.5260977 0.10335,0.1409547 0.46974,0.1409547 0.17852,0 0.5355,-0.019211 z m -3.56072,-2.3393093 q 0,1.0428304 -0.63884,1.7474402 -0.62945,0.6952203 -1.66288,0.6952203 -1.06162,0 -1.66288,-0.7046095 -0.60127,-0.7046093 -0.60127,-1.7850203 0,-1.0710217 0.60127,-1.7662182 0.60126,-0.7046097 1.66288,-0.7046097 1.0804,0 1.69106,0.7139988 0.61066,0.7046096 0.61066,1.8037984 z m -1.48437,0.00959 q 0,-0.2348457 -0.009,-0.3381971 0,-0.103256 -0.0188,-0.3382215 -0.0188,-0.2348455 -0.0752,-0.3569988 -0.047,-0.1315922 -0.13153,-0.2818391 -0.0752,-0.1596842 -0.22548,-0.225481 -0.15032,-0.07516 -0.34761,-0.07516 -0.26305,0 -0.44156,0.1409546 -0.16909,0.1409547 -0.24426,0.3945795 -0.0658,0.253648 -0.0846,0.4509377 -0.0188,0.1973857 -0.0188,0.4697397 0,0.3100299 0.009,0.5073197 0.0188,0.1973857 0.0846,0.5167087 0.0658,0.3100302 0.23487,0.4791527 0.17852,0.1690509 0.45095,0.1690509 0.27245,0 0.45095,-0.1409547 0.17852,-0.1503213 0.25366,-0.4133573 0.0752,-0.2630611 0.0939,-0.4697398 0.0188,-0.2067508 0.0188,-0.4885418 z m -3.53253,-2.8280282 h -1.61592 V 9.8783645 H 98.621153 V 4.7112281 H 96.986459 V 3.4335275 h 4.753781 z"
     style="fill:#ffffff;stroke:none" />
</svg>
