<?xml version="1.0" encoding="UTF-8"?>
<!-- Generator: Adobe Illustrator 12.0.1, SVG Export Plug-In . SVG Version: 6.00 Build 51448)  -->
<!DOCTYPE svg PUBLIC "-//W3C//DTD SVG 1.0//EN" "http://www.w3.org/TR/2001/REC-SVG-20010904/DTD/svg10.dtd" [
	<!ENTITY ns_svg "http://www.w3.org/2000/svg">
	<!ENTITY ns_xlink "http://www.w3.org/1999/xlink">
]>
<svg version="1.0" id="Ebene_1" xmlns="http://www.w3.org/2000/svg" xmlns:xlink="http://www.w3.org/1999/xlink" width="500.212" height="250" viewBox="0 -13.2745 500.212 250" overflow="visible" enable-background="new 0 0 500.212 223.451" xml:space="preserve">
<g>
	<path d="M20.496,87.846c0,5.76-3.216,9.504-10.56,9.504C2.688,97.35,0,93.653,0,87.846V64.373c0-0.384,0.192-0.575,0.576-0.575   H3.36c0.384,0,0.576,0.191,0.576,0.575V87.75c0,3.936,1.536,6.384,6.048,6.384c4.416,0,6.576-2.016,6.576-6.384V64.373   c0-0.384,0.192-0.575,0.576-0.575h2.784c0.384,0,0.576,0.191,0.576,0.575V87.846z"/>
	<path d="M45.84,96.102c0,0.384-0.192,0.576-0.576,0.576h-2.496c-0.384,0-0.576-0.192-0.576-0.576V80.069   c0-2.063-0.528-3.888-3.12-3.888c-3.12,0-5.136,1.872-6.336,2.928v16.992c0,0.384-0.192,0.576-0.576,0.576h-2.496   c-0.384,0-0.576-0.192-0.576-0.576v-16.56c0-1.584,0-2.112-0.192-2.832c-0.384-1.44-0.768-1.776-0.768-2.017   c0-0.096,0.048-0.191,0.24-0.336l2.16-1.2c0.096-0.048,0.24-0.191,0.384-0.191c0.864,0,1.44,2.88,1.488,3.264   c1.584-1.248,4.08-3.264,7.728-3.264c5.328,0,5.712,3.744,5.712,7.2V96.102z"/>
	<path d="M60.24,96.102c0,0.384-0.192,0.576-0.576,0.576h-2.496c-0.384,0-0.576-0.192-0.576-0.576V76.613h-3.744   c-0.384,0-0.576-0.191-0.576-0.576v-1.823c0-0.385,0.192-0.576,0.576-0.576h6.768c0.528,0,0.624,0.288,0.624,0.72V96.102z    M58.176,68.117c-1.632,0-2.928-1.296-2.928-2.928s1.296-2.928,2.928-2.928c1.632,0,2.928,1.344,2.928,2.928   S59.808,68.117,58.176,68.117z"/>
	<path d="M77.952,96.582c-0.144,0.336-0.192,0.432-0.624,0.432h-1.872c-0.432,0-0.48-0.192-0.576-0.432l-8.064-21.889   c0-0.096-0.096-0.191-0.096-0.336c0-0.191,0.096-0.24,0.432-0.336l2.352-0.624c0.144,0,0.288-0.096,0.48-0.096   s0.192,0.191,0.336,0.384l5.328,15.601c0.336,1.008,0.624,2.111,0.864,3.023h0.096c0.24-1.152,0.432-1.824,0.864-2.976   l5.664-15.648c0.144-0.192,0.144-0.384,0.336-0.384c0.192,0,0.336,0.096,0.48,0.096l2.352,0.624   c0.336,0.096,0.432,0.145,0.432,0.336c0,0.145-0.096,0.24-0.096,0.336L77.952,96.582z"/>
	<path d="M107.952,94.47c0.048,0.144,0.144,0.24,0.144,0.384c0,0.528-4.032,2.496-7.584,2.496   c-6.384-0.048-10.128-4.896-10.128-12.192c0-7.056,3.552-12.191,9.504-12.191c8.016,0,8.736,7.775,8.736,11.904   c0,0.672,0,1.056-0.528,1.056H94.32c0,2.928,1.152,8.208,6.624,8.208c3.12,0,5.616-1.968,5.904-1.968   c0.144,0,0.192,0.144,0.288,0.288L107.952,94.47z M104.688,82.949c0-2.496-0.816-7.008-4.992-7.008   c-4.416,0-5.376,4.608-5.376,7.008H104.688z"/>
	<path d="M119.615,96.102c0,0.384-0.192,0.576-0.576,0.576h-2.496c-0.384,0-0.576-0.192-0.576-0.576V79.638   c0-0.864-0.144-2.448-0.816-3.648c-0.384-0.672-0.528-1.056-0.528-1.199c0.048-0.288,0.24-0.433,0.336-0.48l1.776-1.104   c0.192-0.144,0.384-0.239,0.48-0.239c0.864,0,1.68,2.976,1.872,4.032c1.248-1.345,2.976-4.032,5.76-4.032   c1.104,0,2.352,0.384,2.352,0.815c0,0.097-0.096,0.24-0.144,0.385L126,76.613c-0.048,0.097-0.096,0.336-0.288,0.336   c-0.24,0-0.672-0.432-1.584-0.432c-1.68,0-3.36,2.496-4.512,3.744V96.102z"/>
	<path d="M143.278,76.806c-0.192,0.384-0.288,0.576-0.576,0.576c-0.336,0-2.352-1.296-4.848-1.296c-1.92,0-3.552,0.96-3.552,3.168   c0,5.279,10.656,3.792,10.656,11.279c0,4.513-3.552,6.816-7.68,6.816c-2.304,0-7.296-1.344-7.296-2.304   c0-0.24,0.096-0.384,0.192-0.576l0.672-1.488c0.144-0.336,0.288-0.432,0.432-0.432c0.432,0,2.928,1.68,6.192,1.68   c2.064,0,3.84-1.151,3.84-3.456c0-4.992-10.656-3.888-10.656-11.136c0-3.888,3.024-6.672,7.248-6.672   c1.632,0,4.416,0.768,5.664,1.439c0.384,0.192,0.528,0.385,0.528,0.624c0,0.145-0.144,0.288-0.192,0.48L143.278,76.806z"/>
	<path d="M157.39,96.102c0,0.384-0.192,0.576-0.576,0.576h-2.496c-0.384,0-0.576-0.192-0.576-0.576V76.613h-3.744   c-0.384,0-0.576-0.191-0.576-0.576v-1.823c0-0.385,0.192-0.576,0.576-0.576h6.768c0.528,0,0.624,0.288,0.624,0.72V96.102z    M155.326,68.117c-1.632,0-2.928-1.296-2.928-2.928s1.296-2.928,2.928-2.928c1.632,0,2.928,1.344,2.928,2.928   S156.958,68.117,155.326,68.117z"/>
	<path d="M179.662,94.901c0.048,0.192,0.096,0.336,0.096,0.48c0,0.624-3.6,1.968-6.192,1.968c-2.064,0-3.792-0.768-4.512-1.68   c-1.392-1.488-1.392-3.648-1.392-5.424V76.613h-3.6c-0.336,0-0.336-0.336-0.336-0.576v-1.823c0-0.336,0-0.576,0.336-0.576h3.6   v-6.576c0-0.288,0.192-0.48,0.528-0.576l2.544-0.72c0.144,0,0.24-0.048,0.336-0.048c0.24,0,0.24,0.239,0.24,0.527v7.393h7.104   c0.288,0,0.528,0.048,0.528,0.336c0,0.096-0.048,0.192-0.048,0.336l-0.624,1.872c-0.096,0.24-0.336,0.432-0.624,0.432h-6.336   v13.633c0,1.92,0,3.888,2.88,3.888c2.256,0,4.176-1.296,4.608-1.296c0.192,0,0.336,0.144,0.336,0.288L179.662,94.901z"/>
	<path d="M199.534,89.094c0,3.024,0.144,3.456,0.576,4.8c0.192,0.576,0.864,1.488,0.864,1.776c0,0.191-0.24,0.288-0.432,0.384   l-1.872,1.152c-0.192,0.096-0.288,0.144-0.384,0.144c-0.72,0-1.584-2.544-1.824-3.216c-0.576,0.528-2.928,3.216-6.912,3.216   c-3.792,0-6.24-2.496-6.24-6.768c0-8.112,9.6-8.257,12.576-8.353v-1.728c0-2.784-0.864-4.32-4.272-4.32   c-3.216,0-5.424,1.536-5.856,1.536c-0.144,0-0.288-0.096-0.336-0.24l-0.624-1.68c-0.096-0.24-0.144-0.384-0.144-0.624   c0-0.816,4.416-2.208,7.488-2.208c5.52,0,7.392,2.688,7.392,6.72V89.094z M187.293,69.029c-1.392,0-2.544-1.151-2.544-2.544   c0-1.392,1.152-2.544,2.544-2.544c1.44,0,2.544,1.152,2.544,2.544C189.837,67.878,188.733,69.029,187.293,69.029z M195.886,85.206   c-2.112,0.048-8.976,0.048-8.976,5.088c0,1.92,1.056,4.08,3.504,4.08c2.496,0,4.704-2.305,5.472-2.977V85.206z M196.75,63.941   c1.392,0,2.544,1.152,2.544,2.544c0,1.393-1.152,2.544-2.544,2.544s-2.544-1.151-2.544-2.544   C194.206,65.094,195.357,63.941,196.75,63.941z"/>
	<path d="M221.373,94.901c0.048,0.192,0.096,0.336,0.096,0.48c0,0.624-3.6,1.968-6.192,1.968c-2.064,0-3.792-0.768-4.512-1.68   c-1.392-1.488-1.392-3.648-1.392-5.424V76.613h-3.6c-0.336,0-0.336-0.336-0.336-0.576v-1.823c0-0.336,0-0.576,0.336-0.576h3.6   v-6.576c0-0.288,0.192-0.48,0.528-0.576l2.544-0.72c0.144,0,0.24-0.048,0.336-0.048c0.24,0,0.24,0.239,0.24,0.527v7.393h7.104   c0.288,0,0.528,0.048,0.528,0.336c0,0.096-0.048,0.192-0.048,0.336l-0.624,1.872c-0.096,0.24-0.336,0.432-0.624,0.432h-6.336   v13.633c0,1.92,0,3.888,2.88,3.888c2.256,0,4.176-1.296,4.608-1.296c0.192,0,0.336,0.144,0.336,0.288L221.373,94.901z"/>
	<path d="M60.046,148.014c-0.288,0.192-0.48,0.336-0.672,0.336s-0.432-0.191-0.624-0.432l-12.048-15.889h-0.096v15.072   c0,0.384-0.192,0.576-0.576,0.576h-2.784c-0.384,0-0.576-0.192-0.576-0.576v-31.729c0-0.384,0.192-0.575,0.576-0.575h2.784   c0.384,0,0.576,0.191,0.576,0.575v15.744h0.096l12.24-16.607c0.096-0.097,0.288-0.385,0.576-0.385c0.192,0,0.288,0.145,0.576,0.337   l1.536,1.056c0.24,0.192,0.432,0.288,0.432,0.479c0,0.145-0.192,0.385-0.288,0.528L50.59,131.357l11.472,14.4   c0.096,0.144,0.24,0.288,0.24,0.384c0,0.192-0.096,0.384-0.336,0.528L60.046,148.014z"/>
	<path d="M75.166,148.35c-6.48,0-9.264-5.231-9.264-12.096c0-6.624,2.784-12.288,9.744-12.288c6.576,0,9.36,5.28,9.36,12.048   C85.006,142.733,82.174,148.35,75.166,148.35z M81.07,135.966c0-4.704-1.296-9.024-5.616-9.024c-4.32,0-5.616,4.128-5.616,8.88   c0,5.473,1.248,9.553,5.664,9.553C79.774,145.374,81.07,141.485,81.07,135.966z"/>
	<path d="M109.678,147.102c0,0.384-0.192,0.576-0.576,0.576h-2.496c-0.384,0-0.576-0.192-0.576-0.576v-16.032   c0-2.063-0.528-3.888-3.12-3.888c-3.12,0-5.136,1.872-6.336,2.928v16.992c0,0.384-0.192,0.576-0.576,0.576h-2.496   c-0.384,0-0.576-0.192-0.576-0.576v-16.56c0-1.584,0-2.112-0.192-2.832c-0.384-1.44-0.768-1.776-0.768-2.017   c0-0.096,0.048-0.191,0.24-0.336l2.16-1.2c0.096-0.048,0.24-0.191,0.384-0.191c0.864,0,1.44,2.88,1.488,3.264   c1.584-1.248,4.08-3.264,7.728-3.264c5.328,0,5.712,3.744,5.712,7.2V147.102z"/>
	<path d="M129.071,127.806c-0.192,0.384-0.288,0.576-0.576,0.576c-0.336,0-2.352-1.296-4.848-1.296c-1.92,0-3.552,0.96-3.552,3.168   c0,5.279,10.656,3.792,10.656,11.279c0,4.513-3.552,6.816-7.68,6.816c-2.304,0-7.296-1.344-7.296-2.304   c0-0.24,0.096-0.384,0.192-0.576l0.672-1.488c0.144-0.336,0.288-0.432,0.432-0.432c0.432,0,2.928,1.68,6.192,1.68   c2.064,0,3.84-1.151,3.84-3.456c0-4.992-10.656-3.888-10.656-11.136c0-3.888,3.024-6.672,7.248-6.672   c1.632,0,4.416,0.768,5.664,1.439c0.384,0.192,0.528,0.385,0.528,0.624c0,0.145-0.144,0.288-0.192,0.48L129.071,127.806z"/>
	<path d="M150.814,145.901c0.048,0.192,0.096,0.336,0.096,0.48c0,0.624-3.6,1.968-6.192,1.968c-2.064,0-3.792-0.768-4.512-1.68   c-1.392-1.488-1.392-3.648-1.392-5.424v-13.633h-3.6c-0.336,0-0.336-0.336-0.336-0.576v-1.823c0-0.336,0-0.576,0.336-0.576h3.6   v-6.576c0-0.288,0.192-0.48,0.528-0.576l2.544-0.72c0.144,0,0.24-0.048,0.336-0.048c0.24,0,0.24,0.239,0.24,0.527v7.393h7.104   c0.288,0,0.528,0.048,0.528,0.336c0,0.096-0.048,0.192-0.048,0.336l-0.624,1.872c-0.096,0.24-0.336,0.432-0.624,0.432h-6.336   v13.633c0,1.92,0,3.888,2.88,3.888c2.256,0,4.176-1.296,4.608-1.296c0.192,0,0.336,0.144,0.336,0.288L150.814,145.901z"/>
	<path d="M170.686,140.094c0,3.024,0.144,3.456,0.576,4.8c0.192,0.576,0.864,1.488,0.864,1.776c0,0.191-0.24,0.288-0.432,0.384   l-1.872,1.152c-0.192,0.096-0.288,0.144-0.384,0.144c-0.72,0-1.584-2.544-1.824-3.216c-0.576,0.528-2.928,3.216-6.912,3.216   c-3.792,0-6.24-2.496-6.24-6.768c0-8.112,9.6-8.257,12.576-8.353v-1.728c0-2.784-0.864-4.32-4.272-4.32   c-3.216,0-5.424,1.536-5.856,1.536c-0.144,0-0.288-0.096-0.336-0.24l-0.624-1.68c-0.096-0.24-0.144-0.384-0.144-0.624   c0-0.816,4.416-2.208,7.488-2.208c5.52,0,7.392,2.688,7.392,6.72V140.094z M167.038,136.206c-2.112,0.048-8.976,0.048-8.976,5.088   c0,1.92,1.056,4.08,3.504,4.08c2.496,0,4.704-2.305,5.472-2.977V136.206z"/>
	<path d="M196.702,147.102c0,0.384-0.192,0.576-0.576,0.576h-2.496c-0.384,0-0.576-0.192-0.576-0.576v-16.032   c0-2.063-0.528-3.888-3.12-3.888c-3.12,0-5.136,1.872-6.336,2.928v16.992c0,0.384-0.192,0.576-0.576,0.576h-2.496   c-0.384,0-0.576-0.192-0.576-0.576v-16.56c0-1.584,0-2.112-0.192-2.832c-0.384-1.44-0.768-1.776-0.768-2.017   c0-0.096,0.048-0.191,0.24-0.336l2.16-1.2c0.096-0.048,0.24-0.191,0.384-0.191c0.864,0,1.44,2.88,1.488,3.264   c1.584-1.248,4.08-3.264,7.728-3.264c5.328,0,5.712,3.744,5.712,7.2V147.102z"/>
	<path d="M208.222,144.558h11.856c0.432,0,0.672,0.048,0.672,0.192c0,0.144-0.096,0.288-0.192,0.527l-0.864,1.969   c-0.144,0.384-0.336,0.432-0.624,0.432h-14.976c-0.48,0-0.528-0.048-0.528-0.576v-1.92l12.048-17.424h-10.512   c-0.384,0-0.576-0.192-0.576-0.576v-1.968c0-0.48,0.096-0.576,0.576-0.576h14.496c0.48,0,0.576,0.096,0.576,0.576v1.968   L208.222,144.558z"/>
</g>
<path d="M499.515,0H277.458h-0.697v0.697v222.057v0.697h0.697h222.057h0.697v-0.697V0.697V0H499.515z M498.817,138.785h-26.361  v-26.361h26.361V138.785z M332.274,209.572v9.047c-2.484-4.843-7.514-8.066-13.182-8.066s-10.696,3.224-13.181,8.066v-9.047H332.274  z M333.669,209.572h26.363v9.047c-2.484-4.843-7.513-8.066-13.181-8.066c-5.669,0-10.698,3.224-13.183,8.066V209.572z   M361.427,29.757l24.756,16.505h-24.756V29.757z M471.062,74.02h-26.363V57.515l12.795,8.53l0.387,0.258l0.387-0.258l12.795-8.53  V74.02z M471.062,111.029h-26.363v-8.674h-1.395v5.525l-8.705-23.214h36.463V111.029z M373.479,167.936l-12.052,24.106v-24.106  H373.479z M360.032,192.042l-12.052-24.106h12.052V192.042z M359.601,194.299h-25.5l12.751-25.5L359.601,194.299z M374.607,168.799  l12.749,25.5h-25.498L374.607,168.799z M375.736,167.936h12.052v24.106L375.736,167.936z M389.183,167.936h7.858v26.363h-7.858  V167.936z M346.154,27.757h-12.485v-7.857h12.485V27.757z M332.274,27.151l-10.878-7.252h10.878V27.151z M332.274,28.827v8.183  h-26.362V11.252L332.274,28.827z M333.669,29.757l10.88,7.253h-10.88V29.757z M332.274,38.404v7.858h-26.362v-7.858H332.274z   M332.274,47.657v7.857h-26.362v-7.857H332.274z M374.607,64.626l-11.576-7.718h23.152L374.607,64.626z M360.032,64.767h-12.483  v-7.858h12.483V64.767z M346.154,64.767h-12.485v-7.858h12.485V64.767z M319.093,64.626l-11.576-7.718h23.153L319.093,64.626z   M318.706,66.044l0.387,0.258l0.387-0.258l12.795-8.53V74.02h-26.362V57.515L318.706,66.044z M333.669,66.162h26.363v7.858h-26.363  V66.162z M361.427,57.515l12.794,8.53l0.387,0.258l0.387-0.258l12.794-8.53V74.02h-26.361V57.515z M443.304,74.02h-12.484v-7.858  h12.484V74.02z M434.075,83.271l-2.946-7.857h12.175v7.857H434.075z M452.557,152.664h-7.858V140.18h7.858V152.664z M453.951,140.18  h7.858v12.484h-7.858V140.18z M429.425,162.613v3.928h-3.232v-12.482h7.859v12.482h-3.232v-3.928H429.425z M401.667,162.613v3.928  h-3.231v-12.482h7.858v12.482h-3.232v-3.928H401.667z M389.183,140.18h7.858v12.484h-7.858V140.18z M398.436,140.18h7.858v12.484  h-7.858V140.18z M389.183,75.414h26.364v7.857h-26.364V75.414z M416.941,75.414h12.174l-2.946,7.857h-9.228V75.414z   M426.192,138.785v-26.361h7.859v26.361H426.192z M434.052,140.18v12.484h-7.859V140.18H434.052z M426.285,111.029l3.837-30.688  l3.837,30.688H426.285z M428.694,80.511l-3.815,30.518h-7.628L428.694,80.511z M424.798,112.424v26.361h-7.856v-26.361H424.798z   M424.798,140.18v12.484h-7.856V140.18H424.798z M415.547,152.664h-7.858V140.18h7.858V152.664z M407.688,154.059h7.858v12.482  h-7.858V154.059z M416.941,154.059h7.856v12.482h-7.856V154.059z M435.446,154.059h7.857v12.482h-7.857V154.059z M444.698,154.059  h7.858v12.482h-7.858V154.059z M443.304,152.664h-7.857V140.18h7.857V152.664z M435.446,138.785v-26.361h7.857v26.361H435.446z   M435.365,111.029L431.55,80.51l11.444,30.519H435.365z M429.425,74.02h-12.483v-7.858h12.483V74.02z M415.547,74.02h-26.364v-7.858  h26.364V74.02z M387.788,75.414v7.857h-26.361v-7.857H387.788z M387.788,84.666v7.858h-26.361v-7.858H387.788z M387.788,101.777  h-26.361v-7.858h26.361V101.777z M361.427,103.171h26.361v7.857h-26.361V103.171z M389.183,84.666h36.464l-8.705,23.214v-5.525  h-1.395v8.674h-26.364V84.666z M415.547,112.424v26.361h-7.858v-8.674h-1.395v8.674h-7.858v-8.674h-1.395v8.674h-7.858v-26.361  H415.547z M389.183,154.059h7.858v12.482h-7.858V154.059z M398.436,167.936h3.231v22.436h1.395v-22.436h3.232v26.363h-7.858V167.936  z M407.688,167.936h7.858v26.363h-7.858V167.936z M416.941,167.936h7.856v26.363h-7.856V167.936z M426.192,167.936h3.232v22.436  h1.395v-22.436h3.232v26.363h-7.859V167.936z M435.446,167.936h7.857v26.363h-7.857V167.936z M444.698,167.936h7.858v26.363h-7.858  V167.936z M453.951,167.936h3.231v22.436h1.395v-22.436h3.232v26.363h-7.858V167.936z M458.577,166.541v-3.928h-1.395v3.928h-3.231  v-12.482h7.858v12.482H458.577z M463.204,154.059h7.857v12.482h-7.857V154.059z M472.456,140.18h12.051l-12.051,24.104V140.18z   M471.062,152.664h-7.857V140.18h7.857V152.664z M463.204,138.785v-8.674h-1.395v8.674h-7.858v-8.674h-1.395v8.674h-7.858v-26.361  h26.363v26.361H463.204z M444.698,83.271v-7.857h26.363v7.857H444.698z M457.88,64.626l-11.577-7.718h23.154L457.88,64.626z   M443.304,64.767h-26.362v-7.858h26.362V64.767z M415.547,64.767h-26.364v-7.858h26.364V64.767z M387.788,47.657v7.857h-26.361  v-7.857H387.788z M360.032,55.514h-12.483v-7.857h12.483V55.514z M346.154,55.514h-12.485v-7.857h12.485V55.514z M333.669,46.262  v-7.858h12.485v7.858H333.669z M335.274,29.151h10.88v7.253L335.274,29.151z M346.154,18.505h-12.485v-7.858h12.485V18.505z   M332.274,18.505h-12.97l-11.787-7.858h24.757V18.505z M304.518,27.757h-12.484v-7.857h12.484V27.757z M304.518,29.151v7.858  h-12.484v-7.858H304.518z M304.518,38.404v7.858h-12.484v-7.858H304.518z M304.518,47.657v7.857h-12.484v-7.857H304.518z   M304.518,56.909v7.858h-12.484v-7.858H304.518z M305.912,75.414h26.362v7.857h-26.362V75.414z M333.669,75.414h26.363v7.857  h-26.363V75.414z M360.032,84.666v26.363h-26.363V84.666H360.032z M387.788,112.424v54.117h-54.119v-54.117H387.788z   M345.723,167.936l-12.054,24.106v-24.106H345.723z M333.669,195.693h26.363v12.484h-26.363V195.693z M361.427,209.572h26.361v9.046  c-2.484-4.842-7.512-8.065-13.181-8.065c-5.668,0-10.696,3.224-13.181,8.066V209.572z M361.427,208.178v-12.484h26.361v12.484  H361.427z M389.183,195.693h7.858v12.484h-7.858V195.693z M398.436,195.693h7.858v12.484h-7.858V195.693z M407.688,195.693h7.858  v12.484h-7.858V195.693z M416.941,195.693h7.856v12.484h-7.856V195.693z M426.192,195.693h7.859v12.484h-7.859V195.693z   M435.446,195.693h7.857v12.484h-7.857V195.693z M444.698,195.693h7.858v12.484h-7.858V195.693z M453.951,195.693h7.858v12.484  h-7.858V195.693z M463.204,195.693h7.857v12.484h-7.857V195.693z M463.204,194.299v-26.363h7.857v26.363H463.204z M485.636,141.042  l12.75,25.499h-25.498L485.636,141.042z M498.817,111.029h-26.361v-17.11h26.361V111.029z M498.817,92.524h-26.361v-7.858h26.361  V92.524z M498.817,83.271h-26.361v-7.857h26.361V83.271z M498.817,74.02h-26.361v-7.858h26.361V74.02z M498.817,64.767h-26.361  v-7.858h26.361V64.767z M498.817,55.514h-54.119V1.395h54.119V55.514z M443.304,55.514h-54.121V1.395h54.121V55.514z   M387.788,45.657l-26.672-17.782l-1.084-0.723v1.303v17.808h-12.483V9.95V9.252h-0.697h-13.183V1.395h54.119V45.657z M332.274,9.252  h-27.06h-0.697V9.95v8.555h-12.484V1.395h40.241V9.252z M290.639,9.252h-12.483V1.395h12.483V9.252z M290.639,10.647v7.858h-12.483  v-7.858H290.639z M290.639,19.899v7.857h-12.483v-7.857H290.639z M290.639,29.151v7.858h-12.483v-7.858H290.639z M290.639,38.404  v7.858h-12.483v-7.858H290.639z M290.639,47.657v7.857h-12.483v-7.857H290.639z M290.639,56.909v7.858h-12.483v-7.858H290.639z   M304.518,66.162v17.11h-26.362v-17.11H304.518z M332.274,84.666v26.363h-54.119V84.666H332.274z M332.274,112.424v54.117h-54.119  v-54.117H332.274z M332.274,167.936v40.242h-54.119v-40.242H332.274z M304.518,209.572v9.047c-2.484-4.843-7.514-8.066-13.182-8.066  c-5.669,0-10.696,3.224-13.181,8.065v-9.046H304.518z M291.336,211.947c6.163,0,11.494,4.205,12.999,10.109h-25.997  C279.842,216.152,285.172,211.947,291.336,211.947z M319.093,211.947c6.163,0,11.494,4.205,12.999,10.109h-25.997  C307.6,216.152,312.93,211.947,319.093,211.947z M346.852,211.947c6.163,0,11.493,4.205,12.998,10.109h-25.998  C335.356,216.152,340.688,211.947,346.852,211.947z M374.607,211.947c6.164,0,11.494,4.205,12.998,10.109h-25.996  C363.114,216.152,368.444,211.947,374.607,211.947z M389.183,209.572h26.364v12.484h-26.364V209.572z M416.941,209.572h26.362  v12.484h-26.362V209.572z M444.698,209.572h26.363v12.484h-26.363V209.572z M472.456,209.572h26.361v12.484h-26.361V209.572z   M472.456,208.178v-12.484h26.361v12.484H472.456z M472.456,194.299v-26.363h26.361v26.363H472.456z M486.765,140.18h12.053v24.104  L486.765,140.18z"/>
</svg>
