<?xml version="1.0" encoding="UTF-8" standalone="no"?>
<!-- Created with Inkscape (http://www.inkscape.org/) -->

<svg
   xmlns:dc="http://purl.org/dc/elements/1.1/"
   xmlns:cc="http://creativecommons.org/ns#"
   xmlns:rdf="http://www.w3.org/1999/02/22-rdf-syntax-ns#"
   xmlns:svg="http://www.w3.org/2000/svg"
   xmlns="http://www.w3.org/2000/svg"
   xmlns:sodipodi="http://sodipodi.sourceforge.net/DTD/sodipodi-0.dtd"
   xmlns:inkscape="http://www.inkscape.org/namespaces/inkscape"
   width="42.455555mm"
   height="62.702225mm"
   viewBox="0 0 150.43307 222.17324"
   id="svg2"
   version="1.1"
   inkscape:version="0.91 r13725"
   sodipodi:docname="graph.svg">
  <defs
     id="defs4">
    <marker
       inkscape:stockid="Arrow1Mstart"
       orient="auto"
       refY="0"
       refX="0"
       id="Arrow1Mstart"
       style="overflow:visible"
       inkscape:isstock="true">
      <path
         id="path4260"
         d="M 0,0 5,-5 -12.5,0 5,5 0,0 Z"
         style="fill-rule:evenodd;stroke:#000000;stroke-width:1pt"
         transform="matrix(0.4,0,0,0.4,4,0)"
         inkscape:connector-curvature="0" />
    </marker>
    <marker
       inkscape:stockid="Arrow1Lend"
       orient="auto"
       refY="0"
       refX="0"
       id="Arrow1Lend"
       style="overflow:visible"
       inkscape:isstock="true">
      <path
         id="path4257"
         d="M 0,0 5,-5 -12.5,0 5,5 0,0 Z"
         style="fill:#000000;fill-opacity:1;fill-rule:evenodd;stroke:#000000;stroke-width:1pt;stroke-opacity:1"
         transform="matrix(-0.8,0,0,-0.8,-10,0)"
         inkscape:connector-curvature="0" />
    </marker>
  </defs>
  <sodipodi:namedview
     id="base"
     pagecolor="#ffffff"
     bordercolor="#666666"
     borderopacity="1.0"
     inkscape:pageopacity="0.0"
     inkscape:pageshadow="2"
     inkscape:zoom="1.979899"
     inkscape:cx="100.84598"
     inkscape:cy="122.31957"
     inkscape:document-units="px"
     inkscape:current-layer="layer1"
     showgrid="true"
     inkscape:snap-bbox="true"
     inkscape:snap-bbox-midpoints="true"
     inkscape:window-width="1920"
     inkscape:window-height="1149"
     inkscape:window-x="1920"
     inkscape:window-y="27"
     inkscape:window-maximized="1"
     inkscape:bbox-nodes="true"
     inkscape:object-nodes="true"
     fit-margin-top="2"
     fit-margin-left="5"
     fit-margin-right="5"
     fit-margin-bottom="2"
     inkscape:snap-smooth-nodes="true"
     inkscape:object-paths="true">
    <inkscape:grid
       type="xygrid"
       id="grid4136"
       originx="-24.783464"
       originy="-785.41341" />
  </sodipodi:namedview>
  <metadata
     id="metadata7">
    <rdf:RDF>
      <cc:Work
         rdf:about="">
        <dc:format>image/svg+xml</dc:format>
        <dc:type
           rdf:resource="http://purl.org/dc/dcmitype/StillImage" />
        <dc:title></dc:title>
      </cc:Work>
    </rdf:RDF>
  </metadata>
  <g
     inkscape:label="Ebene 1"
     inkscape:groupmode="layer"
     id="layer1"
     transform="translate(-24.783465,-44.775596)">
    <path
       d="m 49.50008,222.33254 a 5.5,5.4999995 0 0 1 5.528934,-5.47027 5.5,5.4999995 0 0 1 5.470913,5.52829 5.5,5.4999995 0 0 1 -5.527645,5.47157 5.5,5.4999995 0 0 1 -5.472215,-5.527"
       sodipodi:open="true"
       sodipodi:end="3.1465145"
       sodipodi:start="3.1469857"
       sodipodi:ry="5.4999995"
       sodipodi:rx="5.5"
       sodipodi:cy="222.3622"
       sodipodi:cx="55"
       sodipodi:type="arc"
       id="path4238"
       style="opacity:1;fill:#d9534f;fill-opacity:1;stroke:none;stroke-width:3;stroke-linejoin:round;stroke-miterlimit:4;stroke-dasharray:none;stroke-dashoffset:0;stroke-opacity:1" />
    <path
       d="m 81.000058,132.34064 a 4,4 0 0 1 4.021043,-3.97837 4,4 0 0 1 3.978846,4.02057 4,4 0 0 1 -4.020106,3.97932 4,4 0 0 1 -3.979793,-4.01963"
       sodipodi:open="true"
       sodipodi:end="3.1465145"
       sodipodi:start="3.1469857"
       sodipodi:ry="4"
       sodipodi:rx="4"
       sodipodi:cy="132.36221"
       sodipodi:cx="85"
       sodipodi:type="arc"
       id="path4210"
       style="opacity:1;fill:#f0ad4e;fill-opacity:1;stroke:none;stroke-width:3;stroke-linejoin:round;stroke-miterlimit:4;stroke-dasharray:none;stroke-dashoffset:0;stroke-opacity:1" />
    <path
       style="opacity:1;fill:#f0ad4e;fill-opacity:1;stroke:none;stroke-width:3;stroke-linejoin:round;stroke-miterlimit:4;stroke-dasharray:none;stroke-dashoffset:0;stroke-opacity:1"
       id="path4212"
       sodipodi:type="arc"
       sodipodi:cx="130"
       sodipodi:cy="152.36221"
       sodipodi:rx="4"
       sodipodi:ry="4"
       sodipodi:start="3.1469857"
       sodipodi:end="3.1465145"
       sodipodi:open="true"
       d="m 126.00006,152.34064 a 4,4 0 0 1 4.02104,-3.97837 4,4 0 0 1 3.97885,4.02057 4,4 0 0 1 -4.02011,3.97932 4,4 0 0 1 -3.97979,-4.01963" />
    <path
       d="m 51.000058,127.34064 a 4,4 0 0 1 4.021043,-3.97837 4,4 0 0 1 3.978846,4.02057 4,4 0 0 1 -4.020106,3.97932 4,4 0 0 1 -3.979793,-4.01963"
       sodipodi:open="true"
       sodipodi:end="3.1465145"
       sodipodi:start="3.1469857"
       sodipodi:ry="4"
       sodipodi:rx="4"
       sodipodi:cy="127.36221"
       sodipodi:cx="55"
       sodipodi:type="arc"
       id="path4214"
       style="opacity:1;fill:#f0ad4e;fill-opacity:1;stroke:none;stroke-width:3;stroke-linejoin:round;stroke-miterlimit:4;stroke-dasharray:none;stroke-dashoffset:0;stroke-opacity:1" />
    <path
       style="opacity:1;fill:#d9534f;fill-opacity:1;stroke:none;stroke-width:3;stroke-linejoin:round;stroke-miterlimit:4;stroke-dasharray:none;stroke-dashoffset:0;stroke-opacity:1"
       id="path4208"
       sodipodi:type="arc"
       sodipodi:cx="50"
       sodipodi:cy="57.362209"
       sodipodi:rx="5.5"
       sodipodi:ry="5.4999995"
       sodipodi:start="3.1469857"
       sodipodi:end="3.1465145"
       sodipodi:open="true"
       d="m 44.50008,57.332548 a 5.5,5.4999995 0 0 1 5.528934,-5.470262 5.5,5.4999995 0 0 1 5.470913,5.528289 5.5,5.4999995 0 0 1 -5.527645,5.471564 5.5,5.4999995 0 0 1 -5.472215,-5.527" />
    <path
       style="opacity:1;fill:#f0ad4e;fill-opacity:1;stroke:none;stroke-width:3;stroke-linejoin:round;stroke-miterlimit:4;stroke-dasharray:none;stroke-dashoffset:0;stroke-opacity:1"
       id="path4206"
       sodipodi:type="arc"
       sodipodi:cx="50"
       sodipodi:cy="57.362209"
       sodipodi:rx="4"
       sodipodi:ry="4"
       sodipodi:start="3.1469857"
       sodipodi:end="3.1465145"
       sodipodi:open="true"
       d="m 46.000058,57.340637 a 4,4 0 0 1 4.021043,-3.978372 4,4 0 0 1 3.978846,4.020574 4,4 0 0 1 -4.020106,3.97932 4,4 0 0 1 -3.979793,-4.019637" />
    <path
       style="fill:none;fill-rule:evenodd;stroke:#000000;stroke-width:1px;stroke-linecap:butt;stroke-linejoin:miter;stroke-opacity:1"
       d="m 50,57.36221 -5,19.999995 0,20.000005 20,10 -10,20"
       id="path4151"
       inkscape:connector-curvature="0"
       sodipodi:nodetypes="ccccc" />
    <path
       style="opacity:1;fill:#f0ad4e;fill-opacity:1;stroke:none;stroke-width:3;stroke-linejoin:round;stroke-miterlimit:4;stroke-dasharray:none;stroke-dashoffset:0;stroke-opacity:1"
       id="path4236"
       sodipodi:type="arc"
       sodipodi:cx="55"
       sodipodi:cy="222.3622"
       sodipodi:rx="4"
       sodipodi:ry="4"
       sodipodi:start="3.1469857"
       sodipodi:end="3.1465145"
       sodipodi:open="true"
       d="m 51.000058,222.34063 a 4,4 0 0 1 4.021043,-3.97838 4,4 0 0 1 3.978846,4.02058 4,4 0 0 1 -4.020106,3.97932 4,4 0 0 1 -3.979793,-4.01964" />
    <path
       d="m 56.000058,182.34064 a 4,4 0 0 1 4.021043,-3.97837 4,4 0 0 1 3.978846,4.02057 4,4 0 0 1 -4.020106,3.97932 4,4 0 0 1 -3.979793,-4.01963"
       sodipodi:open="true"
       sodipodi:end="3.1465145"
       sodipodi:start="3.1469857"
       sodipodi:ry="4"
       sodipodi:rx="4"
       sodipodi:cy="182.36221"
       sodipodi:cx="60"
       sodipodi:type="arc"
       id="path4234"
       style="opacity:1;fill:#f0ad4e;fill-opacity:1;stroke:none;stroke-width:3;stroke-linejoin:round;stroke-miterlimit:4;stroke-dasharray:none;stroke-dashoffset:0;stroke-opacity:1" />
    <path
       style="fill:none;fill-rule:evenodd;stroke:#000000;stroke-width:1px;stroke-linecap:butt;stroke-linejoin:miter;stroke-opacity:1"
       d="m 55,127.36221 0,20 -10,20 15,15.00001 -10,19.99999 5,20 10,20.00001 -20,15"
       id="path4188"
       inkscape:connector-curvature="0"
       sodipodi:nodetypes="cccccccc" />
    <path
       style="fill:none;fill-rule:evenodd;stroke:#000000;stroke-width:1px;stroke-linecap:butt;stroke-linejoin:miter;stroke-opacity:1"
       d="m 55,127.36221 30,5 20,15 25,5 25,15"
       id="path4202"
       inkscape:connector-curvature="0"
       sodipodi:nodetypes="ccccc" />
    <path
       d="m 42.500036,77.348723 a 2.5,2.5 0 0 1 2.513152,-2.486483 2.5,2.5 0 0 1 2.486779,2.512859 2.5,2.5 0 0 1 -2.512566,2.487075 2.5,2.5 0 0 1 -2.487371,-2.512273"
       sodipodi:open="true"
       sodipodi:end="3.1465145"
       sodipodi:start="3.1469857"
       sodipodi:ry="2.5"
       sodipodi:rx="2.5"
       sodipodi:cy="77.362206"
       sodipodi:cx="45"
       sodipodi:type="arc"
       id="path4143"
       style="opacity:1;fill:#337ab7;fill-opacity:1;stroke:none;stroke-width:3;stroke-linejoin:round;stroke-miterlimit:4;stroke-dasharray:none;stroke-dashoffset:0;stroke-opacity:1" />
    <path
       style="opacity:1;fill:#337ab7;fill-opacity:1;stroke:none;stroke-width:3;stroke-linejoin:round;stroke-miterlimit:4;stroke-dasharray:none;stroke-dashoffset:0;stroke-opacity:1"
       id="path4145"
       sodipodi:type="arc"
       sodipodi:cx="45"
       sodipodi:cy="97.362213"
       sodipodi:rx="2.5"
       sodipodi:ry="2.5"
       sodipodi:start="3.1469857"
       sodipodi:end="3.1465145"
       sodipodi:open="true"
       d="m 42.500036,97.348731 a 2.5,2.5 0 0 1 2.513152,-2.486483 2.5,2.5 0 0 1 2.486779,2.512859 2.5,2.5 0 0 1 -2.512566,2.487074 2.5,2.5 0 0 1 -2.487371,-2.512272" />
    <path
       d="m 62.500036,107.34873 a 2.5,2.5 0 0 1 2.513152,-2.48648 2.5,2.5 0 0 1 2.486779,2.51286 2.5,2.5 0 0 1 -2.512566,2.48707 2.5,2.5 0 0 1 -2.487371,-2.51227"
       sodipodi:open="true"
       sodipodi:end="3.1465145"
       sodipodi:start="3.1469857"
       sodipodi:ry="2.5"
       sodipodi:rx="2.5"
       sodipodi:cy="107.36221"
       sodipodi:cx="65"
       sodipodi:type="arc"
       id="path4147"
       style="opacity:1;fill:#337ab7;fill-opacity:1;stroke:none;stroke-width:3;stroke-linejoin:round;stroke-miterlimit:4;stroke-dasharray:none;stroke-dashoffset:0;stroke-opacity:1" />
    <path
       d="m 52.500036,147.34873 a 2.5,2.5 0 0 1 2.513152,-2.48648 2.5,2.5 0 0 1 2.486779,2.51286 2.5,2.5 0 0 1 -2.512566,2.48707 2.5,2.5 0 0 1 -2.487371,-2.51227"
       sodipodi:open="true"
       sodipodi:end="3.1465145"
       sodipodi:start="3.1469857"
       sodipodi:ry="2.5"
       sodipodi:rx="2.5"
       sodipodi:cy="147.36221"
       sodipodi:cx="55"
       sodipodi:type="arc"
       id="path4172"
       style="opacity:1;fill:#337ab7;fill-opacity:1;stroke:none;stroke-width:3;stroke-linejoin:round;stroke-miterlimit:4;stroke-dasharray:none;stroke-dashoffset:0;stroke-opacity:1" />
    <path
       style="opacity:1;fill:#337ab7;fill-opacity:1;stroke:none;stroke-width:3;stroke-linejoin:round;stroke-miterlimit:4;stroke-dasharray:none;stroke-dashoffset:0;stroke-opacity:1"
       id="path4176"
       sodipodi:type="arc"
       sodipodi:cx="45"
       sodipodi:cy="167.36221"
       sodipodi:rx="2.5"
       sodipodi:ry="2.5"
       sodipodi:start="3.1469857"
       sodipodi:end="3.1465145"
       sodipodi:open="true"
       d="m 42.500036,167.34873 a 2.5,2.5 0 0 1 2.513152,-2.48648 2.5,2.5 0 0 1 2.486779,2.51286 2.5,2.5 0 0 1 -2.512566,2.48707 2.5,2.5 0 0 1 -2.487371,-2.51227" />
    <path
       style="opacity:1;fill:#337ab7;fill-opacity:1;stroke:none;stroke-width:3;stroke-linejoin:round;stroke-miterlimit:4;stroke-dasharray:none;stroke-dashoffset:0;stroke-opacity:1"
       id="path4180"
       sodipodi:type="arc"
       sodipodi:cx="50"
       sodipodi:cy="202.36221"
       sodipodi:rx="2.5"
       sodipodi:ry="2.5"
       sodipodi:start="3.1469857"
       sodipodi:end="3.1465145"
       sodipodi:open="true"
       d="m 47.500036,202.34873 a 2.5,2.5 0 0 1 2.513152,-2.48648 2.5,2.5 0 0 1 2.486779,2.51286 2.5,2.5 0 0 1 -2.512566,2.48707 2.5,2.5 0 0 1 -2.487371,-2.51227" />
    <path
       style="opacity:1;fill:#337ab7;fill-opacity:1;stroke:none;stroke-width:3;stroke-linejoin:round;stroke-miterlimit:4;stroke-dasharray:none;stroke-dashoffset:0;stroke-opacity:1"
       id="path4184"
       sodipodi:type="arc"
       sodipodi:cx="65"
       sodipodi:cy="242.36221"
       sodipodi:rx="2.5"
       sodipodi:ry="2.5"
       sodipodi:start="3.1469857"
       sodipodi:end="3.1465145"
       sodipodi:open="true"
       d="m 62.500036,242.34873 a 2.5,2.5 0 0 1 2.513152,-2.48648 2.5,2.5 0 0 1 2.486779,2.51286 2.5,2.5 0 0 1 -2.512566,2.48707 2.5,2.5 0 0 1 -2.487371,-2.51227" />
    <path
       d="m 42.500036,257.34873 a 2.5,2.5 0 0 1 2.513152,-2.48648 2.5,2.5 0 0 1 2.486779,2.51286 2.5,2.5 0 0 1 -2.512566,2.48707 2.5,2.5 0 0 1 -2.487371,-2.51227"
       sodipodi:open="true"
       sodipodi:end="3.1465145"
       sodipodi:start="3.1469857"
       sodipodi:ry="2.5"
       sodipodi:rx="2.5"
       sodipodi:cy="257.36221"
       sodipodi:cx="45"
       sodipodi:type="arc"
       id="path4186"
       style="opacity:1;fill:#337ab7;fill-opacity:1;stroke:none;stroke-width:3;stroke-linejoin:round;stroke-miterlimit:4;stroke-dasharray:none;stroke-dashoffset:0;stroke-opacity:1" />
    <path
       d="m 102.50004,147.34873 a 2.5,2.5 0 0 1 2.51315,-2.48648 2.5,2.5 0 0 1 2.48678,2.51286 2.5,2.5 0 0 1 -2.51257,2.48707 2.5,2.5 0 0 1 -2.48737,-2.51227"
       sodipodi:open="true"
       sodipodi:end="3.1465145"
       sodipodi:start="3.1469857"
       sodipodi:ry="2.5"
       sodipodi:rx="2.5"
       sodipodi:cy="147.36221"
       sodipodi:cx="105"
       sodipodi:type="arc"
       id="path4190"
       style="opacity:1;fill:#337ab7;fill-opacity:1;stroke:none;stroke-width:3;stroke-linejoin:round;stroke-miterlimit:4;stroke-dasharray:none;stroke-dashoffset:0;stroke-opacity:1" />
    <path
       d="m 152.50004,167.34873 a 2.5,2.5 0 0 1 2.51315,-2.48648 2.5,2.5 0 0 1 2.48678,2.51286 2.5,2.5 0 0 1 -2.51257,2.48707 2.5,2.5 0 0 1 -2.48737,-2.51227"
       sodipodi:open="true"
       sodipodi:end="3.1465145"
       sodipodi:start="3.1469857"
       sodipodi:ry="2.5"
       sodipodi:rx="2.5"
       sodipodi:cy="167.36221"
       sodipodi:cx="155"
       sodipodi:type="arc"
       id="path4194"
       style="opacity:1;fill:#337ab7;fill-opacity:1;stroke:none;stroke-width:3;stroke-linejoin:round;stroke-miterlimit:4;stroke-dasharray:none;stroke-dashoffset:0;stroke-opacity:1" />
    <path
       style="fill:none;fill-rule:evenodd;stroke:#000000;stroke-width:1px;stroke-linecap:butt;stroke-linejoin:miter;stroke-opacity:1"
       d="m 130,152.36221 -10,20.00001 15,20 -5,25"
       id="path4204"
       inkscape:connector-curvature="0"
       sodipodi:nodetypes="cccc" />
    <text
       xml:space="preserve"
       x="84.975479"
       y="221.4409"
       id="text4240"
       style="font-style:normal;font-variant:normal;font-weight:normal;font-stretch:normal;font-size:7.95715618px;line-height:100%;font-family:Arial;-inkscape-font-specification:'Arial, Normal';text-align:start;writing-mode:lr-tb;text-anchor:start"
       sodipodi:linespacing="100%"><tspan
         sodipodi:role="line"
         id="tspan4242"
         x="84.975479"
         y="221.4409">previous</tspan><tspan
         sodipodi:role="line"
         x="84.975479"
         y="229.39806"
         id="tspan4248">publication</tspan></text>
    <path
       style="fill:none;fill-rule:evenodd;stroke:#000000;stroke-width:0.60000002;stroke-linecap:butt;stroke-linejoin:miter;stroke-miterlimit:4;stroke-dasharray:none;stroke-opacity:1"
       d="m 62,221.36222 21,-1"
       id="path4244"
       inkscape:connector-curvature="0"
       sodipodi:nodetypes="cc" />
    <path
       d="m 57.500036,182.34873 a 2.5,2.5 0 0 1 2.513152,-2.48648 2.5,2.5 0 0 1 2.486779,2.51286 2.5,2.5 0 0 1 -2.512566,2.48707 2.5,2.5 0 0 1 -2.487371,-2.51227"
       sodipodi:open="true"
       sodipodi:end="3.1465145"
       sodipodi:start="3.1469857"
       sodipodi:ry="2.5"
       sodipodi:rx="2.5"
       sodipodi:cy="182.36221"
       sodipodi:cx="60"
       sodipodi:type="arc"
       id="path4178"
       style="opacity:1;fill:#337ab7;fill-opacity:1;stroke:none;stroke-width:3;stroke-linejoin:round;stroke-miterlimit:4;stroke-dasharray:none;stroke-dashoffset:0;stroke-opacity:1" />
    <text
       sodipodi:linespacing="125%"
       id="text4226"
       y="171.99573"
       x="88.827965"
       style="font-style:normal;font-variant:normal;font-weight:bold;font-stretch:normal;font-size:8.99022961px;line-height:125%;font-family:Courier;-inkscape-font-specification:'Courier, Bold';text-align:end;letter-spacing:0px;word-spacing:0px;writing-mode:lr-tb;text-anchor:end;fill:#000000;fill-opacity:1;stroke:none;stroke-width:1px;stroke-linecap:butt;stroke-linejoin:miter;stroke-opacity:1"
       xml:space="preserve"><tspan
         y="171.99573"
         x="88.827965"
         id="tspan4228"
         sodipodi:role="line">tag</tspan></text>
    <path
       sodipodi:nodetypes="cc"
       inkscape:connector-curvature="0"
       id="path4230"
       d="m 64,179.36221 8,-5"
       style="fill:none;fill-rule:evenodd;stroke:#000000;stroke-width:1px;stroke-linecap:butt;stroke-linejoin:miter;stroke-opacity:1" />
    <path
       sodipodi:nodetypes="ccccc"
       inkscape:connector-curvature="0"
       id="path4232"
       d="m 90,174.36222 0,-9 -18,-1e-5 0,9 z"
       style="fill:none;fill-rule:evenodd;stroke:#000000;stroke-width:1px;stroke-linecap:butt;stroke-linejoin:miter;stroke-opacity:1" />
    <text
       xml:space="preserve"
       style="font-style:normal;font-variant:normal;font-weight:bold;font-stretch:normal;font-size:8.99022961px;line-height:125%;font-family:Courier;-inkscape-font-specification:'Courier, Bold';text-align:end;letter-spacing:0px;word-spacing:0px;writing-mode:lr-tb;text-anchor:end;fill:#000000;fill-opacity:1;stroke:none;stroke-width:1px;stroke-linecap:butt;stroke-linejoin:miter;stroke-opacity:1"
       x="112.82796"
       y="120.99571"
       id="text4218"
       sodipodi:linespacing="125%"><tspan
         sodipodi:role="line"
         id="tspan4220"
         x="112.82796"
         y="120.99571">tag</tspan></text>
    <path
       style="fill:none;fill-rule:evenodd;stroke:#000000;stroke-width:1px;stroke-linecap:butt;stroke-linejoin:miter;stroke-opacity:1"
       d="m 89,128.36221 7,-5"
       id="path4222"
       inkscape:connector-curvature="0"
       sodipodi:nodetypes="cc" />
    <path
       style="fill:none;fill-rule:evenodd;stroke:#000000;stroke-width:1px;stroke-linecap:butt;stroke-linejoin:miter;stroke-opacity:1"
       d="m 114,123.36222 0,-9 -18,-10e-6 0,9 z"
       id="path4224"
       inkscape:connector-curvature="0"
       sodipodi:nodetypes="ccccc" />
    <path
       style="opacity:1;fill:#337ab7;fill-opacity:1;stroke:none;stroke-width:3;stroke-linejoin:round;stroke-miterlimit:4;stroke-dasharray:none;stroke-dashoffset:0;stroke-opacity:1"
       id="path4149"
       sodipodi:type="arc"
       sodipodi:cx="55"
       sodipodi:cy="127.36221"
       sodipodi:rx="2.5"
       sodipodi:ry="2.5"
       sodipodi:start="3.1469857"
       sodipodi:end="3.1465145"
       sodipodi:open="true"
       d="m 52.500036,127.34873 a 2.5,2.5 0 0 1 2.513152,-2.48648 2.5,2.5 0 0 1 2.486779,2.51286 2.5,2.5 0 0 1 -2.512566,2.48707 2.5,2.5 0 0 1 -2.487371,-2.51227" />
    <path
       style="opacity:1;fill:#337ab7;fill-opacity:1;stroke:none;stroke-width:3;stroke-linejoin:round;stroke-miterlimit:4;stroke-dasharray:none;stroke-dashoffset:0;stroke-opacity:1"
       id="path4174"
       sodipodi:type="arc"
       sodipodi:cx="85"
       sodipodi:cy="132.36221"
       sodipodi:rx="2.5"
       sodipodi:ry="2.5"
       sodipodi:start="3.1469857"
       sodipodi:end="3.1465145"
       sodipodi:open="true"
       d="m 82.500036,132.34873 a 2.5,2.5 0 0 1 2.513152,-2.48648 2.5,2.5 0 0 1 2.486779,2.51286 2.5,2.5 0 0 1 -2.512566,2.48707 2.5,2.5 0 0 1 -2.487371,-2.51227" />
    <path
       style="opacity:1;fill:#337ab7;fill-opacity:1;stroke:none;stroke-width:3;stroke-linejoin:round;stroke-miterlimit:4;stroke-dasharray:none;stroke-dashoffset:0;stroke-opacity:1"
       id="path4192"
       sodipodi:type="arc"
       sodipodi:cx="130"
       sodipodi:cy="152.36221"
       sodipodi:rx="2.5"
       sodipodi:ry="2.5"
       sodipodi:start="3.1469857"
       sodipodi:end="3.1465145"
       sodipodi:open="true"
       d="m 127.50004,152.34873 a 2.5,2.5 0 0 1 2.51315,-2.48648 2.5,2.5 0 0 1 2.48678,2.51286 2.5,2.5 0 0 1 -2.51257,2.48707 2.5,2.5 0 0 1 -2.48737,-2.51227" />
    <path
       style="opacity:1;fill:#337ab7;fill-opacity:1;stroke:none;stroke-width:3;stroke-linejoin:round;stroke-miterlimit:4;stroke-dasharray:none;stroke-dashoffset:0;stroke-opacity:1"
       id="path4196"
       sodipodi:type="arc"
       sodipodi:cx="120"
       sodipodi:cy="172.36221"
       sodipodi:rx="2.5"
       sodipodi:ry="2.5"
       sodipodi:start="3.1469857"
       sodipodi:end="3.1465145"
       sodipodi:open="true"
       d="m 117.50004,172.34873 a 2.5,2.5 0 0 1 2.51315,-2.48648 2.5,2.5 0 0 1 2.48678,2.51286 2.5,2.5 0 0 1 -2.51257,2.48707 2.5,2.5 0 0 1 -2.48737,-2.51227" />
    <path
       d="m 132.50004,192.34873 a 2.5,2.5 0 0 1 2.51315,-2.48648 2.5,2.5 0 0 1 2.48678,2.51286 2.5,2.5 0 0 1 -2.51257,2.48707 2.5,2.5 0 0 1 -2.48737,-2.51227"
       sodipodi:open="true"
       sodipodi:end="3.1465145"
       sodipodi:start="3.1469857"
       sodipodi:ry="2.5"
       sodipodi:rx="2.5"
       sodipodi:cy="192.36221"
       sodipodi:cx="135"
       sodipodi:type="arc"
       id="path4198"
       style="opacity:1;fill:#337ab7;fill-opacity:1;stroke:none;stroke-width:3;stroke-linejoin:round;stroke-miterlimit:4;stroke-dasharray:none;stroke-dashoffset:0;stroke-opacity:1" />
    <path
       style="opacity:1;fill:#337ab7;fill-opacity:1;stroke:none;stroke-width:3;stroke-linejoin:round;stroke-miterlimit:4;stroke-dasharray:none;stroke-dashoffset:0;stroke-opacity:1"
       id="path4200"
       sodipodi:type="arc"
       sodipodi:cx="130"
       sodipodi:cy="217.36221"
       sodipodi:rx="2.5"
       sodipodi:ry="2.5"
       sodipodi:start="3.1469857"
       sodipodi:end="3.1465145"
       sodipodi:open="true"
       d="m 127.50004,217.34873 a 2.5,2.5 0 0 1 2.51315,-2.48648 2.5,2.5 0 0 1 2.48678,2.51286 2.5,2.5 0 0 1 -2.51257,2.48707 2.5,2.5 0 0 1 -2.48737,-2.51227" />
    <path
       d="m 52.500036,222.34872 a 2.5,2.5 0 0 1 2.513152,-2.48649 2.5,2.5 0 0 1 2.486779,2.51286 2.5,2.5 0 0 1 -2.512566,2.48708 2.5,2.5 0 0 1 -2.487371,-2.51228"
       sodipodi:open="true"
       sodipodi:end="3.1465145"
       sodipodi:start="3.1469857"
       sodipodi:ry="2.5"
       sodipodi:rx="2.5"
       sodipodi:cy="222.3622"
       sodipodi:cx="55"
       sodipodi:type="arc"
       id="path4182"
       style="opacity:1;fill:#337ab7;fill-opacity:1;stroke:none;stroke-width:3;stroke-linejoin:round;stroke-miterlimit:4;stroke-dasharray:none;stroke-dashoffset:0;stroke-opacity:1" />
    <path
       style="opacity:1;fill:#337ab7;fill-opacity:1;stroke:none;stroke-width:3;stroke-linejoin:round;stroke-miterlimit:4;stroke-dasharray:none;stroke-dashoffset:0;stroke-opacity:1"
       id="path4141"
       sodipodi:type="arc"
       sodipodi:cx="50"
       sodipodi:cy="57.362209"
       sodipodi:rx="2.5"
       sodipodi:ry="2.5"
       sodipodi:start="3.1469857"
       sodipodi:end="3.1465145"
       sodipodi:open="true"
       d="m 47.500036,57.348727 a 2.5,2.5 0 0 1 2.513152,-2.486483 2.5,2.5 0 0 1 2.486779,2.512859 2.5,2.5 0 0 1 -2.512566,2.487075 2.5,2.5 0 0 1 -2.487371,-2.512273" />
  </g>
</svg>
