<?xml version="1.0" encoding="UTF-8" standalone="no"?>
<!-- Created with Inkscape (http://www.inkscape.org/) -->

<svg
   xmlns:dc="http://purl.org/dc/elements/1.1/"
   xmlns:cc="http://creativecommons.org/ns#"
   xmlns:rdf="http://www.w3.org/1999/02/22-rdf-syntax-ns#"
   xmlns:svg="http://www.w3.org/2000/svg"
   xmlns="http://www.w3.org/2000/svg"
   xmlns:sodipodi="http://sodipodi.sourceforge.net/DTD/sodipodi-0.dtd"
   xmlns:inkscape="http://www.inkscape.org/namespaces/inkscape"
   id="svg2"
   version="1.1"
   inkscape:version="0.91 r13725"
   xml:space="preserve"
   width="777.995"
   height="112.53025"
   viewBox="0 0 777.995 112.53025"
   sodipodi:docname="Logo_SARA_RGB footer.svg"><metadata
     id="metadata8"><rdf:RDF><cc:Work
         rdf:about=""><dc:format>image/svg+xml</dc:format><dc:type
           rdf:resource="http://purl.org/dc/dcmitype/StillImage" /><dc:title></dc:title></cc:Work></rdf:RDF></metadata><defs
     id="defs6" /><sodipodi:namedview
     pagecolor="#ffffff"
     bordercolor="#666666"
     borderopacity="1"
     objecttolerance="10"
     gridtolerance="10"
     guidetolerance="10"
     inkscape:pageopacity="0"
     inkscape:pageshadow="2"
     inkscape:window-width="1920"
     inkscape:window-height="1149"
     id="namedview4"
     showgrid="false"
     inkscape:zoom="2.6816278"
     inkscape:cx="331.73892"
     inkscape:cy="29.099145"
     inkscape:window-x="1920"
     inkscape:window-y="27"
     inkscape:window-maximized="1"
     inkscape:current-layer="g12"
     fit-margin-top="0"
     fit-margin-left="0"
     fit-margin-right="0"
     fit-margin-bottom="0"
     inkscape:object-nodes="true"
     inkscape:snap-smooth-nodes="true"
     inkscape:object-paths="true" /><g
     id="g10"
     inkscape:groupmode="layer"
     inkscape:label="ink_ext_XXXXXX"
     transform="matrix(1.25,0,0,-1.25,0,176.01125)"><g
       id="g12"
       transform="scale(0.1,0.1)"><g
         id="g4196"
         transform="translate(3258.96,586.223)"><path
           inkscape:connector-curvature="0"
           id="path22"
           style="fill:#171717;fill-opacity:1;fill-rule:nonzero;stroke:none"
           d="m 69.9375,367.57 c -2.6367,11.739 -8.3906,23.489 -22.0547,23.489 -15.1015,0 -21.0976,-12.227 -21.0976,-25.649 0,-12.949 2.6367,-17.019 27.8086,-32.121 19.6601,-11.738 33.082,-21.578 33.082,-46.258 0,-25.179 -13.4219,-45.07 -40.2735,-45.07 -28.2851,0 -38.59371,18.699 -40.99214,44.109 l 16.06644,2.16 c 2.1523,-17.75 5.9922,-31.171 25.4062,-31.171 13.9024,0 23.7344,9.351 23.7344,28.531 0,21.09 -13.668,28.281 -30.207,37.871 -18.4571,10.789 -30.6836,18.461 -30.6836,41.949 0,21.578 14.3867,40.762 37.1562,40.762 22.5313,0 33.5625,-16.07 37.6367,-36.211 l -15.582,-2.391" /><path
           inkscape:connector-curvature="0"
           id="path24"
           style="fill:#171717;fill-opacity:1;fill-rule:nonzero;stroke:none"
           d="m 163.223,306.441 c 0,-18.211 3.359,-49.382 27.566,-49.382 24.215,0 27.57,31.171 27.57,49.382 0,18.457 -3.355,49.618 -27.57,49.618 -24.207,0 -27.566,-31.161 -27.566,-49.618 z m 71.914,0 c 0,-10.07 -0.719,-64.48 -44.348,-64.48 -20.137,0 -44.344,14.379 -44.344,64.48 0,49.86 23.731,64.731 44.344,64.731 19.899,0 44.348,-14.391 44.348,-64.731" /><path
           inkscape:connector-curvature="0"
           id="path26"
           style="fill:#171717;fill-opacity:1;fill-rule:nonzero;stroke:none"
           d="m 304.934,369.012 78.625,0 0,-14.391 -62.563,0 0,-37.391 52.496,0 0,-14.378 -52.496,0 0,-58.731 -16.062,0 0,124.891" /><path
           inkscape:connector-curvature="0"
           id="path28"
           style="fill:#171717;fill-opacity:1;fill-rule:nonzero;stroke:none"
           d="m 470.852,354.621 -34.52,0 0,14.391 84.383,0 0,-14.391 -33.805,0 0,-110.5 -16.058,0 0,110.5" /><path
           inkscape:connector-curvature="0"
           id="path30"
           style="fill:#171717;fill-opacity:1;fill-rule:nonzero;stroke:none"
           d="m 589.309,372.121 9.586,-87.73 0.48,0 20.855,61.371 4.317,0 20.851,-61.371 0.481,0 9.828,87.73 16.305,-1.91 L 654.031,241 l -5.515,0 -26.129,76.941 -26.125,-76.941 -5.516,0 -17.976,129.211 16.539,1.91" /><path
           inkscape:connector-curvature="0"
           id="path32"
           style="fill:#171717;fill-opacity:1;fill-rule:nonzero;stroke:none"
           d="m 766.254,350.309 -17.738,-57.778 35.476,0 -17.738,57.778 z M 744.199,278.16 732.457,241 l -15.82,5.75 39.308,122.262 20.618,0 39.316,-122.262 -15.824,-5.75 -11.504,37.16 -44.352,0" /><path
           inkscape:connector-curvature="0"
           id="path34"
           style="fill:#171717;fill-opacity:1;fill-rule:nonzero;stroke:none"
           d="m 911.086,311.961 c 15.578,0 25.887,8.859 25.887,23 0,11.269 -6.715,19.66 -21.098,19.66 l -25.891,0 0,-42.66 21.102,0 z m -37.16,57.051 42.429,0 c 20.856,0 37.395,-9.84 37.395,-34.051 0,-15.34 -10.309,-30.43 -25.41,-35 l 30.683,-50.57 -13.902,-8.391 -31.883,56.57 -23.254,0 0,-53.449 -16.058,0 0,124.891" /><path
           inkscape:connector-curvature="0"
           id="path36"
           style="fill:#171717;fill-opacity:1;fill-rule:nonzero;stroke:none"
           d="m 1019.71,369.012 77.91,0 0,-14.391 -61.85,0 0,-37.391 51.06,0 0,-14.378 -51.06,0 0,-44.352 61.85,0 0,-14.379 -77.91,0 0,124.891" /><path
           inkscape:connector-curvature="0"
           id="path38"
           style="fill:#171717;fill-opacity:1;fill-rule:nonzero;stroke:none"
           d="m 1341.96,382.672 -0.48,0 -17.74,-74.793 35.96,0 -17.74,74.793 z m -22.05,-89.172 -12.47,-52.5 -15.82,4.32 40.51,158.692 19.18,0 40.51,-158.692 -15.82,-4.32 -12.46,52.5 -43.63,0" /><path
           inkscape:connector-curvature="0"
           id="path40"
           style="fill:#171717;fill-opacity:1;fill-rule:nonzero;stroke:none"
           d="m 1486.54,311.961 c 15.59,0 25.89,8.859 25.89,23 0,11.269 -6.71,19.66 -21.09,19.66 l -25.89,0 0,-42.66 21.09,0 z m -37.16,57.051 42.44,0 c 20.86,0 37.4,-9.84 37.4,-34.051 0,-15.34 -10.31,-30.43 -25.41,-35 l 30.68,-50.57 -13.9,-8.391 -31.89,56.57 -23.25,0 0,-53.449 -16.07,0 0,124.891" /><path
           inkscape:connector-curvature="0"
           id="path42"
           style="fill:#171717;fill-opacity:1;fill-rule:nonzero;stroke:none"
           d="m 1674.28,268.09 c -10.07,-15.82 -22.05,-26.129 -41.47,-26.129 -36.43,0 -47.95,33.559 -47.95,64.48 0,49.86 26.37,64.731 46.51,64.731 19.42,0 30.68,-10.07 39.56,-26.621 l -14.63,-7.43 c -5.27,10.07 -12.46,18.938 -24.69,18.938 -24.93,0 -29.96,-30.207 -29.96,-49.379 0,-19.418 4.55,-49.621 29.96,-49.621 14.62,0 22.05,8.871 29.48,20.132 l 13.19,-9.101" /><path
           inkscape:connector-curvature="0"
           id="path44"
           style="fill:#171717;fill-opacity:1;fill-rule:nonzero;stroke:none"
           d="m 1732.57,369.012 16.06,0 0,-51.782 49.38,0 0,51.782 16.06,0 0,-124.891 -16.06,0 0,58.731 -49.38,0 0,-58.731 -16.06,0 0,124.891" /><path
           inkscape:connector-curvature="0"
           id="path46"
           style="fill:#171717;fill-opacity:1;fill-rule:nonzero;stroke:none"
           d="m 1891.54,258.5 17.49,0 0,96.121 -17.49,0 0,14.391 51.3,0 0,-14.391 -17.74,0 0,-96.121 17.74,0 0,-14.379 -51.3,0 0,14.379" /><path
           inkscape:connector-curvature="0"
           id="path48"
           style="fill:#171717;fill-opacity:1;fill-rule:nonzero;stroke:none"
           d="m 2095.1,372.121 15.34,-5.75 -47.95,-125.371 -2.87,0 -47.95,125.371 15.34,5.75 34.04,-91.57 34.05,91.57" /><path
           inkscape:connector-curvature="0"
           id="path50"
           style="fill:#171717;fill-opacity:1;fill-rule:nonzero;stroke:none"
           d="m 2179.28,258.5 17.49,0 0,96.121 -17.49,0 0,14.391 51.3,0 0,-14.391 -17.75,0 0,-96.121 17.75,0 0,-14.379 -51.3,0 0,14.379" /><path
           inkscape:connector-curvature="0"
           id="path52"
           style="fill:#171717;fill-opacity:1;fill-rule:nonzero;stroke:none"
           d="m 2307.08,369.012 19.89,0 48.43,-105.242 0.48,0.48 -1.44,32.371 0,72.391 16.06,0 0,-124.891 -19.89,0 -48.43,105.231 -0.48,-0.481 1.44,-32.601 0,-72.149 -16.06,0 0,124.891" /><path
           inkscape:connector-curvature="0"
           id="path54"
           style="fill:#171717;fill-opacity:1;fill-rule:nonzero;stroke:none"
           d="m 2534.83,255.621 c -10.3,-8.152 -25.64,-13.66 -38.35,-13.66 -36.68,0 -47.22,34.039 -47.22,64.719 0,30.211 11.02,64.492 46.75,64.492 16.77,0 31.39,-9.84 40.03,-23.981 l -13.67,-8.871 c -5.99,10.071 -15.1,17.739 -27.32,17.739 -24.7,0 -29.01,-30.918 -29.01,-49.848 0,-19.43 4.31,-49.152 29.49,-49.152 8.14,0 16.3,2.152 23.25,6.472 l 0,32.84 -29.97,0 0,14.391 46.02,0 0,-55.141" /><path
           inkscape:connector-curvature="0"
           id="path56"
           style="fill:#171717;fill-opacity:1;fill-rule:nonzero;stroke:none"
           d="m 19.3555,65.4414 c 0,-18.2109 3.3593,-49.3711 27.5664,-49.3711 24.2148,0 27.5703,31.1602 27.5703,49.3711 0,18.457 -3.3555,49.6176 -27.5703,49.6176 -24.2071,0 -27.5664,-31.1606 -27.5664,-49.6176 z m 71.914,0 c 0,-10.0625 -0.7187,-64.480462 -44.3476,-64.480462 -20.1367,0 -44.34377,14.390662 -44.34377,64.480462 0,49.8676 23.73047,64.7306 44.34377,64.7306 19.8984,0 44.3476,-14.383 44.3476,-64.7306" /><path
           inkscape:connector-curvature="0"
           id="path58"
           style="fill:#171717;fill-opacity:1;fill-rule:nonzero;stroke:none"
           d="m 161.063,128.012 78.628,0 0,-14.383 -62.562,0 0,-37.3985 52.496,0 0,-14.3789 -52.496,0 0,-58.73051 -16.066,0 0,124.89091" /><path
           inkscape:connector-curvature="0"
           id="path60"
           style="fill:#171717;fill-opacity:1;fill-rule:nonzero;stroke:none"
           d="m 461.5,88.6992 23.496,0 c 13.899,0 22.527,10.3125 22.527,31.8828 0,20.859 -10.062,28.047 -26.367,28.047 l -19.656,0 0,-59.9298 z m -16.062,74.3128 43.152,0 c 15.82,0 35.719,-13.66 35.719,-42.43 0,-19.66 -7.914,-38.3632 -27.571,-45.0703 L 529.82,6.96094 515.438,0 479.48,74.3086 l -17.98,0 0,-71.18751 -16.062,0 0,159.89091" /><path
           inkscape:connector-curvature="0"
           id="path62"
           style="fill:#171717;fill-opacity:1;fill-rule:nonzero;stroke:none"
           d="m 588.109,128.012 77.907,0 0,-14.383 -61.844,0 0,-37.3985 51.058,0 0,-14.3789 -51.058,0 0,-44.3516 61.844,0 0,-14.37891 -77.907,0 0,124.89091" /><path
           inkscape:connector-curvature="0"
           id="path64"
           style="fill:#171717;fill-opacity:1;fill-rule:nonzero;stroke:none"
           d="m 740.129,42.6719 c 3.113,-15.3399 10.547,-26.6016 27.328,-26.6016 13.184,0 23.488,7.1914 23.488,21.0899 0,15.3398 -12.941,19.1718 -25.168,24.2109 -18.218,7.668 -35.48,12.4609 -35.48,35.9609 0,21.09 17.023,32.84 36.676,32.84 20.859,0 33.082,-11.992 38.117,-31.4103 l -15.344,-4.5508 c -2.875,12.2301 -9.348,20.8481 -23.012,20.8481 -10.308,0 -20.379,-5.27 -20.379,-16.5277 0,-11.75 7.196,-15.1094 16.786,-19.4219 l 26.605,-11.7383 c 11.27,-6.2422 17.262,-16.3125 17.262,-29.25 0,-23.7305 -16.539,-37.160162 -39.551,-37.160162 -23.258,0 -37.879,14.859362 -41.715,37.160162 l 14.387,4.5508" /><path
           inkscape:connector-curvature="0"
           id="path66"
           style="fill:#171717;fill-opacity:1;fill-rule:nonzero;stroke:none"
           d="m 875.844,128.012 77.906,0 0,-14.383 -61.848,0 0,-37.3985 51.063,0 0,-14.3789 -51.063,0 0,-44.3516 61.848,0 0,-14.37891 -77.906,0 0,124.89091" /><path
           inkscape:connector-curvature="0"
           id="path68"
           style="fill:#171717;fill-opacity:1;fill-rule:nonzero;stroke:none"
           d="m 1053.99,109.309 -17.74,-57.7699 35.48,0 -17.74,57.7699 z M 1031.93,37.1602 1020.19,0 l -15.82,5.76172 39.31,122.25028 20.62,0 L 1103.61,5.76172 1087.79,0 l -11.51,37.1602 -44.35,0" /><path
           inkscape:connector-curvature="0"
           id="path70"
           style="fill:#171717;fill-opacity:1;fill-rule:nonzero;stroke:none"
           d="m 1198.81,70.9609 c 15.58,0 25.89,8.8711 25.89,23.0079 0,11.2692 -6.71,19.6602 -21.1,19.6602 l -25.89,0 0,-42.6681 21.1,0 z m -37.15,57.0511 42.43,0 c 20.85,0 37.39,-9.832 37.39,-34.0432 0,-15.3399 -10.31,-30.4375 -25.41,-35 L 1246.75,8.39063 1232.85,0 l -31.88,56.582 -23.26,0 0,-53.46091 -16.05,0 0,124.89091" /><path
           inkscape:connector-curvature="0"
           id="path72"
           style="fill:#171717;fill-opacity:1;fill-rule:nonzero;stroke:none"
           d="m 1386.54,27.0898 c -10.07,-15.8203 -22.05,-26.128862 -41.46,-26.128862 -36.44,0 -47.95,33.570362 -47.95,64.480462 0,49.8676 26.37,64.7306 46.5,64.7306 19.43,0 30.69,-10.07 39.56,-26.613 l -14.63,-7.4301 c -5.27,10.0701 -12.46,18.9301 -24.68,18.9301 -24.93,0 -29.97,-30.1996 -29.97,-49.3676 0,-19.4297 4.56,-49.6211 29.97,-49.6211 14.62,0 22.05,8.8711 29.48,20.1289 l 13.18,-9.1094" /><path
           inkscape:connector-curvature="0"
           id="path74"
           style="fill:#171717;fill-opacity:1;fill-rule:nonzero;stroke:none"
           d="m 1444.83,128.012 16.07,0 0,-51.7815 49.37,0 0,51.7815 16.07,0 0,-124.89091 -16.07,0 0,58.73051 -49.37,0 0,-58.73051 -16.07,0 0,124.89091" /><path
           inkscape:connector-curvature="0"
           id="path76"
           style="fill:#171717;fill-opacity:1;fill-rule:nonzero;stroke:none"
           d="m 1773.56,141.672 -0.47,0 -17.75,-74.7931 35.96,0 -17.74,74.7931 z M 1751.5,52.5 1739.04,0 l -15.82,4.32031 40.51,158.69169 19.18,0 L 1823.42,4.32031 1807.6,0 l -12.46,52.5 -43.64,0" /><path
           inkscape:connector-curvature="0"
           id="path78"
           style="fill:#171717;fill-opacity:1;fill-rule:nonzero;stroke:none"
           d="m 1918.14,70.9609 c 15.59,0 25.89,8.8711 25.89,23.0079 0,11.2692 -6.71,19.6602 -21.09,19.6602 l -25.89,0 0,-42.6681 21.09,0 z m -37.15,57.0511 42.43,0 c 20.86,0 37.4,-9.832 37.4,-34.0432 0,-15.3399 -10.31,-30.4375 -25.41,-35 L 1966.09,8.39063 1952.19,0 l -31.89,56.582 -23.25,0 0,-53.46091 -16.06,0 0,124.89091" /><path
           inkscape:connector-curvature="0"
           id="path80"
           style="fill:#171717;fill-opacity:1;fill-rule:nonzero;stroke:none"
           d="m 2053.39,113.629 -34.52,0 0,14.383 84.37,0 0,-14.383 -33.8,0 0,-110.50791 -16.05,0 0,110.50791" /><path
           inkscape:connector-curvature="0"
           id="path82"
           style="fill:#171717;fill-opacity:1;fill-rule:nonzero;stroke:none"
           d="m 2170.64,128.012 77.91,0 0,-14.383 -61.85,0 0,-37.3985 51.06,0 0,-14.3789 -51.06,0 0,-44.3516 61.85,0 0,-14.37891 -77.91,0 0,124.89091" /><path
           inkscape:connector-curvature="0"
           id="path84"
           style="fill:#171717;fill-opacity:1;fill-rule:nonzero;stroke:none"
           d="m 2319.06,128.012 78.64,0 0,-14.383 -62.57,0 0,-37.3985 52.5,0 0,-14.3789 -52.5,0 0,-58.73051 -16.07,0 0,124.89091" /><path
           inkscape:connector-curvature="0"
           id="path86"
           style="fill:#171717;fill-opacity:1;fill-rule:nonzero;stroke:none"
           d="m 2492.65,109.309 -17.74,-57.7699 35.48,0 -17.74,57.7699 z M 2470.6,37.1602 2458.85,0 l -15.82,5.76172 39.31,122.25028 20.62,0 L 2542.27,5.76172 2526.45,0 l -11.51,37.1602 -44.34,0" /><path
           inkscape:connector-curvature="0"
           id="path88"
           style="fill:#171717;fill-opacity:1;fill-rule:nonzero;stroke:none"
           d="m 2681.34,27.0898 c -10.07,-15.8203 -22.05,-26.128862 -41.47,-26.128862 -36.43,0 -47.95,33.570362 -47.95,64.480462 0,49.8676 26.38,64.7306 46.51,64.7306 19.42,0 30.68,-10.07 39.56,-26.613 l -14.63,-7.4301 c -5.27,10.0701 -12.46,18.9301 -24.69,18.9301 -24.93,0 -29.96,-30.1996 -29.96,-49.3676 0,-19.4297 4.55,-49.6211 29.96,-49.6211 14.62,0 22.05,8.8711 29.48,20.1289 l 13.19,-9.1094" /><path
           inkscape:connector-curvature="0"
           id="path90"
           style="fill:#171717;fill-opacity:1;fill-rule:nonzero;stroke:none"
           d="m 2772.71,113.629 -34.52,0 0,14.383 84.38,0 0,-14.383 -33.8,0 0,-110.50791 -16.06,0 0,110.50791" /><path
           inkscape:connector-curvature="0"
           id="path92"
           style="fill:#171717;fill-opacity:1;fill-rule:nonzero;stroke:none"
           d="m 2898.12,42.6719 c 3.12,-15.3399 10.55,-26.6016 27.33,-26.6016 13.18,0 23.49,7.1914 23.49,21.0899 0,15.3398 -12.94,19.1718 -25.17,24.2109 -18.22,7.668 -35.48,12.4609 -35.48,35.9609 0,21.09 17.02,32.84 36.68,32.84 20.85,0 33.08,-11.992 38.12,-31.4103 l -15.35,-4.5508 c -2.88,12.2301 -9.35,20.8481 -23.01,20.8481 -10.31,0 -20.37,-5.27 -20.37,-16.5277 0,-11.75 7.18,-15.1094 16.77,-19.4219 l 26.61,-11.7383 C 2959,61.1289 2965,51.0586 2965,38.1211 c 0,-23.7305 -16.54,-37.160162 -39.55,-37.160162 -23.25,0 -37.88,14.859362 -41.71,37.160162 l 14.38,4.5508" /></g><g
         id="g4234"><path
           inkscape:connector-curvature="0"
           id="path14"
           style="fill:#171717;fill-opacity:1;fill-rule:nonzero;stroke:none"
           d="m 217.734,938.441 c -9.019,40.254 -28.73,80.509 -75.57,80.509 -51.7773,0 -72.3242,-41.891 -72.3242,-87.927 0,-44.363 9.0508,-58.328 95.3122,-110.082 67.383,-40.285 113.403,-73.961 113.403,-158.617 0,-86.261 -46.02,-154.476 -138.043,-154.476 C 43.543,507.848 8.21875,571.957 0,659.051 l 55.0547,7.383 c 7.4023,-60.805 20.5469,-106.805 87.1093,-106.805 47.641,0 81.332,32.035 81.332,97.781 0,72.301 -46.836,96.953 -103.531,129.824 -63.2736,36.985 -105.1837,63.278 -105.1837,143.789 0,73.967 49.3125,139.707 127.3827,139.707 77.238,0 115.024,-55.05 128.988,-124.07 l -53.418,-8.219" /><path
           inkscape:connector-curvature="0"
           id="path16"
           style="fill:#171717;fill-opacity:1;fill-rule:nonzero;stroke:none"
           d="m 622.852,990.191 -1.668,0 -60.801,-256.375 123.254,0 -60.785,256.375 z m -75.602,-305.683 -40.195,-169.25 -58.055,0 140.145,548.102 65.75,0 140.14,-548.102 -58.055,0 -40.195,169.25 -149.535,0" /><path
           inkscape:connector-curvature="0"
           id="path18"
           style="fill:#171717;fill-opacity:1;fill-rule:nonzero;stroke:none"
           d="m 1056.82,808.59 80.54,0 c 47.64,0 77.24,35.34 77.24,109.305 0,71.496 -34.51,96.145 -90.4,96.145 l -67.38,0 0,-205.45 z m -55.05,254.77 147.92,0 c 54.22,0 122.42,-46.85 122.42,-145.465 0,-67.383 -27.11,-131.493 -94.49,-154.477 l 119.48,-248.16 -61.6,0 -117.05,244.047 -61.63,0 0,-244.047 -55.05,0 0,548.102" /><path
           inkscape:connector-curvature="0"
           id="path20"
           style="fill:#171717;fill-opacity:1;fill-rule:nonzero;stroke:none"
           d="m 1609.15,990.191 -1.64,0 -60.84,-256.375 123.28,0 -60.8,256.375 z m -75.61,-305.683 -39.33,-169.25 -59.78,0 141.01,548.102 65.74,0 139.9,-548.102 -57.78,0 -40.19,169.25 -149.57,0" /><path
           inkscape:connector-curvature="0"
           id="path94"
           style="fill:#bddd1f;fill-opacity:1;fill-rule:nonzero;stroke:none"
           d="m 2859.03,1408.09 -466.16,0 c -51.59,0 -93.78,-42.19 -93.78,-93.77 l 0,-466.179 c 0,-51.575 42.19,-93.766 93.78,-93.766 l 466.16,0 c 51.57,0 93.75,42.191 93.75,93.766 l 0,466.179 c 0,51.58 -42.18,93.77 -93.75,93.77 l 0,0 z m 0,-46.89 c 25.84,0 46.88,-21.02 46.88,-46.88 l 0,-466.179 c 0,-25.852 -21.04,-46.875 -46.88,-46.875 l -466.16,0 c -25.86,0 -46.9,21.023 -46.9,46.875 l 0,466.179 c 0,25.86 21.04,46.88 46.9,46.88 l 466.16,0" /><path
           inkscape:connector-curvature="0"
           id="path96"
           style="fill:#86a5b7;fill-opacity:1;fill-rule:nonzero;stroke:none"
           d="m 2756.39,1288.6 -466.17,0 c -51.59,0 -93.77,-42.19 -93.77,-93.77 l 0,-466.189 c 0,-51.571 42.18,-93.762 93.77,-93.762 l 466.17,0 c 51.56,0 93.75,42.191 93.75,93.762 l 0,466.189 c 0,51.58 -42.19,93.77 -93.75,93.77 l 0,0 z m 0,-46.89 c 25.84,0 46.87,-21.03 46.87,-46.88 l 0,-466.189 c 0,-25.84 -21.03,-46.875 -46.87,-46.875 l -466.17,0 c -25.86,0 -46.9,21.035 -46.9,46.875 l 0,466.189 c 0,25.85 21.04,46.88 46.9,46.88 l 466.17,0" /><path
           inkscape:connector-curvature="0"
           id="path98"
           style="fill:#b45865;fill-opacity:1;fill-rule:nonzero;stroke:none"
           d="m 2653.61,1167.85 -466.16,0 c -51.58,0 -93.78,-42.19 -93.78,-93.76 l 0,-466.192 c 0,-51.57 42.2,-93.761 93.78,-93.761 l 466.16,0 c 51.57,0 93.76,42.191 93.76,93.761 l 0,466.192 c 0,51.57 -42.19,93.76 -93.76,93.76 l 0,0 z m 0,-46.89 c 25.84,0 46.88,-21.02 46.88,-46.87 l 0,-466.192 c 0,-25.847 -21.04,-46.875 -46.88,-46.875 l -466.16,0 c -25.86,0 -46.9,21.028 -46.9,46.875 l 0,466.192 c 0,25.85 21.04,46.87 46.9,46.87 l 466.16,0" /></g></g></g></svg>