<?xml version="1.0" encoding="UTF-8" standalone="no"?>
<svg xmlns="http://www.w3.org/2000/svg" version="1.1" viewBox="0 0 777.995 112.53025">
<path d="m416.11 56.787c-0.32959-1.4674-1.0488-2.9361-2.7568-2.9361-1.8877 0-2.6372 1.5284-2.6372 3.2061 0 1.6186.32959 2.1274 3.4761 4.0151 2.4575 1.4672 4.1352 2.6972 4.1352 5.7822 0 3.1474-1.6777 5.6338-5.0342 5.6338-3.5356 0-4.8242-2.3374-5.124-5.5136l2.0083-0.27c0.26904 2.2188.74903 3.8964 3.1758 3.8964 1.7378 0 2.9668-1.1689 2.9668-3.5664 0-2.6362-1.7085-3.5351-3.7759-4.7339-2.3071-1.3486-3.8354-2.3076-3.8354-5.2436 0-2.6972 1.7983-5.0952 4.6445-5.0952 2.8164 0 4.1953 2.0088 4.7046 4.5264l-1.9478.29888m11.661 7.6411c0 2.2764.41988 6.1728 3.4458 6.1728 3.0269 0 3.4462-3.8964 3.4462-6.1728 0-2.3071-0.41937-6.2022-3.4462-6.2022-3.0259 0-3.4458 3.8951-3.4458 6.2022zm8.9893 0c0 1.2588-0.0899 8.06-5.5435 8.06-2.5171 0-5.543-1.7974-5.543-8.06 0-6.2325 2.9664-8.0914 5.543-8.0914 2.4874 0 5.5435 1.7989 5.5435 8.0914m8.7246-7.8214h9.8281v1.7989h-7.8204v4.6739h6.562v1.7972h-6.562v7.3414h-2.0078v-15.611m20.74 1.7989h-4.315v-1.7989h10.548v1.7989h-4.2256v13.812h-2.0072v-13.812m14.807-2.1875 1.1982 10.966h0.06l2.6069-7.6714h0.53962l2.6064 7.6714h0.0601l1.2285-10.966 2.0381.23875-2.2476 16.151h-0.68937l-3.2661-9.6176-3.2656 9.6176h-0.6895l-2.247-16.151 2.0674-0.23875m22.118 2.7265-2.2172 7.2222h4.4345zm-2.7569 9.0186-1.4678 4.645-1.9775-0.71875 4.9135-15.283h2.5773l4.9145 15.283-1.978.71875-1.438-4.645h-5.544m20.861-4.2251c1.9472 0 3.2359-1.1074 3.2359-2.875 0-1.4086-0.83937-2.4575-2.6372-2.4575h-3.2364v5.3325zm-4.645-7.1314h5.3036c2.607 0 4.6744 1.23 4.6744 4.2564 0 1.9175-1.2886 3.8038-3.1762 4.375l3.8354 6.3212-1.7378 1.0489-3.9854-7.0712h-2.9068v6.6811h-2.0072v-15.611m18.223 0h9.7388v1.7989h-7.7312v4.6739h6.3825v1.7972h-6.3825v5.544h7.7312v1.7974h-9.7388v-15.611m40.281-1.7075h-0.06l-2.2175 9.3491h4.495zm-2.7562 11.146-1.5588 6.5625-1.9775-0.54 5.0638-19.836h2.3975l5.0638 19.836-1.9775.54-1.5575-6.5625h-5.4538m20.829-2.3076c1.9488 0 3.2362-1.1074 3.2362-2.875 0-1.4086-0.83875-2.4575-2.6362-2.4575h-3.2362v5.3325zm-4.645-7.1314h5.305c2.6075 0 4.675 1.23 4.675 4.2564 0 1.9175-1.2888 3.8038-3.1762 4.375l3.835 6.3212-1.7375 1.0489-3.9862-7.0712h-2.9062v6.6811h-2.0088v-15.611m28.112 12.615c-1.2588 1.9775-2.7562 3.2661-5.1838 3.2661-4.5538 0-5.9938-4.1949-5.9938-8.06 0-6.2325 3.2962-8.0914 5.8138-8.0914 2.4275 0 3.835 1.2588 4.945 3.3276l-1.8288.92875c-0.65875-1.2588-1.5575-2.3672-3.0862-2.3672-3.1162 0-3.745 3.7759-3.745 6.1724 0 2.4272.56875 6.2026 3.745 6.2026 1.8275 0 2.7562-1.1089 3.685-2.5165l1.6488 1.1376m7.2862-12.615h2.0075v6.4728h6.1725v-6.4728h2.0075v15.611h-2.0075v-7.3414h-6.1725v7.3414h-2.0075v-15.611m19.871 13.814h2.1862v-12.015h-2.1862v-1.7989h6.4125v1.7989h-2.2175v12.015h2.2175v1.7974h-6.4125v-1.7974m25.445-14.203 1.9175.71875-5.9938 15.671h-0.35875l-5.9938-15.671 1.9175-0.71875 4.255 11.446 4.2562-11.446m10.522 14.203h2.1862v-12.015h-2.1862v-1.7989h6.4125v1.7989h-2.2188v12.015h2.2188v1.7974h-6.4125v-1.7974m15.975-13.814h2.4862l6.0538 13.155.06-0.06-0.18-4.0464v-9.0489h2.0075v15.611h-2.4862l-6.0538-13.154-0.06.06013.18 4.0751v9.0186h-2.0075v-15.611m28.469 14.174c-1.2875 1.019-3.205 1.7075-4.7938 1.7075-4.585 0-5.9025-4.2549-5.9025-8.0899 0-3.7764 1.3775-8.0615 5.8438-8.0615 2.0962 0 3.9238 1.23 5.0038 2.9976l-1.7088 1.1089c-0.74875-1.2589-1.8875-2.2174-3.415-2.2174-3.0875 0-3.6262 3.8648-3.6262 6.231 0 2.4288.53875 6.144 3.6862 6.144 1.0175 0 2.0375-0.269 2.9062-0.809v-4.105h-3.7462v-1.7989h5.7525v6.8926m-314.43 23.772c0 2.2764.41991 6.1714 3.4458 6.1714 3.0268 0 3.4463-3.895 3.4463-6.1714 0-2.3071-0.41944-6.2022-3.4463-6.2022-3.0259 0-3.4458 3.8951-3.4458 6.2022zm8.9892 0c0 1.2578-0.0898 8.0601-5.5434 8.0601-2.5171 0-5.543-1.7988-5.543-8.0601 0-6.2334 2.9663-8.0913 5.543-8.0913 2.4873 0 5.5434 1.7979 5.5434 8.0913m8.7242-7.8213h9.8285v1.7979h-7.8202v4.6748h6.562v1.7974h-6.562v7.3413h-2.0082v-15.611m37.555 4.9141h2.937c1.7374 0 2.8159-1.2891 2.8159-3.9854 0-2.6074-1.2578-3.5059-3.2959-3.5059h-2.457zm-2.0078-9.2891h5.394c1.9775 0 4.4649 1.7075 4.4649 5.3038 0 2.4575-0.98926 4.7954-3.4464 5.6338l4.1352 8.5688-1.7978.87012-4.4948-9.2886h-2.2475v8.8984h-2.0078v-19.986m17.834 4.375h9.7384v1.7979h-7.7305v4.6748h6.3822v1.7974h-6.3822v5.544h7.7305v1.7974h-9.7384v-15.611m19.002 10.668c0.38913 1.9175 1.3184 3.3252 3.416 3.3252 1.648 0 2.936-0.89892 2.936-2.6362 0-1.9175-1.6176-2.3965-3.146-3.0264-2.2772-0.9585-4.435-1.5576-4.435-4.4951 0-2.6362 2.1279-4.105 4.5845-4.105 2.6074 0 4.1352 1.499 4.7646 3.9263l-1.918.56885c-0.35937-1.5288-1.1685-2.606-2.8765-2.606-1.2885 0-2.5474.65875-2.5474 2.066 0 1.4688.8995 1.8887 2.0982 2.4277l3.3256 1.4673c1.4088.78028 2.1578 2.0391 2.1578 3.6562 0 2.9663-2.0674 4.645-4.9439 4.645-2.9072 0-4.7349-1.8574-5.2144-4.645l1.7984-0.56885m16.964-10.668h9.7382v1.7979h-7.731v4.6748h6.3829v1.7974h-6.3829v5.544h7.731v1.7974h-9.7382v-15.611m22.268 2.3379-2.2175 7.2212h4.435zm-2.7575 9.0186-1.4675 4.645-1.9775-0.72022 4.9138-15.281h2.5775l4.9138 15.281-1.9775.72022-1.4388-4.645h-5.5438m20.86-4.2251c1.9475 0 3.2362-1.1089 3.2362-2.876 0-1.4086-0.83875-2.4575-2.6375-2.4575h-3.2362v5.3335zm-4.6438-7.1314h5.3038c2.6062 0 4.6738 1.229 4.6738 4.2554 0 1.9175-1.2888 3.8047-3.1762 4.375l3.835 6.3223-1.7375 1.0488-3.985-7.0728h-2.9075v6.6826h-2.0062v-15.611m28.11 12.615c-1.2588 1.9775-2.7562 3.2661-5.1825 3.2661-4.555 0-5.9938-4.1963-5.9938-8.0601 0-6.2334 3.2962-8.0913 5.8125-8.0913 2.4288 0 3.8362 1.2588 4.945 3.3266l-1.8288.92876c-0.65875-1.2588-1.5575-2.3663-3.085-2.3663-3.1162 0-3.7462 3.775-3.7462 6.171 0 2.4287.57 6.2026 3.7462 6.2026 1.8275 0 2.7562-1.1089 3.685-2.5161l1.6475 1.1387m7.2862-12.615h2.0088v6.4727h6.1712v-6.4727h2.0088v15.611h-2.0088v-7.3413h-6.1712v7.3413h-2.0088v-15.611m41.091-1.7075h-0.0588l-2.2188 9.3491h4.495zm-2.7575 11.146-1.5575 6.5625-1.9775-0.54004 5.0638-19.836h2.3975l5.0638 19.836-1.9775.54004-1.5575-6.5625h-5.455m20.83-2.3076c1.9488 0 3.2362-1.1089 3.2362-2.876 0-1.4086-0.83875-2.4575-2.6362-2.4575h-3.2362v5.3335zm-4.6438-7.1314h5.3038c2.6075 0 4.675 1.229 4.675 4.2554 0 1.9175-1.2888 3.8047-3.1762 4.375l3.835 6.3223-1.7375 1.0488-3.9862-7.0728h-2.9062v6.6826h-2.0075v-15.611m21.55 1.7979h-4.315v-1.7979h10.546v1.7979h-4.225v13.813h-2.0062v-13.813m14.656-1.7979h9.7388v1.7979h-7.7312v4.6748h6.3825v1.7974h-6.3825v5.544h7.7312v1.7974h-9.7388v-15.611m18.552 0h9.83v1.7979h-7.8212v4.6748h6.5625v1.7974h-6.5625v7.3413h-2.0088v-15.611m21.699 2.3379-2.2175 7.2212h4.435zm-2.7562 9.0186-1.4688 4.645-1.9775-0.72022 4.9138-15.281h2.5775l4.9138 15.281-1.9775.72022-1.4388-4.645h-5.5425m26.342 1.2588c-1.2588 1.9775-2.7562 3.2661-5.1838 3.2661-4.5538 0-5.9938-4.1963-5.9938-8.0601 0-6.2334 3.2975-8.0913 5.8138-8.0913 2.4275 0 3.835 1.2588 4.945 3.3266l-1.8288.92876c-0.65875-1.2588-1.5575-2.3663-3.0862-2.3663-3.1162 0-3.745 3.775-3.745 6.171 0 2.4287.56875 6.2026 3.745 6.2026 1.8275 0 2.7562-1.1089 3.685-2.5161l1.6488 1.1387m11.421-10.817h-4.315v-1.7979h10.548v1.7979h-4.225v13.813h-2.0075v-13.813m15.676 8.8696c0.39 1.9175 1.3188 3.3252 3.4162 3.3252 1.6475 0 2.9362-0.89892 2.9362-2.6362 0-1.9175-1.6175-2.3965-3.1462-3.0264-2.2775-0.9585-4.435-1.5576-4.435-4.4951 0-2.6362 2.1275-4.105 4.585-4.105 2.6062 0 4.135 1.499 4.765 3.9263l-1.9188.56885c-0.36-1.5288-1.1688-2.606-2.8762-2.606-1.2888 0-2.5462.65875-2.5462 2.066 0 1.4688.8975 1.8887 2.0962 2.4277l3.3262 1.4673c1.4075.78028 2.1575 2.0391 2.1575 3.6562 0 2.9663-2.0675 4.645-4.9438 4.645-2.9062 0-4.735-1.8574-5.2138-4.645l1.7975-0.56885m-742.42-38.693c-1.1274-5.0318-3.5912-10.064-9.4462-10.064-6.4722 0-9.0405 5.2364-9.0405 10.991 0 5.5454 1.1314 7.291 11.914 13.76 8.4229 5.0356 14.175 9.2451 14.175 19.827 0 10.783-5.7525 19.31-17.255 19.31-12.121 0-16.537-8.0136-17.564-18.9l6.8818-0.92288c0.92529 7.6006 2.5684 13.351 10.889 13.351 5.9551 0 10.166-4.0044 10.166-12.223 0-9.0376-5.8545-12.119-12.941-16.228-7.9092-4.6231-13.148-7.9098-13.148-17.974 0-9.2459 6.1641-17.463 15.923-17.463 9.6548 0 14.378 6.8812 16.124 15.509l-6.6772 1.0274m50.64-6.4688h-0.2085l-7.6001 32.047h15.407zm-9.4502 38.21-5.0244 21.156h-7.2569l17.518-68.513h8.2188l17.518 68.513h-7.2569l-5.0244-21.156h-18.692m63.696-15.51h10.068c5.955 0 9.655-4.4175 9.655-13.663 0-8.937-4.3138-12.018-11.3-12.018h-8.4225zm-6.8812-31.846h18.49c6.7775 0 15.302 5.8562 15.302 18.183 0 8.4229-3.3888 16.437-11.811 19.31l14.935 31.02h-7.7l-14.631-30.506h-7.7038v30.506h-6.8812v-68.513m75.922 9.1461h-0.205l-7.605 32.047h15.41zm-9.4512 38.21-4.9162 21.156h-7.4725l17.626-68.513h8.2175l17.488 68.513h-7.2225l-5.0238-21.156h-18.696" style="fill:#171717"/>
<path d="m357.38 0h-58.27c-6.4488 0-11.722 5.2738-11.722 11.721v58.272c0 6.4469 5.2738 11.721 11.722 11.721h58.27c6.4462 0 11.719-5.2739 11.719-11.721v-58.272c0-6.4475-5.2725-11.721-11.719-11.721zm0 5.8612c3.23 0 5.86 2.6275 5.86 5.86v58.272c0 3.2315-2.63 5.8594-5.86 5.8594h-58.27c-3.2325 0-5.8625-2.6279-5.8625-5.8594v-58.272c0-3.2325 2.63-5.86 5.8625-5.86h58.27" style="fill:#bddd1f"/>
<path d="m344.55 14.936h-58.271c-6.4488 0-11.721 5.2738-11.721 11.721v58.274c0 6.4464 5.2725 11.72 11.721 11.72h58.271c6.445 0 11.719-5.2739 11.719-11.72v-58.274c0-6.4475-5.2738-11.721-11.719-11.721zm0 5.8612c3.23 0 5.8588 2.6288 5.8588 5.86v58.274c0 3.23-2.6288 5.8594-5.8588 5.8594h-58.271c-3.2325 0-5.8625-2.6294-5.8625-5.8594v-58.274c0-3.2312 2.63-5.86 5.8625-5.86h58.271" style="fill:#86a5b7"/>
<path d="m331.7 30.03h-58.27c-6.4475 0-11.722 5.2738-11.722 11.72v58.274c0 6.4462 5.275 11.72 11.722 11.72h58.27c6.4462 0 11.72-5.2739 11.72-11.72v-58.274c0-6.4462-5.2738-11.72-11.72-11.72zm0 5.8612c3.23 0 5.86 2.6275 5.86 5.8588v58.274c0 3.2309-2.63 5.8594-5.86 5.8594h-58.27c-3.2325 0-5.8625-2.6285-5.8625-5.8594v-58.274c0-3.2312 2.63-5.8588 5.8625-5.8588h58.27" style="fill:#b45865"/>
</svg>
